<?xml version="1.0" encoding="utf-8"?>
<!-- Generator: Adobe Illustrator 21.0.0, SVG Export Plug-In . SVG Version: 6.00 Build 0)  -->
<svg version="1.1" id="Camada_1" xmlns="http://www.w3.org/2000/svg" xmlns:xlink="http://www.w3.org/1999/xlink" x="0px" y="0px"
	 viewBox="0 0 806.1 489.3" style="enable-background:new 0 0 806.1 489.3;" xml:space="preserve">
<g>
	<g>
		<g>
			<g>
				<g>
					<g>
						<path d="M196.5,359.7c0,47-28.6,71.9-63.4,71.9c-36.1,0-61.4-28-61.4-69.3c0-43.4,27-71.7,63.4-71.7
							C172.4,290.6,196.5,319.2,196.5,359.7z M90.5,361.9c0,29.2,15.8,55.3,43.6,55.3c28,0,43.8-25.7,43.8-56.7
							c0-27.2-14.2-55.5-43.6-55.5C105.1,305,90.5,331.9,90.5,361.9z"/>
						<path d="M323.4,423.3c-7.9,2.8-23.5,7.5-41.9,7.5c-20.7,0-37.7-5.3-51.1-18c-11.8-11.3-19-29.6-19-50.9
							c0.2-40.7,28.2-70.5,74-70.5c15.8,0,28.2,3.4,34,6.3l-4.3,14.4c-7.3-3.2-16.4-5.9-30.2-5.9c-33.2,0-54.9,20.7-54.9,54.9
							c0,34.7,20.9,55.1,52.7,55.1c11.6,0,19.5-1.6,23.5-3.6v-40.7h-27.8v-14.2h45V423.3z"/>
						<path d="M367.9,292.8v136.6h-17.6V292.8H367.9z"/>
						<path d="M424.7,307.8h-41.5v-15h101.1v15h-41.7v121.6h-17.8V307.8z"/>
						<path d="M506.4,386.4l-14.2,43h-18.2l46.4-136.6h21.3l46.6,136.6h-18.8l-14.6-43H506.4z M551.1,372.6l-13.4-39.3
							c-3-8.9-5.1-17-7.1-24.9h-0.4c-2,8.1-4.3,16.4-6.9,24.7L510,372.6H551.1z"/>
						<path d="M608.3,294.6c8.9-1.8,21.7-2.8,33.8-2.8c18.8,0,31,3.4,39.5,11.1c6.9,6.1,10.7,15.4,10.7,25.9c0,18-11.3,30-25.7,34.9
							v0.6c10.5,3.6,16.8,13.4,20.1,27.6c4.5,19,7.7,32.2,10.5,37.5H679c-2.2-3.9-5.3-15.6-9.1-32.6c-4.1-18.8-11.3-25.9-27.4-26.5
							h-16.6v59.2h-17.6V294.6z M625.9,356.8h18c18.8,0,30.8-10.3,30.8-25.9c0-17.6-12.8-25.3-31.4-25.5c-8.5,0-14.6,0.8-17.4,1.6
							V356.8z"/>
						<path d="M788,365.4h-53.1v49.2h59.2v14.8h-76.8V292.8h73.8v14.8h-56.1v43.2H788V365.4z"/>
						<g>
							<path d="M30.6,361.7c0-32.4,17.4-52.3,44.4-55.8c7.5-6.8,16.5-11.5,26.6-13.8c-5-0.9-11.1-1.6-18.3-1.6
								c-42.4,0-71.3,29-71.3,71.7c0,44.8,29,69.1,67.5,69.1c7.3,0,13.8-0.6,19.4-1.6c-9.9-2.4-18.5-7.2-25.6-13.9
								C46.1,412,30.6,391.7,30.6,361.7z"/>
						</g>
					</g>
				</g>
			</g>
			<g>
				<path d="M636.7,467.7h-5.9c-0.5,0-0.9-0.2-1-0.7l-4-15.8l-4,15.8c-0.1,0.5-0.4,0.7-0.9,0.7h-5.9c-0.5,0-0.7-0.2-0.9-0.7
					l-5.9-24.6c-0.1-0.5,0-0.7,0.5-0.7h5.4c0.5,0,0.8,0.2,0.9,0.7l3.3,15.5l4-15.7c0.1-0.3,0.3-0.5,0.7-0.5h5.6
					c0.4,0,0.6,0.2,0.7,0.5l4,15.7l3.3-15.5c0.1-0.5,0.4-0.7,0.9-0.7h5.4c0.4,0,0.6,0.2,0.5,0.7l-5.8,24.6
					C637.5,467.5,637.2,467.7,636.7,467.7z"/>
				<path d="M650.4,441.7h15c0.4,0,0.7,0.2,0.7,0.7v4.6c0,0.4-0.2,0.7-0.7,0.7h-9.5v4h8.2c0.4,0,0.7,0.2,0.7,0.7v4.5
					c0,0.5-0.2,0.7-0.7,0.7h-8.2v4h9.5c0.5,0,0.7,0.2,0.7,0.7v4.6c0,0.5-0.2,0.7-0.7,0.7h-15c-0.5,0-0.7-0.2-0.7-0.7v-24.6
					C649.7,441.9,649.9,441.7,650.4,441.7z"/>
				<path d="M677.1,467.7h-5c-0.5,0-0.6-0.2-0.5-0.7l7.6-24.6c0.1-0.5,0.4-0.7,0.8-0.7h6.4c0.4,0,0.7,0.2,0.8,0.7l7.6,24.6
					c0.1,0.2,0.1,0.4,0,0.5c-0.1,0.1-0.2,0.2-0.5,0.2h-5.1c-0.5,0-0.9-0.2-1-0.7l-1.2-4.2h-7.8l-1.1,4.2
					C678,467.5,677.6,467.7,677.1,467.7z M680.6,457.1h5.1l-2.6-8.3L680.6,457.1z"/>
				<path d="M715,458.3l5.4,8.7c0.3,0.5,0.2,0.7-0.4,0.7h-5.3c-0.6,0-1-0.2-1.2-0.7l-4.8-7.8h-1.6v7.8c0,0.5-0.2,0.7-0.7,0.7h-4.8
					c-0.5,0-0.7-0.2-0.7-0.7v-24.6c0-0.5,0.2-0.7,0.7-0.7h9.7c1.7,0,3.2,0.4,4.5,1.2s2.3,1.9,3,3.2c0.7,1.3,1,2.8,1,4.4
					c0,1-0.2,2-0.5,2.9c-0.3,0.9-0.8,1.7-1.3,2.3c-0.5,0.6-1.1,1.2-1.6,1.6S715.5,458,715,458.3z M709.9,447.3h-2.7v6.4h2.7
					c1.2,0,2.2-0.3,2.8-0.9c0.6-0.6,1-1.3,1-2.3c0-1-0.3-1.8-1-2.3C712.1,447.5,711.1,447.3,709.9,447.3z"/>
				<path d="M732.5,467.7h-4.8c-0.5,0-0.7-0.2-0.7-0.7v-24.6c0-0.5,0.2-0.7,0.7-0.7h4.8c0.4,0,0.7,0.2,0.7,0.7V467
					C733.2,467.5,733,467.7,732.5,467.7z"/>
				<path d="M764.1,467.7h-4.8c-0.5,0-0.9-0.2-1.2-0.7l-10.5-14.6V467c0,0.5-0.2,0.7-0.7,0.7H742c-0.5,0-0.7-0.2-0.7-0.7v-24.6
					c0-0.5,0.2-0.7,0.7-0.7h4.8c0.5,0,0.9,0.2,1.2,0.7l10.5,14.6v-14.6c0-0.5,0.2-0.7,0.7-0.7h4.8c0.5,0,0.7,0.2,0.7,0.7V467
					C764.8,467.5,764.5,467.7,764.1,467.7z"/>
				<path d="M788.1,461.5v-3.2H785c-0.5,0-0.7-0.2-0.7-0.7v-3.8c0-0.4,0.2-0.7,0.7-0.7h8.4c0.5,0,0.7,0.2,0.7,0.7v11.4
					c0,0.4-0.2,0.7-0.5,0.9c-2.5,1.3-5.3,2-8.6,2c-1.9,0-3.7-0.3-5.3-1c-1.7-0.7-3.1-1.6-4.2-2.8c-1.2-1.2-2.1-2.6-2.8-4.3
					c-0.7-1.7-1-3.4-1-5.3c0-2.5,0.6-4.8,1.7-6.9c1.1-2,2.7-3.6,4.8-4.8c2-1.1,4.3-1.7,6.9-1.7c2.6,0,5.1,0.7,7.5,2.2
					c0.5,0.2,0.6,0.6,0.3,1l-2.5,3.8c-0.2,0.3-0.4,0.5-0.6,0.5c-0.1,0-0.3-0.1-0.5-0.2c-1.2-0.8-2.6-1.3-4.2-1.3
					c-1.4,0-2.6,0.3-3.7,1c-1.1,0.7-2,1.6-2.5,2.7c-0.6,1.1-0.9,2.3-0.9,3.6c0,2,0.7,3.8,2.1,5.2c1.4,1.4,3.1,2.2,5.1,2.2
					C786.3,462.1,787.3,461.9,788.1,461.5z"/>
			</g>
		</g>
		<path d="M508,107.7c0,0.4-0.1,0.7-0.1,1.1c-3.8,41.6-40.7,72.3-82.3,68.5c-3.2-0.3-6.4-0.8-9.4-1.5c0.1-11,1.3-23.1,4.4-36
			c8.1-34.4,25.3-57.8,35-69.2c-46-1.2-81.1,24.5-95.1,54.3c-3-9.4-4.2-19.5-3.3-30c3.7-40.3,38.3-70.3,78.3-68.7
			c-15.2-4.8-31.9-6.4-49.4-3.8c-38.6,5.6-71.1,32.5-83.8,69.4c-23.8,69.2,23.9,137.4,92,143c56.9,4.7,108-36.9,114.9-93.6
			C510.6,129.7,510.1,118.4,508,107.7z"/>
	</g>
</g>
</svg>
