<?xml version="1.0" encoding="utf-8"?>
<!-- Generator: Adobe Illustrator 24.0.1, SVG Export Plug-In . SVG Version: 6.00 Build 0)  -->
<svg version="1.1" id="Camada_1" xmlns="http://www.w3.org/2000/svg" xmlns:xlink="http://www.w3.org/1999/xlink" x="0px" y="0px"
	 viewBox="0 0 195.99 80" style="enable-background:new 0 0 195.99 80;" xml:space="preserve">
<style type="text/css">
	.st0{fill:#ED539D;}
	.st1{fill:#8E8E8E;}
</style>
<path class="st0" d="M296.15-128.95c-0.3,0-0.6,0-0.9-0.1c0.3,0,0.5,0.1,0.8,0.1H296.15z"/>
<g>
	<g>
		<g>
			<path class="st1" d="M80.67,70h-0.32c-0.32,0-0.57-0.25-0.57-0.53v-6c0-0.28,0.25-0.53,0.57-0.53h3.39
				c0.32,0,0.57,0.25,0.57,0.53v0.35c0,0.28-0.25,0.53-0.57,0.53h-2.51v1.45h2.23c0.32,0,0.57,0.25,0.57,0.53v0.35
				c0,0.28-0.25,0.53-0.57,0.53h-2.23v2.33C81.24,69.75,80.99,70,80.67,70z"/>
			<path class="st1" d="M89.82,70h-3.39c-0.32,0-0.57-0.25-0.57-0.53v-6c0-0.28,0.25-0.53,0.57-0.53h3.39
				c0.32,0,0.57,0.25,0.57,0.53v0.35c0,0.28-0.25,0.53-0.57,0.53h-2.51v1.45h2.26c0.32,0,0.57,0.25,0.57,0.53v0.35
				c0,0.28-0.25,0.53-0.57,0.53h-2.26v1.45h2.51c0.32,0,0.57,0.25,0.57,0.53v0.35C90.38,69.75,90.14,70,89.82,70z"/>
			<path class="st1" d="M94.38,70c-0.71,0-1.34-0.21-1.84-0.6c-0.25-0.21-0.46-0.46-0.6-0.74c-0.07-0.14-0.07-0.28-0.04-0.42
				c0.07-0.14,0.18-0.25,0.32-0.32l0.32-0.11c0.25-0.11,0.57,0,0.71,0.25c0.07,0.14,0.21,0.25,0.39,0.35
				c0.21,0.11,0.46,0.18,0.71,0.18c0.18,0,0.35-0.04,0.53-0.07c0.14-0.04,0.28-0.11,0.35-0.18c0.07-0.07,0.14-0.14,0.21-0.25
				c0.04-0.11,0.07-0.21,0.07-0.32c0-0.14-0.04-0.25-0.14-0.35c-0.11-0.11-0.21-0.18-0.35-0.21l0,0l-1.41-0.28
				c-0.04,0-0.04,0-0.07,0c-0.46-0.11-0.85-0.35-1.17-0.71c-0.32-0.35-0.49-0.78-0.49-1.27c0-0.32,0.07-0.6,0.18-0.88
				c0.11-0.28,0.28-0.53,0.53-0.71c0.46-0.39,1.06-0.57,1.77-0.57c0.32,0,0.64,0.04,0.92,0.14c0.28,0.11,0.57,0.25,0.78,0.46
				c0.21,0.14,0.39,0.39,0.53,0.64c0.07,0.14,0.07,0.28,0.04,0.42s-0.18,0.25-0.32,0.28l-0.32,0.11c-0.25,0.11-0.53,0-0.67-0.25
				c-0.04-0.07-0.11-0.14-0.18-0.21c-0.07-0.07-0.18-0.11-0.32-0.18c-0.14-0.04-0.28-0.07-0.42-0.07c-0.18,0-0.32,0.04-0.46,0.07
				c-0.11,0.04-0.21,0.07-0.28,0.14c-0.07,0.07-0.14,0.14-0.18,0.25c-0.04,0.11-0.07,0.21-0.07,0.28c0,0.14,0.04,0.25,0.14,0.35
				c0.11,0.11,0.25,0.21,0.46,0.25l1.41,0.28c0.04,0,0.04,0.04,0.07,0.04c0.46,0.11,0.81,0.35,1.13,0.71
				c0.32,0.35,0.46,0.78,0.46,1.24c0,0.32-0.07,0.6-0.21,0.92c-0.14,0.28-0.32,0.53-0.57,0.74C95.75,69.82,95.12,70,94.38,70z"/>
			<path class="st1" d="M100.98,70h-0.35c-0.32,0-0.57-0.25-0.57-0.53v-5.16h-1.45c-0.32,0-0.57-0.25-0.57-0.53v-0.35
				c0-0.28,0.25-0.53,0.57-0.53h4.38c0.32,0,0.57,0.25,0.57,0.53v0.35c0,0.28-0.25,0.53-0.57,0.53h-1.45v5.16
				C101.55,69.75,101.3,70,100.98,70z"/>
			<path class="st1" d="M109.14,70h-0.35c-0.25,0-0.46-0.14-0.53-0.35l-0.57-1.52h-2.23l-0.6,1.52c-0.07,0.21-0.28,0.35-0.53,0.35
				h-0.32c-0.18,0-0.35-0.07-0.46-0.21s-0.14-0.32-0.07-0.49l2.3-6c0.07-0.21,0.28-0.35,0.53-0.35h0.53c0.25,0,0.46,0.14,0.53,0.35
				l2.26,6c0.04,0.07,0.04,0.11,0.04,0.21C109.7,69.75,109.42,70,109.14,70z M105.96,66.75h1.17l-0.6-1.52L105.96,66.75z"/>
			<path class="st1" d="M113.55,70c-0.71,0-1.34-0.21-1.84-0.6c-0.25-0.21-0.46-0.46-0.6-0.74c-0.07-0.14-0.07-0.28-0.04-0.42
				c0.07-0.14,0.18-0.25,0.32-0.32l0.32-0.11c0.25-0.11,0.57,0,0.71,0.25c0.07,0.14,0.21,0.25,0.39,0.35
				c0.21,0.11,0.46,0.18,0.71,0.18c0.18,0,0.35-0.04,0.53-0.07c0.14-0.04,0.28-0.11,0.35-0.18c0.07-0.07,0.14-0.14,0.21-0.25
				c0.04-0.11,0.07-0.21,0.07-0.32c0-0.14-0.04-0.25-0.14-0.35c-0.11-0.11-0.21-0.18-0.35-0.21l0,0l-1.41-0.28
				c-0.04,0-0.04,0-0.07,0c-0.46-0.11-0.85-0.35-1.17-0.71c-0.32-0.35-0.49-0.78-0.49-1.27c0-0.32,0.07-0.6,0.18-0.88
				s0.28-0.53,0.53-0.71c0.46-0.39,1.06-0.57,1.77-0.57c0.32,0,0.64,0.04,0.92,0.14c0.28,0.11,0.57,0.25,0.78,0.46
				c0.21,0.14,0.39,0.39,0.53,0.64c0.07,0.14,0.07,0.28,0.04,0.42s-0.18,0.25-0.32,0.28l-0.32,0.11c-0.25,0.11-0.53,0-0.67-0.25
				c-0.04-0.07-0.11-0.14-0.18-0.21c-0.07-0.07-0.18-0.11-0.32-0.18c-0.14-0.04-0.28-0.07-0.42-0.07c-0.18,0-0.32,0.04-0.46,0.07
				c-0.11,0.04-0.21,0.07-0.28,0.14c-0.07,0.07-0.14,0.14-0.18,0.25c-0.04,0.11-0.07,0.21-0.07,0.28c0,0.14,0.04,0.25,0.14,0.35
				c0.11,0.11,0.25,0.21,0.46,0.25l1.41,0.28c0.04,0,0.04,0.04,0.07,0.04c0.46,0.11,0.81,0.35,1.13,0.71
				c0.32,0.35,0.46,0.78,0.46,1.24c0,0.32-0.07,0.6-0.21,0.92c-0.14,0.28-0.32,0.53-0.57,0.74C114.93,69.82,114.3,70,113.55,70z"/>
		</g>
		<g>
			<g>
				<path class="st1" d="M166.71,22.92c0,0.99-0.81,1.8-1.8,1.8s-1.8-0.81-1.8-1.8s0.81-1.8,1.8-1.8S166.71,21.93,166.71,22.92
					L166.71,22.92z"/>
				<path class="st1" d="M186.38,36.48c0,0.99-0.81,1.8-1.8,1.8c-0.99,0-1.8-0.81-1.8-1.8c0-0.99,0.81-1.8,1.8-1.8
					C185.57,34.64,186.38,35.46,186.38,36.48L186.38,36.48z"/>
				<path class="st1" d="M192.18,26.13c0,1.73-1.41,3.18-3.18,3.18c-1.73,0-3.18-1.41-3.18-3.18c0-1.73,1.41-3.18,3.18-3.18
					S192.18,24.37,192.18,26.13L192.18,26.13z"/>
				<path class="st1" d="M189.56,52.91c0,1.73-1.41,3.18-3.18,3.18c-1.73,0-3.18-1.41-3.18-3.18c0-1.73,1.41-3.18,3.18-3.18
					C188.15,49.73,189.56,51.14,189.56,52.91L189.56,52.91z"/>
				<path class="st1" d="M176.21,13.91c-0.25-0.04-0.49-0.11-0.71-0.18c-1.62-0.57-2.54-1.87-2.86-3.6c-0.04-0.18-0.25-0.18-0.28,0
					c-0.28,1.59-1.09,2.79-2.4,3.43c0,0,0,0-0.04,0s-0.04,0-0.07,0.04h-0.04c0,0-0.04,0-0.04,0.04c0,0-0.04,0-0.04,0.04h-0.04
					c-0.04,0-0.07,0.04-0.11,0.04l0,0c-0.04,0-0.07,0.04-0.11,0.04c0,0,0,0-0.04,0s-0.04,0-0.07,0.04c0,0,0,0-0.04,0
					s-0.04,0-0.07,0.04h-0.04c-0.04,0-0.04,0-0.07,0.04h-0.04c-0.04,0-0.04,0-0.07,0.04h-0.04c-0.04,0-0.04,0-0.07,0c0,0,0,0-0.04,0
					c-0.04,0-0.07,0-0.07,0s0,0-0.04,0s-0.07,0-0.11,0.04c-0.07,0-0.11,0.07-0.11,0.14c0,0.07,0.04,0.14,0.11,0.14
					c2.01,0.39,3.21,1.77,3.57,3.78c0.04,0.14,0.14,0.14,0.14,0.11c0.07,0,0.14-0.04,0.14-0.11l0,0c0-0.04,0-0.07,0.04-0.11l0,0
					c0-0.04,0-0.07,0.04-0.11l0,0c0-0.04,0-0.07,0.04-0.11l0,0c0.11-0.49,0.32-1.02,0.64-1.55l0,0c0.32-0.49,0.74-0.99,1.38-1.34
					c0.42-0.25,0.95-0.46,1.52-0.53c0.07,0,0.11-0.07,0.11-0.14C176.32,14.02,176.28,13.95,176.21,13.91z"/>
				<path class="st1" d="M195.89,43.3c-0.25-0.04-0.49-0.11-0.71-0.18c-1.62-0.57-2.54-1.87-2.86-3.6c-0.04-0.18-0.25-0.18-0.28,0
					c-0.28,1.59-1.09,2.79-2.4,3.43c0,0,0,0-0.04,0c-0.04,0-0.04,0-0.07,0.04h-0.04c0,0-0.04,0-0.04,0.04c0,0-0.04,0-0.04,0.04
					h-0.04c-0.04,0-0.07,0.04-0.11,0.04l0,0c-0.04,0-0.07,0.04-0.11,0.04c0,0,0,0-0.04,0s-0.04,0-0.07,0.04c0,0,0,0-0.04,0
					s-0.04,0-0.07,0.04h-0.04c-0.04,0-0.04,0-0.07,0.04h-0.04c-0.04,0-0.04,0-0.07,0.04h-0.04c-0.04,0-0.04,0-0.07,0c0,0,0,0-0.04,0
					c-0.04,0-0.07,0-0.07,0s0,0-0.04,0c-0.04,0-0.07,0-0.11,0.04c-0.07,0-0.11,0.07-0.11,0.14c0,0.07,0.04,0.14,0.11,0.14
					c2.01,0.39,3.21,1.77,3.57,3.78c0.04,0.14,0.14,0.14,0.14,0.11c0.07,0,0.14-0.04,0.14-0.11l0,0c0-0.04,0-0.07,0.04-0.11l0,0
					c0-0.04,0-0.07,0.04-0.11l0,0c0-0.04,0-0.07,0.04-0.11l0,0c0.11-0.49,0.32-1.02,0.64-1.55l0,0c0.32-0.49,0.74-0.99,1.38-1.34
					c0.42-0.25,0.95-0.46,1.52-0.53c0.07,0,0.11-0.07,0.11-0.14S195.96,43.33,195.89,43.3z"/>
			</g>
		</g>
	</g>
	<g>
		<path class="st1" d="M18.79,58.7c-2.54,0-4.98-0.49-7.31-1.48c-2.3-0.95-4.31-2.33-6.08-4.17c-1.7-1.73-3.07-3.85-3.99-6.18
			C0.46,44.5,0,42.03,0,39.45c0-2.51,0.46-5.05,1.41-7.38c0.92-2.37,2.3-4.45,3.99-6.18c1.77-1.84,3.78-3.21,6.15-4.2
			c2.3-0.95,4.73-1.45,7.28-1.45c2.51,0,4.94,0.49,7.28,1.45c2.3,0.99,4.38,2.37,6.15,4.2c1.31,1.38,2.4,2.93,3.21,4.45
			c0.35,0.71,0.42,1.48,0.14,2.23c-0.25,0.67-0.85,1.27-1.55,1.62l-1.66,0.74c-0.42,0.21-0.88,0.28-1.31,0.28
			c-1.09,0-2.12-0.6-2.65-1.59c-0.53-0.99-1.13-1.87-1.87-2.61c-1.02-1.09-2.19-1.87-3.53-2.44c-1.41-0.6-2.75-0.88-4.2-0.88
			s-2.86,0.28-4.2,0.88c-1.41,0.53-2.54,1.34-3.53,2.44c-1.09,1.13-1.91,2.44-2.44,3.81c-0.57,1.45-0.88,3-0.88,4.59
			c0,1.62,0.32,3.18,0.88,4.59c0.53,1.45,1.34,2.72,2.44,3.85c0.99,1.02,2.12,1.84,3.53,2.44c1.34,0.6,2.75,0.88,4.2,0.88
			s2.79-0.28,4.2-0.88c1.34-0.6,2.51-1.38,3.53-2.44c0.74-0.78,1.34-1.7,1.87-2.61c0.74-1.38,2.51-1.98,3.96-1.27l1.66,0.74
			c0.74,0.35,1.31,0.95,1.55,1.62c0.25,0.74,0.21,1.52-0.14,2.19c-0.81,1.59-1.91,3.11-3.21,4.45v0.04
			c-1.77,1.77-3.85,3.21-6.15,4.17C23.7,58.2,21.26,58.7,18.79,58.7z"/>
		<path class="st1" d="M43.09,58.7h-1.84c-1.66,0-2.97-1.27-2.97-2.83V35.32c0-1.59,1.31-2.86,2.97-2.86h1.84
			c0.78,0,1.52,0.28,2.01,0.78c1.52-0.74,3.11-1.13,4.84-1.13c1.45,0,2.9,0.28,4.2,0.78c0.78,0.28,1.34,0.88,1.62,1.59
			c0.32,0.74,0.32,1.52-0.04,2.23l-0.78,1.59c-0.64,1.34-2.19,1.98-3.64,1.52c-0.46-0.14-0.88-0.25-1.34-0.25
			c-0.46,0-0.92,0.11-1.41,0.35c-0.46,0.21-0.88,0.49-1.24,0.88c-0.85,0.95-1.24,2.01-1.24,3.36v11.73
			C46.06,57.39,44.72,58.7,43.09,58.7z"/>
		<path class="st1" d="M59.23,27.58c-0.78-0.78-1.2-1.84-1.2-2.97c0-1.09,0.42-2.12,1.2-2.97c0.85-0.88,2.01-1.38,3.28-1.38
			s2.44,0.49,3.28,1.38c0.78,0.85,1.13,1.87,1.13,2.97c0,1.13-0.35,2.19-1.13,3c-0.81,0.88-2.01,1.38-3.28,1.38
			S60.08,28.53,59.23,27.58z M66.37,35.28v20.56c0,1.52-1.31,2.83-2.97,2.83h-1.84c-1.62,0-2.97-1.27-2.97-2.83V35.28
			c0-1.59,1.34-2.86,2.97-2.86h1.84C65.06,32.42,66.37,33.73,66.37,35.28z"/>
		<path class="st1" d="M82.26,58.7c-3.32,0-6.15-0.78-8.48-2.44c-1.13-0.74-2.01-1.7-2.68-2.86c-0.67-1.2-1.02-2.44-1.02-3.67
			c0-1.27,0.35-2.51,1.02-3.71c0.67-1.13,1.55-2.12,2.68-2.86c2.33-1.59,5.16-2.44,8.48-2.44c1.87,0,3.64,0.35,5.26,0.95
			c0.14,0.04,0.25,0.11,0.42,0.14c-0.04-0.35-0.14-0.64-0.32-0.99c-0.25-0.53-0.67-1.02-1.2-1.48c0,0-0.04,0-0.04-0.04
			c-0.46-0.39-0.99-0.71-1.73-0.95c-0.74-0.25-1.55-0.39-2.4-0.39c-1.02,0-1.98,0.21-2.9,0.64c-0.88,0.39-1.55,0.95-2.01,1.52
			c-0.74,0.95-2.01,1.13-3,0.53l-1.66-0.95c-0.53-0.28-0.88-0.85-0.99-1.38c-0.14-0.6,0-1.2,0.32-1.7c1.09-1.48,2.61-2.72,4.42-3.6
			c1.8-0.88,3.78-1.34,5.86-1.34c3.28,0,6.18,1.02,8.58,3.07c1.13,0.99,2.01,2.19,2.65,3.5c0.64,1.34,0.92,2.75,0.92,4.2v13.63
			c0,1.2-0.99,2.12-2.23,2.12h-1.91c-0.78,0-1.45-0.35-1.84-0.88c-0.32,0.14-0.64,0.25-0.92,0.39C85.9,58.38,84.13,58.7,82.26,58.7z
			 M77.88,51.35c0.53,0.35,1.13,0.6,1.87,0.78c0.78,0.21,1.62,0.28,2.51,0.28c0.85,0,1.66-0.11,2.44-0.28
			c0.74-0.21,1.41-0.46,1.91-0.74c0.53-0.35,0.95-0.71,1.13-1.02c0.14-0.21,0.21-0.39,0.21-0.64s-0.04-0.46-0.21-0.71
			c-0.21-0.35-0.64-0.71-1.13-0.99c-0.53-0.35-1.2-0.6-1.91-0.74c-0.78-0.21-1.62-0.28-2.44-0.28c-0.88,0-1.73,0.11-2.51,0.28
			c-0.74,0.14-1.34,0.46-1.87,0.74c-1.41,0.85-1.41,1.48-1.41,1.7C76.5,49.94,76.5,50.54,77.88,51.35z"/>
		<path class="st1" d="M106.1,58.7h-1.84c-1.66,0-2.97-1.27-2.97-2.83V39.94h-2.33c-1.66,0-3-1.27-3-2.83v-1.84
			c0-1.59,1.34-2.86,3-2.86h2.33V22c0-1.59,1.31-2.83,2.97-2.83h1.84c1.62,0,2.97,1.24,2.97,2.83v10.42h2.33
			c1.66,0,2.97,1.27,2.97,2.86v1.84c0,1.52-1.31,2.83-2.97,2.83h-2.33v15.93C109.07,57.39,107.73,58.7,106.1,58.7z"/>
		<path class="st1" d="M130.05,58.7c-1.84,0-3.53-0.35-5.19-1.02c-1.66-0.71-3.11-1.62-4.42-2.86s-2.3-2.72-2.97-4.42
			c-0.67-1.62-1.02-3.36-1.02-5.16c0-1.84,0.35-3.57,1.02-5.19c0.67-1.7,1.66-3.18,2.97-4.42c1.31-1.24,2.75-2.23,4.42-2.86
			c1.66-0.71,3.39-1.02,5.19-1.02c1.8,0,3.64,0.35,5.3,1.02c1.66,0.64,3.11,1.62,4.42,2.93c0,0,0,0,0.04,0
			c0.99,1.02,1.87,2.23,2.54,3.57c0.32,0.71,0.35,1.52,0.11,2.23c-0.32,0.74-0.88,1.27-1.62,1.62l-1.73,0.71
			c-0.35,0.14-0.78,0.21-1.13,0.21c-1.13,0-2.23-0.6-2.75-1.62c-0.21-0.49-0.57-0.99-1.02-1.52c-0.53-0.49-1.13-0.88-1.87-1.2
			c-0.74-0.28-1.45-0.46-2.3-0.46c-0.78,0-1.52,0.14-2.23,0.46c-0.74,0.28-1.34,0.71-1.87,1.2c-1.2,1.24-1.77,2.68-1.77,4.42
			c0,0.85,0.14,1.59,0.46,2.37c0.32,0.71,0.74,1.34,1.31,1.94c0.53,0.53,1.13,0.95,1.87,1.24c0.74,0.28,1.45,0.46,2.23,0.46
			c0.81,0,1.55-0.14,2.3-0.46c0.74-0.28,1.34-0.71,1.87-1.2c0.46-0.53,0.85-1.02,1.02-1.52c0.67-1.38,2.44-2.01,3.89-1.45l1.73,0.71
			c0.74,0.28,1.31,0.88,1.62,1.62c0.25,0.71,0.21,1.48-0.11,2.19c-0.67,1.34-1.55,2.51-2.54,3.57c-0.04,0.04-0.04,0.04-0.04,0.04
			c-1.31,1.27-2.75,2.23-4.42,2.93C133.69,58.34,131.89,58.7,130.05,58.7z"/>
		<path class="st1" d="M165.55,58.7h-1.77c-1.66,0-3-1.27-3-2.83v-13c0-0.71-0.11-1.27-0.42-1.84c-0.25-0.49-0.57-0.88-0.99-1.13
			c-0.32-0.25-0.64-0.35-0.99-0.35c-0.99,0-1.8,0.21-2.65,0.53c-0.74,0.35-1.31,0.78-1.73,1.34c-0.35,0.46-0.53,0.88-0.53,1.45v13
			c0,1.52-1.34,2.83-2.97,2.83h-1.84c-1.62,0-2.97-1.27-2.97-2.83V22c0-1.59,1.34-2.83,2.97-2.83h1.84c1.62,0,2.97,1.24,2.97,2.83
			v10.91c1.52-0.53,3.18-0.85,4.87-0.85c1.34,0,2.72,0.28,3.96,0.85c1.24,0.57,2.33,1.38,3.32,2.37c0,0,0,0,0,0.04
			c0.95,0.95,1.66,2.12,2.19,3.46c0.46,1.27,0.74,2.68,0.74,4.06v13C168.55,57.39,167.21,58.7,165.55,58.7z"/>
		<path class="st1" d="M172.86,27.58c-0.78-0.78-1.2-1.84-1.2-2.97c0-1.09,0.42-2.12,1.2-2.97c0.85-0.88,2.01-1.38,3.28-1.38
			s2.44,0.49,3.28,1.38c0.78,0.85,1.13,1.87,1.13,2.97c0,1.13-0.35,2.19-1.13,3c-0.81,0.88-2.01,1.38-3.28,1.38
			S173.67,28.53,172.86,27.58z M179.96,35.28v20.56c0,1.52-1.31,2.83-2.97,2.83h-1.84c-1.62,0-2.97-1.27-2.97-2.83V35.28
			c0-1.59,1.34-2.86,2.97-2.86h1.84C178.68,32.42,179.96,33.73,179.96,35.28z"/>
	</g>
</g>
</svg>
