<?xml version="1.0" encoding="utf-8"?>
<!-- Generator: Adobe Illustrator 24.0.1, SVG Export Plug-In . SVG Version: 6.00 Build 0)  -->
<svg version="1.1" id="Camada_1" xmlns="http://www.w3.org/2000/svg" xmlns:xlink="http://www.w3.org/1999/xlink" x="0px" y="0px"
	 viewBox="0 0 265.01 80" style="enable-background:new 0 0 265.01 80;" xml:space="preserve">
<style type="text/css">
	.st0{fill:#8E8E8E;}
</style>
<g>
	<g>
		<g>
			<path class="st0" d="M64.91,36.89L64.91,36.89c0.15,0.03,0.33,0.08,0.52,0.08C65.29,36.94,65.1,36.94,64.91,36.89z"/>
			<path class="st0" d="M86.47,29.23c-1.19,0.22-2.73,0.45-4.48,0.64c-1.05,0.11-2.62,0.26-4.56,0.26c-2.05,0-4.04-0.11-5.94-0.45
				c6.05-0.86,11.66-3.14,16.51-6.36c-3.74,1.16-7.69,1.68-11.84,1.68c-0.6,0-1.16,0-1.79-0.03c-1.76-0.08-3.48-0.26-5.15-0.56
				c-0.86,1.42-1.83,2.84-2.88,4.18c-0.45,0.56-0.86,1.08-1.35,1.57c-0.78,0.97-1.61,1.83-2.46,2.62c-0.86,0.86-2.32,2.1-3.25,2.88
				c-1.42,1.12-2.95,2.16-4.56,3.1c-0.19,0.11-0.97,0.56-1.12,0.64c-1.53,0.82-3.14,1.57-4.78,2.16c-0.49,0.22-1.01,0.37-1.53,0.56
				c-2.32,0.78-4.71,1.35-7.14,1.76c-0.37,0.03-0.78,0.08-1.12,0.11c-1.61,0.22-3.25,0.3-4.89,0.3c-1.16,0-2.35-0.03-3.51-0.19
				c-0.56-0.03-1.16-0.08-1.76-0.19c-5.04-0.64-9.82-2.21-14.13-4.52c0.03,0.08,0.08,0.19,0.19,0.26
				c6.2,8.63,15.73,14.72,26.72,16.51c-3.62-2.65-6.76-5.87-9.3-9.53c0-0.03-0.03-0.03-0.03-0.08c6.69,4.71,14.83,7.51,23.62,7.51
				c2.84,0,5.61-0.3,8.26-0.82c-7.55-0.33-14.5-2.99-20.44-6.91l0.22,0.08c4.97,2.13,10.39,3.29,16.1,3.29
				c4.82,0,9.46-0.82,13.71-2.35c-1.27,0.11-2.43,0.08-3.7,0.08c-5.56,0-11.03-1.16-15.88-3.18c0,0-0.49-0.19-0.86-0.37
				c-0.26-0.11-0.52-0.22-0.56-0.3c0,0,0.67,0.11,1.3,0.22c1.27,0.22,3.18,0.52,4.48,0.56c0.94,0.08,1.87,0.11,2.84,0.11
				c7.17,0,13.9-1.83,19.77-5.08c-2.05,0.6-7.25,2.02-13,2.05c-1.61,0-4.56-0.03-8.3-0.82c-0.6-0.11-1.16-0.26-1.76-0.45
				c0.64,0.11,1.3,0.19,1.98,0.26h0.03c1.27,0.11,2.5,0.19,3.81,0.19c7.02,0,13.79-1.83,19.55-5.01c-1.83,0.52-3.96,1.01-6.36,1.3
				c-2.46,0.33-4.71,0.45-6.65,0.41c0,0-0.82-0.03-2.02-0.11c-0.26-0.03-0.52-0.03-0.82-0.08c-0.71-0.08-1.98-0.22-2.77-0.33
				c-0.6-0.11-1.16-0.22-1.68-0.37c1.24,0.19,2.54,0.22,3.77,0.22c6.53-0.03,13.11-1.83,18.57-4.63c-3.29,1.05-7.63,1.98-12.7,1.94
				c0.08,0-3.51-0.11-4.59-0.3c-0.03,0-0.08,0-0.11-0.03c-0.22-0.03-0.45-0.08-0.67-0.11c0.3,0,0.64,0,0.94,0
				C74.85,33.6,81.06,31.93,86.47,29.23z"/>
		</g>
		<path class="st0" d="M70.63,12.5c-0.97,2.62-2.13,5.08-3.51,7.4c-0.86,1.42-1.83,2.84-2.88,4.18c-0.45,0.56-0.86,1.08-1.35,1.57
			c-0.78,0.97-1.61,1.83-2.46,2.62c-0.11,0.19-0.3,0.3-0.49,0.45c-0.86,0.86-1.83,1.64-2.77,2.43c-0.19,0.11-0.33,0.26-0.56,0.37
			c-1.42,1.12-2.99,2.13-4.59,3.02h-0.03c-0.19,0.11-0.33,0.22-0.49,0.3c-1.53,0.82-3.14,1.57-4.78,2.16
			c-0.49,0.22-1.01,0.37-1.53,0.56c-2.32,0.78-4.71,1.35-7.14,1.76c-0.37,0.03-0.78,0.08-1.12,0.11c-1.61,0.22-3.25,0.3-4.89,0.3
			c-1.16,0-2.35-0.03-3.51-0.19c-0.56-0.03-1.16-0.08-1.76-0.19c-4.82-0.6-9.38-2.1-13.53-4.23c2.13,0.52,4.34,0.97,6.58,1.27
			c0.75,0.11,1.53,0.19,2.21,0.22c1.53,0.19,2.99,0.22,4.48,0.22c2.13,0,4.23-0.08,6.24-0.33c0.45-0.08,0.97-0.11,1.42-0.19
			c3.14-0.52,6.17-1.24,9.08-2.21c0.64-0.22,1.35-0.45,1.94-0.75c2.1-0.78,4.11-1.68,6.09-2.73c0.19-0.11,0.64-0.37,0.64-0.37
			c2.05-1.16,6.39-4.23,6.61-4.37c1.24-1.01,2.43-1.98,3.51-3.1c0.22-0.19,0.45-0.33,0.6-0.56c1.12-1.01,2.16-2.1,3.18-3.29
			c0.6-0.6,1.12-1.3,1.68-1.98C68.68,15.45,69.73,14.03,70.63,12.5z"/>
		<path class="st0" d="M37.9,63.91c-1.87,1.19-3.96,2.13-6.13,2.73c-2.16,0.6-4.48,0.89-6.76,0.86c-4.59-0.03-9.23-1.42-13.19-3.96
			l-0.75-0.49c-0.11-0.08-0.22-0.15-0.37-0.26l-0.33-0.26c-0.49-0.33-0.94-0.71-1.38-1.08c-0.22-0.19-0.45-0.37-0.67-0.6l-0.33-0.3
			l-0.3-0.3c-0.22-0.22-0.41-0.41-0.64-0.64l-0.6-0.67c-0.78-0.89-1.53-1.83-2.16-2.8c-0.33-0.49-0.64-1.01-0.94-1.49
			c-0.15-0.26-0.3-0.52-0.41-0.78l-0.22-0.41l-0.19-0.41l-0.38-0.83L1.8,51.39c-0.03-0.15-0.11-0.26-0.15-0.41L1.5,50.58
			c-0.11-0.3-0.19-0.56-0.3-0.86c-0.15-0.56-0.33-1.12-0.49-1.72c-0.08-0.3-0.15-0.56-0.19-0.86l-0.15-0.86
			c-0.08-0.3-0.08-0.6-0.15-0.89c-0.03-0.3-0.08-0.6-0.11-0.89c-0.02-0.6-0.09-1.2-0.09-1.8c-0.03-1.19,0-2.39,0.11-3.55
			c0.26-2.35,0.82-4.71,1.72-6.91c0.22-0.56,0.49-1.08,0.71-1.64c0.11-0.26,0.26-0.52,0.41-0.78c0.15-0.26,0.26-0.52,0.41-0.78
			l0.45-0.78l0.49-0.75l0.26-0.37l0.26-0.37c0.19-0.22,0.33-0.49,0.52-0.71c2.91-3.74,6.84-6.65,11.25-8.3l0.82-0.3
			c0.26-0.11,0.56-0.19,0.82-0.26l0.41-0.11c0.15-0.03,0.3-0.08,0.41-0.11l0.86-0.22l0.86-0.19l0.41-0.08l0.45-0.08
			c0.3-0.03,0.56-0.08,0.86-0.11l0.86-0.08l0.45-0.03h0.45l0.86-0.03h0.86h0.44l0.45,0.03c1.16,0.08,2.32,0.22,3.43,0.45
			c4.52,0.89,8.71,3.1,11.84,6.24c-1.83-1.24-3.81-2.28-5.83-3.02c-0.26-0.08-0.52-0.19-0.78-0.26l-0.78-0.26
			c-0.52-0.15-1.05-0.3-1.57-0.41c-0.52-0.11-1.05-0.22-1.57-0.3l-0.78-0.11c-0.26-0.03-0.52-0.08-0.78-0.08
			c-1.05-0.11-2.13-0.15-3.18-0.11h-0.41l-0.41,0.03l-0.78,0.03l-0.78,0.11l-0.41,0.03l-0.37,0.08l-0.78,0.15l-0.78,0.19l-0.37,0.08
			l-0.37,0.11l-0.75,0.22l-0.75,0.26c-0.11,0.03-0.26,0.08-0.37,0.11l-0.37,0.15c-0.26,0.11-0.49,0.19-0.75,0.26l-0.71,0.3
			c-0.22,0.11-0.49,0.22-0.71,0.33s-0.49,0.22-0.71,0.33l-0.67,0.37c-0.11,0.08-0.22,0.11-0.33,0.19l-0.33,0.19
			c-0.45,0.26-0.86,0.56-1.3,0.86c-0.22,0.15-0.41,0.3-0.64,0.45l-0.3,0.22c-0.11,0.08-0.19,0.15-0.3,0.26l-0.6,0.49l-0.56,0.52
			c-0.19,0.19-0.37,0.37-0.56,0.52c-0.19,0.19-0.37,0.37-0.56,0.56l-0.52,0.56c-0.08,0.08-0.19,0.19-0.26,0.3l-0.26,0.3
			c-0.33,0.37-0.64,0.82-0.97,1.24c-1.19,1.68-2.21,3.48-2.95,5.42c-0.75,1.91-1.24,3.92-1.46,5.98c-0.11,1.01-0.15,2.05-0.11,3.07
			c0,0.52,0.03,1.01,0.08,1.53c0,0.26,0.08,0.52,0.08,0.75c0.03,0.26,0.03,0.52,0.11,0.75l0.11,0.75c0.03,0.26,0.11,0.49,0.15,0.75
			c0.11,0.52,0.26,1.01,0.37,1.49c0.08,0.26,0.15,0.49,0.22,0.75l0.11,0.37c0.03,0.11,0.08,0.22,0.15,0.37l0.26,0.71l0.3,0.71
			l0.37,0.45l0.19,0.33C6.2,52.52,6.31,52.75,6.42,53c0.26,0.45,0.49,0.89,0.78,1.35c0.15,0.22,0.26,0.45,0.41,0.67l0.45,0.64
			c0.15,0.22,0.3,0.41,0.45,0.64c0.15,0.23,0.3,0.41,0.49,0.6l0.49,0.6c0.19,0.19,0.33,0.37,0.52,0.56l0.26,0.3l0.26,0.26
			c0.19,0.19,0.37,0.37,0.56,0.56c0.37,0.33,0.75,0.71,1.16,1.05l0.3,0.26c0.11,0.08,0.19,0.15,0.3,0.26l0.64,0.49
			c3.37,2.46,7.44,4.07,11.66,4.56c2.13,0.26,4.29,0.22,6.47-0.08c1.08-0.15,2.16-0.37,3.21-0.67
			C35.85,64.69,36.89,64.32,37.9,63.91z"/>
	</g>
	<g>
		<g>
			<path class="st0" d="M125.67,60.32v-6.28h4.04v0.94h-3.02v1.72h2.8v0.94h-2.8v1.79h3.07v0.94h-4.07L125.67,60.32L125.67,60.32z"
				/>
			<path class="st0" d="M131.05,60.32l2.05-3.18l-1.94-3.1h1.16l1.42,2.35l1.46-2.35h1.16l-2.02,3.1l2.05,3.18h-1.16l-1.49-2.39
				l-1.49,2.39H131.05z"/>
			<path class="st0" d="M139.27,54.98h-1.83v-0.97h4.67v0.97h-1.83v5.34h-1.01L139.27,54.98L139.27,54.98z"/>
			<path class="st0" d="M143.82,60.32v-6.28h4.04v0.94h-3.02v1.72h2.8v0.94h-2.8v1.79h3.07v0.94h-4.07L143.82,60.32L143.82,60.32z"
				/>
			<path class="st0" d="M154.14,54.04h0.97v6.28h-0.56l-3.59-4.26v4.26h-0.97v-6.28h0.52l3.66,4.29L154.14,54.04L154.14,54.04z"/>
			<path class="st0" d="M156.94,59.16l0.67-0.64c0.33,0.64,0.94,0.97,1.57,0.97c0.64,0,1.08-0.37,1.08-0.86
				c0-0.3-0.19-0.6-0.64-0.82c-0.11-0.03-0.3-0.15-0.64-0.3c-0.3-0.15-0.56-0.26-0.71-0.37c-0.64-0.37-0.97-0.89-0.97-1.53
				c0-0.49,0.19-0.89,0.56-1.24c0.37-0.34,0.86-0.49,1.42-0.49c0.78,0,1.42,0.3,1.91,0.89l-0.6,0.67c-0.33-0.45-0.78-0.64-1.3-0.64
				c-0.56,0-0.94,0.3-0.94,0.78c0,0.3,0.19,0.56,0.52,0.75c0.11,0.08,0.33,0.19,0.71,0.33c0.37,0.15,0.64,0.3,0.78,0.37
				c0.64,0.33,0.97,0.86,0.97,1.49c0,0.52-0.19,0.97-0.6,1.35c-0.41,0.33-0.94,0.52-1.53,0.52
				C158.21,60.43,157.39,59.98,156.94,59.16z"/>
			<path class="st0" d="M166.99,60.32l-0.6-1.53h-2.32l-0.6,1.53h-1.05l2.5-6.28h0.64l2.46,6.28H166.99z M164.12,53.56l-0.6-0.3
				c0.19-0.6,0.56-0.86,1.08-0.86c0.19,0,0.41,0.08,0.64,0.19c0.26,0.11,0.41,0.19,0.52,0.19c0.19,0,0.37-0.15,0.49-0.41l0.6,0.3
				c-0.19,0.56-0.56,0.86-1.05,0.86c-0.19,0-0.37-0.08-0.64-0.19c-0.26-0.11-0.41-0.19-0.52-0.19
				C164.42,53.12,164.26,53.26,164.12,53.56z M165.23,55.58l-0.86,2.28h1.72L165.23,55.58z"/>
			<path class="st0" d="M170.06,59.5c-0.64-0.64-0.94-1.38-0.94-2.28s0.3-1.68,0.97-2.32c0.67-0.64,1.42-0.97,2.32-0.97
				c0.89,0,1.68,0.3,2.32,0.97c0.64,0.64,0.97,1.42,0.97,2.32s-0.3,1.68-0.97,2.32c-0.64,0.64-1.42,0.94-2.35,0.94
				C171.44,60.43,170.69,60.14,170.06,59.5z M173.98,58.82c0.45-0.45,0.67-0.97,0.67-1.64c0-0.67-0.22-1.19-0.67-1.64
				s-0.97-0.67-1.61-0.67s-1.16,0.22-1.61,0.67c-0.45,0.45-0.64,0.97-0.64,1.64c0,0.64,0.22,1.19,0.64,1.61
				c0.45,0.45,0.97,0.67,1.61,0.67S173.57,59.24,173.98,58.82z"/>
			<path class="st0" d="M180.6,60.32v-6.28h2.39c0.89,0,1.64,0.3,2.13,0.86c0.52,0.56,0.78,1.35,0.78,2.32s-0.26,1.72-0.82,2.28
				c-0.52,0.56-1.27,0.86-2.21,0.86h-2.28V60.32z M181.57,59.39h1.35c0.6,0,1.08-0.19,1.42-0.64c0.33-0.41,0.52-0.97,0.52-1.61
				c0-0.64-0.19-1.16-0.52-1.57c-0.33-0.41-0.82-0.64-1.42-0.64h-1.38v4.45C181.53,59.39,181.57,59.39,181.57,59.39z"/>
			<path class="st0" d="M187.95,60.32v-6.28h4v0.94h-3.02v1.72h2.8v0.94h-2.8v1.79h3.07v0.94h-4.04V60.32L187.95,60.32z"/>
			<path class="st0" d="M197.56,59.54c-0.64-0.6-0.94-1.38-0.94-2.32c0-0.97,0.3-1.72,0.97-2.35c0.64-0.64,1.42-0.94,2.32-0.94
				c0.56,0,1.08,0.11,1.57,0.37c0.49,0.26,0.86,0.56,1.12,0.97l-0.71,0.64c-0.52-0.67-1.16-1.05-1.98-1.05
				c-0.64,0-1.16,0.22-1.61,0.67c-0.45,0.45-0.67,1.01-0.67,1.64c0,0.67,0.22,1.19,0.64,1.64c0.45,0.41,0.97,0.64,1.61,0.64
				c0.82,0,1.49-0.33,2.02-1.01l0.71,0.6c-0.6,0.82-1.61,1.35-2.77,1.35C198.94,60.43,198.19,60.14,197.56,59.54z"/>
			<path class="st0" d="M204.43,54.04h0.97v6.28h-0.97V54.04z M204.47,53.56l0.52-1.46h1.12l-0.82,1.46H204.47z"/>
			<path class="st0" d="M207.79,60.32v-6.28h0.97v5.34h3.32v0.94H207.79z"/>
			<path class="st0" d="M213.81,54.04h0.97v6.28h-0.97V54.04z"/>
			<path class="st0" d="M217.69,59.5c-0.64-0.64-0.94-1.38-0.94-2.28s0.3-1.68,0.97-2.32c0.67-0.64,1.42-0.97,2.32-0.97
				c0.89,0,1.68,0.3,2.32,0.97c0.64,0.64,0.97,1.42,0.97,2.32s-0.3,1.68-0.97,2.32c-0.64,0.64-1.42,0.94-2.35,0.94
				C219.12,60.43,218.33,60.14,217.69,59.5z M221.62,58.82c0.45-0.45,0.67-0.97,0.67-1.64c0-0.67-0.22-1.19-0.67-1.64
				c-0.45-0.45-0.97-0.67-1.61-0.67s-1.16,0.22-1.61,0.67c-0.45,0.45-0.64,0.97-0.64,1.64c0,0.64,0.22,1.19,0.64,1.61
				c0.45,0.45,0.97,0.67,1.61,0.67C220.68,59.46,221.2,59.24,221.62,58.82z"/>
			<path class="st0" d="M224.68,59.16l0.67-0.64c0.33,0.64,0.94,0.97,1.57,0.97c0.64,0,1.08-0.37,1.08-0.86
				c0-0.3-0.19-0.6-0.64-0.82c-0.11-0.03-0.3-0.15-0.64-0.3c-0.3-0.15-0.56-0.26-0.71-0.37c-0.64-0.37-0.97-0.89-0.97-1.53
				c0-0.49,0.19-0.89,0.56-1.24c0.37-0.34,0.86-0.49,1.42-0.49c0.78,0,1.42,0.3,1.91,0.89l-0.6,0.67c-0.33-0.45-0.78-0.64-1.3-0.64
				c-0.56,0-0.94,0.3-0.94,0.78c0,0.3,0.19,0.56,0.52,0.75c0.11,0.08,0.33,0.19,0.71,0.33c0.37,0.15,0.64,0.3,0.78,0.37
				c0.64,0.33,0.97,0.86,0.97,1.49c0,0.52-0.19,0.97-0.6,1.35c-0.41,0.33-0.94,0.52-1.53,0.52
				C225.99,60.43,225.13,59.98,224.68,59.16z"/>
		</g>
		<g>
			<g>
				<path class="st0" d="M221.14,35.06c-0.03-0.19-0.33-0.3-0.89-0.26c-1.27,0.08-3.92,0.08-5.87-0.19c0.15-0.33,0.3-0.75,0.49-1.16
					c0.86-2.1,2.02-5.01,3.66-6.88c0.11,0.03,0.26,0.11,0.45,0.22c1.16,0.6,3.89,1.98,6.99,2.5l0,0c1.05,0.15,2.05,0.03,2.84-0.37
					c0.75-0.37,1.24-0.97,1.35-1.64c0.11-0.49,0.08-0.82-0.11-0.86c-0.19-0.08-0.41,0.15-0.6,0.67c-0.19,0.41-0.52,0.67-1.05,0.86
					c-2.39,0.82-7.47-1.16-9.19-2.05c0.37-0.33,1.05-0.75,1.72-0.52c0.26,0.3,0.41,0.3,0.52,0.26c0.11-0.03,0.19-0.19,0.19-0.37
					c0-0.3-0.22-0.67-0.64-0.78c-1.42-0.41-2.32,0.52-2.73,0.97c-1.19-0.75-4.34-2.54-8.52-3.66c-6.09-1.72-10.84,1.08-12.37,4.75
					c-1.01,2.43-0.37,4.75,1.61,5.9c1.35,0.78,3.14,0.86,4.71,0.22c1.46-0.56,2.5-1.68,2.91-3.07c0.11-0.37,0.15-0.6,0.03-0.71
					c-0.03-0.03-0.11-0.08-0.22-0.03c-0.22,0.08-0.49,0.45-0.49,0.86c0,0.37-0.67,1.19-1.68,1.76c-0.78,0.45-2.8,1.35-4.86,0.08
					c-0.89-0.56-1.16-1.83-0.6-3.29c0.94-2.54,4.48-5.98,10.43-5.08c3.1,0.45,5.94,1.68,8.55,2.99c-0.71,0.89-3.07,4.63-4.56,8.26
					c-3.1-0.56-6.47-0.64-7.96,2.65c-0.11,0.22-0.03,0.49,0.11,0.6c0.08,0.03,0.3,0.11,0.52-0.22c1.27-1.87,4.67-1.72,6.31-1.68
					c0.19,0,0.33,0,0.45,0c-2.13,4.86-6.88,12.78-15.06,12.41c-3.02-0.11-6.09-1.57-7.77-3.7c-1.38-1.72-1.87-3.81-1.46-6.09
					c0.37-2.16,1.72-3.14,2.43-3.66c1.05-0.75,1.19-0.89,1.16-1.01c-0.03-0.11-0.19-0.11-0.6,0.03c-0.82,0.26-2.77,1.42-3.37,3.37
					c-1.05,3.18-0.64,6.24,1.08,8.63c1.87,2.58,5.15,4.07,8.96,4.07c10.84,0,14.19-9.04,16.03-13.97c1.61,0.19,5.31,0.11,6.42-0.19
					C220.84,35.48,221.17,35.29,221.14,35.06z"/>
				<path class="st0" d="M235.59,33.57c0.78,0,1.49-0.6,1.61-1.38c0.08-0.37-0.03-0.71-0.26-1.01c-0.22-0.26-0.56-0.41-0.97-0.41
					c-0.75,0-1.49,0.64-1.61,1.38c-0.03,0.37,0.03,0.75,0.3,1.01C234.89,33.46,235.22,33.57,235.59,33.57z"/>
				<path class="st0" d="M256.41,41.34c1.91-4.52,7.51-14.72,8.41-15.58l0.19-0.19l-0.26,0.03c-0.3,0.03-0.6,0-0.89-0.08
					c-0.15-0.03-0.3-0.03-0.45-0.08c-1.12-0.11-1.68,0.3-2.24,1.72c-0.71,1.57-2.1,4.48-3.66,7.47c-2.46-1.38-5.23-0.03-6.91,1.91
					c-0.82,0.97-1.57,2.24-2.05,3.48c-1.19,2.35-2.73,4.63-3.66,4.63h-0.03c-0.08,0-0.15-0.03-0.19-0.11
					c-0.11-0.15-0.26-0.52-0.03-1.72c0.41-1.91,2.28-5.27,2.95-5.94l0.22-0.22l-0.3,0.08c-0.26,0.08-0.56,0-0.86-0.08
					c-0.15-0.03-0.3-0.08-0.45-0.08c-1.08-0.08-1.53,0.71-2.24,2.1c-0.78,1.49-1.72,3.1-2.84,4.45c-0.86,1.01-1.83,1.57-2.39,1.3
					c-0.37-0.15-0.49-0.67-0.41-1.46c0.19-1.16,0.97-2.62,1.3-3.18c1.24-2.02,2.88-3.81,4.23-4.52c0.64-0.33,1.27-0.41,1.79-0.22
					c0.41,0.15,0.67,0.49,0.82,0.97v0.03h0.03c0.26,0.03,0.52-0.03,0.64-0.26c0.11-0.22,0.08-0.56-0.19-0.82
					c-0.64-0.71-1.57-1.05-2.62-1.05c-1.68,0.03-3.66,1.05-4.89,2.5c-1.19,1.42-1.91,2.8-2.32,4.07c-0.75,1.38-1.53,2.73-2.32,3.55
					c-0.37,0.33-0.94,0.64-1.38,0.6l0,0c-0.26-0.03-0.45-0.11-0.56-0.3c-0.22-0.3-0.22-0.86,0-1.61c0.08-0.22,0.37-0.89,0.37-0.94
					l2.54-5.98c0.19-0.45,0.3-0.75,0.15-0.97c-0.11-0.19-0.41-0.26-0.89-0.26l-1.94,0.03l0.11,0.15c0.37,0.45,0.45,0.89,0.3,1.27
					l-1.35,3.43c-1.27,2.54-2.91,5.15-3.92,5.12c-0.08,0-0.15-0.03-0.19-0.11c-0.11-0.15-0.26-0.52-0.03-1.72
					c0.41-1.91,2.28-5.27,2.95-5.94l0.22-0.22l-0.3,0.08c-0.26,0.08-0.56,0-0.86-0.08c-0.15-0.03-0.3-0.08-0.45-0.08
					c-1.08-0.08-1.53,0.71-2.24,2.1c-0.78,1.49-1.72,3.1-2.84,4.45c-0.86,1.01-1.83,1.57-2.39,1.3c-0.37-0.15-0.49-0.67-0.41-1.46
					c0.19-1.16,0.97-2.62,1.3-3.18c1.24-2.02,2.88-3.81,4.23-4.52c0.64-0.33,1.27-0.41,1.79-0.22c0.41,0.15,0.67,0.49,0.82,0.97
					v0.03h0.03c0.26,0.03,0.52-0.03,0.64-0.26c0.11-0.22,0.08-0.56-0.19-0.82c-0.64-0.71-1.57-1.05-2.62-1.05
					c-1.68,0.03-3.66,1.05-4.89,2.5c-3.18,3.81-3.18,7.47-1.91,8.66c0.82,0.78,2.05,0.52,3.32-0.67c0.78-0.75,1.53-1.79,2.02-2.54
					c-0.37,1.68-0.03,2.58,0.3,3.07c0.45,0.56,1.08,0.64,1.38,0.64c0.03,0,0.08,0,0.11,0l0,0c1.08-0.08,2.13-1.24,3.1-2.77
					c-0.03,0.67,0.03,1.35,0.37,1.87c0.37,0.56,0.97,0.82,1.79,0.82c1.38,0,2.58-1.35,3.51-2.8c0,1.08,0.3,1.94,0.78,2.43
					c0.82,0.78,2.05,0.52,3.32-0.67c0.78-0.75,1.53-1.79,2.02-2.54c-0.37,1.68-0.03,2.58,0.3,3.07c0.45,0.56,1.08,0.64,1.38,0.64
					c0.03,0,0.08,0,0.11,0l0,0c1.16-0.11,2.28-1.42,3.32-3.07c-0.03,0.52,0,1.01,0.15,1.42c0.22,0.75,0.75,1.24,1.49,1.46
					c2.1,0.56,3.51-1.57,4.52-3.18c-0.19,1.3,0.19,2.1,0.41,2.39c0.41,0.6,0.94,0.89,1.49,0.89c2.69,0,4.63-4.52,5.27-5.98
					c0.11-0.26,0.11-0.45,0.03-0.6c-0.03-0.08-0.15-0.11-0.22-0.11c-0.19,0-0.33,0.19-0.45,0.41l-0.15,0.3
					c-0.75,1.49-2.46,4.97-3.89,4.97c-0.26,0-0.45-0.08-0.56-0.26C255.55,43.73,256.03,42.17,256.41,41.34L256.41,41.34z
					 M252.89,42.47c-1.35,1.91-2.35,2.21-2.84,1.94c-0.6-0.37-0.64-1.87,0.49-3.96c1.3-2.39,3.77-5.15,5.53-5.42
					c0.45-0.08,0.82,0.03,1.12,0.3C255.51,38.35,253.97,40.93,252.89,42.47z"/>
			</g>
			<g>
				<path class="st0" d="M154.29,33.2c0.22,0.26,0.56,0.41,0.94,0.41c0.78,0,1.49-0.6,1.61-1.38c0.08-0.37-0.03-0.71-0.26-1.01
					c-0.22-0.26-0.56-0.41-0.97-0.41c-0.75,0-1.49,0.64-1.61,1.38C153.95,32.56,154.06,32.93,154.29,33.2z"/>
				<path class="st0" d="M155.15,45.68c-0.19,0-0.33,0-0.45,0.03C154.93,45.68,155.15,45.68,155.15,45.68z"/>
				<g>
					<path class="st0" d="M179.85,39.1c-0.03-0.08-0.15-0.11-0.22-0.11c-0.15,0-0.33,0.15-0.45,0.37c-1.27,2.62-3.02,5.38-4.04,5.31
						c-0.08,0-0.15-0.03-0.19-0.11c-0.11-0.15-0.26-0.52-0.03-1.72c0.41-1.91,2.28-5.27,2.95-5.94l0.22-0.22l-0.3,0.08
						c-0.26,0.08-0.56,0-0.86-0.08c-0.15-0.03-0.3-0.08-0.45-0.08c-1.08-0.08-1.53,0.71-2.24,2.1c-0.78,1.49-1.72,3.1-2.84,4.45
						c-0.86,1.01-1.83,1.57-2.39,1.3c-0.37-0.15-0.49-0.67-0.41-1.46c0.19-1.16,0.97-2.62,1.3-3.18c1.24-2.02,2.88-3.81,4.23-4.52
						c0.64-0.33,1.27-0.41,1.79-0.22c0.41,0.15,0.67,0.49,0.82,0.97v0.03h0.03c0.26,0.03,0.52-0.03,0.64-0.26
						c0.11-0.22,0.08-0.56-0.19-0.82c-0.64-0.71-1.57-1.05-2.62-1.05c-1.68,0.03-3.66,1.05-4.89,2.5c-1.19,1.46-1.94,2.88-2.35,4.15
						c-0.94,1.72-2.39,4.11-3.59,4.11c-0.15,0-0.26-0.03-0.37-0.15c-0.19-0.22-0.19-0.67-0.08-1.35c0.41-2.21,3.77-8.15,3.81-8.22
						l0.03-0.08l-0.11-0.03c-1.16-0.41-4.56,1.72-5.98,3.02c-0.64,0.56-1.35,1.3-2.16,2.28c0.78-1.57,2.1-3.92,3.02-4.89
						c0.03-0.03,0.08-0.08,0.08-0.11c0.11-0.19,0.3-0.41,0.3-0.41c-0.03,0.03-0.11,0.03-0.19,0.03c-0.03,0-0.03,0-0.08,0
						c-0.11,0-0.26-0.03-0.3-0.03l0,0c-0.11,0-0.19-0.03-0.3-0.03c-0.15-0.03-0.3-0.08-0.45-0.08c-1.08-0.08-1.53,0.56-2.35,2.05
						c-0.41,0.78-0.82,1.53-1.19,2.32c-0.08,0.08-0.11,0.15-0.19,0.26c-0.89,1.79-1.94,3.77-2.99,4.78
						c-0.33,0.33-0.94,0.64-1.38,0.6l0,0c-0.26-0.03-0.45-0.11-0.56-0.3c-0.22-0.3-0.22-0.86,0-1.61c0.08-0.22,0.37-0.89,0.37-0.94
						l2.54-5.98c0.19-0.45,0.3-0.75,0.15-0.97c-0.11-0.19-0.41-0.26-0.89-0.26l-1.94,0.03l0.11,0.15c0.37,0.45,0.45,0.89,0.3,1.27
						l-1.27,3.29c-0.56,1.08-1.38,2.65-2.35,4.04c-0.78,1.12-1.83,1.61-2.54,1.27c-0.78-0.37-1.01-1.57-0.6-3.21
						c0.11-0.49,0.3-0.97,0.45-1.42c0.08-0.22,0.15-0.49,0.22-0.67c3.43-3.1,5.38-6.95,6.53-9.6c1.16-2.58,0.82-3.89,0.11-4.26
						c-0.82-0.45-2.39,0.26-3.7,2.43c-1.87,3.14-3.85,7.74-4.82,11.17l-0.03,0.03c-0.08,0.15-0.19,0.37-0.26,0.56
						c-0.78,1.64-2.24,4.67-3.92,4.86c-0.3,0.03-0.86,0-1.38-0.41c-0.08-0.08-0.15-0.15-0.22-0.26c0.19-0.15,0.33-0.33,0.49-0.52
						c0.41-0.41,0.82-0.89,1.16-1.46l0,0c0.41-0.6,0.75-1.19,1.01-1.79c0.86-1.98,0.94-3.89,0.19-4.97
						c-0.41-0.6-1.05-0.94-1.83-0.97c-2.13-0.03-4.82,2.32-6.17,5.42c-0.08,0.15-0.11,0.3-0.19,0.45c-1.87,3.66-2.91,4.48-3.48,4.48
						l0,0c-0.19,0-0.33-0.08-0.41-0.22c-0.56-0.97,1.35-4.67,2.05-6.09c0.11-0.22,0.19-0.37,0.26-0.49c0.64-1.3,0.86-2.16,0.67-2.54
						l-0.03-0.03h-0.08c-1.35,0.15-2.91,0.19-4.15,0.15c0.49-0.37,1.42-1.16,1.61-2.05c0.19-0.82,0-1.57-0.49-1.98
						c-0.3-0.26-0.64-0.33-0.94-0.22c-0.37,0.11-0.6,0.49-0.71,1.01c-0.41,2.35-1.42,5.68-3.02,8.71c-1.16,2.1-2.43,3.89-3.29,3.85
						c-0.08,0-0.15-0.03-0.19-0.11c-0.11-0.15-0.26-0.52-0.03-1.72c0.41-1.91,2.28-5.27,2.95-5.94l0.22-0.22l-0.3,0.08
						c-0.26,0.08-0.56,0-0.86-0.08c-0.15-0.03-0.3-0.08-0.45-0.08c-1.08-0.08-1.53,0.71-2.24,2.1c-0.78,1.49-1.72,3.1-2.84,4.45
						c-0.86,1.01-1.83,1.57-2.39,1.3c-0.37-0.15-0.49-0.67-0.41-1.46c0.19-1.16,0.97-2.62,1.3-3.18c1.24-2.02,2.88-3.81,4.23-4.52
						c0.64-0.33,1.27-0.41,1.79-0.22c0.41,0.15,0.67,0.49,0.82,0.97v0.03h0.03c0.26,0.03,0.52-0.03,0.64-0.26
						c0.11-0.22,0.08-0.56-0.19-0.82c-0.64-0.71-1.57-1.05-2.62-1.05c-1.68,0.03-3.66,1.05-4.89,2.5c-1.27,1.53-2.02,3.02-2.39,4.34
						c-1.08,2.05-2.24,3.59-4.4,4.86c-3.1,1.87-7.17,2.35-10.65,1.35c-2.1-0.64-3.48-1.98-4.11-4.04
						c-1.46-4.59,1.19-11.28,2.16-12.7c1.49,2.99,4.15,4.82,7.92,5.34c4.56,0.67,8.66-0.75,10.98-3.77
						c1.64-2.13,2.13-4.82,1.19-6.99c-1.01-2.35-3.48-3.89-6.95-4.29c-5.15-0.6-9.87,1.46-13.27,5.72
						c-0.41-2.32-0.49-4.29-0.22-5.83c0.11-0.6-0.11-0.71-0.22-0.71c-0.22-0.03-0.49,0.19-0.56,0.52c-0.67,2.46-0.33,5.45,0.11,7.33
						c-2.69,3.4-4.75,9.34-3.51,14.16c0.71,2.8,2.5,4.89,5.15,6.02c1.57,0.67,3.25,1.01,4.89,1.01c2.62,0,5.23-0.82,7.63-2.46l0,0
						c1.64-1.16,2.65-2.32,3.55-3.66c-0.03,1.12,0.3,2.02,0.78,2.46c0.82,0.78,2.05,0.52,3.32-0.67c0.78-0.75,1.53-1.79,2.02-2.54
						c-0.37,1.68-0.03,2.58,0.3,3.07c0.45,0.56,1.08,0.64,1.38,0.64c0.03,0,0.08,0,0.11,0l0,0c0.78-0.08,1.57-0.71,2.28-1.61
						c1.57-1.76,3.07-5.31,3.62-6.84l0.37-0.97c1.27,0.03,2.05,0.26,2.32,0.64c0.11,0.19,0.11,0.45,0,0.71
						c-0.15,0.3-0.37,0.75-0.67,1.24c-0.49,0.82-1.01,1.72-1.3,2.54c-0.75,1.98-0.37,3.02,0.11,3.55c0.41,0.45,0.94,0.64,1.38,0.64
						c0.11,0,0.26,0,0.37-0.03l0,0c1.27-0.3,2.35-1.64,3.25-3.1c-0.03,0.86,0.11,1.61,0.49,2.16c0.41,0.64,1.05,0.97,1.87,0.97
						c0.03,0,0.08,0,0.11,0c0.56,0,1.12-0.15,1.76-0.49l0,0c0,0,0,0,0.03-0.03c0.3-0.15,0.6-0.33,0.89-0.56
						c0.22,0.26,0.64,0.52,1.16,0.67c0.78,0.26,1.42,0.03,1.42,0.03l0,0c1.3-0.3,2.39-1.61,3.18-2.91c-0.11,0.97-0.08,1.91,0.41,2.5
						c0.41,0.52,1.05,0.78,1.91,0.78c1.76,0,3.02-1.24,3.96-2.62c-0.03,0.64,0.08,1.24,0.41,1.72c0.37,0.56,0.97,0.82,1.79,0.82
						c0.71,0,1.38-0.37,1.98-0.94l-0.52,1.08c0.08-0.03,0.26-0.03,0.45-0.08c0.15-0.03,0.26-0.03,0.45-0.03c0.08,0,0.19,0,0.26,0
						c0.64,0,1.01-0.03,1.3-0.52c1.42-2.8,2.88-4.89,4.4-6.31c1.38-1.3,2.13-1.53,2.35-1.35c0.19,0.15,0.08,0.56-0.22,1.05
						c-1.01,1.64-1.53,2.62-1.76,3.37c-0.45,1.35-0.41,2.39,0.08,3.07c0.52,0.71,1.35,0.78,1.68,0.78c1.46,0,2.73-1.38,3.7-2.95
						c0,1.08,0.3,1.94,0.78,2.43c0.82,0.78,2.05,0.52,3.32-0.67c0.78-0.75,1.53-1.79,2.02-2.54c-0.37,1.68-0.03,2.58,0.3,3.07
						c0.45,0.56,1.08,0.64,1.38,0.64c0.03,0,0.08,0,0.11,0l0,0c1.79-0.15,3.55-3.29,4.89-5.98
						C179.92,39.43,179.96,39.21,179.85,39.1z M152.2,27.93L152.2,27.93c0.64-0.89,0.89-1.01,1.01-1.01h0.03
						c0.22,0.11,0.03,1.3-0.41,2.35c-1.08,2.62-3.18,6.24-5.5,8.71C148.35,35.44,150.67,30.09,152.2,27.93z M110.5,22.06
						c4.23,0.6,5.79,3.59,5.45,6.28c-0.45,3.62-4.29,7.14-10.46,6.42c-3.77-0.41-6.36-2.28-7.66-5.61
						C101.12,24.11,105.98,21.39,110.5,22.06z M137.55,44.33c-0.03,0.03-0.08,0.03-0.11,0.08c-0.52,0.3-1.05,0.41-1.42,0.33
						c-0.22-0.08-0.41-0.22-0.52-0.49c-0.37-0.82,0-2.58,0.97-4.59l0,0c0.22-0.45,0.45-0.89,0.67-1.27
						c-0.08,2.02,0.11,3.43,0.45,4.48c0.08,0.41,0.22,0.82,0.45,1.16C137.89,44.11,137.7,44.25,137.55,44.33z M138.04,41.26
						c-0.15-0.94-0.22-2.35-0.19-3.89l0,0c0.94-1.19,1.94-1.91,2.73-1.91c0.11,0,0.22,0,0.3,0.03c0.26,0.08,0.45,0.26,0.56,0.52
						c0.37,0.89,0.08,2.65-0.86,4.59c-0.11,0.22-0.22,0.45-0.33,0.67l0,0l0,0c0,0.03-0.03,0.03-0.03,0.08
						c-0.03,0.08-0.08,0.11-0.11,0.19c-0.08,0.11-0.15,0.26-0.26,0.41c-0.26,0.41-0.64,0.94-1.08,1.38
						C138.45,42.87,138.18,42.2,138.04,41.26z"/>
					<path class="st0" d="M161.76,34.84c0.03,0,0.15,0.03,0.3,0.03C161.95,34.87,161.87,34.87,161.76,34.84z"/>
				</g>
			</g>
		</g>
	</g>
</g>
</svg>
