<?xml version="1.0" encoding="utf-8"?>
<!-- Generator: Adobe Illustrator 21.0.0, SVG Export Plug-In . SVG Version: 6.00 Build 0)  -->
<svg version="1.1" id="Camada_1" xmlns="http://www.w3.org/2000/svg" xmlns:xlink="http://www.w3.org/1999/xlink" x="0px" y="0px"
	 viewBox="0 0 494 494" style="enable-background:new 0 0 494 494;" xml:space="preserve">
<style type="text/css">
	.st0{fill:#DD153C;}
	.st1{fill:#F28C9E;}
	.st2{fill:none;stroke:#F1F2F2;stroke-width:4;stroke-miterlimit:10;}
	.st3{fill:#FFFFFF;}
</style>
<g>
	<g>
		<g>
			<g>
				<path class="st0" d="M-797.8,485.7l-4.4-6.6h-3.5v6.6h-4.5v-20.5h9.4c2.4,0,4.3,0.6,5.7,1.8c1.4,1.2,2,2.8,2,5v0.1
					c0,1.7-0.4,3-1.2,4c-0.8,1-1.9,1.8-3.2,2.3l5,7.3H-797.8z M-797.7,472.2c0-1-0.3-1.7-0.9-2.2c-0.6-0.5-1.5-0.7-2.6-0.7h-4.5v5.9
					h4.6c1.1,0,2-0.3,2.6-0.8C-798,473.8-797.7,473.1-797.7,472.2L-797.7,472.2z"/>
				<path class="st0" d="M-774.4,485.7v-20.5h15.4v4h-11v4.2h9.7v4h-9.7v4.3h11.1v4H-774.4z"/>
				<path class="st0" d="M-723.8,483.9c-0.6,0.4-1.2,0.8-1.9,1.2c-0.7,0.3-1.4,0.6-2.2,0.7c-0.8,0.2-1.7,0.2-2.7,0.2
					c-1.5,0-2.9-0.3-4.2-0.8c-1.3-0.5-2.4-1.3-3.3-2.2c-0.9-1-1.7-2.1-2.2-3.4c-0.5-1.3-0.8-2.7-0.8-4.1v-0.1c0-1.5,0.3-2.8,0.8-4.1
					c0.5-1.3,1.3-2.4,2.2-3.4c0.9-1,2.1-1.7,3.4-2.3c1.3-0.6,2.7-0.8,4.3-0.8c1,0,1.8,0.1,2.6,0.2c0.8,0.2,1.5,0.4,2.1,0.6
					c0.6,0.3,1.2,0.6,1.8,1c0.5,0.4,1.1,0.8,1.5,1.3l-2.9,3.3c-0.8-0.7-1.6-1.3-2.4-1.7c-0.8-0.4-1.8-0.6-2.8-0.6
					c-0.9,0-1.7,0.2-2.4,0.5c-0.7,0.3-1.4,0.8-1.9,1.4c-0.5,0.6-0.9,1.3-1.2,2c-0.3,0.8-0.4,1.6-0.4,2.5v0.1c0,0.9,0.2,1.7,0.4,2.5
					c0.3,0.8,0.7,1.5,1.2,2c0.5,0.6,1.1,1.1,1.9,1.4c0.7,0.3,1.5,0.5,2.4,0.5c1.2,0,2.2-0.2,3-0.6c0.8-0.4,1.6-1,2.4-1.8l2.9,2.9
					C-722.7,482.9-723.3,483.4-723.8,483.9z"/>
				<path class="st0" d="M-683.9,479.5c-0.5,1.3-1.3,2.4-2.3,3.4c-1,1-2.1,1.7-3.5,2.3s-2.8,0.8-4.4,0.8c-1.6,0-3-0.3-4.4-0.8
					c-1.3-0.6-2.5-1.3-3.4-2.2c-1-0.9-1.7-2.1-2.3-3.3c-0.5-1.3-0.8-2.6-0.8-4.1v-0.1c0-1.5,0.3-2.8,0.8-4.1
					c0.5-1.3,1.3-2.4,2.3-3.4c1-1,2.1-1.7,3.5-2.3c1.3-0.6,2.8-0.8,4.4-0.8c1.6,0,3,0.3,4.4,0.8c1.3,0.6,2.5,1.3,3.4,2.3
					c1,0.9,1.7,2.1,2.3,3.3c0.5,1.3,0.8,2.6,0.8,4.1v0.1C-683.1,476.9-683.4,478.2-683.9,479.5z M-687.8,475.4
					c0-0.9-0.2-1.7-0.5-2.5c-0.3-0.8-0.7-1.5-1.3-2c-0.6-0.6-1.2-1.1-2-1.4c-0.8-0.3-1.6-0.5-2.5-0.5c-0.9,0-1.8,0.2-2.5,0.5
					c-0.7,0.3-1.4,0.8-1.9,1.4c-0.5,0.6-1,1.3-1.3,2c-0.3,0.8-0.4,1.6-0.4,2.5v0.1c0,0.9,0.1,1.7,0.4,2.5c0.3,0.8,0.7,1.5,1.3,2
					c0.6,0.6,1.2,1.1,2,1.4c0.7,0.3,1.6,0.5,2.5,0.5c0.9,0,1.7-0.2,2.5-0.5c0.8-0.3,1.4-0.8,2-1.4c0.5-0.6,1-1.3,1.3-2
					C-688,477.2-687.8,476.3-687.8,475.4L-687.8,475.4z"/>
				<path class="st0" d="M-652,485.7l-4.4-6.6h-3.5v6.6h-4.5v-20.5h9.4c2.4,0,4.3,0.6,5.7,1.8c1.4,1.2,2,2.8,2,5v0.1
					c0,1.7-0.4,3-1.2,4c-0.8,1-1.9,1.8-3.2,2.3l5,7.3H-652z M-651.9,472.2c0-1-0.3-1.7-0.9-2.2c-0.6-0.5-1.5-0.7-2.6-0.7h-4.5v5.9
					h4.6c1.1,0,2-0.3,2.6-0.8C-652.3,473.8-651.9,473.1-651.9,472.2L-651.9,472.2z"/>
				<path class="st0" d="M-610.6,479.4c-0.5,1.2-1.3,2.3-2.2,3.2c-1,0.9-2.1,1.6-3.4,2.2c-1.3,0.5-2.8,0.8-4.4,0.8h-8v-20.5h8
					c1.6,0,3.1,0.3,4.4,0.8c1.3,0.5,2.5,1.2,3.4,2.2c1,0.9,1.7,2,2.2,3.2c0.5,1.2,0.8,2.6,0.8,4v0.1
					C-609.8,476.9-610.1,478.2-610.6,479.4z M-614.5,475.4c0-0.9-0.2-1.7-0.5-2.5c-0.3-0.8-0.7-1.4-1.3-2c-0.5-0.5-1.2-1-2-1.3
					c-0.8-0.3-1.6-0.5-2.5-0.5h-3.5v12.3h3.5c0.9,0,1.8-0.1,2.5-0.4c0.8-0.3,1.4-0.7,2-1.3c0.5-0.5,1-1.2,1.3-1.9
					C-614.7,477.2-614.5,476.4-614.5,475.4L-614.5,475.4z"/>
				<path class="st0" d="M-576.9,482.3c-0.4,0.8-0.9,1.5-1.5,2s-1.4,0.9-2.4,1.2c-0.9,0.3-1.9,0.4-3,0.4c-1.6,0-3.1-0.3-4.6-0.8
					c-1.5-0.5-2.9-1.4-4.1-2.5l2.7-3.2c0.9,0.8,1.9,1.4,2.9,1.8c1,0.4,2.1,0.7,3.2,0.7c0.9,0,1.7-0.2,2.2-0.5
					c0.5-0.3,0.8-0.8,0.8-1.4V480c0-0.3-0.1-0.6-0.2-0.8c-0.1-0.2-0.3-0.4-0.6-0.6c-0.3-0.2-0.7-0.4-1.3-0.6
					c-0.5-0.2-1.2-0.4-2.1-0.6c-1-0.3-2-0.5-2.8-0.8s-1.6-0.7-2.1-1.2c-0.6-0.5-1-1-1.4-1.7c-0.3-0.7-0.5-1.5-0.5-2.5V471
					c0-0.9,0.2-1.8,0.5-2.5c0.4-0.8,0.8-1.4,1.5-1.9c0.6-0.5,1.4-1,2.3-1.3c0.9-0.3,1.8-0.4,2.9-0.4c1.5,0,2.9,0.2,4.1,0.7
					c1.3,0.4,2.4,1.1,3.5,1.9l-2.3,3.4c-0.9-0.6-1.8-1.1-2.7-1.5c-0.9-0.4-1.7-0.5-2.6-0.5s-1.5,0.2-2,0.5c-0.4,0.3-0.7,0.8-0.7,1.3
					v0.1c0,0.3,0.1,0.6,0.2,0.9c0.1,0.2,0.4,0.5,0.7,0.7c0.3,0.2,0.8,0.4,1.4,0.6c0.6,0.2,1.3,0.4,2.2,0.6c1,0.3,2,0.6,2.8,0.9
					c0.8,0.3,1.5,0.7,2.1,1.2c0.6,0.5,1,1,1.3,1.7c0.3,0.6,0.4,1.4,0.4,2.3v0.1C-576.4,480.6-576.6,481.5-576.9,482.3z"/>
			</g>
			<g>
				<path class="st0" d="M-748.8,250.8c-12.4,0-23.1,0-32.1,0c-8.8,0-16.3,0-22.4,0c-14.2,0-22.6,0-25.2,0c-1.2,0-2.3,0-3.5,0
					c-2.8,0-6.6,0-11.2,0c-2.2,0-4.4,0-6.6,0c-5.9,0-13.3,0-22.1,0c-4.5,0-9,0-13.5,0c-2.8,0-6.5,0-10.8,0c-2.3,0-4.6,0-7,0
					c-8.4,0-16.8,0-25.2,0c0,11.4,0,22.8,0,34.2c8.4-0.3,16.8-0.5,25.1-0.8c3.1-0.1,6.8-0.2,11.2-0.3c2.2-0.1,4.4-0.1,6.6-0.2
					c0,8.2,0,17.8-0.1,28.7c0,10.9-0.1,21.8-0.1,32.6c0,16.4-0.1,31-0.1,43.5c0,6.3,0,12.6,0,18.9c0,2.9-1,5.4-3.1,7.7
					c-2.3,2.5-4.9,3.9-7.7,4.3c-12.6,1.8-19.9,2.9-22,3.2c-1,0.2-2.1,0.3-3.1,0.5c0-3,0-6.6,0-10.8c0-2.1,0-4.2,0-6.4
					c-5.9,0.8-13.2,1.9-21.9,3.3c-4.4,0.7-8.7,1.4-13,2.1c0,2.8,0,6.4,0,10.8c0,2.6,0,4.4,0,5.4c0,0.5,0,1,0,1.5c0,2.6,0,5.9,0,10.1
					c0,1.3,0,2.5,0,3.5c0,0.9,0,1.8,0,2.7c0,5.2,1.9,9.3,5.7,12.3c3.6,3.1,8,4,13.4,2.9c4.6-0.9,9.8-2,15.7-3.1
					c5.6-1.1,11.4-2.1,17.3-3.2c9-1.6,16.8-2.8,23.5-3.8c3.3-0.5,6.7-1,10-1.5c4.9-0.7,9.3-2.7,13.2-6.1c3.9-3.6,6.2-7.5,7-11.8
					c0.3-0.7,0.4-1.5,0.4-2.2c0-0.7,0-1.4,0-2.1c0.1-26.6,0.1-49.4,0.2-68.2c0.1-18.9,0.1-34.7,0.1-47.4c0-9.2,0.1-17.1,0.1-23.7
					c0-1.6,0-3.1,0-4.6c3.1-0.1,6.8-0.1,11.2-0.2c2.2,0,4.4-0.1,6.6-0.1c0,10.7-0.1,23.2-0.1,37.4c0,14.2-0.1,28.5-0.1,42.7
					c-0.1,21.2-0.1,40.1-0.2,56.7c0,8.3,0,16.6-0.1,24.8c5.9-0.6,13.4-1.4,22.5-2.2c2.8-0.2,5.3-0.5,7.4-0.6
					c1.9-0.2,3.9-0.3,5.8-0.5c0-4.4,0-9.3,0-14.8c0-5.5,0-11.1,0-16.9c0-8.2,0-15.6,0.1-22c0-1.4,0-2.8,0-4.2
					c3.6-2.1,7.1-4.2,10.7-6.3c8.4-4.9,16.7-9.7,25.1-14.4c0,4.5,0,9,0,13.4c0,4.3,0,9.2,0,14.6c0,5.7,0,11.2,0,16.7
					c0,8.2,0,15.5,0,22.1c0,3.2,0,6.3,0,9.5c6-0.3,13.5-0.6,22.6-0.8c4.5-0.1,9.1-0.2,13.6-0.3c0-8.6,0-18.4,0-29.4
					c0-11,0-22.1,0-33.1c0-16.7,0-31.4,0-44.3c0.1-6.4,0.3-12.8,0.4-19.3c0-5.4,0-12.1,0-19.9c0-4.1,0-8.1,0-12.2c0-1.4,0-2.9,0-4.7
					c0-1,0-2,0-3c0-5.9-2.4-10.8-7.3-14.9C-736.7,252.8-742.4,250.8-748.8,250.8z M-760.9,311.3c0,5.9,0,10.8,0,14.6
					c0,1.4,0,2.6,0,3.8c-9,5-18.1,10.1-27.1,15.3c-2.9,1.6-5.7,3.3-8.6,5c0-1.6,0-3.1,0-4.7c0-4.1,0-8.9,0-14.4c0-5.7,0-11.3,0-16.8
					c0-8.5,0-15.9,0.1-22.4c0-0.2,0-0.5,0-0.7c0-3,0-6,0-8.9c4.4-0.1,9.7-0.1,15.9-0.2c3.2,0,6.5-0.1,9.7-0.1c2.8,0,5.3,0.9,7.4,2.7
					c1.8,1.8,2.7,3.9,2.7,6.4C-760.9,298.9-760.9,305.7-760.9,311.3z"/>
				<path class="st0" d="M-472.7,257.7c-4.9-4.6-10.6-6.9-17-6.9c-12.4,0-23.1,0-32.1,0c-8.8,0-16.3,0-22.4,0c-4.1,0-7.7,0-10.9,0
					c-4.9,0-8.7,0-11.2,0c-1.4,0-2.4,0-3.1,0c-1.2,0-2.3,0-3.5,0c0,5.4,0,12.1,0.1,20.1c0,2.6,0,4.8,0,6.7c0,1.9,0,3.2,0,3.9
					c0,0.5,0,0.9,0,1.4c0,0,0,0,0,0c0,10.8,0.1,23.5,0.1,37.8c0,14.4,0.1,28.8,0.1,43.1c0.1,21.4,0.1,40.5,0.2,57.3
					c0,8.4,0,16.7,0.1,25.1c5.9,0.7,13.4,1.7,22.4,3c2.8,0.4,5.3,0.8,7.3,1.1c1.9,0.3,3.9,0.6,5.8,0.9c0-4.6,0-9.8,0-15.6
					c0-5.8,0-11.7,0-17.8c0-8.7,0-16.4-0.1-23.2c0-3.5,0-7,0-10.5c0-4.8,0-9.5,0-14.3c8.3,5.5,16.6,11.2,24.9,17.1
					c3.5,2.5,7.1,5,10.6,7.6c0,3.1,0,6.3,0,9.8c0,6.2,0,12.3,0,18.3c0,9,0,17.1,0,24.3c0,3.5,0,7,0,10.5c5.9,1.1,13.3,2.6,22.3,4.4
					c4.5,0.9,8.9,1.9,13.4,2.9c0-9.8,0-21,0-33.7c0-12.6,0-25.3,0-37.9c0-19.1,0-36,0-50.7c0.1-7.3,0.3-14.7,0.4-22
					c0-6.2,0-13.8,0-22.8c0-4.6,0-9.3,0-13.9c0-1.5,0-3.4,0-5.4c0-1.2,0-2.3,0-3.5C-465.4,268.1-467.8,262.4-472.7,257.7z
					 M-501.6,317.3c0,6.5,0,11.8,0,16.1c0,10.2,0,16.2,0,17.9c0,0.7,0,1.5,0,2.2c0,1.7,0,3.4,0,5.1c-2.8-2-5.7-3.9-8.5-5.8
					c-9-6.1-18-12-27-17.8c0-5.9,0-11.8,0-17.5c0-8.9,0-16.8-0.1-23.6c0-0.2,0-0.5,0-0.7c0-3.1,0-6.3,0-9.4
					c4.4,0.1,9.7,0.3,15.9,0.4c3.2,0.1,6.4,0.2,9.7,0.3c2.8,0.1,5.3,1.1,7.4,3.2c1.8,2.1,2.7,4.4,2.7,7.2
					C-501.7,303.6-501.6,311.1-501.6,317.3z"/>
				<path class="st0" d="M-610.9,250.8c-3.4,0-7.4,0-12,0c-4.4,0-8.9,0-13.5,0c-6.7,0-12.6,0-17.8,0c-2.7,0-5.4,0-8.1,0
					c-4.9,0-10.9,0-17.8,0c-1.2,0-2.7,0-4.2,0c-2.1,0-4.4,0-7,0c-2.2,0-4.4,0-6.6,0c0,5.2,0,11.6,0,19.3c0,2.5,0,4.6,0,6.4
					c0,1.8,0,3,0,3.7c0,0.5,0,0.9,0,1.4c0,0,0,0,0,0c0,4.1,0,8.8,0,14.2c0,5.4,0,10.8,0,16.2c0,8.1,0,15.3,0,21.6c0,3,0,6.1,0,9.1
					c-6,0-11.9,0-17.9,0c0,10.8,0,21.6,0,32.3c6,0,11.9,0,17.9,0c0,0,0,0.1,0,0.1c0,4.3,0,9.1,0,14.5c0,5.6,0,11.2,0,16.6
					c0,8.1,0,15.4,0,22c0,3.2,0,6.3,0,9.5c6,0.1,13.5,0.2,22.6,0.5c2.9,0.1,5.3,0.2,7.4,0.3c1.9,0.1,3.9,0.2,5.8,0.2
					c0-4.3,0-9.2,0-14.6c0-5.4,0-11,0-16.7c0-8.2,0-15.4,0-21.8c0-3.3,0-6.6,0-9.9c3.4,0.1,7.2,0.2,11.7,0.4
					c4.4,0.2,8.8,0.3,13.2,0.5c6.7,0.3,12.5,0.6,17.5,0.9c2.6,0.1,5.2,0.3,7.8,0.4c3.1,0.2,5.9-0.1,8.5-0.9c2.3-0.8,4.5-2,6.6-3.8
					c2.1-1.7,3.6-3.6,4.6-5.6c1.3-2.2,1.9-4.8,1.9-7.6c0-11.7-0.1-21.6-0.1-29.7c0-8.4,0-15.5-0.1-21.3c0-13.3-0.1-21-0.1-23.1
					c0-1.2,0-2.3,0-3.5c0-2.3,0-5.2,0-8.7c0-1.7,0-3.5,0-5.2c0-4.9-2-9.1-5.8-12.6C-600.4,252.5-605.2,250.8-610.9,250.8z
					 M-626.6,308.2c0,4.4,0,8.1,0,11.3c0,7.1,0,11.2,0,12.4c0,0.7,0,1.4,0,2.1c0,2.8-1,5.1-3.1,7.1c-2.3,2-5.2,2.9-8.5,2.8
					c-11.9-0.4-18.9-0.5-21-0.6c-0.5,0-1,0-1.6,0c-0.5,0-1,0-1.6,0c0-4.1,0-8.8,0-14.3c0-5.4,0-10.9,0-16.3c0-8.2,0-15.3,0-21.4
					c0-3.2,0-6.3,0-9.5c4.1,0,9.2,0.1,15.1,0.1c3.1,0,6.2,0.1,9.3,0.1c3.1,0,5.8,1.1,8.1,3.2c2.1,1.9,3.1,4.3,3.1,7.3
					C-626.6,298.6-626.6,303.9-626.6,308.2z"/>
			</g>
		</g>
	</g>
	<g>
		<g>
			<path class="st0" d="M-704.1-8c-58.7,0-106.3,47.6-106.3,106.3c0,58.7,47.6,106.3,106.3,106.3c58.7,0,106.3-47.6,106.3-106.3
				C-597.8,39.6-645.4-8-704.1-8z M-704.1,103.9c-3.1,0-5.5-2.5-5.5-5.5c0-3.1,2.5-5.5,5.5-5.5c3.1,0,5.5,2.5,5.5,5.5
				C-698.6,101.4-701.1,103.9-704.1,103.9z"/>
			<g>
				<g>
					<path class="st1" d="M-704.1,193.4c-52.4,0-95-42.6-95-95c0-52.4,42.6-95,95-95c52.4,0,95,42.6,95,95
						C-609.1,150.7-651.7,193.4-704.1,193.4z M-704.1,4.1c-52,0-94.2,42.3-94.2,94.2c0,52,42.3,94.2,94.2,94.2
						c52,0,94.2-42.3,94.2-94.2C-609.9,46.3-652.2,4.1-704.1,4.1z"/>
				</g>
				<g>
					<path class="st1" d="M-704.1,185.6c-48.1,0-87.3-39.2-87.3-87.3c0-48.1,39.2-87.3,87.3-87.3s87.3,39.2,87.3,87.3
						C-616.8,146.4-656,185.6-704.1,185.6z M-704.1,11.8c-47.7,0-86.5,38.8-86.5,86.5c0,47.7,38.8,86.5,86.5,86.5
						c47.7,0,86.5-38.8,86.5-86.5C-617.7,50.6-656.4,11.8-704.1,11.8z"/>
				</g>
				<g>
					<path class="st1" d="M-704.1,199.7c-55.9,0-101.4-45.5-101.4-101.4c0-55.9,45.5-101.4,101.4-101.4
						c55.9,0,101.4,45.5,101.4,101.4C-602.7,154.2-648.2,199.7-704.1,199.7z M-704.1-2.3c-55.5,0-100.6,45.1-100.6,100.6
						c0,55.5,45.1,100.6,100.6,100.6c55.5,0,100.6-45.1,100.6-100.6C-603.5,42.8-648.7-2.3-704.1-2.3z"/>
				</g>
				<g>
					<path class="st1" d="M-704.1,178.4c-44.2,0-80.1-35.9-80.1-80.1c0-44.2,35.9-80.1,80.1-80.1c44.2,0,80.1,35.9,80.1,80.1
						C-624.1,142.5-660,178.4-704.1,178.4z M-704.1,19c-43.7,0-79.3,35.6-79.3,79.3c0,43.7,35.6,79.3,79.3,79.3
						c43.7,0,79.3-35.6,79.3-79.3C-624.9,54.6-660.4,19-704.1,19z"/>
				</g>
				<g>
					<path class="st1" d="M-704.1,170c-39.5,0-71.7-32.2-71.7-71.7c0-39.5,32.2-71.7,71.7-71.7c39.5,0,71.7,32.2,71.7,71.7
						C-632.4,137.8-664.6,170-704.1,170z M-704.1,27.4c-39.1,0-70.9,31.8-70.9,70.9c0,39.1,31.8,70.9,70.9,70.9
						c39.1,0,70.9-31.8,70.9-70.9C-633.3,59.2-665.1,27.4-704.1,27.4z"/>
				</g>
				<g>
					<path class="st1" d="M-704.1,162.3c-35.3,0-64-28.7-64-64c0-35.3,28.7-64,64-64c35.3,0,64,28.7,64,64
						C-640.1,133.6-668.9,162.3-704.1,162.3z M-704.1,35.1c-34.8,0-63.2,28.3-63.2,63.2c0,34.8,28.3,63.2,63.2,63.2
						c34.8,0,63.2-28.3,63.2-63.2C-640.9,63.5-669.3,35.1-704.1,35.1z"/>
				</g>
				<g>
					<path class="st1" d="M-704.1,154.6c-31,0-56.3-25.3-56.3-56.3c0-31,25.3-56.3,56.3-56.3c31,0,56.3,25.3,56.3,56.3
						C-647.8,129.4-673.1,154.6-704.1,154.6z M-704.1,42.8c-30.6,0-55.5,24.9-55.5,55.5c0,30.6,24.9,55.5,55.5,55.5
						c30.6,0,55.5-24.9,55.5-55.5C-648.6,67.7-673.5,42.8-704.1,42.8z"/>
				</g>
				<g>
					<path class="st1" d="M-704.1,146.9c-26.8,0-48.6-21.8-48.6-48.6c0-26.8,21.8-48.6,48.6-48.6c26.8,0,48.6,21.8,48.6,48.6
						C-655.5,125.1-677.3,146.9-704.1,146.9z M-704.1,50.5c-26.4,0-47.8,21.4-47.8,47.8c0,26.4,21.4,47.8,47.8,47.8
						c26.4,0,47.8-21.4,47.8-47.8C-656.3,72-677.8,50.5-704.1,50.5z"/>
				</g>
				<g>
					<path class="st1" d="M-704.1,138.5c-22.2,0-40.2-18-40.2-40.2c0-22.2,18-40.2,40.2-40.2c22.2,0,40.2,18,40.2,40.2
						C-663.9,120.5-682,138.5-704.1,138.5z M-704.1,58.9c-21.7,0-39.4,17.7-39.4,39.4c0,21.7,17.7,39.4,39.4,39.4
						c21.7,0,39.4-17.7,39.4-39.4C-664.7,76.6-682.4,58.9-704.1,58.9z"/>
				</g>
			</g>
			<circle class="st2" cx="-704.1" cy="98.3" r="32.8"/>
			<g>
				<path class="st0" d="M-704.1,65.5c-18.1,0-32.8,14.7-32.8,32.8c0,18.1,14.7,32.8,32.8,32.8c18.1,0,32.8-14.7,32.8-32.8
					C-671.3,80.2-686,65.5-704.1,65.5z M-704.1,103.9c-3.1,0-5.6-2.5-5.6-5.6c0-3.1,2.5-5.6,5.6-5.6c3.1,0,5.6,2.5,5.6,5.6
					C-698.5,101.4-701,103.9-704.1,103.9z"/>
			</g>
		</g>
	</g>
</g>
<g>
	<circle class="st0" cx="247" cy="247" r="218"/>
	<g>
		<g>
			<path class="st3" d="M179.7,322l-2.9-4.4h-2.4v4.4h-3v-13.8h6.3c1.6,0,2.9,0.4,3.8,1.2c0.9,0.8,1.4,1.9,1.4,3.3v0
				c0,1.1-0.3,2-0.8,2.7c-0.5,0.7-1.3,1.2-2.1,1.5l3.4,4.9H179.7z M179.8,312.9c0-0.7-0.2-1.1-0.6-1.5c-0.4-0.3-1-0.5-1.7-0.5h-3v4
				h3.1c0.7,0,1.3-0.2,1.7-0.5C179.6,314,179.8,313.5,179.8,312.9L179.8,312.9z"/>
			<path class="st3" d="M195.4,322v-13.8h10.4v2.7h-7.4v2.8h6.5v2.7h-6.5v2.9h7.5v2.7H195.4z"/>
			<path class="st3" d="M229.4,320.8c-0.4,0.3-0.8,0.6-1.2,0.8c-0.5,0.2-0.9,0.4-1.5,0.5c-0.5,0.1-1.1,0.2-1.8,0.2
				c-1,0-1.9-0.2-2.8-0.6c-0.9-0.4-1.6-0.9-2.2-1.5c-0.6-0.6-1.1-1.4-1.5-2.3c-0.4-0.9-0.5-1.8-0.5-2.8v0c0-1,0.2-1.9,0.5-2.8
				c0.4-0.9,0.8-1.6,1.5-2.3c0.6-0.6,1.4-1.2,2.3-1.5c0.9-0.4,1.8-0.6,2.9-0.6c0.6,0,1.2,0.1,1.8,0.2c0.5,0.1,1,0.2,1.4,0.4
				s0.8,0.4,1.2,0.7s0.7,0.6,1,0.9l-1.9,2.2c-0.5-0.5-1.1-0.9-1.6-1.1s-1.2-0.4-1.9-0.4c-0.6,0-1.1,0.1-1.6,0.3
				c-0.5,0.2-0.9,0.5-1.3,0.9s-0.6,0.8-0.8,1.4c-0.2,0.5-0.3,1.1-0.3,1.7v0c0,0.6,0.1,1.1,0.3,1.7c0.2,0.5,0.5,1,0.8,1.4
				c0.3,0.4,0.8,0.7,1.3,0.9c0.5,0.2,1,0.3,1.6,0.3c0.8,0,1.4-0.1,2-0.4s1.1-0.7,1.6-1.2l1.9,1.9
				C230.1,320.1,229.8,320.4,229.4,320.8z"/>
			<path class="st3" d="M256.2,317.8c-0.4,0.9-0.9,1.6-1.5,2.3c-0.7,0.6-1.4,1.2-2.3,1.5c-0.9,0.4-1.9,0.6-2.9,0.6
				c-1.1,0-2-0.2-2.9-0.6c-0.9-0.4-1.7-0.9-2.3-1.5c-0.6-0.6-1.2-1.4-1.5-2.2c-0.4-0.9-0.5-1.8-0.5-2.8v0c0-1,0.2-1.9,0.6-2.8
				c0.4-0.9,0.9-1.6,1.5-2.3c0.6-0.6,1.4-1.2,2.3-1.5c0.9-0.4,1.9-0.6,2.9-0.6c1.1,0,2,0.2,2.9,0.6c0.9,0.4,1.7,0.9,2.3,1.5
				c0.6,0.6,1.1,1.4,1.5,2.2c0.4,0.9,0.5,1.8,0.5,2.8v0C256.7,316.1,256.5,317,256.2,317.8z M253.6,315.1c0-0.6-0.1-1.1-0.3-1.7
				c-0.2-0.5-0.5-1-0.9-1.4c-0.4-0.4-0.8-0.7-1.3-0.9c-0.5-0.2-1.1-0.3-1.7-0.3c-0.6,0-1.2,0.1-1.7,0.3c-0.5,0.2-0.9,0.5-1.3,0.9
				s-0.6,0.8-0.8,1.4c-0.2,0.5-0.3,1.1-0.3,1.7v0c0,0.6,0.1,1.1,0.3,1.7c0.2,0.5,0.5,1,0.9,1.4c0.4,0.4,0.8,0.7,1.3,0.9
				c0.5,0.2,1.1,0.3,1.7,0.3c0.6,0,1.2-0.1,1.7-0.3c0.5-0.2,1-0.5,1.3-0.9c0.4-0.4,0.6-0.8,0.8-1.4
				C253.5,316.3,253.6,315.7,253.6,315.1L253.6,315.1z"/>
			<path class="st3" d="M277.6,322l-2.9-4.4h-2.4v4.4h-3v-13.8h6.3c1.6,0,2.9,0.4,3.8,1.2c0.9,0.8,1.4,1.9,1.4,3.3v0
				c0,1.1-0.3,2-0.8,2.7c-0.5,0.7-1.3,1.2-2.1,1.5l3.4,4.9H277.6z M277.7,312.9c0-0.7-0.2-1.1-0.6-1.5c-0.4-0.3-1-0.5-1.7-0.5h-3v4
				h3.1c0.7,0,1.3-0.2,1.7-0.5C277.5,314,277.7,313.5,277.7,312.9L277.7,312.9z"/>
			<path class="st3" d="M305.4,317.8c-0.4,0.8-0.9,1.6-1.5,2.2c-0.6,0.6-1.4,1.1-2.3,1.5c-0.9,0.4-1.9,0.5-3,0.5h-5.4v-13.8h5.4
				c1.1,0,2.1,0.2,3,0.5c0.9,0.3,1.7,0.8,2.3,1.4c0.7,0.6,1.2,1.3,1.5,2.2c0.4,0.8,0.5,1.7,0.5,2.7v0
				C306,316,305.8,316.9,305.4,317.8z M302.8,315.1c0-0.6-0.1-1.2-0.3-1.7c-0.2-0.5-0.5-1-0.8-1.3c-0.4-0.4-0.8-0.7-1.3-0.9
				c-0.5-0.2-1.1-0.3-1.7-0.3h-2.3v8.3h2.3c0.6,0,1.2-0.1,1.7-0.3c0.5-0.2,0.9-0.5,1.3-0.8c0.4-0.4,0.6-0.8,0.8-1.3
				C302.7,316.3,302.8,315.7,302.8,315.1L302.8,315.1z"/>
			<path class="st3" d="M328.1,319.7c-0.2,0.5-0.6,1-1,1.3c-0.4,0.4-1,0.6-1.6,0.8c-0.6,0.2-1.3,0.3-2,0.3c-1,0-2.1-0.2-3.1-0.5
				c-1-0.4-1.9-0.9-2.8-1.7l1.8-2.1c0.6,0.5,1.3,0.9,1.9,1.2c0.7,0.3,1.4,0.5,2.2,0.5c0.6,0,1.1-0.1,1.5-0.3c0.3-0.2,0.5-0.5,0.5-1
				v0c0-0.2,0-0.4-0.1-0.5c-0.1-0.2-0.2-0.3-0.4-0.4c-0.2-0.1-0.5-0.3-0.8-0.4c-0.4-0.1-0.8-0.3-1.4-0.4c-0.7-0.2-1.3-0.4-1.9-0.6
				c-0.6-0.2-1-0.5-1.4-0.8c-0.4-0.3-0.7-0.7-0.9-1.1c-0.2-0.5-0.3-1-0.3-1.7v0c0-0.6,0.1-1.2,0.4-1.7c0.2-0.5,0.6-0.9,1-1.3
				c0.4-0.4,0.9-0.6,1.5-0.8c0.6-0.2,1.2-0.3,1.9-0.3c1,0,1.9,0.1,2.8,0.5c0.8,0.3,1.6,0.7,2.3,1.3l-1.6,2.3c-0.6-0.4-1.2-0.8-1.8-1
				c-0.6-0.2-1.2-0.4-1.8-0.4c-0.6,0-1,0.1-1.3,0.3c-0.3,0.2-0.4,0.5-0.4,0.9v0c0,0.2,0,0.4,0.1,0.6c0.1,0.2,0.2,0.3,0.5,0.4
				c0.2,0.1,0.5,0.3,0.9,0.4c0.4,0.1,0.9,0.3,1.5,0.4c0.7,0.2,1.3,0.4,1.9,0.6c0.5,0.2,1,0.5,1.4,0.8c0.4,0.3,0.7,0.7,0.8,1.1
				c0.2,0.4,0.3,1,0.3,1.6v0C328.4,318.6,328.3,319.2,328.1,319.7z"/>
		</g>
		<g>
			<path class="st3" d="M212.6,164.2c-8.3,0-15.5,0-21.6,0c-5.9,0-10.9,0-15.1,0c-9.5,0-15.2,0-16.9,0c-0.8,0-1.6,0-2.3,0
				c-1.9,0-4.4,0-7.5,0c-1.5,0-2.9,0-4.4,0c-4,0-8.9,0-14.8,0c-3,0-6.1,0-9.1,0c-1.9,0-4.3,0-7.3,0c-1.6,0-3.1,0-4.7,0
				c-5.6,0-11.3,0-16.9,0c0,7.7,0,15.3,0,23c5.6-0.2,11.3-0.4,16.9-0.5c2.1-0.1,4.6-0.1,7.5-0.2c1.5,0,2.9-0.1,4.4-0.1
				c0,5.5,0,11.9-0.1,19.2c0,7.3,0,14.6-0.1,21.9c0,11-0.1,20.8-0.1,29.2c0,4.2,0,8.4,0,12.7c0,2-0.7,3.7-2.1,5.1
				c-1.6,1.7-3.3,2.6-5.2,2.9c-8.5,1.2-13.4,2-14.7,2.2c-0.7,0.1-1.4,0.2-2.1,0.3c0-2,0-4.4,0-7.3c0-1.4,0-2.8,0-4.3
				c-4,0.6-8.9,1.3-14.7,2.2c-2.9,0.5-5.8,0.9-8.8,1.4c0,1.9,0,4.3,0,7.3c0,1.7,0,3,0,3.6c0,0.3,0,0.7,0,1c0,1.7,0,4,0,6.8
				c0,0.9,0,1.6,0,2.3c0,0.6,0,1.2,0,1.8c0,3.5,1.3,6.2,3.9,8.3c2.4,2.1,5.4,2.7,9,2c3.1-0.6,6.6-1.3,10.6-2.1
				c3.8-0.7,7.7-1.4,11.6-2.1c6-1.1,11.3-1.9,15.8-2.6c2.2-0.3,4.5-0.7,6.7-1c3.3-0.5,6.2-1.8,8.8-4.1c2.6-2.4,4.2-5,4.7-8
				c0.2-0.5,0.3-1,0.3-1.5c0-0.5,0-1,0-1.4c0.1-17.9,0.1-33.2,0.1-45.8c0-12.7,0.1-23.3,0.1-31.8c0-6.2,0-11.5,0-15.9
				c0-1.1,0-2.1,0-3.1c2.1,0,4.6-0.1,7.5-0.1c1.5,0,2.9-0.1,4.4-0.1c0,7.2,0,15.6-0.1,25.1c0,9.6-0.1,19.1-0.1,28.7
				c0,14.3-0.1,26.9-0.1,38.1c0,5.6,0,11.1,0,16.7c4-0.4,9-0.9,15.1-1.5c1.9-0.2,3.6-0.3,5-0.4c1.3-0.1,2.6-0.2,3.9-0.3
				c0-2.9,0-6.2,0-9.9c0-3.7,0-7.5,0-11.3c0-5.5,0-10.5,0-14.8c0-0.9,0-1.9,0-2.8c2.4-1.4,4.8-2.8,7.2-4.2
				c5.6-3.3,11.2-6.5,16.8-9.6c0,3,0,6,0,9c0,2.9,0,6.2,0,9.8c0,3.8,0,7.5,0,11.2c0,5.5,0,10.4,0,14.8c0,2.1,0,4.3,0,6.4
				c4-0.2,9.1-0.4,15.2-0.5c3.1-0.1,6.1-0.1,9.2-0.2c0-5.8,0-12.3,0-19.8c0-7.4,0-14.8,0-22.3c0-11.2,0-21.1,0-29.8
				c0.1-4.3,0.2-8.6,0.3-12.9c0-3.6,0-8.1,0-13.4c0-2.7,0-5.5,0-8.2c0-0.9,0-2,0-3.2c0-0.7,0-1.4,0-2c0-3.9-1.6-7.3-4.9-10
				C220.7,165.6,216.9,164.2,212.6,164.2z M204.5,204.8c0,4,0,7.2,0,9.8c0,0.9,0,1.8,0,2.6c-6.1,3.4-12.1,6.8-18.2,10.3
				c-1.9,1.1-3.8,2.2-5.8,3.3c0-1,0-2.1,0-3.1c0-2.8,0-6,0-9.7c0-3.8,0-7.6,0-11.3c0-5.7,0-10.7,0-15c0-0.2,0-0.3,0-0.5c0-2,0-4,0-6
				c2.9,0,6.5-0.1,10.7-0.1c2.2,0,4.3,0,6.5-0.1c1.9,0,3.5,0.6,4.9,1.8c1.2,1.2,1.8,2.6,1.8,4.3C204.5,196.5,204.5,201,204.5,204.8z
				"/>
			<path class="st3" d="M398.1,168.8c-3.3-3.1-7.1-4.6-11.4-4.6c-8.3,0-15.5,0-21.6,0c-5.9,0-10.9,0-15.1,0c-2.8,0-5.2,0-7.3,0
				c-3.3,0-5.8,0-7.5,0c-0.9,0-1.6,0-2.1,0c-0.8,0-1.6,0-2.4,0c0,3.6,0,8.2,0,13.5c0,1.7,0,3.2,0,4.5c0,1.3,0,2.1,0,2.6
				c0,0.3,0,0.6,0,0.9c0,0,0,0,0,0c0,7.3,0,15.8,0.1,25.4c0,9.7,0.1,19.3,0.1,29c0,14.4,0.1,27.2,0.1,38.5c0,5.6,0,11.2,0,16.9
				c4,0.5,9,1.1,15.1,2c1.9,0.3,3.5,0.5,4.9,0.7c1.3,0.2,2.6,0.4,3.9,0.6c0-3.1,0-6.6,0-10.5c0-3.9,0-7.9,0-11.9c0-5.8,0-11,0-15.6
				c0-2.4,0-4.7,0-7.1c0-3.2,0-6.4,0-9.6c5.6,3.7,11.2,7.5,16.8,11.5c2.4,1.7,4.7,3.4,7.1,5.1c0,2.1,0,4.2,0,6.6c0,4.2,0,8.3,0,12.3
				c0,6,0,11.5,0,16.3c0,2.3,0,4.7,0,7c4,0.8,8.9,1.7,14.9,3c3,0.6,6,1.3,9,2c0-6.6,0-14.1,0-22.6c0-8.5,0-17,0-25.5
				c0-12.8,0-24.2,0-34c0.1-4.9,0.2-9.9,0.3-14.8c0-4.2,0-9.3,0-15.3c0-3.1,0-6.2,0-9.4c0-1,0-2.3,0-3.6c0-0.8,0-1.6,0-2.3
				C403,175.8,401.4,172,398.1,168.8z M378.6,208.9c0,4.4,0,7.9,0,10.8c0,6.9,0,10.9,0,12c0,0.5,0,1,0,1.5c0,1.1,0,2.3,0,3.4
				c-1.9-1.3-3.8-2.6-5.7-3.9c-6-4.1-12.1-8.1-18.1-11.9c0-4,0-7.9,0-11.7c0-6,0-11.3,0-15.8c0-0.2,0-0.3,0-0.5c0-2.1,0-4.2,0-6.3
				c2.9,0.1,6.5,0.2,10.7,0.3c2.2,0.1,4.3,0.1,6.5,0.2c1.9,0.1,3.5,0.8,4.9,2.2c1.2,1.4,1.8,3,1.8,4.8
				C378.6,199.7,378.6,204.7,378.6,208.9z"/>
			<path class="st3" d="M305.3,164.2c-2.3,0-4.9,0-8.1,0c-2.9,0-6,0-9.1,0c-4.5,0-8.5,0-12,0c-1.8,0-3.6,0-5.5,0c-3.3,0-7.3,0-12,0
				c-0.8,0-1.8,0-2.8,0c-1.4,0-2.9,0-4.7,0c-1.5,0-2.9,0-4.4,0c0,3.5,0,7.8,0,12.9c0,1.7,0,3.1,0,4.3c0,1.2,0,2,0,2.5
				c0,0.3,0,0.6,0,0.9c0,0,0,0,0,0c0,2.7,0,5.9,0,9.5c0,3.6,0,7.3,0,10.9c0,5.4,0,10.3,0,14.5c0,2,0,4.1,0,6.1c-4,0-8,0-12,0
				c0,7.2,0,14.5,0,21.7c4,0,8,0,12,0c0,0,0,0.1,0,0.1c0,2.9,0,6.1,0,9.8c0,3.8,0,7.5,0,11.1c0,5.4,0,10.4,0,14.8c0,2.1,0,4.2,0,6.4
				c4,0,9.1,0.1,15.2,0.3c1.9,0.1,3.6,0.1,5,0.2c1.3,0.1,2.6,0.1,3.9,0.2c0-2.9,0-6.2,0-9.8c0-3.7,0-7.4,0-11.2c0-5.5,0-10.3,0-14.6
				c0-2.2,0-4.4,0-6.6c2.3,0.1,4.9,0.1,7.8,0.3c3,0.1,5.9,0.2,8.9,0.4c4.5,0.2,8.4,0.4,11.7,0.6c1.7,0.1,3.5,0.2,5.2,0.3
				c2.1,0.1,4-0.1,5.7-0.6c1.6-0.5,3-1.4,4.4-2.5c1.4-1.2,2.4-2.4,3.1-3.8c0.9-1.5,1.3-3.2,1.3-5.1c0-7.8,0-14.5-0.1-20
				c0-5.6,0-10.4,0-14.3c0-8.9,0-14.1,0-15.5c0-0.8,0-1.6,0-2.4c0-1.6,0-3.5,0-5.9c0-1.2,0-2.3,0-3.5c0-3.3-1.3-6.1-3.9-8.5
				C312.3,165.4,309.1,164.2,305.3,164.2z M294.7,202.8c0,2.9,0,5.5,0,7.6c0,4.8,0,7.5,0,8.3c0,0.5,0,0.9,0,1.4
				c0,1.8-0.7,3.4-2.1,4.8c-1.6,1.3-3.5,2-5.7,1.9c-8-0.3-12.7-0.4-14.1-0.4c-0.3,0-0.7,0-1,0c-0.3,0-0.7,0-1,0c0-2.7,0-5.9,0-9.6
				c0-3.7,0-7.3,0-11c0-5.5,0-10.3,0-14.4c0-2.1,0-4.3,0-6.4c2.8,0,6.2,0,10.1,0.1c2.1,0,4.2,0,6.2,0.1c2.1,0,3.9,0.7,5.5,2.1
				c1.4,1.3,2.1,2.9,2.1,4.9C294.7,196.3,294.7,199.8,294.7,202.8z"/>
		</g>
	</g>
</g>
</svg>
