<?xml version="1.0" encoding="utf-8"?>
<!-- Generator: Adobe Illustrator 21.0.0, SVG Export Plug-In . SVG Version: 6.00 Build 0)  -->
<svg version="1.1" id="Camada_1" xmlns="http://www.w3.org/2000/svg" xmlns:xlink="http://www.w3.org/1999/xlink" x="0px" y="0px"
	 viewBox="0 0 800 194" style="enable-background:new 0 0 800 194;" xml:space="preserve">
<style type="text/css">
	.st0{fill:#FFADB3;}
</style>
<g>
	<g>
		<g>
			<path class="st0" d="M219,88.7C219,88.7,219,88.7,219,88.7c0.4,0.1,0.9,0.2,1.4,0.2C220,88.8,219.5,88.8,219,88.7z"/>
			<path class="st0" d="M276.7,68.2c-3.2,0.6-7.3,1.2-12,1.7c-2.8,0.3-7,0.7-12.2,0.7c-5.5,0-10.8-0.3-15.9-1.2
				c16.2-2.3,31.2-8.4,44.2-17c-10,3.1-20.6,4.5-31.7,4.5c-1.6,0-3.1,0-4.8-0.1c-4.7-0.2-9.3-0.7-13.8-1.5
				c-2.3,3.8-4.9,7.6-7.7,11.2c-1.2,1.5-2.3,2.9-3.6,4.2c-2.1,2.6-4.3,4.9-6.6,7c-2.3,2.3-6.2,5.6-8.7,7.7c-3.8,3-7.9,5.8-12.2,8.3
				c-0.5,0.3-2.6,1.5-3,1.7c-4.1,2.2-8.4,4.2-12.8,5.8c-1.3,0.6-2.7,1-4.1,1.5c-6.2,2.1-12.6,3.6-19.1,4.7c-1,0.1-2.1,0.2-3,0.3
				c-4.3,0.6-8.7,0.8-13.1,0.8c-3.1,0-6.3-0.1-9.4-0.5c-1.5-0.1-3.1-0.2-4.7-0.5c-13.5-1.7-26.3-5.9-37.8-12.1
				c0.1,0.2,0.2,0.5,0.5,0.7c16.6,23.1,42.1,39.4,71.5,44.2c-9.7-7.1-18.1-15.7-24.9-25.5c0-0.1-0.1-0.1-0.1-0.2
				c17.9,12.6,39.7,20.1,63.2,20.1c7.6,0,15-0.8,22.1-2.2c-20.2-0.9-38.8-8-54.7-18.5l0.6,0.2c13.3,5.7,27.8,8.8,43.1,8.8
				c12.9,0,25.3-2.2,36.7-6.3c-3.4,0.3-6.5,0.2-9.9,0.2c-14.9,0-29.5-3.1-42.5-8.5c0,0-1.3-0.5-2.3-1c-0.7-0.3-1.4-0.6-1.5-0.8
				c0,0,1.8,0.3,3.5,0.6c3.4,0.6,8.5,1.4,12,1.5c2.5,0.2,5,0.3,7.6,0.3c19.2,0,37.2-4.9,52.9-13.6c-5.5,1.6-19.4,5.4-34.8,5.5
				c-4.3,0-12.2-0.1-22.2-2.2c-1.6-0.3-3.1-0.7-4.7-1.2c1.7,0.3,3.5,0.5,5.3,0.7h0.1c3.4,0.3,6.7,0.5,10.2,0.5
				c18.8,0,36.9-4.9,52.3-13.4c-4.9,1.4-10.6,2.7-17,3.5c-6.6,0.9-12.6,1.2-17.8,1.1c0,0-2.2-0.1-5.4-0.3c-0.7-0.1-1.4-0.1-2.2-0.2
				c-1.9-0.2-5.3-0.6-7.4-0.9c-1.6-0.3-3.1-0.6-4.5-1c3.3,0.5,6.8,0.6,10.1,0.6c17.5-0.1,35.1-4.9,49.7-12.4
				c-8.8,2.8-20.4,5.3-34,5.2c0.2,0-9.4-0.3-12.3-0.8c-0.1,0-0.2,0-0.3-0.1c-0.6-0.1-1.2-0.2-1.8-0.3c0.8,0,1.7,0,2.5,0
				C245.6,79.9,262.2,75.4,276.7,68.2z"/>
		</g>
		<path class="st0" d="M234.3,23.4c-2.6,7-5.7,13.6-9.4,19.8c-2.3,3.8-4.9,7.6-7.7,11.2c-1.2,1.5-2.3,2.9-3.6,4.2
			c-2.1,2.6-4.3,4.9-6.6,7c-0.3,0.5-0.8,0.8-1.3,1.2c-2.3,2.3-4.9,4.4-7.4,6.5c-0.5,0.3-0.9,0.7-1.5,1c-3.8,3-8,5.7-12.3,8.1h-0.1
			c-0.5,0.3-0.9,0.6-1.3,0.8c-4.1,2.2-8.4,4.2-12.8,5.8c-1.3,0.6-2.7,1-4.1,1.5c-6.2,2.1-12.6,3.6-19.1,4.7c-1,0.1-2.1,0.2-3,0.3
			c-4.3,0.6-8.7,0.8-13.1,0.8c-3.1,0-6.3-0.1-9.4-0.5c-1.5-0.1-3.1-0.2-4.7-0.5c-12.9-1.6-25.1-5.6-36.2-11.3
			c5.7,1.4,11.6,2.6,17.6,3.4c2,0.3,4.1,0.5,5.9,0.6c4.1,0.5,8,0.6,12,0.6c5.7,0,11.3-0.2,16.7-0.9c1.2-0.2,2.6-0.3,3.8-0.5
			c8.4-1.4,16.5-3.3,24.3-5.9c1.7-0.6,3.6-1.2,5.2-2c5.6-2.1,11-4.5,16.3-7.3c0.5-0.3,1.7-1,1.7-1c5.5-3.1,17.1-11.3,17.7-11.7
			c3.3-2.7,6.5-5.3,9.4-8.3c0.6-0.5,1.2-0.9,1.6-1.5c3-2.7,5.8-5.6,8.5-8.8c1.6-1.6,3-3.5,4.5-5.3C229.1,31.3,231.9,27.5,234.3,23.4
			z"/>
		<path class="st0" d="M146.7,161c-5,3.2-10.6,5.7-16.4,7.3c-5.8,1.6-12,2.4-18.1,2.3c-12.3-0.1-24.7-3.8-35.3-10.6l-2-1.3
			c-0.3-0.2-0.6-0.4-1-0.7l-0.9-0.7c-1.3-0.9-2.5-1.9-3.7-2.9c-0.6-0.5-1.2-1-1.8-1.6l-0.9-0.8l-0.8-0.8c-0.6-0.6-1.1-1.1-1.7-1.7
			l-1.6-1.8c-2.1-2.4-4.1-4.9-5.8-7.5c-0.9-1.3-1.7-2.7-2.5-4c-0.4-0.7-0.8-1.4-1.1-2.1l-0.6-1.1l-0.5-1.1l-1-2.2l-0.9-2.2
			c-0.1-0.4-0.3-0.7-0.4-1.1l-0.4-1.1c-0.3-0.8-0.5-1.5-0.8-2.3c-0.4-1.5-0.9-3-1.3-4.6c-0.2-0.8-0.4-1.5-0.5-2.3l-0.4-2.3
			c-0.2-0.8-0.2-1.6-0.4-2.4c-0.1-0.8-0.2-1.6-0.3-2.4c-0.1-1.6-0.3-3.2-0.3-4.8c-0.1-3.2,0-6.4,0.3-9.5c0.7-6.3,2.2-12.6,4.6-18.5
			c0.6-1.5,1.3-2.9,1.9-4.4c0.3-0.7,0.7-1.4,1.1-2.1c0.4-0.7,0.7-1.4,1.1-2.1l1.2-2.1l1.3-2l0.7-1l0.7-1c0.5-0.6,0.9-1.3,1.4-1.9
			c7.8-10,18.3-17.8,30.1-22.2l2.2-0.8c0.7-0.3,1.5-0.5,2.2-0.7l1.1-0.3c0.4-0.1,0.8-0.2,1.1-0.3l2.3-0.6l2.3-0.5l1.1-0.2l1.2-0.2
			c0.8-0.1,1.5-0.2,2.3-0.3l2.3-0.2l1.2-0.1l1.2,0l2.3-0.1l2.3,0l1.2,0l1.2,0.1c3.1,0.2,6.2,0.6,9.2,1.2
			c12.1,2.4,23.3,8.3,31.7,16.7c-4.9-3.3-10.2-6.1-15.6-8.1c-0.7-0.2-1.4-0.5-2.1-0.7l-2.1-0.7c-1.4-0.4-2.8-0.8-4.2-1.1
			c-1.4-0.3-2.8-0.6-4.2-0.8l-2.1-0.3c-0.7-0.1-1.4-0.2-2.1-0.2c-2.8-0.3-5.7-0.4-8.5-0.3l-1.1,0l-1.1,0.1l-2.1,0.1l-2.1,0.3
			l-1.1,0.1l-1,0.2l-2.1,0.4l-2.1,0.5l-1,0.2l-1,0.3l-2,0.6l-2,0.7c-0.3,0.1-0.7,0.2-1,0.3l-1,0.4c-0.7,0.3-1.3,0.5-2,0.7l-1.9,0.8
			c-0.6,0.3-1.3,0.6-1.9,0.9c-0.6,0.3-1.3,0.6-1.9,0.9l-1.8,1c-0.3,0.2-0.6,0.3-0.9,0.5l-0.9,0.5c-1.2,0.7-2.3,1.5-3.5,2.3
			c-0.6,0.4-1.1,0.8-1.7,1.2l-0.8,0.6c-0.3,0.2-0.5,0.4-0.8,0.7l-1.6,1.3l-1.5,1.4c-0.5,0.5-1,1-1.5,1.4c-0.5,0.5-1,1-1.5,1.5
			l-1.4,1.5c-0.2,0.2-0.5,0.5-0.7,0.8l-0.7,0.8c-0.9,1-1.7,2.2-2.6,3.3c-3.2,4.5-5.9,9.3-7.9,14.5c-2,5.1-3.3,10.5-3.9,16
			c-0.3,2.7-0.4,5.5-0.3,8.2c0,1.4,0.1,2.7,0.2,4.1c0,0.7,0.2,1.4,0.2,2c0.1,0.7,0.1,1.4,0.3,2l0.3,2c0.1,0.7,0.3,1.3,0.4,2
			c0.3,1.4,0.7,2.7,1,4c0.2,0.7,0.4,1.3,0.6,2l0.3,1c0.1,0.3,0.2,0.6,0.4,1l0.7,1.9l0.8,1.9L61,129l0.5,0.9c0.3,0.6,0.6,1.2,0.9,1.9
			c0.7,1.2,1.3,2.4,2.1,3.6c0.4,0.6,0.7,1.2,1.1,1.8l1.2,1.7c0.4,0.6,0.8,1.1,1.2,1.7c0.4,0.6,0.8,1.1,1.3,1.6l1.3,1.6
			c0.5,0.5,0.9,1,1.4,1.5l0.7,0.8l0.7,0.7c0.5,0.5,1,1,1.5,1.5c1,0.9,2,1.9,3.1,2.8l0.8,0.7c0.3,0.2,0.5,0.4,0.8,0.7l1.7,1.3
			c9,6.6,19.9,10.9,31.2,12.2c5.7,0.7,11.5,0.6,17.3-0.2c2.9-0.4,5.8-1,8.6-1.8C141.2,163.1,144,162.1,146.7,161z"/>
	</g>
	<g>
		<g>
			<path class="st0" d="M381.6,151.4v-16.8h10.8v2.5h-8.1v4.6h7.5v2.5h-7.5v4.8h8.2v2.5H381.6z"/>
			<path class="st0" d="M396,151.4l5.5-8.5l-5.2-8.3h3.1l3.8,6.3l3.9-6.3h3.1l-5.4,8.3l5.5,8.5h-3.1l-4-6.4l-4,6.4H396z"/>
			<path class="st0" d="M418,137.1h-4.9v-2.6h12.5v2.6h-4.9v14.3H418V137.1z"/>
			<path class="st0" d="M430.2,151.4v-16.8H441v2.5h-8.1v4.6h7.5v2.5h-7.5v4.8h8.2v2.5H430.2z"/>
			<path class="st0" d="M457.8,134.6h2.6v16.8h-1.5l-9.6-11.4v11.4h-2.6v-16.8h1.4l9.8,11.5V134.6z"/>
			<path class="st0" d="M465.3,148.3l1.8-1.7c0.9,1.7,2.5,2.6,4.2,2.6c1.7,0,2.9-1,2.9-2.3c0-0.8-0.5-1.6-1.7-2.2
				c-0.3-0.1-0.8-0.4-1.7-0.8c-0.8-0.4-1.5-0.7-1.9-1c-1.7-1-2.6-2.4-2.6-4.1c0-1.3,0.5-2.4,1.5-3.3c1-0.9,2.3-1.3,3.8-1.3
				c2.1,0,3.8,0.8,5.1,2.4l-1.6,1.8c-0.9-1.2-2.1-1.7-3.5-1.7c-1.5,0-2.5,0.8-2.5,2.1c0,0.8,0.5,1.5,1.4,2c0.3,0.2,0.9,0.5,1.9,0.9
				c1,0.4,1.7,0.8,2.1,1c1.7,0.9,2.6,2.3,2.6,4c0,1.4-0.5,2.6-1.6,3.6c-1.1,0.9-2.5,1.4-4.1,1.4
				C468.7,151.7,466.5,150.5,465.3,148.3z"/>
			<path class="st0" d="M492.2,151.4l-1.6-4.1h-6.2l-1.6,4.1H480l6.7-16.8h1.7l6.6,16.8H492.2z M484.5,133.3l-1.6-0.8
				c0.5-1.6,1.5-2.3,2.9-2.3c0.5,0,1.1,0.2,1.7,0.5c0.7,0.3,1.1,0.5,1.4,0.5c0.5,0,1-0.4,1.3-1.1l1.6,0.8c-0.5,1.5-1.5,2.3-2.8,2.3
				c-0.5,0-1-0.2-1.7-0.5c-0.7-0.3-1.1-0.5-1.4-0.5C485.3,132.1,484.9,132.5,484.5,133.3z M487.5,138.7l-2.3,6.1h4.6L487.5,138.7z"
				/>
			<path class="st0" d="M500.4,149.2c-1.7-1.7-2.5-3.7-2.5-6.1c0-2.4,0.8-4.5,2.6-6.2s3.8-2.6,6.2-2.6c2.4,0,4.5,0.8,6.2,2.6
				c1.7,1.7,2.6,3.8,2.6,6.2c0,2.4-0.8,4.5-2.6,6.2c-1.7,1.7-3.8,2.5-6.3,2.5C504.1,151.7,502.1,150.9,500.4,149.2z M510.9,147.4
				c1.2-1.2,1.8-2.6,1.8-4.4c0-1.8-0.6-3.2-1.8-4.4s-2.6-1.8-4.3-1.8c-1.7,0-3.1,0.6-4.3,1.8c-1.2,1.2-1.7,2.6-1.7,4.4
				c0,1.7,0.6,3.2,1.7,4.3c1.2,1.2,2.6,1.8,4.3,1.8C508.3,149.1,509.8,148.5,510.9,147.4z"/>
			<path class="st0" d="M528.6,151.4v-16.8h6.4c2.4,0,4.4,0.8,5.7,2.3c1.4,1.5,2.1,3.6,2.1,6.2c0,2.6-0.7,4.6-2.2,6.1
				c-1.4,1.5-3.4,2.3-5.9,2.3H528.6z M531.2,148.9h3.6c1.6,0,2.9-0.5,3.8-1.7c0.9-1.1,1.4-2.6,1.4-4.3c0-1.7-0.5-3.1-1.4-4.2
				c-0.9-1.1-2.2-1.7-3.8-1.7h-3.7V148.9z"/>
			<path class="st0" d="M548.3,151.4v-16.8H559v2.5h-8.1v4.6h7.5v2.5h-7.5v4.8h8.2v2.5H548.3z"/>
			<path class="st0" d="M574,149.3c-1.7-1.6-2.5-3.7-2.5-6.2c0-2.6,0.8-4.6,2.6-6.3c1.7-1.7,3.8-2.5,6.2-2.5c1.5,0,2.9,0.3,4.2,1
				c1.3,0.7,2.3,1.5,3,2.6l-1.9,1.7c-1.4-1.8-3.1-2.8-5.3-2.8c-1.7,0-3.1,0.6-4.3,1.8c-1.2,1.2-1.8,2.7-1.8,4.4
				c0,1.8,0.6,3.2,1.7,4.4c1.2,1.1,2.6,1.7,4.3,1.7c2.2,0,4-0.9,5.4-2.7l1.9,1.6c-1.6,2.2-4.3,3.6-7.4,3.6
				C577.7,151.7,575.7,150.9,574,149.3z"/>
			<path class="st0" d="M592.4,134.6h2.6v16.8h-2.6V134.6z M592.5,133.3l1.4-3.9h3l-2.2,3.9H592.5z"/>
			<path class="st0" d="M601.4,151.4v-16.8h2.6v14.3h8.9v2.5H601.4z"/>
			<path class="st0" d="M617.5,134.6h2.6v16.8h-2.6V134.6z"/>
			<path class="st0" d="M627.9,149.2c-1.7-1.7-2.5-3.7-2.5-6.1c0-2.4,0.8-4.5,2.6-6.2s3.8-2.6,6.2-2.6c2.4,0,4.5,0.8,6.2,2.6
				c1.7,1.7,2.6,3.8,2.6,6.2c0,2.4-0.8,4.5-2.6,6.2c-1.7,1.7-3.8,2.5-6.3,2.5C631.7,151.7,629.6,150.9,627.9,149.2z M638.4,147.4
				c1.2-1.2,1.8-2.6,1.8-4.4c0-1.8-0.6-3.2-1.8-4.4s-2.6-1.8-4.3-1.8c-1.7,0-3.1,0.6-4.3,1.8c-1.2,1.2-1.7,2.6-1.7,4.4
				c0,1.7,0.6,3.2,1.7,4.3c1.2,1.2,2.6,1.8,4.3,1.8C635.9,149.1,637.3,148.5,638.4,147.4z"/>
			<path class="st0" d="M646.6,148.3l1.8-1.7c0.9,1.7,2.5,2.6,4.2,2.6c1.7,0,2.9-1,2.9-2.3c0-0.8-0.5-1.6-1.7-2.2
				c-0.3-0.1-0.8-0.4-1.7-0.8c-0.8-0.4-1.5-0.7-1.9-1c-1.7-1-2.6-2.4-2.6-4.1c0-1.3,0.5-2.4,1.5-3.3c1-0.9,2.3-1.3,3.8-1.3
				c2.1,0,3.8,0.8,5.1,2.4l-1.6,1.8c-0.9-1.2-2.1-1.7-3.5-1.7c-1.5,0-2.5,0.8-2.5,2.1c0,0.8,0.5,1.5,1.4,2c0.3,0.2,0.9,0.5,1.9,0.9
				c1,0.4,1.7,0.8,2.1,1c1.7,0.9,2.6,2.3,2.6,4c0,1.4-0.5,2.6-1.6,3.6c-1.1,0.9-2.5,1.4-4.1,1.4
				C650.1,151.7,647.8,150.5,646.6,148.3z"/>
		</g>
		<g>
			<g>
				<path class="st0" d="M637.1,83.8c-0.1-0.5-0.9-0.8-2.4-0.7c-3.4,0.2-10.5,0.2-15.7-0.5c0.4-0.9,0.8-2,1.3-3.1
					c2.3-5.6,5.4-13.4,9.8-18.4c0.3,0.1,0.7,0.3,1.2,0.6c3.1,1.6,10.4,5.3,18.7,6.7l0,0c2.8,0.4,5.5,0.1,7.6-1c2-1,3.3-2.6,3.6-4.4
					c0.3-1.3,0.2-2.2-0.3-2.3c-0.5-0.2-1.1,0.4-1.6,1.8c-0.5,1.1-1.4,1.8-2.8,2.3c-6.4,2.2-20-3.1-24.6-5.5c1-0.9,2.8-2,4.6-1.4
					c0.7,0.8,1.1,0.8,1.4,0.7c0.3-0.1,0.5-0.5,0.5-1c0-0.8-0.6-1.8-1.7-2.1c-3.8-1.1-6.2,1.4-7.3,2.6c-3.2-2-11.6-6.8-22.8-9.8
					c-16.3-4.6-29,2.9-33.1,12.7c-2.7,6.5-1,12.7,4.3,15.8c3.6,2.1,8.4,2.3,12.6,0.6c3.9-1.5,6.7-4.5,7.8-8.2c0.3-1,0.4-1.6,0.1-1.9
					c-0.1-0.1-0.3-0.2-0.6-0.1c-0.6,0.2-1.3,1.2-1.3,2.3c0,1-1.8,3.2-4.5,4.7c-2.1,1.2-7.5,3.6-13,0.2c-2.4-1.5-3.1-4.9-1.6-8.8
					c2.5-6.8,12-16,27.9-13.6c8.3,1.2,15.9,4.5,22.9,8c-1.9,2.4-8.2,12.4-12.2,22.1c-8.3-1.5-17.3-1.7-21.3,7.1
					c-0.3,0.6-0.1,1.3,0.3,1.6c0.2,0.1,0.8,0.3,1.4-0.6c3.4-5,12.5-4.6,16.9-4.5c0.5,0,0.9,0,1.2,0c-5.7,13-18.4,34.2-40.3,33.2
					c-8.1-0.3-16.3-4.2-20.8-9.9c-3.7-4.6-5-10.2-3.9-16.3c1-5.8,4.6-8.4,6.5-9.8c2.8-2,3.2-2.4,3.1-2.7c-0.1-0.3-0.5-0.3-1.6,0.1
					c-2.2,0.7-7.4,3.8-9,9c-2.8,8.5-1.7,16.7,2.9,23.1c5,6.9,13.8,10.9,24,10.9c29,0,38-24.2,42.9-37.4c4.3,0.5,14.2,0.3,17.2-0.5
					C636.3,84.9,637.2,84.4,637.1,83.8z"/>
				<path class="st0" d="M675.8,79.8c2.1,0,4-1.6,4.3-3.7c0.2-1-0.1-1.9-0.7-2.7c-0.6-0.7-1.5-1.1-2.6-1.1c-2,0-4,1.7-4.3,3.7
					c-0.1,1,0.1,2,0.8,2.7C673.9,79.5,674.8,79.8,675.8,79.8z"/>
				<path class="st0" d="M731.5,100.6c5.1-12.1,20.1-39.4,22.5-41.7l0.5-0.5l-0.7,0.1c-0.8,0.1-1.6,0-2.4-0.2
					c-0.4-0.1-0.8-0.1-1.2-0.2c-3-0.3-4.5,0.8-6,4.6c-1.9,4.2-5.6,12-9.8,20c-6.6-3.7-14-0.1-18.5,5.1c-2.2,2.6-4.2,6-5.5,9.3
					c-3.2,6.3-7.3,12.4-9.8,12.4c0,0-0.1,0-0.1,0c-0.2,0-0.4-0.1-0.5-0.3c-0.3-0.4-0.7-1.4-0.1-4.6c1.1-5.1,6.1-14.1,7.9-15.9
					l0.6-0.6l-0.8,0.2c-0.7,0.2-1.5,0-2.3-0.2c-0.4-0.1-0.8-0.2-1.2-0.2c-2.9-0.2-4.1,1.9-6,5.6c-2.1,4-4.6,8.3-7.6,11.9
					c-2.3,2.7-4.9,4.2-6.4,3.5c-1-0.4-1.3-1.8-1.1-3.9c0.5-3.1,2.6-7,3.5-8.5c3.3-5.4,7.7-10.2,11.3-12.1c1.7-0.9,3.4-1.1,4.8-0.6
					c1.1,0.4,1.8,1.3,2.2,2.6l0,0.1l0.1,0c0.7,0.1,1.4-0.1,1.7-0.7c0.3-0.6,0.2-1.5-0.5-2.2c-1.7-1.9-4.2-2.8-7-2.8
					c-4.5,0.1-9.8,2.8-13.1,6.7c-3.2,3.8-5.1,7.5-6.2,10.9c-2,3.7-4.1,7.3-6.2,9.5c-1,0.9-2.5,1.7-3.7,1.6l0,0
					c-0.7-0.1-1.2-0.3-1.5-0.8c-0.6-0.8-0.6-2.3,0-4.3c0.2-0.6,1-2.4,1-2.5l6.8-16c0.5-1.2,0.8-2,0.4-2.6c-0.3-0.5-1.1-0.7-2.4-0.7
					l-5.2,0.1l0.3,0.4c1,1.2,1.2,2.4,0.8,3.4l-3.6,9.2c-3.4,6.8-7.8,13.8-10.5,13.7c-0.2,0-0.4-0.1-0.5-0.3
					c-0.3-0.4-0.7-1.4-0.1-4.6c1.1-5.1,6.1-14.1,7.9-15.9l0.6-0.6l-0.8,0.2c-0.7,0.2-1.5,0-2.3-0.2c-0.4-0.1-0.8-0.2-1.2-0.2
					c-2.9-0.2-4.1,1.9-6,5.6c-2.1,4-4.6,8.3-7.6,11.9c-2.3,2.7-4.9,4.2-6.4,3.5c-1-0.4-1.3-1.8-1.1-3.9c0.5-3.1,2.6-7,3.5-8.5
					c3.3-5.4,7.7-10.2,11.3-12.1c1.7-0.9,3.4-1.1,4.8-0.6c1.1,0.4,1.8,1.3,2.2,2.6l0,0.1l0.1,0c0.7,0.1,1.4-0.1,1.7-0.7
					c0.3-0.6,0.2-1.5-0.5-2.2c-1.7-1.9-4.2-2.8-7-2.8c-4.5,0.1-9.8,2.8-13.1,6.7c-8.5,10.2-8.5,20-5.1,23.2c2.2,2.1,5.5,1.4,8.9-1.8
					c2.1-2,4.1-4.8,5.4-6.8c-1,4.5-0.1,6.9,0.8,8.2c1.2,1.5,2.9,1.7,3.7,1.7c0.1,0,0.2,0,0.3,0l0,0c2.9-0.2,5.7-3.3,8.3-7.4
					c-0.1,1.8,0.1,3.6,1,5c1,1.5,2.6,2.2,4.8,2.2c3.7,0,6.9-3.6,9.4-7.5c0,2.9,0.8,5.2,2.1,6.5c2.2,2.1,5.5,1.4,8.9-1.8
					c2.1-2,4.1-4.8,5.4-6.8c-1,4.5-0.1,6.9,0.8,8.2c1.2,1.5,2.9,1.7,3.7,1.7c0.1,0,0.2,0,0.3,0l0,0c3.1-0.3,6.1-3.8,8.9-8.2
					c-0.1,1.4,0,2.7,0.4,3.8c0.6,2,2,3.3,4,3.9c5.6,1.5,9.4-4.2,12.1-8.5c-0.5,3.5,0.5,5.6,1.1,6.4c1.1,1.6,2.5,2.4,4,2.4
					c7.2,0,12.4-12.1,14.1-16c0.3-0.7,0.3-1.2,0.1-1.6c-0.1-0.2-0.4-0.3-0.6-0.3c-0.5,0-0.9,0.5-1.2,1.1l-0.4,0.8
					c-2,4-6.6,13.3-10.4,13.3c-0.7,0-1.2-0.2-1.5-0.7C729.2,107,730.5,102.8,731.5,100.6L731.5,100.6z M722.1,103.6
					c-3.6,5.1-6.3,5.9-7.6,5.2c-1.6-1-1.7-5,1.3-10.6c3.5-6.4,10.1-13.8,14.8-14.5c1.2-0.2,2.2,0.1,3,0.8
					C729.1,92.6,725,99.5,722.1,103.6z"/>
			</g>
			<g>
				<path class="st0" d="M458.2,78.8c0.6,0.7,1.5,1.1,2.5,1.1c2.1,0,4-1.6,4.3-3.7c0.2-1-0.1-1.9-0.7-2.7c-0.6-0.7-1.5-1.1-2.6-1.1
					c-2,0-4,1.7-4.3,3.7C457.3,77.1,457.6,78.1,458.2,78.8z"/>
				<path class="st0" d="M460.5,112.2c-0.5,0-0.9,0-1.2,0.1C459.9,112.2,460.5,112.2,460.5,112.2z"/>
				<g>
					<path class="st0" d="M526.6,94.6c-0.1-0.2-0.4-0.3-0.6-0.3c-0.4,0-0.9,0.4-1.2,1c-3.4,7-8.1,14.4-10.8,14.2
						c-0.2,0-0.4-0.1-0.5-0.3c-0.3-0.4-0.7-1.4-0.1-4.6c1.1-5.1,6.1-14.1,7.9-15.9l0.6-0.6l-0.8,0.2c-0.7,0.2-1.5,0-2.3-0.2
						c-0.4-0.1-0.8-0.2-1.2-0.2c-2.9-0.2-4.1,1.9-6,5.6c-2.1,4-4.6,8.3-7.6,11.9c-2.3,2.7-4.9,4.2-6.4,3.5c-1-0.4-1.3-1.8-1.1-3.9
						c0.5-3.1,2.6-7,3.5-8.5c3.3-5.4,7.7-10.2,11.3-12.1c1.7-0.9,3.4-1.1,4.8-0.6c1.1,0.4,1.8,1.3,2.2,2.6l0,0.1l0.1,0
						c0.7,0.1,1.4-0.1,1.7-0.7c0.3-0.6,0.2-1.5-0.5-2.2c-1.7-1.9-4.2-2.8-7-2.8c-4.5,0.1-9.8,2.8-13.1,6.7
						c-3.2,3.9-5.2,7.7-6.3,11.1c-2.5,4.6-6.4,11-9.6,11c-0.4,0-0.7-0.1-1-0.4c-0.5-0.6-0.5-1.8-0.2-3.6c1.1-5.9,10.1-21.8,10.2-22
						l0.1-0.2l-0.3-0.1c-3.1-1.1-12.2,4.6-16,8.1c-1.7,1.5-3.6,3.5-5.8,6.1c2.1-4.2,5.6-10.5,8.1-13.1c0.1-0.1,0.2-0.2,0.2-0.3
						c0.3-0.5,0.8-1.1,0.8-1.1c-0.1,0.1-0.3,0.1-0.5,0.1c-0.1,0-0.1,0-0.2,0c-0.3,0-0.7-0.1-0.8-0.1c0,0,0,0,0,0
						c-0.3,0-0.5-0.1-0.8-0.1c-0.4-0.1-0.8-0.2-1.2-0.2c-2.9-0.2-4.1,1.5-6.3,5.5c-1.1,2.1-2.2,4.1-3.2,6.2
						c-0.2,0.2-0.3,0.4-0.5,0.7c-2.4,4.8-5.2,10.1-8,12.8c-0.9,0.9-2.5,1.7-3.7,1.6l0,0c-0.7-0.1-1.2-0.3-1.5-0.8
						c-0.6-0.8-0.6-2.3,0-4.3c0.2-0.6,1-2.4,1-2.5l6.8-16c0.5-1.2,0.8-2,0.4-2.6c-0.3-0.5-1.1-0.7-2.4-0.7l-5.2,0.1l0.3,0.4
						c1,1.2,1.2,2.4,0.8,3.4l-3.4,8.8c-1.5,2.9-3.7,7.1-6.3,10.8c-2.1,3-4.9,4.3-6.8,3.4c-2.1-1-2.7-4.2-1.6-8.6
						c0.3-1.3,0.8-2.6,1.2-3.8c0.2-0.6,0.4-1.3,0.6-1.8c9.2-8.3,14.4-18.6,17.5-25.7c3.1-6.9,2.2-10.4,0.3-11.4
						c-2.2-1.2-6.4,0.7-9.9,6.5c-5,8.4-10.3,20.7-12.9,29.9c0,0-0.1,0.1-0.1,0.1c-0.2,0.4-0.5,1-0.7,1.5c-2.1,4.4-6,12.5-10.5,13
						c-0.8,0.1-2.3,0-3.7-1.1c-0.2-0.2-0.4-0.4-0.6-0.7c0.5-0.4,0.9-0.9,1.3-1.4c1.1-1.1,2.2-2.4,3.1-3.9l0,0c1.1-1.6,2-3.2,2.7-4.8
						c2.3-5.3,2.5-10.4,0.5-13.3c-1.1-1.6-2.8-2.5-4.9-2.6c-5.7-0.1-12.9,6.2-16.5,14.5c-0.2,0.4-0.3,0.8-0.5,1.2
						c-5,9.8-7.8,12-9.3,12c0,0,0,0,0,0c-0.5,0-0.9-0.2-1.1-0.6c-1.5-2.6,3.6-12.5,5.5-16.3c0.3-0.6,0.5-1,0.7-1.3
						c1.7-3.5,2.3-5.8,1.8-6.8l-0.1-0.1l-0.2,0c-3.6,0.4-7.8,0.5-11.1,0.4c1.3-1,3.8-3.1,4.3-5.5c0.5-2.2,0-4.2-1.3-5.3
						c-0.8-0.7-1.7-0.9-2.5-0.6c-1,0.3-1.6,1.3-1.9,2.7c-1.1,6.3-3.8,15.2-8.1,23.3c-3.1,5.6-6.5,10.4-8.8,10.3
						c-0.2,0-0.4-0.1-0.5-0.3c-0.3-0.4-0.7-1.4-0.1-4.6c1.1-5.1,6.1-14.1,7.9-15.9l0.6-0.6l-0.8,0.2c-0.7,0.2-1.5,0-2.3-0.2
						c-0.4-0.1-0.8-0.2-1.2-0.2c-2.9-0.2-4.1,1.9-6,5.6c-2.1,4-4.6,8.3-7.6,11.9c-2.3,2.7-4.9,4.2-6.4,3.5c-1-0.4-1.3-1.8-1.1-3.9
						c0.5-3.1,2.6-7,3.5-8.5c3.3-5.4,7.7-10.2,11.3-12.1c1.7-0.9,3.4-1.1,4.8-0.6c1.1,0.4,1.8,1.3,2.2,2.6l0,0.1l0.1,0
						c0.7,0.1,1.4-0.1,1.7-0.7c0.3-0.6,0.2-1.5-0.5-2.2c-1.7-1.9-4.2-2.8-7-2.8c-4.5,0.1-9.8,2.8-13.1,6.7
						c-3.4,4.1-5.4,8.1-6.4,11.6c-2.9,5.5-6,9.6-11.8,13c-8.3,5-19.2,6.3-28.5,3.6c-5.6-1.7-9.3-5.3-11-10.8
						c-3.9-12.3,3.2-30.2,5.8-34c4,8,11.1,12.9,21.2,14.3c12.2,1.8,23.2-2,29.4-10.1c4.4-5.7,5.7-12.9,3.2-18.7
						c-2.7-6.3-9.3-10.4-18.6-11.5c-13.8-1.6-26.4,3.9-35.5,15.3c-1.1-6.2-1.3-11.5-0.6-15.6c0.3-1.6-0.3-1.9-0.6-1.9
						c-0.6-0.1-1.3,0.5-1.5,1.4c-1.8,6.6-0.9,14.6,0.3,19.6c-7.2,9.1-12.7,25-9.4,37.9c1.9,7.5,6.7,13.1,13.8,16.1
						c4.2,1.8,8.7,2.7,13.1,2.7c7,0,14-2.2,20.4-6.6l0,0c4.4-3.1,7.1-6.2,9.5-9.8c-0.1,3,0.8,5.4,2.1,6.6c2.2,2.1,5.5,1.4,8.9-1.8
						c2.1-2,4.1-4.8,5.4-6.8c-1,4.5-0.1,6.9,0.8,8.2c1.2,1.5,2.9,1.7,3.7,1.7c0.1,0,0.2,0,0.3,0l0,0c2.1-0.2,4.2-1.9,6.1-4.3
						c4.2-4.7,8.2-14.2,9.7-18.3l1-2.6c3.4,0.1,5.5,0.7,6.2,1.7c0.3,0.5,0.3,1.2,0,1.9c-0.4,0.8-1,2-1.8,3.3
						c-1.3,2.2-2.7,4.6-3.5,6.8c-2,5.3-1,8.1,0.3,9.5c1.1,1.2,2.5,1.7,3.7,1.7c0.3,0,0.7,0,1-0.1l0,0c3.4-0.8,6.3-4.4,8.7-8.3
						c-0.1,2.3,0.3,4.3,1.3,5.8c1.1,1.7,2.8,2.6,5,2.6c0.1,0,0.2,0,0.3,0c1.5,0,3-0.4,4.7-1.3l0,0c0,0,0,0,0.1-0.1
						c0.8-0.4,1.6-0.9,2.4-1.5c0.6,0.7,1.7,1.4,3.1,1.8c2.1,0.7,3.8,0.1,3.8,0.1v0c3.5-0.8,6.4-4.3,8.5-7.8
						c-0.3,2.6-0.2,5.1,1.1,6.7c1.1,1.4,2.8,2.1,5.1,2.1c4.7,0,8.1-3.3,10.6-7c-0.1,1.7,0.2,3.3,1.1,4.6c1,1.5,2.6,2.2,4.8,2.2
						c1.9,0,3.7-1,5.3-2.5l-1.4,2.9c0.2-0.1,0.7-0.1,1.2-0.2c0.4-0.1,0.7-0.1,1.2-0.1c0.2,0,0.5,0,0.7,0c1.7,0,2.7-0.1,3.5-1.4
						c3.8-7.5,7.7-13.1,11.8-16.9c3.7-3.5,5.7-4.1,6.3-3.6c0.5,0.4,0.2,1.5-0.6,2.8c-2.7,4.4-4.1,7-4.7,9c-1.2,3.6-1.1,6.4,0.2,8.2
						c1.4,1.9,3.6,2.1,4.5,2.1c3.9,0,7.3-3.7,9.9-7.9c0,2.9,0.8,5.2,2.1,6.5c2.2,2.1,5.5,1.4,8.9-1.8c2.1-2,4.1-4.8,5.4-6.8
						c-1,4.5-0.1,6.9,0.8,8.2c1.2,1.5,2.9,1.7,3.7,1.7c0.1,0,0.2,0,0.3,0l0,0c4.8-0.4,9.5-8.8,13.1-16
						C526.8,95.5,526.9,94.9,526.6,94.6z M452.6,64.7L452.6,64.7c1.7-2.4,2.4-2.7,2.7-2.7c0,0,0.1,0,0.1,0c0.6,0.3,0.1,3.5-1.1,6.3
						c-2.9,7-8.5,16.7-14.7,23.3C442.3,84.8,448.5,70.5,452.6,64.7z M341,49c11.3,1.6,15.5,9.6,14.6,16.8
						c-1.2,9.7-11.5,19.1-28,17.2c-10.1-1.1-17-6.1-20.5-15C315.9,54.5,328.9,47.2,341,49z M413.4,108.6c-0.1,0.1-0.2,0.1-0.3,0.2
						c-1.4,0.8-2.8,1.1-3.8,0.9c-0.6-0.2-1.1-0.6-1.4-1.3c-1-2.2,0-6.9,2.6-12.3l0,0c0.6-1.2,1.2-2.4,1.8-3.4
						c-0.2,5.4,0.3,9.2,1.2,12c0.2,1.1,0.6,2.2,1.2,3.1C414.3,108,413.8,108.4,413.4,108.6z M414.7,100.4c-0.4-2.5-0.6-6.3-0.5-10.4
						c0,0,0,0,0,0c2.5-3.2,5.2-5.1,7.3-5.1c0.3,0,0.6,0,0.8,0.1c0.7,0.2,1.2,0.7,1.5,1.4c1,2.4,0.2,7.1-2.3,12.3
						c-0.3,0.6-0.6,1.2-0.9,1.8l0,0c0,0,0,0,0,0c0,0.1-0.1,0.1-0.1,0.2c-0.1,0.2-0.2,0.3-0.3,0.5c-0.2,0.3-0.4,0.7-0.7,1.1
						c-0.7,1.1-1.7,2.5-2.9,3.7C415.8,104.7,415.1,102.9,414.7,100.4z"/>
					<path class="st0" d="M478.2,83.2c0.1,0,0.4,0.1,0.8,0.1C478.7,83.3,478.5,83.3,478.2,83.2z"/>
				</g>
			</g>
		</g>
	</g>
</g>
</svg>
