<?xml version="1.0" encoding="utf-8"?>
<!-- Generator: Adobe Illustrator 24.0.1, SVG Export Plug-In . SVG Version: 6.00 Build 0)  -->
<svg version="1.1" id="Camada_1" xmlns="http://www.w3.org/2000/svg" xmlns:xlink="http://www.w3.org/1999/xlink" x="0px" y="0px"
	 viewBox="0 0 140.04 80" style="enable-background:new 0 0 140.04 80;" xml:space="preserve">
<style type="text/css">
	.st0{fill:#8E8E8E;}
</style>
<g>
	<g>
		<g>
			<g>
				<g>
					<g>
						<path class="st0" d="M33.05,60.6c0,8.41-5.12,12.87-11.35,12.87c-6.46,0-10.99-5.01-10.99-12.4c0-7.77,4.83-12.83,11.35-12.83
							C28.73,48.23,33.05,53.35,33.05,60.6z M14.07,60.99c0,5.23,2.83,9.9,7.8,9.9c5.01,0,7.84-4.6,7.84-10.15
							c0-4.87-2.54-9.93-7.8-9.93C16.69,50.81,14.07,55.62,14.07,60.99z"/>
						<path class="st0" d="M55.76,71.98c-1.41,0.5-4.21,1.34-7.5,1.34c-3.71,0-6.75-0.95-9.15-3.22c-2.11-2.02-3.4-5.3-3.4-9.11
							c0.04-7.29,5.05-12.62,13.25-12.62c2.83,0,5.05,0.61,6.09,1.13l-0.77,2.58c-1.31-0.57-2.94-1.06-5.41-1.06
							c-5.94,0-9.83,3.71-9.83,9.83c0,6.21,3.74,9.86,9.43,9.86c2.08,0,3.49-0.29,4.21-0.64v-7.29h-4.98v-2.54h8.05L55.76,71.98
							L55.76,71.98z"/>
						<path class="st0" d="M63.73,48.62v24.45h-3.15V48.62H63.73z"/>
						<path class="st0" d="M73.89,51.31h-7.43v-2.68h18.1v2.68H77.1v21.77h-3.19V51.31H73.89z"/>
						<path class="st0" d="M88.52,65.38l-2.54,7.7h-3.26l8.31-24.45h3.81l8.34,24.45h-3.37l-2.61-7.7H88.52z M96.52,62.91l-2.4-7.03
							c-0.54-1.59-0.91-3.04-1.27-4.46h-0.07c-0.36,1.45-0.77,2.94-1.24,4.42l-2.38,7.07H96.52z"/>
						<path class="st0" d="M106.76,48.94c1.59-0.32,3.88-0.5,6.05-0.5c3.37,0,5.55,0.61,7.07,1.99c1.24,1.09,1.92,2.76,1.92,4.64
							c0,3.22-2.02,5.37-4.6,6.25v0.11c1.88,0.64,3.01,2.4,3.6,4.94c0.81,3.4,1.38,5.76,1.88,6.71h-3.26
							c-0.39-0.7-0.95-2.79-1.63-5.84c-0.73-3.37-2.02-4.64-4.9-4.74h-2.97v10.6h-3.15L106.76,48.94L106.76,48.94z M109.91,60.08
							h3.22c3.37,0,5.51-1.84,5.51-4.64c0-3.15-2.29-4.53-5.62-4.56c-1.52,0-2.61,0.14-3.11,0.29L109.91,60.08L109.91,60.08z"/>
						<path class="st0" d="M138.92,61.62h-9.5v8.81h10.6v2.65h-13.75V48.62h13.21v2.65h-10.04V59h9.49V61.62z"/>
						<g>
							<path class="st0" d="M3.35,60.95c0-5.8,3.11-9.36,7.95-9.99c1.34-1.22,2.95-2.06,4.76-2.47c-0.89-0.16-1.99-0.29-3.28-0.29
								c-7.59,0-12.76,5.19-12.76,12.83c0,8.02,5.19,12.37,12.08,12.37c1.31,0,2.47-0.11,3.47-0.29c-1.77-0.43-3.31-1.29-4.58-2.49
								C6.13,69.96,3.35,66.32,3.35,60.95z"/>
						</g>
					</g>
				</g>
			</g>
			<g>
				<path class="st0" d="M111.84,79.93h-1.06c-0.09,0-0.16-0.04-0.18-0.13l-0.72-2.83l-0.72,2.83c-0.02,0.09-0.07,0.13-0.16,0.13
					h-1.06c-0.09,0-0.13-0.04-0.16-0.13l-1.06-4.4c-0.02-0.09,0-0.13,0.09-0.13h0.97c0.09,0,0.14,0.04,0.16,0.13l0.59,2.77
					l0.72-2.81c0.02-0.05,0.05-0.09,0.13-0.09h1c0.07,0,0.11,0.04,0.13,0.09l0.72,2.81l0.59-2.77c0.02-0.09,0.07-0.13,0.16-0.13
					h0.97c0.07,0,0.11,0.04,0.09,0.13L112,79.8C111.98,79.89,111.93,79.93,111.84,79.93z"/>
				<path class="st0" d="M114.29,75.27h2.68c0.07,0,0.13,0.04,0.13,0.13v0.82c0,0.07-0.04,0.13-0.13,0.13h-1.7v0.72h1.47
					c0.07,0,0.13,0.04,0.13,0.13V78c0,0.09-0.04,0.13-0.13,0.13h-1.47v0.72h1.7c0.09,0,0.13,0.04,0.13,0.13v0.82
					c0,0.09-0.04,0.13-0.13,0.13h-2.68c-0.09,0-0.13-0.04-0.13-0.13v-4.4C114.17,75.31,114.2,75.27,114.29,75.27z"/>
				<path class="st0" d="M119.07,79.93h-0.89c-0.09,0-0.11-0.04-0.09-0.13l1.36-4.4c0.02-0.09,0.07-0.13,0.14-0.13h1.15
					c0.07,0,0.13,0.04,0.14,0.13l1.36,4.4c0.02,0.04,0.02,0.07,0,0.09c-0.02,0.02-0.04,0.04-0.09,0.04h-0.91
					c-0.09,0-0.16-0.04-0.18-0.13l-0.21-0.75h-1.4l-0.2,0.75C119.23,79.89,119.16,79.93,119.07,79.93z M119.7,78.03h0.91l-0.47-1.49
					L119.7,78.03z"/>
				<path class="st0" d="M125.86,78.25l0.97,1.56c0.05,0.09,0.04,0.13-0.07,0.13h-0.95c-0.11,0-0.18-0.04-0.21-0.13l-0.86-1.4h-0.29
					v1.4c0,0.09-0.04,0.13-0.13,0.13h-0.86c-0.09,0-0.13-0.04-0.13-0.13v-4.4c0-0.09,0.04-0.13,0.13-0.13h1.74
					c0.3,0,0.57,0.07,0.81,0.21c0.23,0.14,0.41,0.34,0.54,0.57c0.13,0.23,0.18,0.5,0.18,0.79c0,0.18-0.04,0.36-0.09,0.52
					s-0.14,0.3-0.23,0.41c-0.09,0.11-0.2,0.21-0.29,0.29C126.02,78.14,125.95,78.19,125.86,78.25z M124.94,76.28h-0.48v1.15h0.48
					c0.21,0,0.39-0.05,0.5-0.16c0.11-0.11,0.18-0.23,0.18-0.41c0-0.18-0.05-0.32-0.18-0.41C125.34,76.31,125.16,76.28,124.94,76.28z
					"/>
				<path class="st0" d="M128.99,79.93h-0.86c-0.09,0-0.13-0.04-0.13-0.13v-4.4c0-0.09,0.04-0.13,0.13-0.13h0.86
					c0.07,0,0.13,0.04,0.13,0.13v4.4C129.11,79.89,129.08,79.93,128.99,79.93z"/>
				<path class="st0" d="M134.64,79.93h-0.86c-0.09,0-0.16-0.04-0.21-0.13l-1.88-2.61v2.61c0,0.09-0.04,0.13-0.13,0.13h-0.88
					c-0.09,0-0.13-0.04-0.13-0.13v-4.4c0-0.09,0.04-0.13,0.13-0.13h0.86c0.09,0,0.16,0.04,0.21,0.13l1.88,2.61V75.4
					c0-0.09,0.04-0.13,0.13-0.13h0.86c0.09,0,0.13,0.04,0.13,0.13v4.4C134.77,79.89,134.72,79.93,134.64,79.93z"/>
				<path class="st0" d="M138.94,78.82v-0.57h-0.55c-0.09,0-0.13-0.04-0.13-0.13v-0.68c0-0.07,0.04-0.13,0.13-0.13h1.5
					c0.09,0,0.13,0.04,0.13,0.13v2.04c0,0.07-0.04,0.13-0.09,0.16c-0.45,0.23-0.95,0.36-1.54,0.36c-0.34,0-0.66-0.05-0.95-0.18
					c-0.3-0.13-0.55-0.29-0.75-0.5c-0.21-0.21-0.38-0.47-0.5-0.77c-0.13-0.3-0.18-0.61-0.18-0.95c0-0.45,0.11-0.86,0.3-1.24
					c0.2-0.36,0.48-0.64,0.86-0.86c0.36-0.2,0.77-0.3,1.24-0.3s0.91,0.13,1.34,0.39c0.09,0.04,0.11,0.11,0.05,0.18l-0.45,0.68
					c-0.04,0.05-0.07,0.09-0.11,0.09c-0.02,0-0.05-0.02-0.09-0.04c-0.21-0.14-0.47-0.23-0.75-0.23c-0.25,0-0.47,0.05-0.66,0.18
					s-0.36,0.29-0.45,0.48c-0.11,0.2-0.16,0.41-0.16,0.64c0,0.36,0.13,0.68,0.38,0.93c0.25,0.25,0.55,0.39,0.91,0.39
					C138.62,78.93,138.8,78.89,138.94,78.82z"/>
			</g>
		</g>
		<path class="st0" d="M88.8,15.49c0,0.07-0.02,0.13-0.02,0.2c-0.68,7.45-7.29,12.94-14.73,12.26c-0.57-0.05-1.15-0.14-1.68-0.27
			c0.02-1.97,0.23-4.13,0.79-6.44c1.45-6.16,4.53-10.35,6.26-12.39c-8.23-0.21-14.52,4.39-17.02,9.72
			c-0.54-1.68-0.75-3.49-0.59-5.37c0.66-7.21,6.86-12.58,14.02-12.3c-2.72-0.86-5.71-1.15-8.84-0.68c-6.91,1-12.73,5.82-15,12.42
			c-4.26,12.39,4.28,24.59,16.47,25.6c10.18,0.84,19.33-6.6,20.57-16.75C89.27,19.43,89.18,17.41,88.8,15.49z"/>
	</g>
</g>
</svg>
