<?xml version="1.0" encoding="utf-8"?>
<!-- Generator: Adobe Illustrator 21.0.0, SVG Export Plug-In . SVG Version: 6.00 Build 0)  -->
<svg version="1.1" id="Camada_1" xmlns="http://www.w3.org/2000/svg" xmlns:xlink="http://www.w3.org/1999/xlink" x="0px" y="0px"
	 viewBox="0 0 500 200.9" style="enable-background:new 0 0 500 200.9;" xml:space="preserve">
<style type="text/css">
	.st0{fill:#FFFFFF;}
	.st1{fill:#FF0D38;}
</style>
<g>
	<g>
		<path class="st0" d="M417.1,62.4L417.1,62.4C417,62.3,417.1,62.3,417.1,62.4c-0.1-0.1-0.2-0.1-0.3-0.2c0,0.1,0,0.1,0.1,0.2
			C417,62.4,417,62.4,417.1,62.4z"/>
		<path class="st0" d="M384,64.6c-0.1,0-0.2,0.1-0.2,0.1l0,0L384,64.6z"/>
		<rect x="193.9" y="33.9" class="st0" width="1.6" height="14.3"/>
		<polygon class="st0" points="201.3,42 209.1,42 209.1,40.5 201.3,40.5 201.3,35.4 210,35.4 210,33.9 199.7,33.9 199.7,48.2 
			201.3,48.2 		"/>
		<polygon class="st0" points="214.7,36.5 223.9,48.2 225.2,48.2 225.2,33.9 223.6,33.9 223.6,45.4 214.6,33.9 213.1,33.9 
			213.1,48.2 214.7,48.2 		"/>
		<path class="st0" d="M231.4,44.4h7.8l1.7,3.8h1.7l-6.5-14.4h-1.5L228,48.2h1.7L231.4,44.4z M235.3,35.7l3.2,7.3H232L235.3,35.7z"
			/>
		<polygon class="st0" points="247.4,48.2 249,48.2 249,35.4 253.8,35.4 253.8,33.9 242.6,33.9 242.6,35.4 247.4,35.4 		"/>
		<rect x="257" y="33.9" class="st0" width="1.6" height="14.3"/>
		<path class="st0" d="M269.4,48.4c4.4,0,7.3-3.5,7.3-7.4v0c0-3.9-2.9-7.4-7.3-7.4s-7.3,3.5-7.3,7.4v0
			C262.1,45,265.1,48.4,269.4,48.4z M263.8,41c0-3.3,2.3-5.9,5.6-5.9c3.3,0,5.6,2.7,5.6,5.9v0c0,3.2-2.3,5.9-5.6,5.9
			C266.2,46.9,263.8,44.3,263.8,41L263.8,41z"/>
		<polygon class="st0" points="281.7,36.5 291,48.2 292.3,48.2 292.3,33.9 290.7,33.9 290.7,45.4 281.7,33.9 280.2,33.9 280.2,48.2 
			281.7,48.2 		"/>
		<path class="st0" d="M301.3,46.9c-2,0-3.4-0.7-4.9-2l-1,1.2c1.7,1.5,3.6,2.3,5.8,2.3c2.8,0,4.9-1.6,4.9-4v0c0-2.2-1.5-3.4-4.7-4
			c-3.1-0.7-3.9-1.4-3.9-2.8v0c0-1.3,1.2-2.3,3-2.3c1.5,0,2.8,0.5,4.1,1.6l0.9-1.2c-1.5-1.2-2.9-1.8-5-1.8c-2.7,0-4.7,1.7-4.7,3.9v0
			c0,2.4,1.5,3.4,4.8,4.1c3,0.6,3.7,1.4,3.7,2.7v0C304.5,45.9,303.2,46.9,301.3,46.9z"/>
	</g>
	<g>
		<path class="st1" d="M448.5,119.9c-0.1,0.1-0.3,0.3-0.4,0.4c-0.1,0.1-0.1,0.1-0.1,0.1c-0.9-0.1-0.9,1.1-1.7,1.2
			c0-0.1-0.1-0.2-0.1-0.3c-0.2-0.1-0.4-0.1-0.5,0l-0.1,0c-0.2,0-0.4,0.1-0.5,0.1c-0.1,0.3-0.2,0.5-0.4,0.8c-0.6-0.2-0.8-0.8-1.1-1.1
			c0-0.3,0.1-0.6,0.1-0.9c-1.1-0.7-1.1-0.7-0.9-2.1c-0.1,0-0.2,0-0.3,0c-0.1-0.3-0.1-0.6-0.2-0.9c-0.1,0-0.2,0-0.3,0
			c-0.5-0.7-0.7-0.9-0.6-1.7c0-0.1,0-0.2,0-0.3c0-0.4-0.1-0.8-0.1-1.2c0.3-0.4,0.3-0.4,0.4-0.7c0-0.3,0-0.5,0-0.6
			c0-2.3,0-2.3,0.2-2.9c0-0.1-0.1-0.2-0.1-0.3c-0.3,0-0.6,0-0.9-0.1c0-0.2,0-0.4,0-0.6c0.5-2.5,0.5-2.5,0.5-2.6
			c0.1,0,0.2-0.1,0.3-0.1c0.1-0.1,0.1-0.1,0.1-0.1c1-1-0.1-2.7,1.2-3.6c0.1-0.5,0.4-1,0.3-1.5c0.2,0,0.4,0,0.5-0.1
			c0-0.2-0.1-0.4-0.1-0.6c-0.1-0.7-0.2-1.5-0.3-2.2c0.2-0.3,0.4-0.3,0.6-0.3c-0.1-0.5-0.2-0.9-0.3-1.4c0.2,0,0.4,0,0.5-0.1
			c-0.1-0.5-0.2-1-0.2-1.5c0.1,0,0.1,0.1,0.2,0.1c0.2,0.3,0.3,0.3,0.7,0.2c0.1,0,0.1,0,0.1,0c0.1,0,0.2,0,0.3,0l0.1,0
			c0.1-0.1,0.1-0.1,0.2-0.2c0.1,0,0.2,0,0.3,0c0.1-0.2,0.1-0.2,0-0.9c0.2-0.1,0.4-0.2,0.6-0.2c0-0.3,0.2-0.5,0.3-0.8
			c0,0,0.1,0,0.1,0c-0.5-1.4-1.1-2.8-1.7-4.2c0.1,0.1,0.1,0.2,0.1,0.4c0,0-0.1,0.1-0.2,0.1c-0.2,0.3-0.2,0.3-0.2,0.7
			c-0.1,0-0.1,0.1-0.2,0.2c0,0.1,0,0.2,0,0.2c0.1,0.7,0.1,0.7,0.5,1.4c0.1,0.2,0.1,0.4,0.2,0.5c-0.4,0.3-0.4,0.8-0.6,1.1
			c-0.5,0.1-0.1,0.8-0.6,0.8l-0.1,0.1l0.1,0c0,0.1,0,0.1,0,0.2c-0.2-0.2-0.2-0.4-0.4-0.6c-0.1-0.1-0.3-0.2-0.4-0.3
			c0,0.1-0.1,0.1-0.2,0.1c-0.1,0-0.2-0.2-0.2-0.2c-0.1,0-0.2,0-0.2,0.1c-0.1,0-0.2,0-0.3,0c-0.2-0.5-0.2-0.5-0.2-0.8l0-0.2
			c0-0.1,0-0.1-0.1-0.2c0-0.1-0.1-0.1-0.1-0.2c-0.3-0.4-0.2-0.9-0.3-1.4c-0.1-0.3-0.2-0.6-0.4-1c-0.4-0.5-0.4-1.1-0.8-1.6l0-0.2
			c0.1,0,0.3,0,0.4-0.1c0-0.1,0-0.2-0.1-0.2l0-0.1h0.1c0.1,0.1,0.1,0.1,0.4,0.1c0.2,0,0.4-0.1,0.7-0.1c0.2,0.2,0.5,0.2,0.8,0.4
			c0,0,0,0,0.1-0.1c0-0.1,0-0.2,0.1-0.2c-0.3-1.3-0.3-1.3-1.3-2.5c-0.1-0.3-0.3-0.5-0.4-0.8c-0.2-0.2-0.5-0.4-0.7-0.6l-0.1,0
			c-0.1,0-0.2,0-0.4-0.2l-0.1,0c-0.2-0.3-0.2-0.3-0.1-0.5c0.1,0,0.1-0.1,0.2-0.1c0,0,0.3,0.3,0.7,0.2c0-0.1-0.1-0.1-0.1-0.2
			l-0.1-0.1c-0.1-0.1-0.1-0.3-0.3-0.4c-0.1-0.1-0.2-0.3-0.2-0.4c0.1,0,0.1,0.1,0.2,0.1c0,0,0.1,0.1,0.1,0.1c0.1,0,0.1,0,0.2,0
			l0.1,0.1c0.1,0,0.1,0,0.2,0c-0.1-0.1-0.2-0.3-0.2-0.5c0.1,0,0.1-0.1,0.2-0.1c-0.1-0.2-0.2-0.4-0.3-0.6c-0.2-0.3-0.5-0.7-0.7-1l0,0
			c0,0.1,0,0.1,0.1,0.2l0,0.1c0.1,0.2,0.3,0.3,0.4,0.5l0,0.1l-0.1,0c0,0.1,0,0.2,0.1,0.3c-0.1,0-0.1,0-0.2,0.1l0,0
			c-0.1,0-0.2-0.2-0.3-0.2l0,0c0,0.1,0,0.1,0,0.2c-0.2,0-0.2,0-0.2,0c-0.1,0-0.1,0-0.2,0c0,0.1,0,0.1,0.2,0.4c-0.1,0-0.1,0-0.2,0
			c-0.2-0.1-0.2-0.1-0.2-0.1c0,0.2,0,0.2,0,0.2c-0.1,0.1-0.1,0.1-0.1,0.1l-0.1-0.1c0.1-0.2,0.1-0.2-0.2-0.7l0.1-0.1l0,0
			c0-0.1-0.1-0.2,0-0.2c0.4,0,0.1-0.4,0.1-0.4l-0.5-0.1c0,0,0,0.1-0.1,0.2c-0.1,0-0.3-0.3-0.3-0.4h0l0,0l0,0h0h0l0,0l0,0h0l0.1,0
			c0-0.1-0.1-0.2-0.1-0.2l0.1,0c-0.1-0.2-0.2-0.4-0.4-0.2c-0.1,0-0.1,0-0.2-0.2l0.1,0c0,0,0-0.1-0.1-0.1c0,0,0-0.1,0-0.1l0,0l0,0
			c0.1,0,0.3,0.1,0.4,0.1c0-0.3-0.3-0.5-0.4-0.7c-0.4-0.2-0.4-0.7-0.8-0.8l0,0.1c-0.1,0-0.2,0-0.3,0c-0.1-0.1-0.1-0.1-0.2-0.3l0-0.1
			l0,0c-0.1-0.2-0.5-0.6-0.5-0.7c0,0.1,0,0.1,0.2,0.3l-0.1,0c-0.1-0.1-0.3-0.2-0.3-0.2l0,0c0,0-0.1,0-0.1,0
			c-0.2-0.3-0.2-0.3-0.1-0.4c-0.1-0.2-0.2-0.3-0.3-0.4c0,0-0.1-0.1-0.1-0.1c0,0,0-0.1-0.1-0.1c-0.4-0.1-0.6-0.5-0.6-0.6
			c0.1,0,0.2,0.2,0.4,0.1c0-0.2-0.2-0.3-0.3-0.4c-0.3-0.5-0.3-0.5-0.3-0.5c0.2,0,0.2,0,0.3,0l0.1,0l0,0c0.1,0,0.1,0.1,0.6,0.9
			c0.2,0,0.4-0.1,0.5-0.1c0.1,0.2,0.3,0.3,0.4,0.5c0.1,0.1,0.1,0.3,0.2,0.4c0,0.1,0.1,0.1,0.1,0.1l-0.1,0l0.1,0.4
			c0.2,0.1,0.4,0.1,0.6,0.2c0.2,0.1,0.3,0.3,0.5,0.5c0.1,0.1,0.3,0.3,0.4,0.4c0,0,0.1,0.1,0.1,0.1c0.2-0.1,0.4,0.3,0.6,0.7
			c0.1,0,0.1,0,0.2,0c0.5,0.7,0.5,0.7,0.6,0.7c0,0,0-0.1,0-0.2c-1.1-1.5-2.3-2.9-3.6-4.2c-5.2-5.3-11.3-9.2-18-11.5
			c0,0,0.1,0.1,0.1,0.1c0.1,0,0.1,0.1,0.1,0.1c0.1,0.1,0.3,0.2,0.4,0.3c-0.1,0-0.1,0-0.1,0c-0.1,0-0.1,0-0.4-0.2l0,0.1
			c1,0.4,2.1,1.2,2.1,1.2c-0.1,0.1-0.2,0.1-0.2,0.1c0,0,0.1,0.1,0.1,0.2l-0.1,0.1c-0.3-0.1-0.5-0.5-0.9-0.6c0,0.1,0.1,0.1,0.1,0.2
			c-0.1,0.1-0.1,0.1-0.3,0.1l0,0c0,0.1,0.1,0.2,0.1,0.2c0.2,0.2,0.5,0.3,0.8,0.3l0.1,0c0.2,0,0.3,0.2,0.5,0.2c0.1,0,0.1,0,0.1,0
			l0-0.1l0-0.1l0.1,0c0.1,0.1,0.1,0.1,0.2,0.3c-0.1,0-0.2,0.1-0.3,0.1c0,0.2,0.2,0.4,0.2,0.6c-0.1,0.1-0.1,0.1-0.1,0.1l0,0.1
			c-0.1,0-0.1,0.1-0.1,0.1c-0.1,0-0.1,0-0.2,0.1c0,0.2,0.1,0.3,0,0.5c-0.2,0.1-0.2,0.1-0.9-0.1l-0.1-0.1l0,0l-0.1,0l0,0l0,0l0,0
			c-0.1,0-0.1,0-0.1,0l0,0c0.2,0.2,0.2,0.2,0.3,0.3l-0.1,0.1l0,0.1c0,0,0.1,0.1,0.1,0.1l-0.1,0.1c0.1,0.2,0.1,0.2,0.1,0.3l-0.1,0.1
			c0,0.1,0,0.1,0.1,0.2c-0.1,0.2-0.1,0.2,0,0.3l0.1,0.1c-0.1,0.1-0.1,0.1-0.2,0.1l-0.1,0c-0.1,0.2,0,0.3-0.1,0.5c-0.2,0-0.2,0-0.3,0
			c-0.1-0.2-0.1-0.2-0.3-0.4c-0.1,0-0.2,0-0.3,0c0.1,0.1,0.1,0.2,0.3,0.4c-0.2,0-0.3,0-0.5,0c0,0.1,0.1,0.2,0.2,0.4
			c-0.1,0.1-0.1,0.1-0.3,0.2c0.1,0.3,0.6,0.3,0.5,0.7c0.1,0.2,0.2,0.4,0.3,0.6l0,0.1l-0.1,0c-0.1,0.2-0.1,0.2,0.1,0.5
			c0,0-0.1,0.1-0.2,0.1c-0.1,0-0.1,0-0.2,0c-0.1,0-0.1,0-0.2,0.1l0,0.1c0.1,0.3,0.4,0.5,0.6,0.8c0.2,0.3,0,0.7,0.2,1.1
			c0,0.1,0.1,0.2,0.1,0.2l0,0.1c-0.3,0.9-1.3-0.3-1.9-0.5l-0.1,0c-0.1,0-0.1,0-0.2,0.1c-0.1,0-0.1,0-0.2,0c-0.4,0-3.4-2.4-3-2.8
			c0.1-0.1,0.1-0.1,0.2-0.2c0-0.2-0.1-0.3-0.2-0.5c-0.1,0-0.1,0-0.2,0c-0.1,0.1-0.1,0.2-0.2,0.3c-0.1,0-0.1,0-0.5-0.8l0.1-0.1
			c0,0,0.1,0,0.1,0c0-0.2,0-0.2-0.1-0.2c-0.1,0-0.1,0-0.2,0h-0.1l0,0.1c-0.5,0.2-0.8-0.6-0.8-0.7c0-0.1,0.1-0.1,0.2-0.1
			c-0.1-0.4-0.5-0.3-0.7-0.6c0-0.1,0-0.1,0-0.1l0-0.1l0-0.1c0.2-0.1,0.2-0.1,0.2-0.2c0.1,0,0.1,0,0.2,0c0-0.1-0.1-0.3-0.1-0.5l0.1,0
			l0.1,0c0.1,0,0.1,0,0.1,0h0h0.1c0-0.1,0-0.1,0.1-0.2l0.1,0c0.1,0,0.2,0,0.2,0c0-0.1-0.1-0.2-0.1-0.3c-0.1-0.1-0.1-0.1-0.3-0.3
			c0,0,0-0.1,0-0.1l0-0.1l0-0.1l0-0.1l0,0c-0.1-0.1-0.1-0.1-0.2-0.2c-0.1,0-0.2,0-0.2,0c-0.2,0-0.2,0-0.4-0.1c-0.1,0-0.2,0-0.2,0
			l0,0.1c0.1,0,0.1,0,0.2,0l0.1,0.1c0.1,0,0.2,0,0.3,0c0.1,0.1,0.2,0.2,0.2,0.3c-0.2,0-0.2,0-0.3,0c0,0.1-0.1,0.1-0.1,0.2l-0.1,0
			c-0.2-0.2-0.5-0.1-0.7-0.3c-0.2-0.2,0-0.4,0-0.4l0.1,0l0-0.1c-0.1-0.1-0.3-0.2-0.4-0.4c0.4-0.2,0.7,0.1,1,0.1h0l0.2,0l0.1,0
			c0.1,0,0.1,0,0.2,0l0-0.1c-0.1-0.1-0.2-0.2-0.5-0.3l0,0h0h0h0l0,0h0h0h0c-0.3,0-0.5-0.6-0.9-0.4l0,0.1c-0.1,0-0.2,0-0.4,0.1
			l-0.1,0c-0.1,0-0.1,0-0.2,0c-0.2,0-0.2,0-0.3-0.1c0-0.1-0.1-0.1-0.1-0.2c0,0,0.1,0,0.1,0c0-0.1-0.1-0.2-0.2-0.3l0.1-0.1
			c0-0.1,0-0.1,0-0.2c-0.1,0-0.1,0-0.2,0c0,0,0-0.1,0-0.2c0-0.1-0.1-0.2-0.1-0.2c-0.2-0.2-0.2-0.2-0.2-0.2c0-0.1,0-0.1,0-0.1
			l-0.1-0.1l0,0c0,0-0.1-0.1-0.2-0.2c-0.2-0.2-0.2-0.2-0.2-0.2l0,0l-0.1-0.1l-0.1,0c0,0-0.1-0.1-0.1-0.1l0,0l-0.1-0.1l-0.1,0l0,0
			l0,0h0l0,0l0,0l0,0l-0.1-0.1c0-0.1-0.1-0.2-0.1-0.3l-0.1-0.1c-0.1,0-0.1,0-0.1,0l-0.1,0l-0.1-0.1h0l0,0l-0.1,0
			c0,0-0.1-0.1-0.1-0.1l0,0c-0.1,0-0.1,0-0.2,0l0,0l0,0l0,0c0,0-0.1,0-0.1-0.1h0l-0.1,0l-0.1,0l0,0c-0.1-0.1-0.1-0.1-0.2,0l0,0l0,0
			h0h0h0h0h0h0h0h0h0h0l0,0l0,0l0,0l0,0c-0.1,0-0.1,0-0.2,0l0,0h-0.1l0,0.1l0,0l0,0l0,0l0,0c0,0-0.1,0-0.2,0c-0.1,0-0.1,0-0.1,0
			c0,0,0,0.1,0.1,0.1l0,0l0,0h0h0l-0.1,0l0,0l0,0l-0.1-0.1l0,0l0,0l0,0l0,0l0,0l0,0l-0.1,0l0,0l0,0l0,0l0,0
			c-0.1-0.1-0.3-0.1-0.4-0.2l0,0l0,0c-0.6,0-1.1,0-1.7,0.1l0,0c-0.1,0.1-0.1,0.1-0.6,0.4c-0.1,0-0.1,0-0.2,0c-0.1,0-0.2,0-0.3,0l0,0
			c0.1-0.1,0.1-0.1,0.1-0.2c-0.1,0-0.1,0-0.2,0c-0.4,0-0.4,0-0.4-0.1c-0.1,0-0.2,0.1-0.3,0.1c-0.1,0-0.2-0.1-0.3-0.1
			c0,0-0.1,0-0.1,0c-0.1,0-0.2,0.1-0.2,0.1l-0.1-0.1c-0.2,0-0.4,0-0.6,0.1l-0.1,0.2l0.1,0.3l0.3,0l0.3,0.1l0.3,0l0.5-0.1l0.3-0.1
			l0.3,0.1l0.3,0.1l0,0.3l0,0c-0.2,0.1-0.2,0.1-0.2,0.2c0,0.2,0,0.2-0.8,0.2l-0.1-0.1l-0.1,0.1l-0.3,0.1c-0.2,0-0.3,0-0.5,0
			c-0.4,0-0.4,0-0.6-0.3c-0.1,0-0.2,0.1-0.3,0.1l-0.4,0l-0.1-0.2l0-0.2l0.3-0.3c0-0.2,0.1-0.3,0.1-0.3c-0.5,0.1-1,0.2-1.5,0.2
			c0,0-0.1,0.1-0.1,0.1l-0.2,0.2l-0.2,0l-0.2,0l-0.2,0.1l0.2-0.3c-1.7,0.3-3.4,0.8-5.1,1.3l0,0l-0.3,0.3l-0.2,0.1l0.1,0l0.3-0.2
			l0.2,0l0.1,0.1l0.1,0l-0.3,0.2l-0.2,0.2l0.3,0l0.2-0.2c0.1,0,0.2,0,0.2,0l0.1-0.2l0.2-0.2l0.2,0l-0.1,0.3l-0.1,0.2l-0.2,0.2l0,0.2
			l0.1,0l0.2-0.1l0.2-0.3l0.2-0.2c0.1-0.1,0.2-0.2,0.3-0.3c0.1,0,0.2,0,0.3,0l0.2,0.2l-0.1,0.3l-0.4,0.5l0,0.2l-0.3,0.4V66l0.4,0.3
			l0.1,0.2l-0.2,0.2l-0.4,0.1l-0.2,0L391,67l-0.3,0.3l-0.4,0l-0.3,0l-0.3-0.4l-0.2,0l0-0.2l-0.3,0.1l-0.5,0.2l-0.4,0.1l-0.5,0.2
			h-0.5c-0.2,0-0.3,0-0.5,0l-0.1-0.2l0.2-0.5c-0.1,0-0.2,0-0.3,0l-0.4,0l0.2-0.5l0.6-0.2c0.2,0,0.3,0,0.5,0l0.5,0.1
			c0.2-0.1,0.2-0.2,0.2-0.2c0-0.1-0.1-0.1-0.1-0.2c-0.1,0-0.2,0-0.3,0l-0.4,0c-0.1,0-0.2,0-0.3,0l-0.1-0.2l0.3-0.2l0.3-0.1l0.4-0.1
			l0-0.2l-0.3,0l-0.3,0.1l0.1-0.2c-0.1,0-0.1,0-0.2,0l0.2-0.2l0.5-0.2l0,0c-0.7,0.3-1.5,0.6-2.2,0.9c-0.5,0.2-1,0.5-1.5,0.7
			l-0.3,0.4l0.3-0.1l0.4-0.2l0.3,0l0.3,0.1l-0.1,0.3l0.6,0.5l0.4,0l0.2,0.4l-0.6,0.2l-0.2,0.2l1.1,0.2l0.7-0.1l0.3,0.3l-0.2,0.8
			l0.5-0.7l0.2-0.4l0.7-0.3l0.5-0.3l0.2,0.4L390,68l0.4,0.3l1.1,0l0.3-0.3l0.4-0.3l-0.3-0.5l0.4-0.2l0.4-0.4l0.4,0.4l-0.2,0.6
			c-0.1,0-0.2,0-0.3,0l-0.2,0.4c0.1,0,0.2,0,0.3,0l-0.3,0.4l0.3,0.4l0.2-0.7l0.9-0.4c0.1-0.1,0.1-0.3,0.2-0.4l-0.5,0.3l-0.4,0
			l0.1-0.4l0.4,0.1l0.3-0.4l-0.2-0.3l-0.2-0.4l0.2-0.2l0.1-0.3l0.4-0.3l0.2,0l0.2-0.2l0.4,0l0.2,0.4l-0.2,0.3l0.2,0.1l-0.1,0.4
			l-0.2,0.4l0.2,0.1l0.3,0.8l0.6-0.4l0.3,0.5l-0.3,0.3l0,0.6l0.2,0.2l0.4-0.4l0.3-0.5l0.6-0.6l-0.2-0.2l0.1-0.3l0.4-0.1l-0.5-0.2
			l-0.2-0.2l-0.2,0.1c-0.1,0-0.3,0-0.4,0l-0.2-0.4l0.4-0.1l0.3,0.1l0-0.3l-0.3,0l-0.4-0.1l0.4-0.7l0.5-0.6l0.6-0.4l0.5,0
			c0.1,0,0.3,0,0.4,0l-0.4,0.3l-0.3,0.3l-0.1,0.3l-0.1,0.5l0.2,0.4l0.3,0l-0.1-0.5l0.2-0.2l-0.1-0.4l0.2-0.3l0.3-0.2l0.3,0l0.3-0.2
			c0.1,0,0.3,0,0.4,0l0,0.3l0.2,0.4l-0.2,0.3l0,0.3l0.3,0l0.1-0.2l0.3,0.1l0.3,0l0.1-0.2c0.2,0,0.4,0,0.5,0l0.4,0.2l0,0.2l0.3,0
			l0,0.2l0.3,0.3l0.5-0.1l0.4,0.1l-0.3,0.2l0.1,0l0.3,0l0.1,0.2l0.4,0l0.4,0.2l-0.1,0.3l0.4,0.1l0.3,0.3l-0.2,0l0,0.2l0.5,0.1
			l-0.2,0.2c-0.1,0-0.2,0-0.4,0c0,0.1,0,0.3,0,0.4l0.2,0l0.5,0l0.1,0.2l0.1,0.3c0.1,0,0.2,0,0.3,0l0.4,0.2l0.3,0l0.5,0.3
			c0,0.1,0,0.1,0,0.2c0.2,0,0.4,0,0.7,0l0.1,0.4l-0.1,0.3c-0.1,0-0.2,0-0.3,0l0,0.2l-0.5,0.2l0,0.6l-0.4-0.1l-0.4-0.5l-1.1-0.8
			l-0.2,0.2l-0.2,0.2l0.8,0.9l0.7,0.2l0.2,0.7l0.5,0.3l-0.2,0.5c0,0.2,0,0.3,0.1,0.5l-0.6-0.3l-1-0.5l-0.6-0.3l0.2,0.3l0.4,0.3
			l1,0.7l0,0.4l-0.6-0.3l-0.9,0l-0.6-0.6c-0.2,0-0.4,0-0.5,0l-0.4-0.4l-0.1-0.3l-0.6-0.6l-0.6-0.2l-0.3-0.1l-0.2,0.1l-0.1,0.2
			l-0.5,0l-0.6-0.1c0-0.1,0-0.3,0-0.4l0.6-0.4c0.1,0,0.3,0,0.4,0l0.4,0.1l0.7-0.1l-0.2-0.5l0.4-0.5l0.5-0.5l-0.1-0.5l-0.3-0.4
			l-0.4-0.1l-0.2-0.4l-0.3-0.1l-0.1-0.3l-0.3-0.1l-0.1-0.4l-0.4,0l-0.3-0.4l-0.2,0.1l0.3,0.3l-0.4,0.1l-0.4,0l-0.3-0.2l-0.4,0
			l-0.1,0.2c-0.2,0-0.3,0-0.5,0l0.4,0.3l0.3,0.2l0.2,0.4l-0.2,0.4l-0.4,0.1l0.1,0.5l0.2,0.3l-0.2,0.3l-0.5,0.3l-0.2,0.3
			c-0.1,0-0.3,0-0.4,0l0,0.2l-0.2,0.2l-0.4-0.1c0,0.1,0,0.2-0.1,0.3l0.4,0.1l0.4,0.4l0.6,0.1l0.1,0.5l0.5,0.1l-0.1,0.4
			c-0.2,0-0.3,0-0.5,0l-0.3-0.2l-0.3-0.1l-0.6,0l-0.3,0.4c-0.2,0.1-0.4,0.1-0.6,0.1c0-0.1,0-0.2,0-0.3l-0.5,0l0-0.3l0.5-0.2
			c0.1-0.3,0.1-0.5,0.2-0.7l0.3-0.6l0.3-0.3l-0.2-0.3c-0.1,0-0.3,0-0.4,0l0.2,0.3l-0.4,0.4l-0.5,0.2l-0.4-0.2l-0.6-0.2l-0.4,0
			l0.5,0.3l0.1,0.2l0.5,0.1l0.4,0.1l-0.2,0.4l-0.3,0.1l-0.1,0.3l-0.4,0.1l-0.5-0.2l-0.2,0.4l-0.3,0.1l-0.6-0.2l-0.8-0.2l0.6,0.3
			l0.6,0.2l0.1,0.4l-0.5,0.4l-0.6,0.2l-0.7,0.7l-0.7,0.8l-0.5,1.1l0.2,0.4l0.4,0.3l0.1,1l0.1,0.4l1-0.2l0.7,0.5l0.6,0.4l0.3,0.4
			l0.8,0.3l0.3,0.2l0.7,0l0.9,0.1l-0.2,0.7l0.1,0.8c0,0.2,0,0.4-0.1,0.6l0.5,0.7l0.4,0.8l0.8-0.1l0.4-0.6l0.2-0.5l-0.2-0.6
			c0-0.3,0-0.6,0.1-1l-0.4-0.8l0.8-0.1l0.6-0.5l0.4-0.6c0-0.3,0-0.6,0-0.9l-0.1-0.7l-0.5-0.4l-0.3-0.3l0.3-0.3l0-0.6
			c0.1,0,0.3,0,0.4,0l-0.2-0.6l0-0.4l0.2-0.6l-0.2-0.5l0.3-0.3c0.2,0,0.5,0,0.7,0l0.3,0.2l0.6,0l0.3-0.2l0.8,0.5l0.4,0.5l0.5,0.3
			l0.6,0l0.1,0.5c0,0.3,0,0.6,0,0.9l-0.1,0.7l0.5-0.1l0.4,0.3l0.1,0.4l0.5,0l0.3-0.4l0.5-0.2c0-0.2,0-0.4-0.1-0.6l0.4-0.7l0.3,0.5
			l0.9,1.2l0.6,0.7l0.5,0.6l-0.1,0.3l-0.3,0.1l0.2,0.4l0.5,0.4l0.5,0.4l0.7,0.2l0.6,0.3l0.5,0l-0.3,0.3l-0.8,0.2l-0.6,0.3l-0.1,0.4
			l0.4,0.1l0.4-0.3l0.5-0.4c0.2,0,0.5,0,0.7,0l0.2,0.3l0.7,0.1l0.1,0.6l-0.1,0.3l0.4,0.3l-0.2,0.3l-0.5,0.2l-1,0.1l-0.5,0.6
			l-0.6,0.5l-0.6,0l-0.8-0.1l-1.6,0.1c-0.3,0-0.6,0-0.9,0L406,84l-0.3,0.6l-0.7,0l-0.5,0.5l-0.2,0.5c-0.3,0-0.7,0-1,0l0.8,0.2
			l-0.3,0.3l-0.5,0.6l-0.3,0.6l0.8-0.6l1-1l1-0.6l0.9-0.3l0.9,0.1l0.1,0.8l-0.6,0.5l0.4,1l0.7,0.6l0.7,0.3l0.8,0l0.4-0.8l0.7-0.2
			l0,0.5l-0.5,0.5l-0.5,0.7l-0.7,0.2l-0.6,0.3l-0.6,0.2l-0.3,0.2l-0.4,0.4l-0.4-0.2c0-0.2-0.1-0.4-0.1-0.6c0.2-0.1,0.4-0.3,0.5-0.4
			c0.3,0,0.7,0,1,0c0.1-0.1,0.2-0.2,0.2-0.2c-0.6-0.2-0.6-0.2-1.8-0.2l-0.4,0.6l-0.7,0.4l-0.8,0l-0.2,0.4c-0.2,0-0.4,0-0.6,0
			l-0.5,0.7l0,1l0.2,0.5l-0.8,0.1l-0.6,0.4c-0.3,0-0.7,0-1,0l-0.4,1.2l-0.3,0.4l-0.3,0.6l-0.3,0.6l-0.4-0.7l-0.5,0.3l0.3,0.4
			l-0.2,0.5l0.3,0.4l0.4,0.9l-0.6,0.3l-0.1,0.5l-0.7,0.3l-0.8,0.5l-0.8,0.7l-0.7,0.3l-0.5,0.9c-0.1,0.2-0.2,0.5-0.3,0.7
			c-0.1,0.6-0.1,1.1-0.1,1.5l0.5,1l0.2,1.1l0.2,0.7l-0.2,0.6l-0.3,0.4l-0.4-0.1l0-0.6l-0.4-0.3l-0.2-0.5l-0.4-0.4l-0.1-0.5l-0.3-0.4
			c0-0.2,0-0.5,0-0.7l-0.5-0.6l-0.5-0.5l-0.3,0.1l-0.3,0.3c-0.1,0-0.2,0-0.4,0l-0.4-0.6l-1.1-0.1l-0.6,0.1l-0.8,0l-0.2,0.7l0.1,0.4
			l-0.5,0c-0.2,0-0.5,0-0.7,0l-0.3-0.6l-0.5,0.2l-0.6-0.2l-0.8-0.1l-0.6,0.6l-0.6,0.5l-0.6,0l-0.7,1l0.3,1l-0.2,1l-0.4,0.9l0.1,1.1
			l0.3,1.6l0.5,0.9l0.3,0.7l0.8,0.5l0.4,0.6l0.9-0.1l0.9-0.2l0.6-0.1l0.4-0.8l0.3-0.9l0.3-0.6l0.7-0.1l1.2-0.1l0.4,0.3l-0.1,0.7
			l-0.5,0.3c0,0.3,0,0.6,0,0.9l-0.3,0.8l-0.2,0.5c0,0.1,0,0.3,0,0.4c0,0.1,0,0.2,0,0.4l-0.5,0.4l0.6,0.4l0.8-0.3l0.8,0.2l1.1-0.1
			l0.7,0.4l0.4,0.6c0,0.2,0,0.5,0,0.7l-0.2,1.1c0,0.3,0,0.6,0,0.9l0,0.7l0.7,0.8l0.5,0.4l1.1,0.1l0.8,0.1c0.4,0,0.8,0,1.2,0l0.4,0.5
			l-0.2,0.6l-0.4,0l-0.1-0.4l-1.1-0.1l-0.3,0.4l0.1,0.7l-0.6-0.3l-1.2-0.7c-0.4,0-0.4,0-1.4-0.9l-0.5-0.3l-0.4,0.2l-0.3-0.3
			c0.1-0.4,0.1-0.4-1.3-2.5l-0.5-0.3l0,0.4l-0.9-0.3l-0.4-0.7l-0.4-0.2l-0.3,0c-0.2,0-0.5,0-0.7,0l-0.5-0.6l-0.9-0.8l-0.8-0.5
			l-0.7,0.1l-0.2,0.4l-0.6,0l-0.9-0.3l-1.2-0.7l-1-0.6l-0.9-0.7l-0.8-0.3l-0.7-0.7l-0.8-0.8l0.1-0.5l0.4-0.3l-0.4-0.4l-0.2-0.9
			l-0.7-1l-0.3-0.7l-0.4-0.7l-0.6-0.5l0-0.7L375,104l-0.5-0.6l-0.5-0.9l-0.5-1.1l0.1-0.8l-0.2-0.5l-0.5-0.3l-0.4,0l-0.1,0.9l0.4,0.7
			l0.1,0.9l0.4,0.2l0.1,0.7l0.4,0.5l0.1,0.7l0.1,0.7l0.5,0.5l0,0.6l0.4,0.3l0.2,0.7l-0.1,0.6l-0.3,0.2l0-0.5l-0.3-0.5l-0.4-0.5
			l-0.5-0.3l-0.1-0.4l0.1-0.5l-0.3-0.6l-0.6-0.6l-0.4-0.5l-0.2-0.5l0.4-0.4l-0.1-0.4l-0.4-0.6l-0.3-0.5l-0.1-1.2l-0.1-0.7l0-0.7
			l-0.3-0.6l-0.5-0.4l-0.3-0.5c-0.2,0-0.3,0-0.5,0l-0.2-0.7l0-0.6l-0.3-0.5l0-1.1l-0.3-0.6l-0.1-0.7l0.2-0.8l-0.1-0.5l0.1-0.6
			l0.3-0.7l0-0.8c0.1-0.2,0.2-0.5,0.3-0.7l0.3-0.2c0.1-0.4,0.3-0.7,0.4-1.1l0.4-1l0.3-0.7l0.1-0.9l0.1-0.7l-0.3-0.7L371,83l-0.2-0.3
			l0-0.5l0.3,0l0.2,0.1l0.2,0.2l0.1,0.3c0.1,0,0.2,0,0.3,0l-0.2,0.6l0.2,0.2l0.2,0.4l-0.1,0.4l0.1,0.6l0.1,0.5
			c0.1-0.2,0.2-0.5,0.3-0.7l0.2-0.9l-0.2-0.4l-0.3-0.5l0.1-0.4l-0.3-0.2l-0.3-0.3l-0.2-0.4l0.1-0.5l-0.1-0.7l0.3-0.7l-0.3-0.1
			l0.2-0.6l0.3-0.6l0.1-0.5h4.9l3.1-14.7h-5.9l3.1-14.6h-21.8l-3.1,14.6h-4.7l-3.1,14.7h4.7l-10,47.2c-2,9.2-3,15.1-3.1,17.6
			c-0.1,2.5,0.4,4.7,1.6,6.6c1.2,1.9,2.8,3.2,4.8,3.7c2,0.5,5.5,0.8,10.4,0.8h8.8l3.2-15c-3.5,0-5.5-0.4-5.8-1
			c-0.3-0.7,0.1-4,1.4-9.9c2.4,6.8,6.1,12.9,11.1,18.1c8.6,8.9,20,13.9,32,13.9c6.1,0,12-1.3,17.6-3.7c5.8-2.6,11-6.3,15.4-11.2
			c6.3-7,10.5-15.7,12.2-25C448.6,120,448.5,120,448.5,119.9z M389.2,67.6l-0.3,0.1l-0.4,0.2l-0.3-0.1l0.7-0.3l0.6-0.1L389.2,67.6z
			 M396,62.6l0.4-0.1l0.2,0l0,0.2l0.1,0.1l-0.2,0.3l-0.2,0.1L396,63c-0.1,0-0.1,0-0.2,0l0-0.2L396,62.6z M395.3,63l0,0.2
			c-0.1,0-0.1,0-0.2,0L395.3,63z M391.8,63.8l-0.2,0l0.2-0.1l0.2,0L391.8,63.8z M392.4,64.1l-0.3,0.1c0.1-0.3,0.1-0.3,0.1-0.3
			c0,0,0-0.1,0-0.2c0.1-0.1,0.2-0.1,0.3-0.2l0.3,0.1l0,0.1L392.4,64.1z M394.3,64.2l0.1,0.2l0,0.3l0,0.3l-0.4,0.3l-0.4,0
			c-0.1,0.1-0.3,0.2-0.4,0.2c0,0-0.2-0.1-0.2-0.2l0-0.1c0,0,0.1-0.1,0.1-0.3c-0.1,0-0.1-0.1-0.2-0.1l-0.1-0.1l-0.1-0.2l0.2-0.2
			l0.2,0c0,0.3,0,0.4,0.6-0.1l0-0.2l0.1-0.2l0.3-0.1l0.1,0.1l0.1,0l0.2-0.2l0.2,0l0,0.2C394.8,64,394.8,64,394.3,64.2z M396.5,64
			l-0.3,0.3l-0.3,0.2l-0.3-0.1l-0.2,0.3l-0.3,0.2l-0.4,0.1c0-0.1,0-0.1,0.2-0.5c0.1-0.2,0.2-0.3,0.3-0.5c0.3-0.1,0.3-0.1,0.4-0.4
			c0-0.1,0-0.1,0.5-0.1l0.2,0.1c0.1,0,0.2,0,0.3,0c0,0,0.1,0,0.2,0.2C396.7,63.8,396.6,63.9,396.5,64z M400.8,64.3l-0.3,0.2l-0.7,0
			l0-0.3l0-0.4c0.1,0,0.3,0,0.4,0l0.6,0l0.4,0.3L400.8,64.3z M400.4,68.2c0,0,0,0,0.7,0l0.2,0.4l-0.2,0.4l-0.4,0.1l-0.4-0.1
			l-0.2-0.3C400.3,68.3,400.4,68.2,400.4,68.2z M397.5,72.9c-0.1,0.2-0.1,0.2-0.2,0.2c0,0-0.2,0.2-0.4,0.2c-0.2,0-0.2,0-0.2,0
			c-0.1,0-0.1-0.1-0.2-0.2c0.1,0,0.1-0.1,0.2-0.1c0.3-0.2,0.3-0.2,0.4-0.2c0.1,0,0.1,0,0.2,0c0.1,0,0.1-0.1,0.2-0.2L397.5,72.9
			L397.5,72.9z M399,73.7l-0.2,0.1c-0.2,0-0.4,0-0.5,0l-0.1-0.6l0.4-0.2L399,73c0,0.1,0,0.3,0,0.4C399,73.5,399,73.6,399,73.7z
			 M409.5,84.6c-0.3,0.5-0.4,0.5-0.5,0.5c-0.1,0-0.1,0-0.2-0.1c-0.1-0.1-0.1-0.1-0.2-0.2c-0.1-0.1-0.2-0.1-0.3-0.2l-0.1-0.1
			c-0.1-0.1-0.1-0.2-0.2-0.3c-0.1-0.1-0.2-0.1-0.3-0.1c0.1,0,0.2-0.1,0.3-0.1c0.1,0,0.1,0,0.2,0c0.1,0,0.1,0,0.2,0.2
			c0,0,0.1,0.2,0.4,0.3c0.1,0,0.1,0,0.2,0c0,0,0.1,0,0.2,0C409.3,84.5,409.4,84.6,409.5,84.6L409.5,84.6z M423.1,69.1
			c0,0,0,0,0.3,0.1c-0.1-0.1-0.1-0.1-0.2-0.2l0.1-0.1c0.1,0.1,0.2,0.1,0.3,0.2c0.1,0.1,0.1,0.1,0.2,0.2c0.1,0.1,0.1,0.1,0.2,0.2
			c0.1,0,0.2,0,0.3,0c0,0,0.1,0,0.1-0.1c0-0.1,0-0.2,0.2-0.2c0.2,0,0.3,0.1,0.5,0.1l0-0.1c0.1,0,0-0.2,0-0.2c0,0,0-0.1,0.1-0.1
			c0.1,0,0.2,0,0.3,0c0.1,0.1,0.2,0.2,0.3,0.3c0.1,0.1,0.2,0.3,0.3,0.4l0,0c0,0,0,0,0.3,0.1c0.1,0,0.2,0.1,0.3,0.2
			c0.1,0.1,0.3,0.3,0.4,0.4c-0.4,0-0.4,0-0.5,0.1c-0.1,0.1,0,0.3,0,0.4l-0.1,0c0,0,0,0,0,0.1c0,0.1,0,0.1,0.1,0.3l0,0.2
			c-0.1,0-0.3,0.1-0.5,0c-0.2-0.1-0.3-0.3-0.5-0.3c-0.1,0-0.1,0-0.1,0c-0.2,0-0.2,0-0.4,0.1c0,0-0.1,0-0.1,0l-0.3-0.2
			c-0.1-0.1-0.2-0.3-0.4-0.4l-0.1-0.1c-0.1,0-0.2,0-0.3,0l-0.1,0.1c-0.1-0.1-0.2-0.2-0.3-0.3c0.2-0.1,0.5-0.1,0.7-0.1
			c-0.2-0.3-0.5-0.6-0.9-0.5l0,0.1c-0.1,0.1-0.5-0.3-0.5-0.5C422.8,69.2,423.1,69.2,423.1,69.1z M411.7,85.5
			c0.1-0.2,0.2-0.3,0.3-0.4c0.5-0.6,0.8-1.2,0.8-1.2c0,0,0,0,0-0.1c0-0.1,0-0.2,0-0.4c0-0.1-0.1-0.2,0-0.3c0-0.1,0.3-0.2,0.3-0.2
			c0.1,0,0.1,0,0.2,0c0,0.1,0,0.1,0.1,0.1c0.2,0.2,0.1,0.5,0,0.5c-0.1,0-0.2,0-0.2,0.1c0,0.1,0,0.1-0.1,0.6c0.1,0,0.2,0.1,0.3,0.1
			c0.2,0,0.4,0,0.6,0.1c0.1,0,0.1,0.1,0.2,0.2c0.1,0.2,0.6,0.4,0.6,0.4c0.1,0.1,0.1,0.1,0.4,0.1c0,0.1,0.1,0.2,0.1,0.3l0,0.1
			c-0.2,0.4-0.2,0.4,0,0.8c0.2,0.7,0.1,0.7,0,0.8c-0.1,0.1-0.1,0.1-0.1,0.1c-0.2-0.1-0.4-0.2-0.8-0.6c-0.3-0.3-0.3-0.3-0.5-0.3
			c-0.7,0-1.4,0-2.1,0c0-0.1-0.1-0.2-0.1-0.3C411.6,85.8,411.6,85.6,411.7,85.5z M401.9,111.4c0.5-0.1,0.5-0.1,0.6-0.1l1.2,0.1
			c0.3,0,0.4,0.3,0.7,0.3c0.2,0,0.3,0.3,0.5,0.3c0,0,0.6,0,0.6,0c0.1,0,0.2-0.2,0.3-0.3c0.1,0,0.1,0,0.2,0c0.2,0,0.3,0.1,0.5,0.2
			c0.1,0,0.2,0,0.3,0c0.3,0,0.4,0,1-0.2c0,0.2-0.1,0.3,0,0.5c0.1,0.1,0.2,0.1,0.3,0.2l0,0c-0.1,0.1-0.2,0.1-0.3,0.2
			c-0.1,0-0.2,0-0.3,0c-0.1,0-0.7-0.1-0.8-0.1c-0.1-0.1-0.2-0.1-0.3,0c-0.1,0-0.7,0.2-1.3,0.1c-0.2,0-0.4,0.1-0.6,0.1
			c-0.2,0-0.4-0.1-0.6-0.1c-0.4,0-0.6,0.5-1.1,0.5c-0.1,0-0.3,0-0.4,0c-0.2,0-0.5-0.5-0.7-0.6C401.8,112.1,401.8,111.8,401.9,111.4z
			 M397.4,110.3c-0.1-0.2-0.2-0.2-0.4-0.2c-0.2,0-0.8-0.2-0.8-0.2c-0.1,0-0.1-0.1-0.2-0.2c-0.1-0.4-0.8-0.6-0.8-0.6
			c-0.2,0-0.6,0-0.6,0c-0.2,0.1-0.4,0.3-0.6,0.4c-0.9,0.4-2-0.6-1.3-1.2c0.1-0.1,0.1-0.1,0.7,0c0.3,0,0.5,0,0.7,0
			c0.1,0,0.3,0.1,0.4,0.1c0.3-0.2,0.3-0.2,0.3-0.2c0.3,0,0.5,0,0.8,0c0.2,0,0.3,0.1,0.3,0.2c0.1,0.1,0.1,0.1,0.4,0.4
			c0.3,0.2,0.7,0.3,1,0.5c0.2,0.2,0.3,0.4,0.5,0.5c0.4,0.1,0.7,0,1.1,0c0.1,0,0.3,0,0.4,0c0.4,0.1,1.1,0.8,1.3,1.1
			c-0.8,0-1.7,0-2.5,0C397.7,110.8,397.4,110.4,397.4,110.3z M398.1,112.6c-0.2,0-0.2,0-0.3,0l-0.1-0.1c-0.1-0.1-0.1-0.2-0.2-0.3
			c0.3,0,0.6,0,1,0l0.1,0c0.1,0,0.2,0.1,0.3,0.2c0.1,0,0.2,0,0.3,0.1c0.1,0.1,0,0.2,0.1,0.4l0,0c-0.2,0.3-0.2,0.3-0.3,0.3
			c-0.1,0.1-0.2,0-0.3,0c0-0.1,0-0.1,0-0.1c0-0.1,0-0.2-0.1-0.2C398.5,112.8,398.3,112.6,398.1,112.6z M428.8,132.4
			c-0.1,0.3-0.1,0.3-0.4,0.8l-1.2,1.5c-0.4,0.4-1.8,1.6-1.8,1.6c-0.3,0.3-0.4,0.6-0.4,0.9c0,0.2-0.1,0.3-0.1,0.4c0,0.1,0,0.1,0,0.2
			c0,0.2-0.1,0.3-0.1,0.3c-0.1,0.3-0.2,0.5-0.5,1c-0.1,0.2-0.1,0.2-0.1,0.3c-0.6,1.2-0.6,1.2-0.7,1.2c-1.6,2-1.6,2-1.8,2.1
			c-0.1,0.1-0.2,0.2-0.3,0.3c-0.5,0.1-1,0.2-1.5,0.2c-0.6,0.4-0.6,0.4-0.7,0.5c-0.2,0-0.4,0-0.6,0c-2,1.2-2,1.6-2,2.1
			c0,0.8-2.2,2.5-2.3,2.5c0.1-0.1,0.2-0.3,0.2-0.4c0,0,0,0-1.9,1.8c-0.7,0.6-0.7,0.6-2.3,0.3c-0.2,0-0.3,0-0.4,0c0,0.1,0,0.1,0,0.2
			c0.3,0.2,0.3,0.2,0.5,0.4c-0.1,0.2-0.1,0.3-0.1,0.3c0.1,0,0.2,0,0.2,0c0,0.1-0.1,0.2-0.1,0.3l-0.2,0.2c-0.4,0.3-1.2,0.9-1.2,0.9
			c-0.3-0.1-0.5-0.1-0.7-0.1c-0.1,0-0.3,0.1-0.4,0.1c-0.1,0-0.2,0-0.2,0c-0.3,0-0.4,0-0.6,0c0,0.1,0,0.1,0,0.2c0,0.1,0,0.3,0,0.4
			c0,0-0.1,0.1-0.2,0.1c0,0.1,0,0.2-0.1,0.2c-0.2,0.2-0.4,0.2-0.6,0.2c-0.1,0-0.1-0.1-0.2-0.1c-0.2-0.1-0.3-0.1-0.4-0.1
			c0,0.1,0,0.2,0,0.3c0,0.1,0,0.3,0,0.4c0.1,0,0.3,0,0.4-0.1c0,0,0,0,0,0h0h0h0h0l0,0h0h0c0.1,0.1,0.1,0.1,0.1,0.2
			c-0.2,0.2-0.2,0.2-0.6,0.2c-0.2,0.4-0.2,0.4-0.3,0.6c-0.1,0.3-0.2,0.4-0.2,0.5c-0.2,0-0.3,0-0.5,0c-0.1,0-0.3,0.1-0.4,0.2
			c0,0.1-0.1,0.1-0.1,0.1c0,0.2,0,0.2,0.3,0.5c0.1,0,0.1,0,0.2,0c0.2,0.1,0.1,0.1,0.1,0.2c-0.4,0.2-0.7,0.5-1,0.7c0,0.1,0,0.1,0,0.2
			c-0.1,0-0.2,0-0.4,0c-0.1,0.2-0.1,0.3-0.1,0.3c0,0.1,0,0.1,0,0.1c0,0.1,0.1,0.3,0.1,0.4l0,0.1c0,0.1,0.1,0.3,0.1,0.4
			c0.2,0,0.2,0.1,0.2,0.1c0.1,0,0.3,0,0.4,0.1c-0.1,0-0.2,0.1-0.2,0.2c-0.3,0-0.4,0-0.6,0c-0.1,0-0.2,0-0.2,0
			c-0.1,0-0.3-0.1-0.4-0.1c-0.1-0.1-0.1-0.1-0.1-0.1c-0.1,0-0.1,0-0.2,0c-0.2-0.2-0.4-0.3-0.6-0.6l0-0.1l0,0c-0.1,0-0.1,0-0.2-0.1
			c0-0.2-0.1-0.2-0.1-0.2l-0.1-0.1l0.1-0.1c-0.1-0.1-0.2-0.2-0.2-0.3c0-0.2,0-0.2,0-0.2c0,0-0.1-0.1-0.1-0.2
			c-0.1-0.2-0.1-0.2-0.1-0.2c0.2-0.1,0.2-0.1,0.6-0.2c0-0.1,0-0.1-0.1-0.2c-0.1,0-0.1,0-0.2,0c0-0.1,0-0.2,0-0.2
			c-0.1-0.1-0.3-0.1-0.4-0.1c0-0.1,0-0.2,0-0.2c0.2-0.1,0.2-0.2,0.2-0.3c0.2,0.1,0.3,0.2,0.4,0.3c0-0.1-0.1-0.3-0.1-0.4
			c-0.2-0.2-0.2-0.3-0.2-0.3c0.1,0,0.1,0,0.1,0c0,0.2,0,0.2,0,0.2c0.1,0.1,0.2,0.2,0.3,0.2c0.1-0.8,0.1-0.8,0.1-0.8
			c0-0.2,0-0.3,0-0.5c0.1,0,0.1-0.1,0.2-0.1c0.1-0.2,0.1-0.2,0.1-0.3c-0.1,0-0.2,0-0.4,0l-0.1,0.7c-0.1,0-0.2,0-0.3,0
			c-0.1,0-0.1-0.1-0.2-0.1c0-0.2,0-0.2,0.1-0.6c0.1,0,0.1,0,0.2-0.1c0-0.1,0-0.3-0.1-0.3c0-0.1-0.1-0.1-0.1-0.2
			c0.3-0.6,0.4-0.8,0-1.4c0.2-0.3,0.5-0.5,0.6-0.9l0-0.1c0-0.1,0-0.2,0-0.2c0-0.1,0-0.2,0-0.3c0.7-0.6,0.7-1,0.4-2.6
			c0-0.1,0-0.1,0-0.1c0.1-0.3,0.1-0.3,0.5-1.7c0-0.5,0.4-0.8,0.4-1.2c0-0.1,0.1-0.2,0.1-0.2l0-0.1c-0.1-0.1-0.1-0.3-0.1-0.4
			c0.1-0.2,0.1-0.2,0.1-0.3v-0.1c0-0.1,0-0.1,0-0.2c0-0.1,0-0.2,0-0.3l0,0c0-0.1,0-0.3,0-0.4c0.1-0.2,0.1-0.2,0.1-0.2
			c0-0.1,0-0.2,0-0.2c0-0.1,0-0.2,0-0.2l0-0.1c0-0.1,0-0.3,0-0.5c0-0.5,0-0.9,0-1.4c-0.1,0-0.3,0-0.4,0c-1.2-1.5-2.4-1.8-2.4-1.8
			c-0.3,0-0.3,0-2.8-3.8c0-0.1,0-0.2,0-0.4c-0.1-1.5-2.1-1.5-2.2-3.1c0-0.1,0-0.1,0-0.2c-0.3-0.4-0.3-0.4-0.2-0.8
			c0.5-0.3,0.5-0.3,0.5-0.7c0.2-0.1,0.4-0.1,0.6-0.2c0.1-0.3,0.1-0.4,0.1-0.5c-0.4-0.1-0.4-0.1-0.6,0.1c-0.1,0-0.1-0.1-0.2-0.1
			c-0.1-0.4,0-0.9-0.1-1.3c0.2-0.1,0.4-0.1,0.6-0.1c0-0.8,0.2-0.9,0.7-1c0-0.1,0-0.2,0-0.3c0.1-0.1,0.3-0.2,0.5-0.3
			c0-0.2-0.1-0.4-0.1-0.6c0.1,0,0.3,0,0.5,0c0.2-0.2,0.2-0.2,0.3-1.2c0.8-0.5,0-1.4,0.1-2.1c-0.1,0-0.3-0.1-0.4-0.2
			c0-0.2,0.2-0.6,0.8-1c0-0.2,0-0.3,0.3-0.8c0.4,0,0.4,0,0.6-0.2c0.1-0.4,0.1-0.7,0.1-1.1c0.9,0,1.4-0.4,1.6-0.6c0.5,0,0.8,0,1.1,0
			c0-0.6,0.1-0.6,0.6-0.7h0.4l0.1,0.2c0,0-0.7,0.5-0.7,0.9c0.4,0.6-0.3,1.5,0.5,2c0.2-0.5-0.2-1,0-1.5c0,0,0.2-0.3,0.7-0.3
			c0.2-0.3,0.2-0.3,0.2-0.6c0.6-0.2,0.9,0.4,1.4,0.4c0.2,0.2,0.2,0.3,0.2,0.5c0.1,0,0.3,0.1,0.4,0.1c0.5,0.1,0.7,0.1,1,0.1
			c0.5,0.1,0.7,0.5,1,0.7c0.3-0.1,0.3-0.1,0.6-0.8c0.3,0,0.3-0.1,0.7,0.1c0.1,0,0.1,0,0.1,0l0.4-0.3c0.6,0.1,0.6,0.1,0.7,0.4
			c-0.1,0.1-0.3,0.2-0.4,0.2c0,0.2,0,0.2,0.1,0.6c0.2,0,0.2,0,0.8-0.2c0.2,0,0.3,0,0.3,0c0,0.3-0.1,0.7,0.5,0.8c0,0.1,0,0.1,0,0.2
			c0.8,0.5,0.8,0.5,0.9,0.5c0.3,0.9,0.4,1.3,1.9,1.6c0.1,0,0.2,0,0.3,0c0.4,0,0.8-0.3,1.2-0.1c0.4,0.3,2.1,1.1,2.1,1.1
			c0,0.1,0,0.1,0.4,1c0,0.3,0,0.6-0.1,0.9c0.1,0,0.3,0,0.4,0c0.2,0.5,0.2,0.5-0.8,1.7c-0.1,0.3-0.1,0.4-0.1,0.5
			c0.6,0.1,0.6-0.2,0.7-0.6c0.1,0,0.1-0.1,0.2-0.1c0.1,0,0.1,0,0.2,0c0.1,0,0.1,0,0.2,0c0.5,0.2,0.8,0.3,0.9,0.3
			c0,0.1,0,0.1,0.1,0.2c-0.1,0-0.1,0.1-0.2,0.2c-0.1,0.1-0.2,0.2-0.3,0.3c-0.1,0.3-0.1,0.4-0.1,0.5c0.2,0,0.4,0,0.6,0
			c0-0.3,0.1-0.5,0.1-0.8c0.5-0.1,0.5-0.1,0.8,0.1c0.2,0.1,0.3,0.1,0.3,0.1c0.5,0.1,0.5,0.1,1.6,0.8c-0.4,0.3-0.4,0.3-0.4,0.5
			c0.4,0.3,0.6,0.2,0.8,0.1c0.1-0.6,0.6-0.4,1.2,0c0.4,0,0.7,0,1,0c1-0.4,1.1,1,1.9,1.2c0.3,0,0.6,0,0.8,0
			C428.7,130.7,428.9,130.8,428.8,132.4z M434,76l-0.1-0.1c0-0.1-0.1-0.1-0.1-0.2c0-0.1,0-0.1-0.1-0.2c0,0-0.1-0.1-0.1-0.1v0l0,0
			c0-0.1,0-0.1,0-0.2l0-0.1l0,0c0.2,0.2,0.2,0.2,0.2,0.3l0,0.1c0,0,0.1,0.1,0.1,0.1c0,0,0,0,0,0.1l-0.1,0c0,0,0,0,0.1,0.2L434,76
			L434,76z M437,81.3c-0.2-0.1-0.2-0.1-0.3,0c0,0.1-0.4-0.1-0.5-0.4l0-0.1c0-0.1-0.1-0.2-0.2-0.3c0,0-0.1-0.2-0.1-0.3
			c0,0,0,0,0.2-0.1c-0.1-0.1-0.2-0.3-0.3-0.4c-0.1,0-0.1,0-0.2,0c-0.2-0.3-0.4-0.6-0.6-1l0.1,0c0,0,0.1,0.1,0.1,0.1l0.1-0.1l0.1,0
			l0-0.1l0,0c-0.2-0.2-0.3-0.4-0.4-0.7l0.1-0.1c0.1,0.1,0.2,0.2,0.3,0.2c0-0.1,0-0.1,0-0.2c0,0,0-0.1,0.1-0.1h0c0,0,0.1,0.1,0.1,0.1
			c0,0,0.1,0,0.2,0.1l0.5,0.6c0.1,0.1,0,0.2,0,0.2h-0.1c0.1,0.1,0.1,0.2,0.2,0.3c0.2,0.3,0.5,0.7,0.6,1l0,0c0,0,0,0,0.1,0.2
			c0.1,0.1,0.1,0.1,0.1,0.1c0,0.1,0.1,0.1,0.1,0.2c-0.2,0-0.4,0.1-0.6,0.1C437,81.3,437,81.3,437,81.3z"/>
		<path class="st1" d="M446.2,98.8c0.5,0.7-0.5,1.2-0.5,1.2c-1.4,3-0.5,4.2-0.5,4.2c0.9,0.9,0.9,4.2,0.9,4.2
			c-0.1,1.2,0.6,1.3,0.6,1.3c1.4,1.1,0.7,1.9,0.7,1.9c-0.3,0.7,0.1,1.3,0.1,1.3c1.2,1,0.2,1.5,0.2,1.5c-0.7,1.7,1.4,1.6,1.4,1.6
			c2.7-11.8-1-18.8-1-18.8c-0.9,0.6-1.2,0.7-1.2,0.7C445.9,97.8,446.2,98.8,446.2,98.8z"/>
		<polygon class="st1" points="69.7,61.2 50,154 72.4,154 92,61.2 		"/>
		<polygon class="st1" points="96.4,40.8 74,40.8 70.9,55.5 93.2,55.5 		"/>
		<path class="st1" d="M174,71.6c0-3.4-0.9-6.2-2.8-8.6c-1.9-2.3-4.7-3.5-8.4-3.5c-2.8,0-5.5,0.9-8.2,2.6c-2.7,1.8-5.3,4.4-7.8,7.9
			c-1.8-7-5.7-10.5-11.5-10.5c-3,0-5.8,0.9-8.5,2.6c-2.7,1.8-5.3,4.4-7.7,7.9l2.2-8.8H99.8L80.1,154h21.1l13.6-64.4
			c0.9-4.5,1.6-7.4,2-8.8c0.4-1.4,1-2.5,1.9-3.5c0.9-1,1.8-1.4,2.8-1.4c1.5,0,2.3,0.9,2.2,2.7c0,1.8-1,7.3-3,16.4l-12.5,59h21.1
			l12.8-60.5c1.7-8,3-12.9,3.8-14.8c0.8-1.9,2-2.8,3.6-2.8c1.5,0,2.3,0.9,2.3,2.8c0,1.9-0.8,6.8-2.5,14.7L136.5,154h21.1l14-66
			C173.1,80.5,173.9,75,174,71.6z"/>
		<path class="st1" d="M231.6,71.2c0-3.1-0.9-5.8-2.9-8.2c-2-2.4-4.6-3.5-8-3.5c-2.8,0-5.5,0.8-8.1,2.5c-2.7,1.6-5.3,4.1-8,7.4
			l2.1-8.2h-22.1l-22.5,106.1h21.7l4.5-21.3c1.2,3.2,2.8,5.7,4.7,7.3c1.9,1.6,4.3,2.5,6.9,2.5c3.4,0,6.5-1.1,9.3-3.2
			c2.8-2.1,5-5,6.5-8.5c1.5-3.6,3.2-9.6,5-18l8.3-39.1C230.8,79.5,231.6,74.3,231.6,71.2z M207.2,88.2l-8.4,39.8
			c-1,4.9-1.9,8.1-2.5,9.3c-0.6,1.3-1.6,1.9-3,1.9c-1.4,0-2.2-0.7-2.3-2.1c-0.1-1.4,0.4-4.9,1.6-10.5l8.2-38.5
			c1.1-5.4,2.1-8.7,2.8-10.1c0.7-1.4,1.8-2.1,3.2-2.1c1.5,0,2.2,0.6,2.3,1.8C209,79,208.4,82.5,207.2,88.2z"/>
		<path class="st1" d="M281.2,64.6c-3-3.4-8.2-5.1-15.5-5.1c-6.1,0-11.4,1.5-15.9,4.5c-4.5,3-7.7,6.4-9.8,10.3
			c-2.1,3.9-3.9,9.4-5.4,16.6l-1.3,6.2h20.4l2.1-9.7c1.1-5.2,2-8.4,2.6-9.6c0.6-1.2,1.7-1.9,3.1-1.9c1.3,0,2.1,0.7,2.3,2.2
			c0.2,1.5-0.1,4.6-1.2,9.5c-0.8,3.9-1.6,6.4-2.4,7.7c-0.8,1.3-5.1,3.7-13,7.3c-7.4,3.4-12.2,6.3-14.4,8.8
			c-2.2,2.5-4.1,7.3-5.5,14.2l-1.6,7.6c-2,9.4-1.7,15.4,0.9,18.2c2.6,2.8,5.8,4.2,9.6,4.2c2.9,0,5.6-0.8,8-2.5
			c2.4-1.7,4.7-4.1,6.7-7.5L249,154h21.1l9.9-46.6c3.3-15.3,5-25.5,5.3-30.4C285.6,72.1,284.2,68,281.2,64.6z M253.7,129
			c-1,4.7-1.8,7.5-2.4,8.6c-0.6,1.1-1.6,1.6-3,1.6c-1.4,0-2.2-0.7-2.4-2.1c-0.2-1.4,0.2-4.5,1.2-9.3c0.9-4.2,1.8-7.4,2.9-9.7
			c1-2.2,3.6-5,7.8-8.3L253.7,129z"/>
		<path class="st1" d="M311.9,126.9c-1,4.8-2,8.1-2.9,9.8c-0.9,1.7-2.1,2.6-3.5,2.6c-1.3,0-2-0.8-2.3-2.5c-0.3-1.7-0.1-4.1,0.6-7.5
			l9.3-43.8c0.9-4.1,1.6-6.7,2.3-7.8c0.7-1.2,1.6-1.7,2.9-1.7c1.3,0,2,0.7,2.2,2s-0.1,3.9-0.9,7.6l-2.3,10.7h20.5
			c1.8-8.7,2.6-15.5,2.3-20.2c-0.3-4.8-2.2-8.7-5.5-11.8c-3.4-3.1-7.9-4.7-13.5-4.7c-5.7,0-10.9,1.6-15.5,4.7
			c-4.6,3.1-8,6.7-10.1,10.7c-2.1,4-3.9,10-5.6,17.8l-5.6,26.4c-1.9,9-2.7,16-2.2,21c0.4,4.9,2.2,8.7,5.2,11.5
			c3,2.7,7.6,4.1,13.7,4.1c4.8,0,9-1,12.7-3c3.7-2,6.9-4.9,9.8-8.8c2.8-3.9,4.9-7.7,6-11.4c1.2-3.7,2.5-9.3,4.2-16.7h-19.3
			L311.9,126.9z"/>
	</g>
</g>
</svg>
