<?xml version="1.0" encoding="utf-8"?>
<!-- Generator: Adobe Illustrator 24.0.1, SVG Export Plug-In . SVG Version: 6.00 Build 0)  -->
<svg version="1.1" id="Camada_1" xmlns="http://www.w3.org/2000/svg" xmlns:xlink="http://www.w3.org/1999/xlink" x="0px" y="0px"
	 viewBox="0 0 25 25" style="enable-background:new 0 0 25 25;" xml:space="preserve">
<style type="text/css">
	.st0{fill:#FFFFFF;}
</style>
<g>
	<g>
		<g>
			<path class="st0" d="M24.7,7.5c-0.1-1.3-0.3-2.2-0.6-2.9c-0.3-0.8-0.8-1.6-1.4-2.2c-0.6-0.6-1.4-1.1-2.2-1.4S19,0.5,17.7,0.5
				c-1.4-0.2-1.9-0.2-5.2-0.2s-3.7,0-5,0.1S5.4,0.6,4.6,0.9C3.7,1.2,3,1.7,2.3,2.3C1.7,2.9,1.2,3.7,0.9,4.5S0.5,6.1,0.4,7.4
				c0,1.4-0.1,1.8-0.1,5.1s0,3.7,0.1,5.1c0.1,1.3,0.3,2.2,0.6,2.9c0.3,0.8,0.8,1.6,1.4,2.2c0.6,0.6,1.4,1.1,2.2,1.4
				c0.8,0.3,1.7,0.5,2.9,0.6c1.4,0.1,1.8,0.1,5.1,0.1s3.7,0,5.1-0.1c1.3-0.1,2.2-0.3,2.9-0.6c1.7-0.6,2.9-2,3.6-3.6
				c0.3-0.8,0.5-1.7,0.6-2.9c0.1-1.3,0.1-1.8,0.1-5.1C24.7,9.2,24.7,8.8,24.7,7.5z M22.5,17.5c-0.1,1.2-0.3,1.9-0.4,2.3
				c-0.4,1.1-1.3,2-2.4,2.4c-0.4,0.2-1.1,0.4-2.3,0.4c-1.3,0.1-1.7,0.1-4.9,0.1s-3.6,0-4.9-0.1c-1.2-0.1-1.9-0.3-2.3-0.4
				c-0.5-0.2-1-0.5-1.4-0.9c-0.4-0.4-0.7-0.9-0.9-1.4c-0.2-0.4-0.4-1.1-0.4-2.3c-0.1-1.3-0.1-1.7-0.1-4.9s0-3.6,0.1-4.9
				c0.1-1.2,0.3-1.9,0.4-2.3c0.2-0.5,0.5-1,0.9-1.4c0.3-0.7,0.7-1,1.3-1.2c0.4-0.2,1.1-0.4,2.3-0.4c1.3-0.1,1.7-0.1,4.9-0.1
				s3.6,0,5,0.1c1.2,0.1,1.9,0.3,2.3,0.4c0.5,0.2,1,0.5,1.4,0.9s0.7,0.9,0.9,1.4c0.2,0.4,0.4,1.1,0.4,2.3c0.1,1.3,0.1,1.7,0.1,4.9
				C22.6,15.7,22.6,16.1,22.5,17.5z"/>
			<path class="st0" d="M12.5,6.2c-3.4,0-6.3,2.8-6.3,6.3s2.8,6.3,6.3,6.3s6.3-2.8,6.3-6.3C18.9,9.1,16,6.2,12.5,6.2z M12.5,16.6
				c-2.3,0-4.1-1.9-4.1-4.1s1.9-4.1,4.1-4.1s4.1,1.9,4.1,4.1S14.8,16.6,12.5,16.6z"/>
			<path class="st0" d="M20.5,5.9c0,0.8-0.7,1.5-1.5,1.5s-1.5-0.7-1.5-1.5s0.7-1.5,1.5-1.5C19.9,4.5,20.5,5.2,20.5,5.9z"/>
		</g>
	</g>
</g>
</svg>
