<?xml version="1.0" encoding="utf-8"?>
<!-- Generator: Adobe Illustrator 24.0.1, SVG Export Plug-In . SVG Version: 6.00 Build 0)  -->
<svg version="1.1" id="Camada_1" xmlns="http://www.w3.org/2000/svg" xmlns:xlink="http://www.w3.org/1999/xlink" x="0px" y="0px"
	 viewBox="0 0 80.07 80" style="enable-background:new 0 0 80.07 80;" xml:space="preserve">
<style type="text/css">
	.st0{fill:#DD153C;}
	.st1{fill:#F28C9E;}
	.st2{fill:none;stroke:#F1F2F2;stroke-width:4;stroke-miterlimit:10;}
	.st3{fill:#8E8E8E;}
	.st4{fill:#FFFFFF;}
</style>
<g>
	<g>
		<g>
			<g>
				<path class="st0" d="M-1004.76,278.7l-4.4-6.6h-3.5v6.6h-4.5v-20.5h9.4c2.4,0,4.3,0.6,5.7,1.8s2,2.8,2,5v0.1c0,1.7-0.4,3-1.2,4
					s-1.9,1.8-3.2,2.3l5,7.3L-1004.76,278.7L-1004.76,278.7z M-1004.66,265.2c0-1-0.3-1.7-0.9-2.2c-0.6-0.5-1.5-0.7-2.6-0.7h-4.5
					v5.9h4.6c1.1,0,2-0.3,2.6-0.8C-1004.96,266.8-1004.66,266.1-1004.66,265.2L-1004.66,265.2z"/>
				<path class="st0" d="M-981.36,278.7v-20.5h15.4v4h-11v4.2h9.7v4h-9.7v4.3h11.1v4H-981.36z"/>
				<path class="st0" d="M-930.76,276.9c-0.6,0.4-1.2,0.8-1.9,1.2c-0.7,0.3-1.4,0.6-2.2,0.7c-0.8,0.2-1.7,0.2-2.7,0.2
					c-1.5,0-2.9-0.3-4.2-0.8s-2.4-1.3-3.3-2.2c-0.9-1-1.7-2.1-2.2-3.4s-0.8-2.7-0.8-4.1v-0.1c0-1.5,0.3-2.8,0.8-4.1s1.3-2.4,2.2-3.4
					s2.1-1.7,3.4-2.3c1.3-0.6,2.7-0.8,4.3-0.8c1,0,1.8,0.1,2.6,0.2c0.8,0.2,1.5,0.4,2.1,0.6c0.6,0.3,1.2,0.6,1.8,1
					c0.5,0.4,1.1,0.8,1.5,1.3l-2.9,3.3c-0.8-0.7-1.6-1.3-2.4-1.7c-0.8-0.4-1.8-0.6-2.8-0.6c-0.9,0-1.7,0.2-2.4,0.5s-1.4,0.8-1.9,1.4
					c-0.5,0.6-0.9,1.3-1.2,2c-0.3,0.8-0.4,1.6-0.4,2.5v0.1c0,0.9,0.2,1.7,0.4,2.5c0.3,0.8,0.7,1.5,1.2,2c0.5,0.6,1.1,1.1,1.9,1.4
					c0.7,0.3,1.5,0.5,2.4,0.5c1.2,0,2.2-0.2,3-0.6c0.8-0.4,1.6-1,2.4-1.8l2.9,2.9C-929.66,275.9-930.26,276.4-930.76,276.9z"/>
				<path class="st0" d="M-890.86,272.5c-0.5,1.3-1.3,2.4-2.3,3.4s-2.1,1.7-3.5,2.3s-2.8,0.8-4.4,0.8c-1.6,0-3-0.3-4.4-0.8
					c-1.3-0.6-2.5-1.3-3.4-2.2c-1-0.9-1.7-2.1-2.3-3.3c-0.5-1.3-0.8-2.6-0.8-4.1v-0.1c0-1.5,0.3-2.8,0.8-4.1s1.3-2.4,2.3-3.4
					s2.1-1.7,3.5-2.3c1.3-0.6,2.8-0.8,4.4-0.8c1.6,0,3,0.3,4.4,0.8c1.3,0.6,2.5,1.3,3.4,2.3c1,0.9,1.7,2.1,2.3,3.3
					c0.5,1.3,0.8,2.6,0.8,4.1v0.1C-890.06,269.9-890.36,271.2-890.86,272.5z M-894.76,268.4c0-0.9-0.2-1.7-0.5-2.5s-0.7-1.5-1.3-2
					c-0.6-0.6-1.2-1.1-2-1.4s-1.6-0.5-2.5-0.5s-1.8,0.2-2.5,0.5s-1.4,0.8-1.9,1.4c-0.5,0.6-1,1.3-1.3,2c-0.3,0.8-0.4,1.6-0.4,2.5
					v0.1c0,0.9,0.1,1.7,0.4,2.5c0.3,0.8,0.7,1.5,1.3,2c0.6,0.6,1.2,1.1,2,1.4c0.7,0.3,1.6,0.5,2.5,0.5s1.7-0.2,2.5-0.5
					s1.4-0.8,2-1.4c0.5-0.6,1-1.3,1.3-2C-894.96,270.2-894.76,269.3-894.76,268.4L-894.76,268.4z"/>
				<path class="st0" d="M-858.96,278.7l-4.4-6.6h-3.5v6.6h-4.5v-20.5h9.4c2.4,0,4.3,0.6,5.7,1.8s2,2.8,2,5v0.1c0,1.7-0.4,3-1.2,4
					s-1.9,1.8-3.2,2.3l5,7.3L-858.96,278.7L-858.96,278.7z M-858.86,265.2c0-1-0.3-1.7-0.9-2.2c-0.6-0.5-1.5-0.7-2.6-0.7h-4.5v5.9
					h4.6c1.1,0,2-0.3,2.6-0.8C-859.26,266.8-858.86,266.1-858.86,265.2L-858.86,265.2z"/>
				<path class="st0" d="M-817.56,272.4c-0.5,1.2-1.3,2.3-2.2,3.2c-1,0.9-2.1,1.6-3.4,2.2c-1.3,0.5-2.8,0.8-4.4,0.8h-8v-20.5h8
					c1.6,0,3.1,0.3,4.4,0.8c1.3,0.5,2.5,1.2,3.4,2.2c1,0.9,1.7,2,2.2,3.2s0.8,2.6,0.8,4v0.1
					C-816.76,269.9-817.06,271.2-817.56,272.4z M-821.46,268.4c0-0.9-0.2-1.7-0.5-2.5s-0.7-1.4-1.3-2c-0.5-0.5-1.2-1-2-1.3
					s-1.6-0.5-2.5-0.5h-3.5v12.3h3.5c0.9,0,1.8-0.1,2.5-0.4c0.8-0.3,1.4-0.7,2-1.3c0.5-0.5,1-1.2,1.3-1.9
					C-821.66,270.2-821.46,269.4-821.46,268.4L-821.46,268.4z"/>
				<path class="st0" d="M-783.86,275.3c-0.4,0.8-0.9,1.5-1.5,2s-1.4,0.9-2.4,1.2c-0.9,0.3-1.9,0.4-3,0.4c-1.6,0-3.1-0.3-4.6-0.8
					s-2.9-1.4-4.1-2.5l2.7-3.2c0.9,0.8,1.9,1.4,2.9,1.8c1,0.4,2.1,0.7,3.2,0.7c0.9,0,1.7-0.2,2.2-0.5s0.8-0.8,0.8-1.4l0,0
					c0-0.3-0.1-0.6-0.2-0.8c-0.1-0.2-0.3-0.4-0.6-0.6s-0.7-0.4-1.3-0.6c-0.5-0.2-1.2-0.4-2.1-0.6c-1-0.3-2-0.5-2.8-0.8
					s-1.6-0.7-2.1-1.2c-0.6-0.5-1-1-1.4-1.7c-0.3-0.7-0.5-1.5-0.5-2.5V264c0-0.9,0.2-1.8,0.5-2.5c0.4-0.8,0.8-1.4,1.5-1.9
					c0.6-0.5,1.4-1,2.3-1.3c0.9-0.3,1.8-0.4,2.9-0.4c1.5,0,2.9,0.2,4.1,0.7c1.3,0.4,2.4,1.1,3.5,1.9l-2.3,3.4
					c-0.9-0.6-1.8-1.1-2.7-1.5c-0.9-0.4-1.7-0.5-2.6-0.5s-1.5,0.2-2,0.5c-0.4,0.3-0.7,0.8-0.7,1.3v0.1c0,0.3,0.1,0.6,0.2,0.9
					c0.1,0.2,0.4,0.5,0.7,0.7s0.8,0.4,1.4,0.6c0.6,0.2,1.3,0.4,2.2,0.6c1,0.3,2,0.6,2.8,0.9s1.5,0.7,2.1,1.2s1,1,1.3,1.7
					c0.3,0.6,0.4,1.4,0.4,2.3v0.1C-783.36,273.6-783.56,274.5-783.86,275.3z"/>
			</g>
			<g>
				<path class="st0" d="M-955.76,43.8c-12.4,0-23.1,0-32.1,0c-8.8,0-16.3,0-22.4,0c-14.2,0-22.6,0-25.2,0c-1.2,0-2.3,0-3.5,0
					c-2.8,0-6.6,0-11.2,0c-2.2,0-4.4,0-6.6,0c-5.9,0-13.3,0-22.1,0c-4.5,0-9,0-13.5,0c-2.8,0-6.5,0-10.8,0c-2.3,0-4.6,0-7,0
					c-8.4,0-16.8,0-25.2,0c0,11.4,0,22.8,0,34.2c8.4-0.3,16.8-0.5,25.1-0.8c3.1-0.1,6.8-0.2,11.2-0.3c2.2-0.1,4.4-0.1,6.6-0.2
					c0,8.2,0,17.8-0.1,28.7c0,10.9-0.1,21.8-0.1,32.6c0,16.4-0.1,31-0.1,43.5c0,6.3,0,12.6,0,18.9c0,2.9-1,5.4-3.1,7.7
					c-2.3,2.5-4.9,3.9-7.7,4.3c-12.6,1.8-19.9,2.9-22,3.2c-1,0.2-2.1,0.3-3.1,0.5c0-3,0-6.6,0-10.8c0-2.1,0-4.2,0-6.4
					c-5.9,0.8-13.2,1.9-21.9,3.3c-4.4,0.7-8.7,1.4-13,2.1c0,2.8,0,6.4,0,10.8c0,2.6,0,4.4,0,5.4c0,0.5,0,1,0,1.5c0,2.6,0,5.9,0,10.1
					c0,1.3,0,2.5,0,3.5c0,0.9,0,1.8,0,2.7c0,5.2,1.9,9.3,5.7,12.3c3.6,3.1,8,4,13.4,2.9c4.6-0.9,9.8-2,15.7-3.1
					c5.6-1.1,11.4-2.1,17.3-3.2c9-1.6,16.8-2.8,23.5-3.8c3.3-0.5,6.7-1,10-1.5c4.9-0.7,9.3-2.7,13.2-6.1c3.9-3.6,6.2-7.5,7-11.8
					c0.3-0.7,0.4-1.5,0.4-2.2s0-1.4,0-2.1c0.1-26.6,0.1-49.4,0.2-68.2c0.1-18.9,0.1-34.7,0.1-47.4c0-9.2,0.1-17.1,0.1-23.7
					c0-1.6,0-3.1,0-4.6c3.1-0.1,6.8-0.1,11.2-0.2c2.2,0,4.4-0.1,6.6-0.1c0,10.7-0.1,23.2-0.1,37.4s-0.1,28.5-0.1,42.7
					c-0.1,21.2-0.1,40.1-0.2,56.7c0,8.3,0,16.6-0.1,24.8c5.9-0.6,13.4-1.4,22.5-2.2c2.8-0.2,5.3-0.5,7.4-0.6
					c1.9-0.2,3.9-0.3,5.8-0.5c0-4.4,0-9.3,0-14.8s0-11.1,0-16.9c0-8.2,0-15.6,0.1-22c0-1.4,0-2.8,0-4.2c3.6-2.1,7.1-4.2,10.7-6.3
					c8.4-4.9,16.7-9.7,25.1-14.4c0,4.5,0,9,0,13.4c0,4.3,0,9.2,0,14.6c0,5.7,0,11.2,0,16.7c0,8.2,0,15.5,0,22.1c0,3.2,0,6.3,0,9.5
					c6-0.3,13.5-0.6,22.6-0.8c4.5-0.1,9.1-0.2,13.6-0.3c0-8.6,0-18.4,0-29.4s0-22.1,0-33.1c0-16.7,0-31.4,0-44.3
					c0.1-6.4,0.3-12.8,0.4-19.3c0-5.4,0-12.1,0-19.9c0-4.1,0-8.1,0-12.2c0-1.4,0-2.9,0-4.7c0-1,0-2,0-3c0-5.9-2.4-10.8-7.3-14.9
					C-943.66,45.8-949.36,43.8-955.76,43.8z M-967.86,104.3c0,5.9,0,10.8,0,14.6c0,1.4,0,2.6,0,3.8c-9,5-18.1,10.1-27.1,15.3
					c-2.9,1.6-5.7,3.3-8.6,5c0-1.6,0-3.1,0-4.7c0-4.1,0-8.9,0-14.4c0-5.7,0-11.3,0-16.8c0-8.5,0-15.9,0.1-22.4c0-0.2,0-0.5,0-0.7
					c0-3,0-6,0-8.9c4.4-0.1,9.7-0.1,15.9-0.2c3.2,0,6.5-0.1,9.7-0.1c2.8,0,5.3,0.9,7.4,2.7c1.8,1.8,2.7,3.9,2.7,6.4
					C-967.86,91.9-967.86,98.7-967.86,104.3z"/>
				<path class="st0" d="M-679.66,50.7c-4.9-4.6-10.6-6.9-17-6.9c-12.4,0-23.1,0-32.1,0c-8.8,0-16.3,0-22.4,0c-4.1,0-7.7,0-10.9,0
					c-4.9,0-8.7,0-11.2,0c-1.4,0-2.4,0-3.1,0c-1.2,0-2.3,0-3.5,0c0,5.4,0,12.1,0.1,20.1c0,2.6,0,4.8,0,6.7s0,3.2,0,3.9
					c0,0.5,0,0.9,0,1.4l0,0c0,10.8,0.1,23.5,0.1,37.8c0,14.4,0.1,28.8,0.1,43.1c0.1,21.4,0.1,40.5,0.2,57.3c0,8.4,0,16.7,0.1,25.1
					c5.9,0.7,13.4,1.7,22.4,3c2.8,0.4,5.3,0.8,7.3,1.1c1.9,0.3,3.9,0.6,5.8,0.9c0-4.6,0-9.8,0-15.6c0-5.8,0-11.7,0-17.8
					c0-8.7,0-16.4-0.1-23.2c0-3.5,0-7,0-10.5c0-4.8,0-9.5,0-14.3c8.3,5.5,16.6,11.2,24.9,17.1c3.5,2.5,7.1,5,10.6,7.6
					c0,3.1,0,6.3,0,9.8c0,6.2,0,12.3,0,18.3c0,9,0,17.1,0,24.3c0,3.5,0,7,0,10.5c5.9,1.1,13.3,2.6,22.3,4.4
					c4.5,0.9,8.9,1.9,13.4,2.9c0-9.8,0-21,0-33.7c0-12.6,0-25.3,0-37.9c0-19.1,0-36,0-50.7c0.1-7.3,0.3-14.7,0.4-22
					c0-6.2,0-13.8,0-22.8c0-4.6,0-9.3,0-13.9c0-1.5,0-3.4,0-5.4c0-1.2,0-2.3,0-3.5C-672.36,61.1-674.76,55.4-679.66,50.7z
					 M-708.56,110.3c0,6.5,0,11.8,0,16.1c0,10.2,0,16.2,0,17.9c0,0.7,0,1.5,0,2.2c0,1.7,0,3.4,0,5.1c-2.8-2-5.7-3.9-8.5-5.8
					c-9-6.1-18-12-27-17.8c0-5.9,0-11.8,0-17.5c0-8.9,0-16.8-0.1-23.6c0-0.2,0-0.5,0-0.7c0-3.1,0-6.3,0-9.4
					c4.4,0.1,9.7,0.3,15.9,0.4c3.2,0.1,6.4,0.2,9.7,0.3c2.8,0.1,5.3,1.1,7.4,3.2c1.8,2.1,2.7,4.4,2.7,7.2
					C-708.66,96.6-708.56,104.1-708.56,110.3z"/>
				<path class="st0" d="M-817.86,43.8c-3.4,0-7.4,0-12,0c-4.4,0-8.9,0-13.5,0c-6.7,0-12.6,0-17.8,0c-2.7,0-5.4,0-8.1,0
					c-4.9,0-10.9,0-17.8,0c-1.2,0-2.7,0-4.2,0c-2.1,0-4.4,0-7,0c-2.2,0-4.4,0-6.6,0c0,5.2,0,11.6,0,19.3c0,2.5,0,4.6,0,6.4
					s0,3,0,3.7c0,0.5,0,0.9,0,1.4l0,0c0,4.1,0,8.8,0,14.2c0,5.4,0,10.8,0,16.2c0,8.1,0,15.3,0,21.6c0,3,0,6.1,0,9.1
					c-6,0-11.9,0-17.9,0c0,10.8,0,21.6,0,32.3c6,0,11.9,0,17.9,0v0.1c0,4.3,0,9.1,0,14.5c0,5.6,0,11.2,0,16.6c0,8.1,0,15.4,0,22
					c0,3.2,0,6.3,0,9.5c6,0.1,13.5,0.2,22.6,0.5c2.9,0.1,5.3,0.2,7.4,0.3c1.9,0.1,3.9,0.2,5.8,0.2c0-4.3,0-9.2,0-14.6s0-11,0-16.7
					c0-8.2,0-15.4,0-21.8c0-3.3,0-6.6,0-9.9c3.4,0.1,7.2,0.2,11.7,0.4c4.4,0.2,8.8,0.3,13.2,0.5c6.7,0.3,12.5,0.6,17.5,0.9
					c2.6,0.1,5.2,0.3,7.8,0.4c3.1,0.2,5.9-0.1,8.5-0.9c2.3-0.8,4.5-2,6.6-3.8c2.1-1.7,3.6-3.6,4.6-5.6c1.3-2.2,1.9-4.8,1.9-7.6
					c0-11.7-0.1-21.6-0.1-29.7c0-8.4,0-15.5-0.1-21.3c0-13.3-0.1-21-0.1-23.1c0-1.2,0-2.3,0-3.5c0-2.3,0-5.2,0-8.7
					c0-1.7,0-3.5,0-5.2c0-4.9-2-9.1-5.8-12.6C-807.36,45.5-812.16,43.8-817.86,43.8z M-833.56,101.2c0,4.4,0,8.1,0,11.3
					c0,7.1,0,11.2,0,12.4c0,0.7,0,1.4,0,2.1c0,2.8-1,5.1-3.1,7.1c-2.3,2-5.2,2.9-8.5,2.8c-11.9-0.4-18.9-0.5-21-0.6
					c-0.5,0-1,0-1.6,0c-0.5,0-1,0-1.6,0c0-4.1,0-8.8,0-14.3c0-5.4,0-10.9,0-16.3c0-8.2,0-15.3,0-21.4c0-3.2,0-6.3,0-9.5
					c4.1,0,9.2,0.1,15.1,0.1c3.1,0,6.2,0.1,9.3,0.1s5.8,1.1,8.1,3.2c2.1,1.9,3.1,4.3,3.1,7.3C-833.56,91.6-833.56,96.9-833.56,101.2
					z"/>
			</g>
		</g>
	</g>
	<g>
		<g>
			<path class="st0" d="M-911.06-215c-58.7,0-106.3,47.6-106.3,106.3s47.6,106.3,106.3,106.3s106.3-47.6,106.3-106.3
				S-852.36-215-911.06-215z M-911.06-103.1c-3.1,0-5.5-2.5-5.5-5.5c0-3.1,2.5-5.5,5.5-5.5c3.1,0,5.5,2.5,5.5,5.5
				S-908.06-103.1-911.06-103.1z"/>
			<g>
				<g>
					<path class="st1" d="M-911.06-13.6c-52.4,0-95-42.6-95-95s42.6-95,95-95s95,42.6,95,95C-816.06-56.3-858.66-13.6-911.06-13.6z
						 M-911.06-202.9c-52,0-94.2,42.3-94.2,94.2c0,52,42.3,94.2,94.2,94.2c52,0,94.2-42.3,94.2-94.2
						C-816.86-160.7-859.16-202.9-911.06-202.9z"/>
				</g>
				<g>
					<path class="st1" d="M-911.06-21.4c-48.1,0-87.3-39.2-87.3-87.3s39.2-87.3,87.3-87.3s87.3,39.2,87.3,87.3
						S-862.96-21.4-911.06-21.4z M-911.06-195.2c-47.7,0-86.5,38.8-86.5,86.5s38.8,86.5,86.5,86.5s86.5-38.8,86.5-86.5
						C-824.66-156.4-863.36-195.2-911.06-195.2z"/>
				</g>
				<g>
					<path class="st1" d="M-911.06-7.3c-55.9,0-101.4-45.5-101.4-101.4s45.5-101.4,101.4-101.4s101.4,45.5,101.4,101.4
						C-809.66-52.8-855.16-7.3-911.06-7.3z M-911.06-209.3c-55.5,0-100.6,45.1-100.6,100.6s45.1,100.6,100.6,100.6
						s100.6-45.1,100.6-100.6S-855.66-209.3-911.06-209.3z"/>
				</g>
				<g>
					<path class="st1" d="M-911.06-28.6c-44.2,0-80.1-35.9-80.1-80.1s35.9-80.1,80.1-80.1s80.1,35.9,80.1,80.1
						C-831.06-64.5-866.96-28.6-911.06-28.6z M-911.06-188c-43.7,0-79.3,35.6-79.3,79.3s35.6,79.3,79.3,79.3s79.3-35.6,79.3-79.3
						C-831.86-152.4-867.36-188-911.06-188z"/>
				</g>
				<g>
					<path class="st1" d="M-911.06-37c-39.5,0-71.7-32.2-71.7-71.7s32.2-71.7,71.7-71.7s71.7,32.2,71.7,71.7
						C-839.36-69.2-871.56-37-911.06-37z M-911.06-179.6c-39.1,0-70.9,31.8-70.9,70.9s31.8,70.9,70.9,70.9
						c39.1,0,70.9-31.8,70.9-70.9C-840.26-147.8-872.06-179.6-911.06-179.6z"/>
				</g>
				<g>
					<path class="st1" d="M-911.06-44.7c-35.3,0-64-28.7-64-64s28.7-64,64-64s64,28.7,64,64S-875.86-44.7-911.06-44.7z
						 M-911.06-171.9c-34.8,0-63.2,28.3-63.2,63.2c0,34.8,28.3,63.2,63.2,63.2c34.8,0,63.2-28.3,63.2-63.2
						C-847.86-143.5-876.26-171.9-911.06-171.9z"/>
				</g>
				<g>
					<path class="st1" d="M-911.06-52.4c-31,0-56.3-25.3-56.3-56.3s25.3-56.3,56.3-56.3s56.3,25.3,56.3,56.3
						C-854.76-77.6-880.06-52.4-911.06-52.4z M-911.06-164.2c-30.6,0-55.5,24.9-55.5,55.5s24.9,55.5,55.5,55.5s55.5-24.9,55.5-55.5
						S-880.46-164.2-911.06-164.2z"/>
				</g>
				<g>
					<path class="st1" d="M-911.06-60.1c-26.8,0-48.6-21.8-48.6-48.6s21.8-48.6,48.6-48.6s48.6,21.8,48.6,48.6
						S-884.26-60.1-911.06-60.1z M-911.06-156.5c-26.4,0-47.8,21.4-47.8,47.8s21.4,47.8,47.8,47.8c26.4,0,47.8-21.4,47.8-47.8
						C-863.26-135-884.76-156.5-911.06-156.5z"/>
				</g>
				<g>
					<path class="st1" d="M-911.06-68.5c-22.2,0-40.2-18-40.2-40.2s18-40.2,40.2-40.2s40.2,18,40.2,40.2
						C-870.86-86.5-888.96-68.5-911.06-68.5z M-911.06-148.1c-21.7,0-39.4,17.7-39.4,39.4s17.7,39.4,39.4,39.4s39.4-17.7,39.4-39.4
						C-871.66-130.4-889.36-148.1-911.06-148.1z"/>
				</g>
			</g>
			<circle class="st2" cx="-911.06" cy="-108.7" r="32.8"/>
			<g>
				<path class="st0" d="M-911.06-141.5c-18.1,0-32.8,14.7-32.8,32.8s14.7,32.8,32.8,32.8s32.8-14.7,32.8-32.8
					S-892.96-141.5-911.06-141.5z M-911.06-103.1c-3.1,0-5.6-2.5-5.6-5.6s2.5-5.6,5.6-5.6s5.6,2.5,5.6,5.6
					S-907.96-103.1-911.06-103.1z"/>
			</g>
		</g>
	</g>
</g>
<g>
	<circle class="st3" cx="40.04" cy="40" r="40"/>
	<g>
		<g>
			<path class="st4" d="M27.69,53.76l-0.53-0.81h-0.44v0.81h-0.55v-2.53h1.16c0.29,0,0.53,0.07,0.7,0.22
				c0.17,0.15,0.26,0.35,0.26,0.61l0,0c0,0.2-0.06,0.37-0.15,0.5c-0.09,0.13-0.24,0.22-0.39,0.28l0.62,0.9h-0.68V53.76z
				 M27.71,52.09c0-0.13-0.04-0.2-0.11-0.28c-0.07-0.06-0.18-0.09-0.31-0.09h-0.55v0.73h0.57c0.13,0,0.24-0.04,0.31-0.09
				C27.67,52.29,27.71,52.2,27.71,52.09L27.71,52.09z"/>
			<path class="st4" d="M30.57,53.76v-2.53h1.91v0.5h-1.36v0.51h1.19v0.5h-1.19v0.53h1.38v0.5L30.57,53.76L30.57,53.76z"/>
			<path class="st4" d="M36.81,53.54c-0.07,0.06-0.15,0.11-0.22,0.15c-0.09,0.04-0.17,0.07-0.28,0.09c-0.09,0.02-0.2,0.04-0.33,0.04
				c-0.18,0-0.35-0.04-0.51-0.11c-0.17-0.07-0.29-0.17-0.4-0.28s-0.2-0.26-0.28-0.42c-0.07-0.17-0.09-0.33-0.09-0.51l0,0
				c0-0.18,0.04-0.35,0.09-0.51c0.07-0.17,0.15-0.29,0.28-0.42c0.11-0.11,0.26-0.22,0.42-0.28c0.17-0.07,0.33-0.11,0.53-0.11
				c0.11,0,0.22,0.02,0.33,0.04c0.09,0.02,0.18,0.04,0.26,0.07c0.07,0.04,0.15,0.07,0.22,0.13s0.13,0.11,0.18,0.17l-0.35,0.4
				c-0.09-0.09-0.2-0.17-0.29-0.2c-0.09-0.04-0.22-0.07-0.35-0.07c-0.11,0-0.2,0.02-0.29,0.06c-0.09,0.04-0.17,0.09-0.24,0.17
				c-0.07,0.07-0.11,0.15-0.15,0.26c-0.04,0.09-0.06,0.2-0.06,0.31l0,0c0,0.11,0.02,0.2,0.06,0.31c0.04,0.09,0.09,0.18,0.15,0.26
				c0.06,0.07,0.15,0.13,0.24,0.17c0.09,0.04,0.18,0.06,0.29,0.06c0.15,0,0.26-0.02,0.37-0.07c0.11-0.06,0.2-0.13,0.29-0.22
				l0.35,0.35C36.94,53.41,36.88,53.47,36.81,53.54z"/>
			<path class="st4" d="M41.72,52.99c-0.07,0.17-0.17,0.29-0.28,0.42c-0.13,0.11-0.26,0.22-0.42,0.28
				c-0.17,0.07-0.35,0.11-0.53,0.11c-0.2,0-0.37-0.04-0.53-0.11c-0.17-0.07-0.31-0.17-0.42-0.28c-0.11-0.11-0.22-0.26-0.28-0.4
				c-0.07-0.17-0.09-0.33-0.09-0.51l0,0c0-0.18,0.04-0.35,0.11-0.51c0.07-0.17,0.17-0.29,0.28-0.42c0.11-0.11,0.26-0.22,0.42-0.28
				c0.17-0.07,0.35-0.11,0.53-0.11c0.2,0,0.37,0.04,0.53,0.11c0.17,0.07,0.31,0.17,0.42,0.28c0.11,0.11,0.2,0.26,0.28,0.4
				c0.07,0.17,0.09,0.33,0.09,0.51l0,0C41.82,52.68,41.78,52.84,41.72,52.99z M41.25,52.5c0-0.11-0.02-0.2-0.06-0.31
				c-0.04-0.09-0.09-0.18-0.17-0.26c-0.07-0.07-0.15-0.13-0.24-0.17c-0.09-0.04-0.2-0.06-0.31-0.06c-0.11,0-0.22,0.02-0.31,0.06
				c-0.09,0.04-0.17,0.09-0.24,0.17c-0.07,0.07-0.11,0.15-0.15,0.26c-0.04,0.09-0.06,0.2-0.06,0.31l0,0c0,0.11,0.02,0.2,0.06,0.31
				c0.04,0.09,0.09,0.18,0.17,0.26c0.07,0.07,0.15,0.13,0.24,0.17c0.09,0.04,0.2,0.06,0.31,0.06c0.11,0,0.22-0.02,0.31-0.06
				c0.09-0.04,0.18-0.09,0.24-0.17c0.07-0.07,0.11-0.15,0.15-0.26C41.23,52.72,41.25,52.61,41.25,52.5L41.25,52.5z"/>
			<path class="st4" d="M45.65,53.76l-0.53-0.81h-0.44v0.81h-0.55v-2.53h1.16c0.29,0,0.53,0.07,0.7,0.22
				c0.17,0.15,0.26,0.35,0.26,0.61l0,0c0,0.2-0.06,0.37-0.15,0.5c-0.09,0.13-0.24,0.22-0.39,0.28l0.62,0.9h-0.68V53.76L45.65,53.76z
				 M45.67,52.09c0-0.13-0.04-0.2-0.11-0.28c-0.07-0.06-0.18-0.09-0.31-0.09H44.7v0.73h0.57c0.13,0,0.24-0.04,0.31-0.09
				C45.63,52.29,45.67,52.2,45.67,52.09L45.67,52.09z"/>
			<path class="st4" d="M50.75,52.99c-0.07,0.15-0.17,0.29-0.28,0.4s-0.26,0.2-0.42,0.28c-0.17,0.07-0.35,0.09-0.55,0.09h-0.99
				v-2.53h0.99c0.2,0,0.39,0.04,0.55,0.09s0.31,0.15,0.42,0.26c0.13,0.11,0.22,0.24,0.28,0.4c0.07,0.15,0.09,0.31,0.09,0.5l0,0
				C50.86,52.66,50.83,52.83,50.75,52.99z M50.28,52.5c0-0.11-0.02-0.22-0.06-0.31c-0.04-0.09-0.09-0.18-0.15-0.24
				c-0.07-0.07-0.15-0.13-0.24-0.17c-0.09-0.04-0.2-0.06-0.31-0.06H49.1v1.52h0.42c0.11,0,0.22-0.02,0.31-0.06
				c0.09-0.04,0.17-0.09,0.24-0.15c0.07-0.07,0.11-0.15,0.15-0.24C50.26,52.72,50.28,52.61,50.28,52.5L50.28,52.5z"/>
			<path class="st4" d="M54.92,53.34c-0.04,0.09-0.11,0.18-0.18,0.24c-0.07,0.07-0.18,0.11-0.29,0.15
				c-0.11,0.04-0.24,0.06-0.37,0.06c-0.18,0-0.39-0.04-0.57-0.09c-0.18-0.07-0.35-0.17-0.51-0.31l0.33-0.39
				c0.11,0.09,0.24,0.17,0.35,0.22c0.13,0.06,0.26,0.09,0.4,0.09c0.11,0,0.2-0.02,0.28-0.06c0.06-0.04,0.09-0.09,0.09-0.18l0,0
				c0-0.04,0-0.07-0.02-0.09c-0.02-0.04-0.04-0.06-0.07-0.07c-0.04-0.02-0.09-0.06-0.15-0.07c-0.07-0.02-0.15-0.06-0.26-0.07
				c-0.13-0.04-0.24-0.07-0.35-0.11c-0.11-0.04-0.18-0.09-0.26-0.15c-0.07-0.06-0.13-0.13-0.17-0.2c-0.04-0.09-0.06-0.18-0.06-0.31
				l0,0c0-0.11,0.02-0.22,0.07-0.31c0.04-0.09,0.11-0.17,0.18-0.24c0.07-0.07,0.17-0.11,0.28-0.15s0.22-0.06,0.35-0.06
				c0.18,0,0.35,0.02,0.51,0.09c0.15,0.06,0.29,0.13,0.42,0.24l-0.29,0.42c-0.11-0.07-0.22-0.15-0.33-0.18
				c-0.11-0.04-0.22-0.07-0.33-0.07c-0.11,0-0.18,0.02-0.24,0.06c-0.06,0.04-0.07,0.09-0.07,0.17l0,0c0,0.04,0,0.07,0.02,0.11
				c0.02,0.04,0.04,0.06,0.09,0.07c0.04,0.02,0.09,0.06,0.17,0.07c0.07,0.02,0.17,0.06,0.28,0.07c0.13,0.04,0.24,0.07,0.35,0.11
				c0.09,0.04,0.18,0.09,0.26,0.15c0.07,0.06,0.13,0.13,0.15,0.2c0.04,0.07,0.06,0.18,0.06,0.29l0,0
				C54.97,53.14,54.95,53.25,54.92,53.34z"/>
		</g>
		<g>
			<path class="st4" d="M33.72,24.81c-1.52,0-2.84,0-3.96,0c-1.08,0-2,0-2.77,0c-1.74,0-2.79,0-3.1,0c-0.15,0-0.29,0-0.42,0
				c-0.35,0-0.81,0-1.38,0c-0.28,0-0.53,0-0.81,0c-0.73,0-1.63,0-2.72,0c-0.55,0-1.12,0-1.67,0c-0.35,0-0.79,0-1.34,0
				c-0.29,0-0.57,0-0.86,0c-1.03,0-2.07,0-3.1,0c0,1.41,0,2.81,0,4.22c1.03-0.04,2.07-0.07,3.1-0.09c0.39-0.02,0.84-0.02,1.38-0.04
				c0.28,0,0.53-0.02,0.81-0.02c0,1.01,0,2.18-0.02,3.52c0,1.34,0,2.68-0.02,4.02c0,2.02-0.02,3.82-0.02,5.36c0,0.77,0,1.54,0,2.33
				c0,0.37-0.13,0.68-0.39,0.94c-0.29,0.31-0.61,0.48-0.95,0.53c-1.56,0.22-2.46,0.37-2.7,0.4c-0.13,0.02-0.26,0.04-0.39,0.06
				c0-0.37,0-0.81,0-1.34c0-0.26,0-0.51,0-0.79c-0.73,0.11-1.63,0.24-2.7,0.4c-0.53,0.09-1.06,0.17-1.61,0.26c0,0.35,0,0.79,0,1.34
				c0,0.31,0,0.55,0,0.66c0,0.06,0,0.13,0,0.18c0,0.31,0,0.73,0,1.25c0,0.17,0,0.29,0,0.42c0,0.11,0,0.22,0,0.33
				c0,0.64,0.24,1.14,0.72,1.52c0.44,0.39,0.99,0.5,1.65,0.37c0.57-0.11,1.21-0.24,1.94-0.39c0.7-0.13,1.41-0.26,2.13-0.39
				c1.1-0.2,2.07-0.35,2.9-0.48c0.4-0.06,0.83-0.13,1.23-0.18c0.61-0.09,1.14-0.33,1.61-0.75c0.48-0.44,0.77-0.92,0.86-1.47
				c0.04-0.09,0.06-0.18,0.06-0.28s0-0.18,0-0.26c0.02-3.28,0.02-6.09,0.02-8.4c0-2.33,0.02-4.28,0.02-5.83c0-1.14,0-2.11,0-2.92
				c0-0.2,0-0.39,0-0.57c0.39,0,0.84-0.02,1.38-0.02c0.28,0,0.53-0.02,0.81-0.02c0,1.32,0,2.86-0.02,4.61c0,1.76-0.02,3.5-0.02,5.27
				c0,2.62-0.02,4.94-0.02,6.99c0,1.03,0,2.04,0,3.06c0.73-0.07,1.65-0.17,2.77-0.28c0.35-0.04,0.66-0.06,0.92-0.07
				c0.24-0.02,0.48-0.04,0.72-0.06c0-0.53,0-1.14,0-1.82s0-1.38,0-2.07c0-1.01,0-1.93,0-2.72c0-0.17,0-0.35,0-0.51
				c0.44-0.26,0.88-0.51,1.32-0.77c1.03-0.61,2.06-1.19,3.08-1.76c0,0.55,0,1.1,0,1.65c0,0.53,0,1.14,0,1.8c0,0.7,0,1.38,0,2.06
				c0,1.01,0,1.91,0,2.72c0,0.39,0,0.79,0,1.17c0.73-0.04,1.67-0.07,2.79-0.09c0.57-0.02,1.12-0.02,1.69-0.04c0-1.06,0-2.26,0-3.63
				c0-1.36,0-2.72,0-4.09c0-2.06,0-3.87,0-5.47c0.02-0.79,0.04-1.58,0.06-2.37c0-0.66,0-1.49,0-2.46c0-0.5,0-1.01,0-1.5
				c0-0.17,0-0.37,0-0.59c0-0.13,0-0.26,0-0.37c0-0.72-0.29-1.34-0.9-1.83C35.21,25.06,34.51,24.81,33.72,24.81z M32.24,32.26
				c0,0.73,0,1.32,0,1.8c0,0.17,0,0.33,0,0.48c-1.12,0.62-2.22,1.25-3.34,1.89c-0.35,0.2-0.7,0.4-1.06,0.61c0-0.18,0-0.39,0-0.57
				c0-0.51,0-1.1,0-1.78c0-0.7,0-1.39,0-2.07c0-1.05,0-1.96,0-2.75c0-0.04,0-0.06,0-0.09c0-0.37,0-0.73,0-1.1
				c0.53,0,1.19-0.02,1.96-0.02c0.4,0,0.79,0,1.19-0.02c0.35,0,0.64,0.11,0.9,0.33c0.22,0.22,0.33,0.48,0.33,0.79
				C32.24,30.73,32.24,31.56,32.24,32.26z"/>
			<path class="st4" d="M67.76,25.65c-0.61-0.57-1.3-0.84-2.09-0.84c-1.52,0-2.84,0-3.96,0c-1.08,0-2,0-2.77,0
				c-0.51,0-0.95,0-1.34,0c-0.61,0-1.06,0-1.38,0c-0.17,0-0.29,0-0.39,0c-0.15,0-0.29,0-0.44,0c0,0.66,0,1.5,0,2.48
				c0,0.31,0,0.59,0,0.83s0,0.39,0,0.48c0,0.06,0,0.11,0,0.17l0,0c0,1.34,0,2.9,0.02,4.66c0,1.78,0.02,3.54,0.02,5.32
				c0,2.64,0.02,4.99,0.02,7.06c0,1.03,0,2.06,0,3.1c0.73,0.09,1.65,0.2,2.77,0.37c0.35,0.06,0.64,0.09,0.9,0.13
				c0.24,0.04,0.48,0.07,0.72,0.11c0-0.57,0-1.21,0-1.93s0-1.45,0-2.18c0-1.06,0-2.02,0-2.86c0-0.44,0-0.86,0-1.3
				c0-0.59,0-1.17,0-1.76c1.03,0.68,2.06,1.38,3.08,2.11c0.44,0.31,0.86,0.62,1.3,0.94c0,0.39,0,0.77,0,1.21c0,0.77,0,1.52,0,2.26
				c0,1.1,0,2.11,0,2.99c0,0.42,0,0.86,0,1.28c0.73,0.15,1.63,0.31,2.73,0.55c0.55,0.11,1.1,0.24,1.65,0.37c0-1.21,0-2.59,0-4.15
				c0-1.56,0-3.12,0-4.68c0-2.35,0-4.44,0-6.24c0.02-0.9,0.04-1.82,0.06-2.72c0-0.77,0-1.71,0-2.81c0-0.57,0-1.14,0-1.72
				c0-0.18,0-0.42,0-0.66c0-0.15,0-0.29,0-0.42C68.66,26.94,68.37,26.24,67.76,25.65z M64.18,33.01c0,0.81,0,1.45,0,1.98
				c0,1.27,0,2,0,2.2c0,0.09,0,0.18,0,0.28c0,0.2,0,0.42,0,0.62c-0.35-0.24-0.7-0.48-1.05-0.72c-1.1-0.75-2.22-1.49-3.32-2.18
				c0-0.73,0-1.45,0-2.15c0-1.1,0-2.07,0-2.9c0-0.04,0-0.06,0-0.09c0-0.39,0-0.77,0-1.16c0.53,0.02,1.19,0.04,1.96,0.06
				c0.4,0.02,0.79,0.02,1.19,0.04c0.35,0.02,0.64,0.15,0.9,0.4c0.22,0.26,0.33,0.55,0.33,0.88C64.18,31.32,64.18,32.24,64.18,33.01z
				"/>
			<path class="st4" d="M50.73,24.81c-0.42,0-0.9,0-1.49,0c-0.53,0-1.1,0-1.67,0c-0.83,0-1.56,0-2.2,0c-0.33,0-0.66,0-1.01,0
				c-0.61,0-1.34,0-2.2,0c-0.15,0-0.33,0-0.51,0c-0.26,0-0.53,0-0.86,0c-0.28,0-0.53,0-0.81,0c0,0.64,0,1.43,0,2.37
				c0,0.31,0,0.57,0,0.79s0,0.37,0,0.46c0,0.06,0,0.11,0,0.17l0,0c0,0.5,0,1.08,0,1.74c0,0.66,0,1.34,0,2c0,0.99,0,1.89,0,2.66
				c0,0.37,0,0.75,0,1.12c-0.73,0-1.47,0-2.2,0c0,1.32,0,2.66,0,3.98c0.73,0,1.47,0,2.2,0v0.02c0,0.53,0,1.12,0,1.8
				c0,0.7,0,1.38,0,2.04c0,0.99,0,1.91,0,2.72c0,0.39,0,0.77,0,1.17c0.73,0,1.67,0.02,2.79,0.06c0.35,0.02,0.66,0.02,0.92,0.04
				c0.24,0.02,0.48,0.02,0.72,0.04c0-0.53,0-1.14,0-1.8c0-0.68,0-1.36,0-2.06c0-1.01,0-1.89,0-2.68c0-0.4,0-0.81,0-1.21
				c0.42,0.02,0.9,0.02,1.43,0.06c0.55,0.02,1.08,0.04,1.63,0.07c0.83,0.04,1.54,0.07,2.15,0.11c0.31,0.02,0.64,0.04,0.95,0.06
				c0.39,0.02,0.73-0.02,1.05-0.11c0.29-0.09,0.55-0.26,0.81-0.46c0.26-0.22,0.44-0.44,0.57-0.7c0.17-0.28,0.24-0.59,0.24-0.94
				c0-1.43,0-2.66-0.02-3.67c0-1.03,0-1.91,0-2.62c0-1.63,0-2.59,0-2.84c0-0.15,0-0.29,0-0.44c0-0.29,0-0.64,0-1.08
				c0-0.22,0-0.42,0-0.64c0-0.61-0.24-1.12-0.72-1.56C52.02,25.03,51.43,24.81,50.73,24.81z M48.79,31.89c0,0.53,0,1.01,0,1.39
				c0,0.88,0,1.38,0,1.52c0,0.09,0,0.17,0,0.26c0,0.33-0.13,0.62-0.39,0.88c-0.29,0.24-0.64,0.37-1.05,0.35
				c-1.47-0.06-2.33-0.07-2.59-0.07c-0.06,0-0.13,0-0.18,0c-0.06,0-0.13,0-0.18,0c0-0.5,0-1.08,0-1.76c0-0.68,0-1.34,0-2.02
				c0-1.01,0-1.89,0-2.64c0-0.39,0-0.79,0-1.17c0.51,0,1.14,0,1.85,0.02c0.39,0,0.77,0,1.14,0.02c0.39,0,0.72,0.13,1.01,0.39
				c0.26,0.24,0.39,0.53,0.39,0.9C48.79,30.7,48.79,31.34,48.79,31.89z"/>
		</g>
	</g>
</g>
</svg>
