<?xml version="1.0" encoding="utf-8"?>
<!-- Generator: Adobe Illustrator 24.0.1, SVG Export Plug-In . SVG Version: 6.00 Build 0)  -->
<svg version="1.1" id="Camada_1" xmlns="http://www.w3.org/2000/svg" xmlns:xlink="http://www.w3.org/1999/xlink" x="0px" y="0px"
	 viewBox="0 0 179.55 80" style="enable-background:new 0 0 179.55 80;" xml:space="preserve">
<style type="text/css">
	.st0{fill:#8E8E8E;}
</style>
<g>
	<g>
		<path class="st0" d="M164.74,22.92L164.74,22.92C164.7,22.88,164.74,22.88,164.74,22.92c-0.04-0.04-0.09-0.04-0.13-0.09
			c0,0.04,0,0.04,0.04,0.09C164.7,22.92,164.7,22.92,164.74,22.92z"/>
		<path class="st0" d="M149.89,23.91c-0.04,0-0.09,0.04-0.09,0.04l0,0L149.89,23.91z"/>
		<rect x="64.58" y="10.13" class="st0" width="0.72" height="6.42"/>
		<polygon class="st0" points="67.9,13.77 71.4,13.77 71.4,13.1 67.9,13.1 67.9,10.81 71.8,10.81 71.8,10.13 67.18,10.13 
			67.18,16.55 67.9,16.55 		"/>
		<polygon class="st0" points="73.91,11.3 78.04,16.55 78.62,16.55 78.62,10.13 77.91,10.13 77.91,15.3 73.87,10.13 73.19,10.13 
			73.19,16.55 73.91,16.55 		"/>
		<path class="st0" d="M81.41,14.85h3.5l0.76,1.71h0.76l-2.92-6.46h-0.67l-2.96,6.46h0.76L81.41,14.85z M83.16,10.94l1.44,3.28
			h-2.92L83.16,10.94z"/>
		<polygon class="st0" points="88.59,16.55 89.3,16.55 89.3,10.81 91.46,10.81 91.46,10.13 86.43,10.13 86.43,10.81 88.59,10.81 		
			"/>
		<rect x="92.89" y="10.13" class="st0" width="0.72" height="6.42"/>
		<path class="st0" d="M98.46,16.64c1.97,0,3.28-1.57,3.28-3.32l0,0c0-1.75-1.3-3.32-3.28-3.32c-1.97,0-3.28,1.57-3.28,3.32l0,0
			C95.18,15.12,96.53,16.64,98.46,16.64z M95.95,13.32c0-1.48,1.03-2.65,2.51-2.65c1.48,0,2.51,1.21,2.51,2.65l0,0
			c0,1.44-1.03,2.65-2.51,2.65C97.02,15.97,95.95,14.8,95.95,13.32L95.95,13.32z"/>
		<polygon class="st0" points="103.98,11.3 108.15,16.55 108.74,16.55 108.74,10.13 108.02,10.13 108.02,15.3 103.98,10.13 
			103.31,10.13 103.31,16.55 103.98,16.55 		"/>
		<path class="st0" d="M112.77,15.97c-0.9,0-1.53-0.31-2.2-0.9l-0.45,0.54c0.76,0.67,1.62,1.03,2.6,1.03c1.26,0,2.2-0.72,2.2-1.8
			l0,0c0-0.99-0.67-1.53-2.11-1.8c-1.39-0.31-1.75-0.63-1.75-1.26l0,0c0-0.58,0.54-1.03,1.35-1.03c0.67,0,1.26,0.22,1.84,0.72
			l0.4-0.54c-0.67-0.54-1.3-0.81-2.24-0.81c-1.21,0-2.11,0.76-2.11,1.75l0,0c0,1.08,0.67,1.53,2.15,1.84
			c1.35,0.27,1.66,0.63,1.66,1.21l0,0C114.21,15.52,113.63,15.97,112.77,15.97z"/>
	</g>
	<g>
		<path class="st0" d="M178.83,48.73c-0.04,0.04-0.13,0.13-0.18,0.18s-0.04,0.04-0.04,0.04c-0.4-0.04-0.4,0.49-0.76,0.54
			c0-0.04-0.04-0.09-0.04-0.13c-0.09-0.04-0.18-0.04-0.22,0h-0.04c-0.09,0-0.18,0.04-0.22,0.04c-0.04,0.13-0.09,0.22-0.18,0.36
			c-0.27-0.09-0.36-0.36-0.49-0.49c0-0.13,0.04-0.27,0.04-0.4c-0.49-0.31-0.49-0.31-0.4-0.94c-0.04,0-0.09,0-0.13,0
			c-0.04-0.13-0.04-0.27-0.09-0.4c-0.04,0-0.09,0-0.13,0c-0.22-0.31-0.31-0.4-0.27-0.76c0-0.04,0-0.09,0-0.13
			c0-0.18-0.04-0.36-0.04-0.54c0.13-0.18,0.13-0.18,0.18-0.31c0-0.13,0-0.22,0-0.27c0-1.03,0-1.03,0.09-1.3
			c0-0.04-0.04-0.09-0.04-0.13c-0.13,0-0.27,0-0.4-0.04c0-0.09,0-0.18,0-0.27c0.22-1.12,0.22-1.12,0.22-1.17
			c0.04,0,0.09-0.04,0.13-0.04c0.04-0.04,0.04-0.04,0.04-0.04c0.45-0.45-0.04-1.21,0.54-1.62c0.04-0.22,0.18-0.45,0.13-0.67
			c0.09,0,0.18,0,0.22-0.04c0-0.09-0.04-0.18-0.04-0.27c-0.04-0.31-0.09-0.67-0.13-0.99c0.09-0.13,0.18-0.13,0.27-0.13
			c-0.04-0.22-0.09-0.4-0.13-0.63c0.09,0,0.18,0,0.22-0.04c-0.04-0.22-0.09-0.45-0.09-0.67c0.04,0,0.04,0.04,0.09,0.04
			c0.09,0.13,0.13,0.13,0.31,0.09c0.04,0,0.04,0,0.04,0c0.04,0,0.09,0,0.13,0h0.04c0.04-0.04,0.04-0.04,0.09-0.09
			c0.04,0,0.09,0,0.13,0c0.04-0.09,0.04-0.09,0-0.4c0.09-0.04,0.18-0.09,0.27-0.09c0-0.13,0.09-0.22,0.13-0.36h0.04
			c-0.22-0.63-0.49-1.26-0.76-1.88c0.04,0.04,0.04,0.09,0.04,0.18c0,0-0.04,0.04-0.09,0.04c-0.09,0.13-0.09,0.13-0.09,0.31
			c-0.04,0-0.04,0.04-0.09,0.09c0,0.04,0,0.09,0,0.09c0.04,0.31,0.04,0.31,0.22,0.63c0.04,0.09,0.04,0.18,0.09,0.22
			c-0.18,0.13-0.18,0.36-0.27,0.49c-0.22,0.04-0.04,0.36-0.27,0.36l-0.04,0.04h0.04c0,0.04,0,0.04,0,0.09
			c-0.09-0.09-0.09-0.18-0.18-0.27c-0.04-0.04-0.13-0.09-0.18-0.13c0,0.04-0.04,0.04-0.09,0.04c-0.04,0-0.09-0.09-0.09-0.09
			c-0.04,0-0.09,0-0.09,0.04c-0.04,0-0.09,0-0.13,0c-0.09-0.22-0.09-0.22-0.09-0.36v-0.09c0-0.04,0-0.04-0.04-0.09
			c0-0.04-0.04-0.04-0.04-0.09c-0.13-0.18-0.09-0.4-0.13-0.63c-0.04-0.13-0.09-0.27-0.18-0.45c-0.18-0.22-0.18-0.49-0.36-0.72v-0.09
			c0.04,0,0.13,0,0.18-0.04c0-0.04,0-0.09-0.04-0.09v-0.04h0.04c0.04,0.04,0.04,0.04,0.18,0.04c0.09,0,0.18-0.04,0.31-0.04
			c0.09,0.09,0.22,0.09,0.36,0.18c0,0,0,0,0.04-0.04c0-0.04,0-0.09,0.04-0.09c-0.13-0.58-0.13-0.58-0.58-1.12
			c-0.04-0.13-0.13-0.22-0.18-0.36c-0.09-0.09-0.22-0.18-0.31-0.27h-0.04c-0.04,0-0.09,0-0.18-0.09h-0.04
			c-0.09-0.13-0.09-0.13-0.04-0.22c0.04,0,0.04-0.04,0.09-0.04c0,0,0.13,0.13,0.31,0.09c0-0.04-0.04-0.04-0.04-0.09l-0.04-0.04
			c-0.04-0.04-0.04-0.13-0.13-0.18c-0.04-0.04-0.09-0.13-0.09-0.18c0.04,0,0.04,0.04,0.09,0.04l0.04,0.04c0.04,0,0.04,0,0.09,0
			l0.04,0.04c0.04,0,0.04,0,0.09,0c-0.04-0.04-0.09-0.13-0.09-0.22c0.04,0,0.04-0.04,0.09-0.04c-0.04-0.09-0.09-0.18-0.13-0.27
			c-0.09-0.13-0.22-0.31-0.31-0.45l0,0c0,0.04,0,0.04,0.04,0.09V31c0.04,0.09,0.13,0.13,0.18,0.22v0.04h-0.04
			c0,0.04,0,0.09,0.04,0.13c-0.04,0-0.04,0-0.09,0.04l0,0c-0.04,0-0.09-0.09-0.13-0.09l0,0c0,0.04,0,0.04,0,0.09
			c-0.09,0-0.09,0-0.09,0c-0.04,0-0.04,0-0.09,0c0,0.04,0,0.04,0.09,0.18c-0.04,0-0.04,0-0.09,0c-0.09-0.04-0.09-0.04-0.09-0.04
			c0,0.09,0,0.09,0,0.09c-0.04,0.04-0.04,0.04-0.04,0.04l-0.04-0.04c0.04-0.09,0.04-0.09-0.09-0.31l0.04-0.04l0,0
			c0-0.04-0.04-0.09,0-0.09c0.18,0,0.04-0.18,0.04-0.18L174.44,31c0,0,0,0.04-0.04,0.09c-0.04,0-0.13-0.13-0.13-0.18l0,0l0,0l0,0
			l0,0l0,0l0,0l0,0l0,0h0.04c0-0.04-0.04-0.09-0.04-0.09h0.04c-0.04-0.09-0.09-0.18-0.18-0.09c-0.04,0-0.04,0-0.09-0.09h0.04
			c0,0,0-0.04-0.04-0.04v-0.04l0,0l0,0c0.04,0,0.13,0.04,0.18,0.04c0-0.13-0.13-0.22-0.18-0.31c-0.18-0.09-0.18-0.31-0.36-0.36v0.04
			c-0.04,0-0.09,0-0.13,0c-0.04-0.04-0.04-0.04-0.09-0.13v-0.04l0,0c-0.04-0.09-0.22-0.27-0.22-0.31c0,0.04,0,0.04,0.09,0.13h-0.04
			c-0.04-0.04-0.13-0.09-0.13-0.09l0,0h-0.04c-0.09-0.13-0.09-0.13-0.04-0.18c-0.04-0.09-0.09-0.13-0.13-0.18l-0.04-0.04
			c0,0,0-0.04-0.04-0.04c-0.18-0.04-0.27-0.22-0.27-0.27c0.04,0,0.09,0.09,0.18,0.04c0-0.09-0.09-0.13-0.13-0.18
			c-0.13-0.22-0.13-0.22-0.13-0.22c0.09,0,0.09,0,0.13,0h0.04l0,0c0.04,0,0.04,0.04,0.27,0.4c0.09,0,0.18-0.04,0.22-0.04
			c0.04,0.09,0.13,0.13,0.18,0.22c0.04,0.04,0.04,0.13,0.09,0.18c0,0.04,0.04,0.04,0.04,0.04h-0.04l0.04,0.18
			c0.09,0.04,0.18,0.04,0.27,0.09c0.09,0.04,0.13,0.13,0.22,0.22c0.04,0.04,0.13,0.13,0.18,0.18l0.04,0.04
			c0.09-0.04,0.18,0.13,0.27,0.31c0.04,0,0.04,0,0.09,0c0.22,0.31,0.22,0.31,0.27,0.31c0,0,0-0.04,0-0.09
			c-0.49-0.67-1.03-1.3-1.62-1.88c-2.33-2.38-5.07-4.13-8.08-5.16l0.04,0.04c0.04,0,0.04,0.04,0.04,0.04
			c0.04,0.04,0.13,0.09,0.18,0.13c-0.04,0-0.04,0-0.04,0c-0.04,0-0.04,0-0.18-0.09v0.04c0.45,0.18,0.94,0.54,0.94,0.54
			c-0.04,0.04-0.09,0.04-0.09,0.04s0.04,0.04,0.04,0.09L166,24.36c-0.13-0.04-0.22-0.22-0.4-0.27c0,0.04,0.04,0.04,0.04,0.09
			c-0.04,0.04-0.04,0.04-0.13,0.04l0,0c0,0.04,0.04,0.09,0.04,0.09c0.09,0.09,0.22,0.13,0.36,0.13h0.04c0.09,0,0.13,0.09,0.22,0.09
			c0.04,0,0.04,0,0.04,0V24.5v-0.04h0.04c0.04,0.04,0.04,0.04,0.09,0.13c-0.04,0-0.09,0.04-0.13,0.04c0,0.09,0.09,0.18,0.09,0.27
			c-0.04,0.04-0.04,0.04-0.04,0.04v0.04c-0.04,0-0.04,0.04-0.04,0.04c-0.04,0-0.04,0-0.09,0.04c0,0.09,0.04,0.13,0,0.22
			c-0.09,0.04-0.09,0.04-0.4-0.04l-0.04-0.04l0,0h-0.04l0,0l0,0l0,0c-0.04,0-0.04,0-0.04,0l0,0c0.09,0.09,0.09,0.09,0.13,0.13
			l-0.04,0.04v0.04l0.04,0.04l-0.04,0.04c0.04,0.09,0.04,0.09,0.04,0.13l-0.04,0.04c0,0.04,0,0.04,0.04,0.09
			c-0.04,0.09-0.04,0.09,0,0.13l0.04,0.04c-0.04,0.04-0.04,0.04-0.09,0.04h-0.04c-0.04,0.09,0,0.13-0.04,0.22c-0.09,0-0.09,0-0.13,0
			c-0.04-0.09-0.04-0.09-0.13-0.18c-0.04,0-0.09,0-0.13,0c0.04,0.04,0.04,0.09,0.13,0.18c-0.09,0-0.13,0-0.22,0
			c0,0.04,0.04,0.09,0.09,0.18c-0.04,0.04-0.04,0.04-0.13,0.09c0.04,0.13,0.27,0.13,0.22,0.31c0.04,0.09,0.09,0.18,0.13,0.27v0.04
			h-0.04c-0.04,0.09-0.04,0.09,0.04,0.22c0,0-0.04,0.04-0.09,0.04c-0.04,0-0.04,0-0.09,0s-0.04,0-0.09,0.04v0.04
			c0.04,0.13,0.18,0.22,0.27,0.36c0.09,0.13,0,0.31,0.09,0.49c0,0.04,0.04,0.09,0.04,0.09v0.04c-0.13,0.4-0.58-0.13-0.85-0.22h-0.04
			c-0.04,0-0.04,0-0.09,0.04c-0.04,0-0.04,0-0.09,0c-0.18,0-1.53-1.08-1.35-1.26c0.04-0.04,0.04-0.04,0.09-0.09
			c0-0.09-0.04-0.13-0.09-0.22c-0.04,0-0.04,0-0.09,0c-0.04,0.04-0.04,0.09-0.09,0.13c-0.04,0-0.04,0-0.22-0.36l0.04-0.04h0.04
			c0-0.09,0-0.09-0.04-0.09c-0.04,0-0.04,0-0.09,0h-0.04v0.04c-0.22,0.09-0.36-0.27-0.36-0.31s0.04-0.04,0.09-0.04
			c-0.04-0.18-0.22-0.13-0.31-0.27c0-0.04,0-0.04,0-0.04v-0.04v-0.04c0.09-0.04,0.09-0.04,0.09-0.09c0.04,0,0.04,0,0.09,0
			c0-0.04-0.04-0.13-0.04-0.22h0.04h0.04c0.04,0,0.04,0,0.04,0l0,0h0.04c0-0.04,0-0.04,0.04-0.09h0.04c0.04,0,0.09,0,0.09,0
			c0-0.04-0.04-0.09-0.04-0.13c-0.04-0.04-0.04-0.04-0.13-0.13v-0.04V24.9v-0.04v-0.04l0,0c-0.04-0.04-0.04-0.04-0.09-0.09
			c-0.04,0-0.09,0-0.09,0c-0.09,0-0.09,0-0.18-0.04c-0.04,0-0.09,0-0.09,0v0.04c0.04,0,0.04,0,0.09,0l0.04,0.04
			c0.04,0,0.09,0,0.13,0c0.04,0.04,0.09,0.09,0.09,0.13c-0.09,0-0.09,0-0.13,0c0,0.04-0.04,0.04-0.04,0.09h-0.04
			c-0.09-0.09-0.22-0.04-0.31-0.13c-0.09-0.09,0-0.18,0-0.18h0.04v-0.04c-0.04-0.04-0.13-0.09-0.18-0.18
			c0.18-0.09,0.31,0.04,0.45,0.04l0,0h0.09h0.04c0.04,0,0.04,0,0.09,0v-0.04c-0.04-0.04-0.09-0.09-0.22-0.13l0,0l0,0l0,0l0,0l0,0
			l0,0l0,0l0,0c-0.13,0-0.22-0.27-0.4-0.18v0.04c-0.04,0-0.09,0-0.18,0.04h-0.04c-0.04,0-0.04,0-0.09,0c-0.09,0-0.09,0-0.13-0.04
			c0-0.04-0.04-0.04-0.04-0.09h0.04c0-0.04-0.04-0.09-0.09-0.13l0.04-0.04c0-0.04,0-0.04,0-0.09c-0.04,0-0.04,0-0.09,0
			c0,0,0-0.04,0-0.09c0-0.04-0.04-0.09-0.04-0.09c-0.09-0.09-0.09-0.09-0.09-0.09c0-0.04,0-0.04,0-0.04l-0.04-0.04l0,0
			c0,0-0.04-0.04-0.09-0.09c-0.09-0.09-0.09-0.09-0.09-0.09l0,0l-0.04-0.04h-0.04l-0.04-0.04l0,0l-0.04-0.04h-0.04l0,0l0,0l0,0l0,0
			l0,0l0,0l-0.04-0.04c0-0.04-0.04-0.09-0.04-0.13l-0.04-0.04c-0.04,0-0.04,0-0.04,0h-0.04l-0.04-0.04l0,0l0,0h-0.04l-0.04-0.04l0,0
			c-0.04,0-0.04,0-0.09,0l0,0l0,0l0,0c0,0-0.04,0-0.04-0.04l0,0h-0.04h-0.04l0,0c-0.04-0.04-0.04-0.04-0.09,0l0,0l0,0l0,0l0,0l0,0
			l0,0l0,0l0,0l0,0l0,0l0,0l0,0l0,0l0,0l0,0l0,0c-0.04,0-0.04,0-0.09,0l0,0h-0.04v0.04l0,0l0,0l0,0l0,0c0,0-0.04,0-0.09,0
			c-0.04,0-0.04,0-0.04,0s0,0.04,0.04,0.04l0,0l0,0l0,0l0,0h-0.04l0,0l0,0l-0.04-0.04l0,0l0,0l0,0l0,0l0,0l0,0h-0.04l0,0l0,0l0,0
			l0,0c-0.04-0.04-0.13-0.04-0.18-0.09l0,0l0,0c-0.27,0-0.49,0-0.76,0.04l0,0c-0.04,0.04-0.04,0.04-0.27,0.18c-0.04,0-0.04,0-0.09,0
			s-0.09,0-0.13,0l0,0c0.04-0.04,0.04-0.04,0.04-0.09c-0.04,0-0.04,0-0.09,0c-0.18,0-0.18,0-0.18-0.04c-0.04,0-0.09,0.04-0.13,0.04
			s-0.09-0.04-0.13-0.04h-0.04c-0.04,0-0.09,0.04-0.09,0.04l-0.04-0.04c-0.09,0-0.18,0-0.27,0.04l-0.04,0.09l0.04,0.13h0.13
			l0.13,0.04h0.13l0.22-0.04l0.13-0.04l0.13,0.04l0.13,0.04v0.13l0,0c-0.09,0.04-0.09,0.04-0.09,0.09c0,0.09,0,0.09-0.36,0.09
			l-0.04-0.04l-0.04,0.04l-0.13,0.04c-0.09,0-0.13,0-0.22,0c-0.18,0-0.18,0-0.27-0.13c-0.04,0-0.09,0.04-0.13,0.04h-0.18l-0.04-0.09
			v-0.09l0.13-0.13c0-0.09,0.04-0.13,0.04-0.13c-0.22,0.04-0.45,0.09-0.67,0.09l-0.04,0.04l-0.09,0.09h-0.09h-0.09l-0.09,0.04
			l0.09-0.13c-0.76,0.13-1.53,0.36-2.29,0.58l0,0l-0.13,0.13l-0.09,0.04h0.04l0.13-0.09h0.09l0.04,0.04h0.04l-0.13,0.09L153.39,24
			h0.13l0.09-0.09c0.04,0,0.09,0,0.09,0l0.04-0.09l0.09-0.09h0.09l-0.04,0.13l-0.04,0.09l-0.09,0.09v0.09h0.04l0.09-0.04l0.09-0.13
			l0.09-0.09c0.04-0.04,0.09-0.09,0.13-0.13c0.04,0,0.09,0,0.13,0l0.09,0.09l-0.04,0.13l-0.18,0.22v0.09l-0.13,0.18v0.09l0.18,0.13
			l0.04,0.09l-0.09,0.09l-0.18,0.04h-0.09l-0.9,0.09l-0.13,0.13h-0.18h-0.13l-0.13-0.18h-0.09v-0.09l-0.13,0.04L152,24.99
			l-0.18,0.04l-0.22,0.09h-0.22c-0.09,0-0.13,0-0.22,0l-0.04-0.09l0.09-0.22c-0.04,0-0.09,0-0.13,0h-0.18l0.09-0.22l0.27-0.09
			c0.09,0,0.13,0,0.22,0l0.22,0.04c0.09-0.04,0.09-0.09,0.09-0.09c0-0.04-0.04-0.04-0.04-0.09c-0.04,0-0.09,0-0.13,0h-0.18
			c-0.04,0-0.09,0-0.13,0l-0.04-0.09l0.13-0.09l0.13-0.04l0.18-0.04V24h-0.13l-0.13,0.04l0.04-0.09c-0.04,0-0.04,0-0.09,0l0.09-0.09
			l0.22-0.09l0,0c-0.31,0.13-0.67,0.27-0.99,0.4c-0.22,0.09-0.45,0.22-0.67,0.31l-0.13,0.18l0.13-0.04l0.18-0.09h0.13l0.13,0.04
			l-0.04,0.13l0.27,0.22h0.18l0.09,0.18l-0.27,0.09l-0.09,0.09l0.49,0.09l0.31-0.04l0.13,0.13l-0.09,0.36l0.22-0.31l0.09-0.18
			l0.31-0.13l0.22-0.13l0.09,0.18l0.18,0.18l0.18,0.13h0.49l0.13-0.13l0.18-0.13l-0.13-0.22l0.18-0.09l0.18-0.18l0.18,0.18
			l-0.09,0.27c-0.04,0-0.09,0-0.13,0l-0.09,0.18c0.04,0,0.09,0,0.13,0l-0.13,0.18l0.13,0.18l0.09-0.31l0.4-0.18
			c0.04-0.04,0.04-0.13,0.09-0.18l-0.22,0.13h-0.18l0.04-0.18l0.18,0.04l0.13-0.18l-0.09-0.13l-0.09-0.18l0.09-0.09l0.04-0.13
			l0.18-0.13h0.09l0.09-0.09h0.18l0.09,0.18l-0.09,0.13l0.09,0.04l-0.04,0.18l-0.09,0.18l0.09,0.04L155,25.3l0.27-0.18l0.13,0.22
			l-0.13,0.13v0.27l0.09,0.09l0.18-0.18l0.13-0.22l0.27-0.27l-0.09-0.09l0.04-0.13l0.18-0.04l-0.22-0.09l-0.09-0.09l-0.09,0.04
			c-0.04,0-0.13,0-0.18,0l-0.09-0.18l0.18-0.04l0.13,0.04v-0.13h-0.13l-0.18-0.04l0.18-0.31l0.22-0.27l0.27-0.18h0.22
			c0.04,0,0.13,0,0.18,0l-0.18,0.13l-0.13,0.13l-0.04,0.13l-0.04,0.22l0.09,0.18h0.13l-0.04-0.22l0.09-0.09l-0.04-0.18l0.09-0.13
			l0.13-0.09h0.13l0.13-0.09c0.04,0,0.13,0,0.18,0v0.13l0.09,0.18l-0.09,0.13v0.13h0.13l0.04-0.09l0.13,0.04h0.13l0.04-0.09
			c0.09,0,0.18,0,0.22,0l0.18,0.09v0.09h0.13v0.09l0.13,0.13l0.22-0.04l0.18,0.04l-0.13,0.09h0.04h0.13l0.04,0.09h0.18l0.18,0.09
			l-0.04,0.13l0.18,0.04l0.13,0.13h-0.09v0.09l0.22,0.04l-0.09,0.09c-0.04,0-0.09,0-0.18,0c0,0.04,0,0.13,0,0.18h0.09h0.22
			l0.04,0.09l0.04,0.13c0.04,0,0.09,0,0.13,0l0.18,0.09h0.13l0.22,0.13c0,0.04,0,0.04,0,0.09c0.09,0,0.18,0,0.31,0l0.04,0.18
			l-0.04,0.13c-0.04,0-0.09,0-0.13,0v0.09l-0.22,0.09v0.27l-0.18-0.04l-0.18-0.22l-0.49-0.36l-0.09,0.09l-0.09,0.09l0.36,0.4
			l0.31,0.09l0.09,0.31l0.22,0.13l-0.09,0.22c0,0.09,0,0.13,0.04,0.22l-0.27-0.13l-0.45-0.22l-0.27-0.13l0.09,0.13l0.18,0.13
			l0.45,0.31V28l-0.27-0.13h-0.4l-0.27-0.27c-0.09,0-0.18,0-0.22,0l-0.18-0.18l-0.04-0.13l-0.27-0.27l-0.27-0.09l-0.13-0.04
			l-0.09,0.04l-0.04,0.09h-0.22l-0.27-0.04c0-0.04,0-0.13,0-0.18l0.27-0.18c0.04,0,0.13,0,0.18,0l0.18,0.04l0.31-0.04l-0.09-0.22
			l0.18-0.22l0.22-0.22l-0.04-0.22l-0.13-0.18l-0.18-0.04l-0.09-0.18l-0.13-0.04l-0.04-0.13l-0.13-0.04l-0.04-0.18h-0.18l-0.13-0.18
			l-0.09,0.04l0.13,0.13l-0.18,0.04h-0.18l-0.13-0.09h-0.18l-0.04,0.09c-0.09,0-0.13,0-0.22,0l0.18,0.13l0.13,0.09l0.09,0.18
			l-0.09,0.18l-0.18,0.04l0.04,0.22l0.09,0.13l-0.09,0.13l-0.22,0.13l-0.09,0.13c-0.04,0-0.13,0-0.18,0v0.09l-0.09,0.09l-0.18-0.04
			c0,0.04,0,0.09-0.04,0.13l0.18,0.04l0.18,0.18l0.27,0.04l0.04,0.22l0.22,0.04l-0.04,0.18c-0.09,0-0.13,0-0.22,0l-0.13-0.09
			l-0.13-0.04h-0.27l-0.13,0.18c-0.09,0.04-0.18,0.04-0.27,0.04c0-0.04,0-0.09,0-0.13h-0.22v-0.13l0.22-0.09
			c0.04-0.13,0.04-0.22,0.09-0.31l0.13-0.27l0.13-0.13l-0.09-0.13c-0.04,0-0.13,0-0.18,0l0.09,0.13l-0.18,0.18l-0.22,0.09L155,26.51
			l-0.27-0.09h-0.18l0.22,0.13l0.04,0.09l0.22,0.04l0.18,0.04l-0.09,0.18L155,26.96l-0.04,0.13l-0.18,0.04l-0.22-0.09l-0.09,0.18
			l-0.13,0.04l-0.27-0.09l-0.36-0.09l0.27,0.13l0.27,0.09l0.04,0.18l-0.22,0.18l-0.27,0.09l-0.31,0.31l-0.31,0.36l-0.22,0.49
			l0.09,0.18l0.18,0.13l0.04,0.45l0.04,0.18l0.45-0.09l0.31,0.22l0.27,0.18l0.13,0.18l0.36,0.13l0.13,0.09h0.31l0.4,0.04l-0.09,0.31
			l0.04,0.36c0,0.09,0,0.18-0.04,0.27l0.22,0.31l0.18,0.36l0.36-0.04l0.18-0.27l0.09-0.22l-0.09-0.27c0-0.13,0-0.27,0.04-0.45
			l-0.18-0.36l0.36-0.04l0.27-0.22l0.18-0.27c0-0.13,0-0.27,0-0.4l-0.04-0.31l-0.22-0.18l-0.13-0.13l0.13-0.13v-0.27
			c0.04,0,0.13,0,0.18,0l-0.09-0.27v-0.18l0.09-0.27l-0.09-0.22l0.13-0.13c0.09,0,0.22,0,0.31,0l0.13,0.09h0.27l0.13-0.09l0.36,0.22
			l0.18,0.22l0.22,0.13h0.27l0.04,0.22c0,0.13,0,0.27,0,0.4l-0.04,0.31l0.22-0.04l0.18,0.13l0.04,0.18h0.22l0.13-0.18l0.22-0.09
			c0-0.09,0-0.18-0.04-0.27l0.18-0.31l0.13,0.22l0.4,0.54l0.27,0.31l0.22,0.27l-0.04,0.13l-0.13,0.04l0.09,0.18l0.22,0.18l0.22,0.18
			l0.31,0.09l0.27,0.13h0.22l-0.13,0.13l-0.36,0.09l-0.27,0.13l-0.04,0.18l0.18,0.04l0.18-0.13l0.22-0.18c0.09,0,0.22,0,0.31,0
			l0.09,0.13l0.31,0.04l0.04,0.27l-0.04,0.13l0.18,0.13l-0.09,0.13l-0.22,0.09l-0.45,0.04l-0.22,0.27l-0.27,0.22h-0.27l-0.36-0.04
			l-0.72,0.04c-0.13,0-0.27,0-0.4,0l-0.31,0.04l-0.13,0.27h-0.31l-0.22,0.22L159,33.34c-0.13,0-0.31,0-0.45,0l0.36,0.09l-0.13,0.13
			l-0.22,0.27l-0.13,0.27l0.36-0.27l0.45-0.45l0.45-0.27l0.4-0.13l0.4,0.04l0.04,0.36l-0.27,0.22l0.18,0.45l0.31,0.27l0.31,0.13
			h0.36l0.18-0.36l0.31-0.09v0.22l-0.22,0.22l-0.22,0.31l-0.31,0.09L160.88,35l-0.27,0.09l-0.13,0.09l-0.18,0.18l-0.18-0.09
			c0-0.09-0.04-0.18-0.04-0.27c0.09-0.04,0.18-0.13,0.22-0.18c0.13,0,0.31,0,0.45,0c0.04-0.04,0.09-0.09,0.09-0.09
			c-0.27-0.09-0.27-0.09-0.81-0.09l-0.18,0.27l-0.31,0.18h-0.36l-0.09,0.18c-0.09,0-0.18,0-0.27,0l-0.22,0.31v0.45l0.09,0.22
			l-0.36,0.04l-0.27,0.18c-0.13,0-0.31,0-0.45,0l-0.18,0.54l-0.13,0.18l-0.13,0.27l-0.13,0.27l-0.18-0.31l-0.22,0.13l0.13,0.18
			l-0.09,0.22l0.13,0.18l0.18,0.4l-0.27,0.13l-0.04,0.22l-0.31,0.13l-0.36,0.22l-0.36,0.31l-0.31,0.13l-0.22,0.4
			c-0.04,0.09-0.09,0.22-0.13,0.31c-0.04,0.27-0.04,0.49-0.04,0.67l0.22,0.45l0.09,0.49l0.09,0.31l-0.09,0.27l-0.13,0.18l-0.18-0.04
			v-0.27l-0.18-0.13l-0.09-0.22l-0.18-0.18l-0.04-0.22l-0.13-0.18c0-0.09,0-0.22,0-0.31l-0.22-0.27l-0.22-0.22l-0.13,0.04
			l-0.13,0.13c-0.04,0-0.09,0-0.18,0l-0.18-0.27l-0.49-0.04l-0.27,0.04h-0.36L152,40.96l0.04,0.18h-0.22c-0.09,0-0.22,0-0.31,0
			l-0.13-0.27l-0.22,0.09l-0.27-0.09l-0.36-0.04l-0.27,0.27l-0.27,0.22h-0.27l-0.31,0.45l0.13,0.45l-0.09,0.45l-0.18,0.4l0.04,0.49
			l0.13,0.72l0.22,0.4L149.8,45l0.36,0.22l0.18,0.27l0.4-0.04l0.4-0.09l0.27-0.04l0.18-0.36l0.13-0.4l0.13-0.27l0.31-0.04l0.54-0.04
			l0.18,0.13l-0.04,0.31l-0.22,0.13c0,0.13,0,0.27,0,0.4l-0.13,0.36l-0.09,0.22c0,0.04,0,0.13,0,0.18s0,0.09,0,0.18l-0.22,0.18
			l0.27,0.18l0.36-0.13l0.36,0.09l0.49-0.04l0.31,0.18l0.18,0.27c0,0.09,0,0.22,0,0.31l-0.09,0.49c0,0.13,0,0.27,0,0.4v0.31
			l0.31,0.36l0.22,0.18l0.49,0.04l0.36,0.04c0.18,0,0.36,0,0.54,0l0.18,0.22l-0.09,0.27h-0.18l-0.04-0.18l-0.49-0.04l-0.13,0.18
			l0.04,0.31L155,49.63l-0.54-0.31c-0.18,0-0.18,0-0.63-0.4l-0.22-0.13l-0.18,0.09l-0.13-0.13c0.04-0.18,0.04-0.18-0.58-1.12
			l-0.22-0.13v0.18l-0.4-0.13l-0.18-0.31l-0.18-0.09h-0.13c-0.09,0-0.22,0-0.31,0l-0.22-0.27l-0.4-0.36l-0.36-0.22l-0.31,0.04
			l-0.09,0.18h-0.27l-0.4-0.13l-0.54-0.31l-0.45-0.27l-0.4-0.31l-0.36-0.13L147.15,45l-0.36-0.36l0.04-0.22l0.18-0.13l-0.18-0.18
			l-0.09-0.4l-0.31-0.45l-0.13-0.31l-0.18-0.31l-0.27-0.22v-0.31v-0.49l-0.22-0.27l-0.22-0.4l-0.22-0.49l0.04-0.36l-0.09-0.22
			l-0.22-0.13h-0.18l-0.04,0.4l0.18,0.31l0.04,0.4l0.18,0.09l0.04,0.31l0.18,0.22l0.04,0.31l0.04,0.31l0.22,0.22v0.27l0.18,0.13
			l0.09,0.31l-0.04,0.27l-0.13,0.09v-0.22l-0.13-0.22l-0.18-0.22l-0.22-0.13l-0.04-0.18l0.04-0.22l-0.13-0.27l-0.27-0.27l-0.18-0.22
			l-0.09-0.22l0.18-0.18l-0.04-0.18l-0.18-0.27l-0.13-0.22l-0.04-0.54l-0.04-0.31v-0.31l-0.13-0.27l-0.22-0.18l-0.13-0.22
			c-0.09,0-0.13,0-0.22,0l-0.09-0.31v-0.27l-0.13-0.22V37.2l-0.13-0.27l-0.04-0.31l0.09-0.36l-0.04-0.22l0.04-0.27l0.13-0.31v-0.36
			c0.04-0.09,0.09-0.22,0.13-0.31l0.13-0.09c0.04-0.18,0.13-0.31,0.18-0.49l0.18-0.45l0.13-0.31l0.04-0.4l0.04-0.31l-0.13-0.31
			v-0.22l-0.09-0.13v-0.22h0.13l0.09,0.04l0.09,0.09l0.04,0.13c0.04,0,0.09,0,0.13,0l-0.09,0.27l0.09,0.09l0.09,0.18l-0.04,0.18
			l0.04,0.27l0.04,0.22c0.04-0.09,0.09-0.22,0.13-0.31l0.09-0.4l-0.09-0.18l-0.13-0.22l0.04-0.18l-0.13-0.09l-0.13-0.13l-0.09-0.18
			l0.04-0.22l-0.04-0.31l0.13-0.31l-0.13-0.04l0.09-0.27l0.13-0.27l0.04-0.22h2.2l1.39-6.6h-2.65l1.39-6.55h-9.78l-1.39,6.55h-2.11
			l-1.39,6.6h2.11l-4.49,21.18c-0.9,4.13-1.35,6.78-1.39,7.9c-0.04,1.12,0.18,2.11,0.72,2.96c0.54,0.85,1.26,1.44,2.15,1.66
			c0.9,0.22,2.47,0.36,4.67,0.36h3.95l1.44-6.73c-1.57,0-2.47-0.18-2.6-0.45c-0.13-0.31,0.04-1.8,0.63-4.44
			c1.08,3.05,2.74,5.79,4.98,8.12c3.86,3.99,8.98,6.24,14.36,6.24c2.74,0,5.39-0.58,7.9-1.66c2.6-1.17,4.94-2.83,6.91-5.03
			c2.83-3.14,4.71-7.05,5.47-11.22C178.88,48.77,178.83,48.77,178.83,48.73z M152.22,25.26l-0.13,0.04l-0.18,0.09l-0.13-0.04
			l0.31-0.13l0.27-0.04L152.22,25.26z M155.27,23.01l0.18-0.04h0.09v0.09l0.04,0.04l-0.09,0.13l-0.09,0.04l-0.13-0.09
			c-0.04,0-0.04,0-0.09,0V23.1L155.27,23.01z M154.96,23.19v0.09c-0.04,0-0.04,0-0.09,0L154.96,23.19z M153.39,23.55h-0.09H153.39
			l0.09-0.04L153.39,23.55z M153.66,23.69l-0.13,0.04c0.04-0.13,0.04-0.13,0.04-0.13s0-0.04,0-0.09c0.04-0.04,0.09-0.04,0.13-0.09
			l0.13,0.04v0.04L153.66,23.69z M154.51,23.73l0.04,0.09v0.13v0.13l-0.18,0.13h-0.18c-0.04,0.04-0.13,0.09-0.18,0.09
			c0,0-0.09-0.04-0.09-0.09v-0.04c0,0,0.04-0.04,0.04-0.13c-0.04,0-0.04-0.04-0.09-0.04l-0.04-0.04l-0.04-0.09l0.09-0.09h0.09
			c0,0.13,0,0.18,0.27-0.04v-0.09l0.04-0.09l0.13-0.04l0.04,0.04h0.04l0.09-0.09h0.09v0.09C154.73,23.64,154.73,23.64,154.51,23.73z
			 M155.5,23.64l-0.13,0.13l-0.13,0.09l-0.13-0.04L155,23.96l-0.13,0.09l-0.18,0.04c0-0.04,0-0.04,0.09-0.22
			c0.04-0.09,0.09-0.13,0.13-0.22c0.13-0.04,0.13-0.04,0.18-0.18c0-0.04,0-0.04,0.22-0.04l0.09,0.04c0.04,0,0.09,0,0.13,0
			c0,0,0.04,0,0.09,0.09C155.59,23.55,155.54,23.6,155.5,23.64z M157.43,23.78l-0.13,0.09h-0.31v-0.13v-0.18c0.04,0,0.13,0,0.18,0
			h0.27l0.18,0.13L157.43,23.78z M157.25,25.53c0,0,0,0,0.31,0l0.09,0.18l-0.09,0.18l-0.18,0.04l-0.18-0.04l-0.09-0.13
			C157.2,25.57,157.25,25.53,157.25,25.53z M155.95,27.64c-0.04,0.09-0.04,0.09-0.09,0.09c0,0-0.09,0.09-0.18,0.09
			c-0.09,0-0.09,0-0.09,0c-0.04,0-0.04-0.04-0.09-0.09c0.04,0,0.04-0.04,0.09-0.04c0.13-0.09,0.13-0.09,0.18-0.09
			c0.04,0,0.04,0,0.09,0s0.04-0.04,0.09-0.09V27.64L155.95,27.64z M156.62,28l-0.09,0.04c-0.09,0-0.18,0-0.22,0l-0.04-0.27
			l0.18-0.09h0.18c0,0.04,0,0.13,0,0.18S156.62,27.95,156.62,28z M161.33,32.89c-0.13,0.22-0.18,0.22-0.22,0.22s-0.04,0-0.09-0.04
			c-0.04-0.04-0.04-0.04-0.09-0.09c-0.04-0.04-0.09-0.04-0.13-0.09l-0.04-0.04c-0.04-0.04-0.04-0.09-0.09-0.13
			c-0.04-0.04-0.09-0.04-0.13-0.04c0.04,0,0.09-0.04,0.13-0.04s0.04,0,0.09,0s0.04,0,0.09,0.09c0,0,0.04,0.09,0.18,0.13
			c0.04,0,0.04,0,0.09,0c0,0,0.04,0,0.09,0S161.29,32.89,161.33,32.89L161.33,32.89z M167.43,25.93c0,0,0,0,0.13,0.04
			C167.52,25.93,167.52,25.93,167.43,25.93l0.09-0.09c0.04,0.04,0.09,0.04,0.13,0.09c0.04,0.04,0.04,0.04,0.09,0.09
			c0.04,0.04,0.04,0.04,0.09,0.09c0.04,0,0.09,0,0.13,0c0,0,0.04,0,0.04-0.04c0-0.04,0-0.09,0.09-0.09s0.13,0.04,0.22,0.04v-0.04
			c0.04,0,0-0.09,0-0.09s0-0.04,0.04-0.04c0.04,0,0.09,0,0.13,0c0.04,0.04,0.09,0.09,0.13,0.13c0.04,0.04,0.09,0.13,0.13,0.18l0,0
			c0,0,0,0,0.13,0.04c0.04,0,0.09,0.04,0.13,0.09c0.04,0.04,0.13,0.13,0.18,0.18c-0.18,0-0.18,0-0.22,0.04s0,0.13,0,0.18h-0.04
			c0,0,0,0,0,0.04s0,0.04,0.04,0.13v0.09c-0.04,0-0.13,0.04-0.22,0c-0.09-0.04-0.13-0.13-0.22-0.13c-0.04,0-0.04,0-0.04,0
			c-0.09,0-0.09,0-0.18,0.04h-0.04l-0.13-0.09c-0.04-0.04-0.09-0.13-0.18-0.18l-0.04-0.04c-0.04,0-0.09,0-0.13,0l-0.04,0.04
			c-0.04-0.04-0.09-0.09-0.13-0.13c0.09-0.04,0.22-0.04,0.31-0.04c-0.09-0.13-0.22-0.27-0.4-0.22v0.04
			c-0.04,0.04-0.22-0.13-0.22-0.22C167.3,25.98,167.43,25.98,167.43,25.93z M162.32,33.29c0.04-0.09,0.09-0.13,0.13-0.18
			c0.22-0.27,0.36-0.54,0.36-0.54s0,0,0-0.04s0-0.09,0-0.18c0-0.04-0.04-0.09,0-0.13c0-0.04,0.13-0.09,0.13-0.09
			c0.04,0,0.04,0,0.09,0c0,0.04,0,0.04,0.04,0.04c0.09,0.09,0.04,0.22,0,0.22s-0.09,0-0.09,0.04s0,0.04-0.04,0.27
			c0.04,0,0.09,0.04,0.13,0.04c0.09,0,0.18,0,0.27,0.04c0.04,0,0.04,0.04,0.09,0.09c0.04,0.09,0.27,0.18,0.27,0.18
			c0.04,0.04,0.04,0.04,0.18,0.04c0,0.04,0.04,0.09,0.04,0.13v0.04c-0.09,0.18-0.09,0.18,0,0.36c0.09,0.31,0.04,0.31,0,0.36
			c-0.04,0.04-0.04,0.04-0.04,0.04c-0.09-0.04-0.18-0.09-0.36-0.27c-0.13-0.13-0.13-0.13-0.22-0.13c-0.31,0-0.63,0-0.94,0
			c0-0.04-0.04-0.09-0.04-0.13C162.27,33.43,162.27,33.34,162.32,33.29z M157.92,44.91c0.22-0.04,0.22-0.04,0.27-0.04l0.54,0.04
			c0.13,0,0.18,0.13,0.31,0.13c0.09,0,0.13,0.13,0.22,0.13h0.27c0.04,0,0.09-0.09,0.13-0.13c0.04,0,0.04,0,0.09,0
			c0.09,0,0.13,0.04,0.22,0.09c0.04,0,0.09,0,0.13,0c0.13,0,0.18,0,0.45-0.09c0,0.09-0.04,0.13,0,0.22
			c0.04,0.04,0.09,0.04,0.13,0.09l0,0c-0.04,0.04-0.09,0.04-0.13,0.09c-0.04,0-0.09,0-0.13,0s-0.31-0.04-0.36-0.04
			c-0.04-0.04-0.09-0.04-0.13,0c-0.04,0-0.31,0.09-0.58,0.04c-0.09,0-0.18,0.04-0.27,0.04c-0.09,0-0.18-0.04-0.27-0.04
			c-0.18,0-0.27,0.22-0.49,0.22c-0.04,0-0.13,0-0.18,0c-0.09,0-0.22-0.22-0.31-0.27C157.88,45.23,157.88,45.09,157.92,44.91z
			 M155.9,44.42c-0.04-0.09-0.09-0.09-0.18-0.09s-0.36-0.09-0.36-0.09c-0.04,0-0.04-0.04-0.09-0.09c-0.04-0.18-0.36-0.27-0.36-0.27
			c-0.09,0-0.27,0-0.27,0c-0.09,0.04-0.18,0.13-0.27,0.18c-0.4,0.18-0.9-0.27-0.58-0.54c0.04-0.04,0.04-0.04,0.31,0
			c0.13,0,0.22,0,0.31,0c0.04,0,0.13,0.04,0.18,0.04c0.13-0.09,0.13-0.09,0.13-0.09c0.13,0,0.22,0,0.36,0
			c0.09,0,0.13,0.04,0.13,0.09c0.04,0.04,0.04,0.04,0.18,0.18c0.13,0.09,0.31,0.13,0.45,0.22c0.09,0.09,0.13,0.18,0.22,0.22
			c0.18,0.04,0.31,0,0.49,0c0.04,0,0.13,0,0.18,0c0.18,0.04,0.49,0.36,0.58,0.49c-0.36,0-0.76,0-1.12,0
			C156.04,44.64,155.9,44.47,155.9,44.42z M156.22,45.45c-0.09,0-0.09,0-0.13,0l-0.04-0.04c-0.04-0.04-0.04-0.09-0.09-0.13
			c0.13,0,0.27,0,0.45,0h0.04c0.04,0,0.09,0.04,0.13,0.09c0.04,0,0.09,0,0.13,0.04c0.04,0.04,0,0.09,0.04,0.18l0,0
			c-0.09,0.13-0.09,0.13-0.13,0.13c-0.04,0.04-0.09,0-0.13,0c0-0.04,0-0.04,0-0.04c0-0.04,0-0.09-0.04-0.09
			C156.39,45.54,156.31,45.45,156.22,45.45z M169.99,54.34c-0.04,0.13-0.04,0.13-0.18,0.36l-0.54,0.67
			c-0.18,0.18-0.81,0.72-0.81,0.72c-0.13,0.13-0.18,0.27-0.18,0.4c0,0.09-0.04,0.13-0.04,0.18s0,0.04,0,0.09
			c0,0.09-0.04,0.13-0.04,0.13c-0.04,0.13-0.09,0.22-0.22,0.45c-0.04,0.09-0.04,0.09-0.04,0.13c-0.27,0.54-0.27,0.54-0.31,0.54
			c-0.72,0.9-0.72,0.9-0.81,0.94c-0.04,0.04-0.09,0.09-0.13,0.13c-0.22,0.04-0.45,0.09-0.67,0.09c-0.27,0.18-0.27,0.18-0.31,0.22
			c-0.09,0-0.18,0-0.27,0c-0.9,0.54-0.9,0.72-0.9,0.94c0,0.36-0.99,1.12-1.03,1.12c0.04-0.04,0.09-0.13,0.09-0.18c0,0,0,0-0.85,0.81
			c-0.31,0.27-0.31,0.27-1.03,0.13c-0.09,0-0.13,0-0.18,0c0,0.04,0,0.04,0,0.09c0.13,0.09,0.13,0.09,0.22,0.18
			c-0.04,0.09-0.04,0.13-0.04,0.13c0.04,0,0.09,0,0.09,0c0,0.04-0.04,0.09-0.04,0.13l-0.09,0.09c-0.18,0.13-0.54,0.4-0.54,0.4
			c-0.13-0.04-0.22-0.04-0.31-0.04c-0.04,0-0.13,0.04-0.18,0.04c-0.04,0-0.09,0-0.09,0c-0.13,0-0.18,0-0.27,0c0,0.04,0,0.04,0,0.09
			s0,0.13,0,0.18c0,0-0.04,0.04-0.09,0.04c0,0.04,0,0.09-0.04,0.09c-0.09,0.09-0.18,0.09-0.27,0.09c-0.04,0-0.04-0.04-0.09-0.04
			c-0.09-0.04-0.13-0.04-0.18-0.04c0,0.04,0,0.09,0,0.13c0,0.04,0,0.13,0,0.18c0.04,0,0.13,0,0.18-0.04l0,0l0,0l0,0l0,0l0,0l0,0l0,0
			l0,0c0.04,0.04,0.04,0.04,0.04,0.09c-0.09,0.09-0.09,0.09-0.27,0.09c-0.09,0.18-0.09,0.18-0.13,0.27
			c-0.04,0.13-0.09,0.18-0.09,0.22c-0.09,0-0.13,0-0.22,0c-0.04,0-0.13,0.04-0.18,0.09c0,0.04-0.04,0.04-0.04,0.04
			c0,0.09,0,0.09,0.13,0.22c0.04,0,0.04,0,0.09,0c0.09,0.04,0.04,0.04,0.04,0.09c-0.18,0.09-0.31,0.22-0.45,0.31
			c0,0.04,0,0.04,0,0.09c-0.04,0-0.09,0-0.18,0c-0.04,0.09-0.04,0.13-0.04,0.13c0,0.04,0,0.04,0,0.04c0,0.04,0.04,0.13,0.04,0.18
			v0.04c0,0.04,0.04,0.13,0.04,0.18c0.09,0,0.09,0.04,0.09,0.04c0.04,0,0.13,0,0.18,0.04c-0.04,0-0.09,0.04-0.09,0.09
			c-0.13,0-0.18,0-0.27,0c-0.04,0-0.09,0-0.09,0c-0.04,0-0.13-0.04-0.18-0.04c-0.04-0.04-0.04-0.04-0.04-0.04c-0.04,0-0.04,0-0.09,0
			c-0.09-0.09-0.18-0.13-0.27-0.27v-0.04l0,0c-0.04,0-0.04,0-0.09-0.04c0-0.09-0.04-0.09-0.04-0.09l-0.04-0.04l0.04-0.04
			c-0.04-0.04-0.09-0.09-0.09-0.13c0-0.09,0-0.09,0-0.09s-0.04-0.04-0.04-0.09c-0.04-0.09-0.04-0.09-0.04-0.09
			c0.09-0.04,0.09-0.04,0.27-0.09c0-0.04,0-0.04-0.04-0.09c-0.04,0-0.04,0-0.09,0c0-0.04,0-0.09,0-0.09
			c-0.04-0.04-0.13-0.04-0.18-0.04c0-0.04,0-0.09,0-0.09c0.09-0.04,0.09-0.09,0.09-0.13c0.09,0.04,0.13,0.09,0.18,0.13
			c0-0.04-0.04-0.13-0.04-0.18c-0.09-0.09-0.09-0.13-0.09-0.13c0.04,0,0.04,0,0.04,0c0,0.09,0,0.09,0,0.09
			c0.04,0.04,0.09,0.09,0.13,0.09c0.04-0.36,0.04-0.36,0.04-0.36c0-0.09,0-0.13,0-0.22c0.04,0,0.04-0.04,0.09-0.04
			c0.04-0.09,0.04-0.09,0.04-0.13c-0.04,0-0.09,0-0.18,0l-0.04,0.31c-0.04,0-0.09,0-0.13,0c-0.04,0-0.04-0.04-0.09-0.04
			c0-0.09,0-0.09,0.04-0.27c0.04,0,0.04,0,0.09-0.04c0-0.04,0-0.13-0.04-0.13c0-0.04-0.04-0.04-0.04-0.09
			c0.13-0.27,0.18-0.36,0-0.63c0.09-0.13,0.22-0.22,0.27-0.4v-0.04c0-0.04,0-0.09,0-0.09c0-0.04,0-0.09,0-0.13
			c0.31-0.27,0.31-0.45,0.18-1.17c0-0.04,0-0.04,0-0.04c0.04-0.13,0.04-0.13,0.22-0.76c0-0.22,0.18-0.36,0.18-0.54
			c0-0.04,0.04-0.09,0.04-0.09v-0.04c-0.04-0.04-0.04-0.13-0.04-0.18c0.04-0.09,0.04-0.09,0.04-0.13v-0.04c0-0.04,0-0.04,0-0.09
			s0-0.09,0-0.13l0,0c0-0.04,0-0.13,0-0.18c0.04-0.09,0.04-0.09,0.04-0.09c0-0.04,0-0.09,0-0.09c0-0.04,0-0.09,0-0.09V58.6
			c0-0.04,0-0.13,0-0.22c0-0.22,0-0.4,0-0.63c-0.04,0-0.13,0-0.18,0c-0.54-0.67-1.08-0.81-1.08-0.81c-0.13,0-0.13,0-1.26-1.71
			c0-0.04,0-0.09,0-0.18c-0.04-0.67-0.94-0.67-0.99-1.39c0-0.04,0-0.04,0-0.09c-0.13-0.18-0.13-0.18-0.09-0.36
			c0.22-0.13,0.22-0.13,0.22-0.31c0.09-0.04,0.18-0.04,0.27-0.09c0.04-0.13,0.04-0.18,0.04-0.22c-0.18-0.04-0.18-0.04-0.27,0.04
			c-0.04,0-0.04-0.04-0.09-0.04c-0.04-0.18,0-0.4-0.04-0.58c0.09-0.04,0.18-0.04,0.27-0.04c0-0.36,0.09-0.4,0.31-0.45
			c0-0.04,0-0.09,0-0.13c0.04-0.04,0.13-0.09,0.22-0.13c0-0.09-0.04-0.18-0.04-0.27c0.04,0,0.13,0,0.22,0
			c0.09-0.09,0.09-0.09,0.13-0.54c0.36-0.22,0-0.63,0.04-0.94c-0.04,0-0.13-0.04-0.18-0.09c0-0.09,0.09-0.27,0.36-0.45
			c0-0.09,0-0.13,0.13-0.36c0.18,0,0.18,0,0.27-0.09c0.04-0.18,0.04-0.31,0.04-0.49c0.4,0,0.63-0.18,0.72-0.27c0.22,0,0.36,0,0.49,0
			c0-0.27,0.04-0.27,0.27-0.31h0.18l0.04,0.09c0,0-0.31,0.22-0.31,0.4c0.18,0.27-0.13,0.67,0.22,0.9c0.09-0.22-0.09-0.45,0-0.67
			c0,0,0.09-0.13,0.31-0.13c0.09-0.13,0.09-0.13,0.09-0.27c0.27-0.09,0.4,0.18,0.63,0.18c0.09,0.09,0.09,0.13,0.09,0.22
			c0.04,0,0.13,0.04,0.18,0.04c0.22,0.04,0.31,0.04,0.45,0.04c0.22,0.04,0.31,0.22,0.45,0.31c0.13-0.04,0.13-0.04,0.27-0.36
			c0.13,0,0.13-0.04,0.31,0.04c0.04,0,0.04,0,0.04,0l0.18-0.13c0.27,0.04,0.27,0.04,0.31,0.18c-0.04,0.04-0.13,0.09-0.18,0.09
			c0,0.09,0,0.09,0.04,0.27c0.09,0,0.09,0,0.36-0.09c0.09,0,0.13,0,0.13,0c0,0.13-0.04,0.31,0.22,0.36c0,0.04,0,0.04,0,0.09
			c0.36,0.22,0.36,0.22,0.4,0.22c0.13,0.4,0.18,0.58,0.85,0.72c0.04,0,0.09,0,0.13,0c0.18,0,0.36-0.13,0.54-0.04
			c0.18,0.13,0.94,0.49,0.94,0.49c0,0.04,0,0.04,0.18,0.45c0,0.13,0,0.27-0.04,0.4c0.04,0,0.13,0,0.18,0
			c0.09,0.22,0.09,0.22-0.36,0.76c-0.04,0.13-0.04,0.18-0.04,0.22c0.27,0.04,0.27-0.09,0.31-0.27c0.04,0,0.04-0.04,0.09-0.04
			s0.04,0,0.09,0c0.04,0,0.04,0,0.09,0c0.22,0.09,0.36,0.13,0.4,0.13c0,0.04,0,0.04,0.04,0.09c-0.04,0-0.04,0.04-0.09,0.09
			c-0.04,0.04-0.09,0.09-0.13,0.13c-0.04,0.13-0.04,0.18-0.04,0.22c0.09,0,0.18,0,0.27,0c0-0.13,0.04-0.22,0.04-0.36
			c0.22-0.04,0.22-0.04,0.36,0.04c0.09,0.04,0.13,0.04,0.13,0.04c0.22,0.04,0.22,0.04,0.72,0.36c-0.18,0.13-0.18,0.13-0.18,0.22
			c0.18,0.13,0.27,0.09,0.36,0.04c0.04-0.27,0.27-0.18,0.54,0c0.18,0,0.31,0,0.45,0c0.45-0.18,0.49,0.45,0.85,0.54
			c0.13,0,0.27,0,0.36,0C169.95,53.58,170.04,53.62,169.99,54.34z M172.33,29.03l-0.04-0.04c0-0.04-0.04-0.04-0.04-0.09
			c0-0.04,0-0.04-0.04-0.09l-0.04-0.04l0,0l0,0c0-0.04,0-0.04,0-0.09v-0.04l0,0c0.09,0.09,0.09,0.09,0.09,0.13v0.04l0.04,0.04
			c0,0,0,0,0,0.04h-0.04c0,0,0,0,0.04,0.09L172.33,29.03L172.33,29.03z M173.67,31.41c-0.09-0.04-0.09-0.04-0.13,0
			c0,0.04-0.18-0.04-0.22-0.18v-0.04c0-0.04-0.04-0.09-0.09-0.13c0,0-0.04-0.09-0.04-0.13c0,0,0,0,0.09-0.04
			c-0.04-0.04-0.09-0.13-0.13-0.18c-0.04,0-0.04,0-0.09,0c-0.09-0.13-0.18-0.27-0.27-0.45h0.04l0.04,0.04l0.04-0.04h0.04v-0.04l0,0
			c-0.09-0.09-0.13-0.18-0.18-0.31l0.04-0.04c0.04,0.04,0.09,0.09,0.13,0.09c0-0.04,0-0.04,0-0.09c0,0,0-0.04,0.04-0.04l0,0
			l0.04,0.04c0,0,0.04,0,0.09,0.04l0.22,0.27c0.04,0.04,0,0.09,0,0.09h-0.04c0.04,0.04,0.04,0.09,0.09,0.13
			c0.09,0.13,0.22,0.31,0.27,0.45l0,0c0,0,0,0,0.04,0.09c0.04,0.04,0.04,0.04,0.04,0.04c0,0.04,0.04,0.04,0.04,0.09
			c-0.09,0-0.18,0.04-0.27,0.04C173.67,31.41,173.67,31.41,173.67,31.41z"/>
		<path class="st0" d="M177.8,39.26c0.22,0.31-0.22,0.54-0.22,0.54c-0.63,1.35-0.22,1.88-0.22,1.88c0.4,0.4,0.4,1.88,0.4,1.88
			c-0.04,0.54,0.27,0.58,0.27,0.58c0.63,0.49,0.31,0.85,0.31,0.85c-0.13,0.31,0.04,0.58,0.04,0.58c0.54,0.45,0.09,0.67,0.09,0.67
			c-0.31,0.76,0.63,0.72,0.63,0.72c1.21-5.3-0.45-8.44-0.45-8.44c-0.4,0.27-0.54,0.31-0.54,0.31
			C177.67,38.81,177.8,39.26,177.8,39.26z"/>
		<polygon class="st0" points="8.84,22.39 0,64.03 10.05,64.03 18.85,22.39 		"/>
		<polygon class="st0" points="20.82,13.23 10.77,13.23 9.38,19.83 19.39,19.83 		"/>
		<path class="st0" d="M55.65,27.05c0-1.53-0.4-2.78-1.26-3.86c-0.85-1.03-2.11-1.57-3.77-1.57c-1.26,0-2.47,0.4-3.68,1.17
			c-1.21,0.81-2.38,1.97-3.5,3.55c-0.81-3.14-2.56-4.71-5.16-4.71c-1.35,0-2.6,0.4-3.81,1.17c-1.21,0.81-2.38,1.97-3.46,3.55
			L32,22.39h-9.65l-8.84,41.65h9.47l6.1-28.9c0.4-2.02,0.72-3.32,0.9-3.95c0.18-0.63,0.45-1.12,0.85-1.57
			c0.4-0.45,0.81-0.63,1.26-0.63c0.67,0,1.03,0.4,0.99,1.21c0,0.81-0.45,3.28-1.35,7.36l-5.61,26.48h9.47l5.74-27.15
			c0.76-3.59,1.35-5.79,1.71-6.64c0.36-0.85,0.9-1.26,1.62-1.26c0.67,0,1.03,0.4,1.03,1.26c0,0.85-0.36,3.05-1.12,6.6l-5.74,27.2
			h9.47l6.28-29.62C55.24,31.05,55.6,28.58,55.65,27.05z"/>
		<path class="st0" d="M81.5,26.87c0-1.39-0.4-2.6-1.3-3.68s-2.06-1.57-3.59-1.57c-1.26,0-2.47,0.36-3.64,1.12
			c-1.21,0.72-2.38,1.84-3.59,3.32l0.94-3.68H60.4L50.31,70h9.74l2.02-9.56c0.54,1.44,1.26,2.56,2.11,3.28
			c0.85,0.72,1.93,1.12,3.1,1.12c1.53,0,2.92-0.49,4.17-1.44c1.26-0.94,2.24-2.24,2.92-3.81c0.67-1.62,1.44-4.31,2.24-8.08
			l3.72-17.55C81.14,30.6,81.5,28.26,81.5,26.87z M70.55,34.5l-3.77,17.86c-0.45,2.2-0.85,3.64-1.12,4.17
			c-0.27,0.58-0.72,0.85-1.35,0.85c-0.63,0-0.99-0.31-1.03-0.94s0.18-2.2,0.72-4.71l3.68-17.28c0.49-2.42,0.94-3.9,1.26-4.53
			c0.31-0.63,0.81-0.94,1.44-0.94c0.67,0,0.99,0.27,1.03,0.81C71.35,30.37,71.08,31.94,70.55,34.5z"/>
		<path class="st0" d="M103.75,23.91c-1.35-1.53-3.68-2.29-6.96-2.29c-2.74,0-5.12,0.67-7.14,2.02c-2.02,1.35-3.46,2.87-4.4,4.62
			c-0.94,1.75-1.75,4.22-2.42,7.45l-0.58,2.78h9.15l0.94-4.35c0.49-2.33,0.9-3.77,1.17-4.31c0.27-0.54,0.76-0.85,1.39-0.85
			c0.58,0,0.94,0.31,1.03,0.99s-0.04,2.06-0.54,4.26c-0.36,1.75-0.72,2.87-1.08,3.46c-0.36,0.58-2.29,1.66-5.83,3.28
			c-3.32,1.53-5.47,2.83-6.46,3.95c-0.99,1.12-1.84,3.28-2.47,6.37l-0.72,3.41c-0.9,4.22-0.76,6.91,0.4,8.17
			c1.17,1.26,2.6,1.88,4.31,1.88c1.3,0,2.51-0.36,3.59-1.12s2.11-1.84,3.01-3.37l-0.85,3.77h9.47l4.44-20.91
			c1.48-6.87,2.24-11.44,2.38-13.64C105.73,27.28,105.1,25.44,103.75,23.91z M91.41,52.81c-0.45,2.11-0.81,3.37-1.08,3.86
			c-0.27,0.49-0.72,0.72-1.35,0.72c-0.63,0-0.99-0.31-1.08-0.94s0.09-2.02,0.54-4.17c0.4-1.88,0.81-3.32,1.3-4.35
			c0.45-0.99,1.62-2.24,3.5-3.72L91.41,52.81z"/>
		<path class="st0" d="M117.53,51.87c-0.45,2.15-0.9,3.64-1.3,4.4c-0.4,0.76-0.94,1.17-1.57,1.17c-0.58,0-0.9-0.36-1.03-1.12
			c-0.13-0.76-0.04-1.84,0.27-3.37l4.17-19.66c0.4-1.84,0.72-3.01,1.03-3.5c0.31-0.54,0.72-0.76,1.3-0.76c0.58,0,0.9,0.31,0.99,0.9
			s-0.04,1.75-0.4,3.41l-1.03,4.8h9.2c0.81-3.9,1.17-6.96,1.03-9.07c-0.13-2.15-0.99-3.9-2.47-5.3c-1.53-1.39-3.55-2.11-6.06-2.11
			c-2.56,0-4.89,0.72-6.96,2.11c-2.06,1.39-3.59,3.01-4.53,4.8c-0.94,1.8-1.75,4.49-2.51,7.99l-2.51,11.85
			c-0.85,4.04-1.21,7.18-0.99,9.42c0.18,2.2,0.99,3.9,2.33,5.16c1.35,1.21,3.41,1.84,6.15,1.84c2.15,0,4.04-0.45,5.7-1.35
			c1.66-0.9,3.1-2.2,4.4-3.95c1.26-1.75,2.2-3.46,2.69-5.12c0.54-1.66,1.12-4.17,1.88-7.49h-8.66L117.53,51.87z"/>
	</g>
</g>
</svg>
