<svg width="139" height="127" viewBox="0 0 139 127" fill="none" xmlns="http://www.w3.org/2000/svg">
<path d="M129.76 75.397C132.54 68.3919 133.675 60.8425 133.076 53.3302C132.477 45.818 130.162 38.5432 126.308 32.0663L47.5977 42.9596L123.027 27.2469C118.438 21.2751 112.535 16.439 105.776 13.113C99.0175 9.78693 91.5836 8.06017 84.05 8.06636C56.8877 8.06636 34.8684 30.0756 34.8684 57.2253C34.8689 59.4692 35.0218 61.7104 35.3261 63.9335L129.76 75.397Z" fill="#F3F3F3"/>
<path d="M38.1558 74.9246C45.2645 93.3282 63.1306 106.384 84.05 106.384C103.68 106.384 120.621 94.888 128.509 78.2652L38.1558 74.9246Z" fill="white"/>
<path d="M127.294 92.0219C127.294 111.34 98.7971 127 63.6468 127C44.763 127 27.8001 122.481 16.1451 115.302C8.54025 110.619 3.19392 104.803 1.04921 98.3759C0.357029 96.3288 0.00266281 94.1827 0 92.0219C0 72.7053 52.7439 -14.4294 63.6468 57.0458C74.5497 128.521 127.294 72.7053 127.294 92.0219Z" fill="#FF8500"/>
<path opacity="0.1" d="M95.2773 104.707C95.2773 111.84 72.7405 117.623 44.9385 117.623C34.2304 117.623 24.3034 116.765 16.1451 115.302C8.54026 110.619 3.19394 104.803 1.04922 98.3759C9.68011 94.4451 26.101 91.7905 44.9385 91.7905C72.7405 91.7905 95.2773 97.5739 95.2773 104.707Z" fill="black"/>
<path d="M58.9413 31.1359C54.9519 24.3981 47.0592 24.0841 47.0592 24.0841C47.0592 24.0841 39.3681 23.1011 34.4344 33.3628C29.8358 42.9275 23.489 52.1625 33.4126 54.4015L35.2051 48.8251L36.3152 54.8167C37.7281 54.9183 39.1456 54.9425 40.5611 54.8892C51.1885 54.5463 61.3094 54.9896 60.9836 51.1778C60.5504 46.1105 62.7799 37.619 58.9413 31.1359Z" fill="#4F4F4F"/>
<path d="M32.846 90.1417C32.6981 90.8771 32.5886 91.6247 32.3371 92.3314C32.0875 93.0331 31.7021 93.682 31.4738 94.3909C30.7462 96.6505 31.7549 99.17 33.3658 100.914C34.7629 102.421 36.5661 103.491 38.5581 103.996C40.0114 104.361 41.5225 104.414 43.0202 104.465C47.1674 104.605 51.4213 104.731 55.351 103.399C56.5926 102.967 57.7918 102.423 58.9335 101.772C59.294 101.6 59.6116 101.35 59.8631 101.04C60.1628 100.614 60.2011 100.061 60.1985 99.5395C60.1897 97.7822 59.8333 96.0339 59.9179 94.2786C59.9648 93.3063 60.1468 92.3348 60.0572 91.3656C59.854 89.1674 58.1077 87.2 55.9484 86.7365C54.8336 86.4973 53.6773 86.6276 52.5424 86.7367C49.5963 87.0197 46.6378 87.1519 43.6782 87.1329C40.6543 87.1136 37.6491 86.6522 34.6402 86.604C33.7504 86.5898 33.7684 86.864 33.4851 87.7247C33.2242 88.517 33.0108 89.3241 32.846 90.1417Z" fill="#808080"/>
<path d="M41.4276 46.7498C41.2823 47.5103 41.1252 48.2986 40.668 48.9237C40.1419 49.6427 39.2841 50.0536 38.7182 50.7418C37.8663 51.7776 37.8174 53.2352 37.8139 54.5761C37.8107 55.8114 37.8358 57.1289 38.5249 58.1543C38.9722 58.8197 39.6528 59.2863 40.3179 59.7343C42.9024 61.4752 45.6952 63.2474 48.8113 63.3048C50.1024 63.3286 51.4867 62.9953 52.3363 62.0232C52.7031 61.5666 52.9915 61.0523 53.1897 60.5013C53.9865 58.5381 54.4695 56.462 54.621 54.3488C54.692 53.3546 54.6852 52.3315 54.3485 51.3933C53.97 50.3383 53.2046 49.4703 52.6987 48.4701C52.1007 47.2807 51.882 45.9367 52.072 44.6192C52.0972 44.5264 52.0894 44.4278 52.05 44.3401C52.0084 44.2932 51.9565 44.2565 51.8984 44.233C51.8402 44.2094 51.7774 44.1996 51.7149 44.2044L45.5362 43.7598C44.9607 43.7312 44.3877 43.6657 43.8207 43.5636C43.4876 43.4959 42.6079 43.0231 42.2903 43.1488C41.7024 43.3816 41.5481 46.1191 41.4276 46.7498Z" fill="#FFB5B5"/>
<path opacity="0.1" d="M41.4276 46.9425C41.2823 47.703 41.1252 48.4914 40.668 49.1164C40.1419 49.8355 39.2841 50.2464 38.7182 50.9345C37.8663 51.9704 37.8174 53.428 37.8139 54.7689C37.8107 56.0041 37.8358 57.3217 38.5249 58.347C38.9722 59.0125 39.6528 59.479 40.3179 59.927C42.9024 61.668 45.6952 63.4402 48.8113 63.4976C50.1024 63.5214 51.4867 63.1881 52.3363 62.216C52.7031 61.7594 52.9915 61.2451 53.1897 60.6941C53.9865 58.7309 54.4695 56.6547 54.621 54.5416C54.692 53.5474 54.6852 52.5242 54.3485 51.586C53.97 50.5311 53.2046 49.6631 52.6987 48.6629C52.1007 47.4735 51.882 46.1294 52.072 44.812C52.0972 44.7192 52.0894 44.6206 52.05 44.5329C52.0084 44.486 51.9565 44.4493 51.8984 44.4257C51.8402 44.4022 51.7774 44.3924 51.7149 44.3971L45.5362 43.9526C44.9607 43.924 44.3877 43.8584 43.8207 43.7564C43.4876 43.6887 42.6079 43.2159 42.2903 43.3416C41.7024 43.5743 41.5481 46.3118 41.4276 46.9425Z" fill="black"/>
<path d="M47.3364 47.5779C52.3428 47.5779 56.4013 43.5213 56.4013 38.5172C56.4013 33.5131 52.3428 29.4565 47.3364 29.4565C42.33 29.4565 38.2716 33.5131 38.2716 38.5172C38.2716 43.5213 42.33 47.5779 47.3364 47.5779Z" fill="#FFB5B5"/>
<path d="M42.699 58.8109C43.1715 59.3045 43.6721 59.7933 44.2912 60.0826C44.907 60.3705 45.6008 60.4421 46.2803 60.4612C47.9143 60.5071 49.6857 60.2079 50.8224 59.0337C52.2877 57.52 52.2394 55.0787 53.388 53.3129C53.4805 53.1528 53.6068 53.0147 53.758 52.9083C53.9507 52.8035 54.1684 52.7534 54.3875 52.7636C55.8381 52.7501 57.1017 53.6904 58.242 54.5866C58.7529 54.988 59.2764 55.404 59.5987 55.968C59.8242 56.4077 59.9786 56.8804 60.0562 57.3684C60.6221 60.1296 60.8054 62.9529 60.9873 65.7656C61.0878 67.3191 61.1883 68.8742 61.1808 70.431C61.1562 75.56 59.9635 80.6032 58.7775 85.5934C58.6246 86.2364 58.4155 86.9551 57.8305 87.2631C57.5698 87.3803 57.2897 87.4486 57.0042 87.4647C53.6071 87.8634 50.203 88.2627 46.783 88.3153C45.4483 88.3359 44.1143 88.3036 42.7808 88.2185C42.5512 88.2154 42.3236 88.1758 42.1066 88.101C41.812 87.9596 41.5589 87.7447 41.3716 87.4771C39.5216 85.147 39.4124 81.9256 39.4243 78.951C39.4532 71.6784 39.7131 64.4115 40.2041 57.1505C40.2447 56.5512 40.2535 55.8233 39.8215 55.3518C40.5994 56.5966 41.6814 57.7479 42.699 58.8109Z" fill="#D0CDE1"/>
<path d="M40.7789 48.3491C40.4727 48.903 38.2155 50.2786 37.7797 50.7377C35.345 53.3029 30.9013 53.2066 28.6745 55.9541C27.8911 56.9208 27.4841 58.1354 27.1847 59.3429C26.7613 61.0507 26.5352 62.9133 27.2445 64.5236C27.927 66.0731 29.3636 67.1443 30.3391 68.5284C31.4101 70.0481 31.8916 71.8934 32.3531 73.6942C32.6938 75.0238 33.0374 76.3864 32.9047 77.7525C32.7538 79.3057 32.0018 80.728 31.5578 82.2241C31.1138 83.7202 31.0372 85.5021 32.0638 86.6779C32.8179 87.5417 34.0009 87.8842 35.1316 88.0768C36.5749 88.3227 38.0416 88.3927 39.5043 88.4573C40.7968 88.5144 42.2216 88.5255 43.2153 87.6972C43.9993 87.0437 44.3401 85.9832 44.3842 84.9637C44.4283 83.9443 44.2161 82.9338 44.0832 81.9221C43.9454 80.8733 43.8924 79.8153 43.8481 78.7585C43.6493 74.0163 43.6222 69.2712 43.7667 64.5229C43.7969 63.5349 43.8334 62.5347 43.6226 61.5689C43.3454 60.2988 42.6586 59.1636 42.0855 57.9966C40.9481 55.6801 40.4102 53.4299 40.586 50.8552C40.7595 48.3139 41.8683 46.3778 40.7789 48.3491Z" fill="#727272"/>
<path d="M53.5082 48.5417C53.9746 49.0208 55.5592 49.1788 56.1524 49.4873C56.6973 49.7707 57.3003 49.9188 57.8906 50.0888C60.0544 50.7128 62.1126 51.657 63.9967 52.89C64.3882 53.119 64.7343 53.4178 65.0179 53.7716C65.3497 54.2331 65.4702 54.8089 65.5827 55.366C65.8732 56.8042 66.1651 58.2597 66.0998 59.7254C66.0305 61.2812 65.5617 62.7881 65.0965 64.2745L63.3585 69.8283C62.0612 73.9739 60.7557 78.1603 60.3907 82.4885C60.1887 84.8874 60.2785 87.3019 60.6581 89.6791C60.6963 89.9181 60.7283 90.192 60.5704 90.3755C60.4559 90.4887 60.3052 90.558 60.1448 90.5713C59.306 90.7024 58.4942 90.2749 57.7342 89.8966C55.4112 88.7411 52.9322 87.9303 50.3752 87.4898C51.3744 86.0465 52.1453 84.458 52.6609 82.7802C52.9537 81.7148 53.1843 80.6334 53.3515 79.5412L54.16 74.8673C54.4564 73.1534 54.7534 71.435 54.8535 69.6986C54.9146 69.0476 54.8767 68.3912 54.741 67.7516C54.5861 67.1345 54.2783 66.569 54.0025 65.9957C52.6701 63.2253 52.0449 60.0639 52.5692 57.035C52.7986 55.7095 53.2445 54.3822 53.0586 53.0499C52.8798 51.7689 53.0656 50.7734 52.7368 49.5057C51.3867 44.3006 52.6309 47.6405 53.5082 48.5417Z" fill="#727272"/>
<path d="M28.6515 60.3342C28.044 61.5942 27.0285 62.6676 26.6828 64.0229C26.5483 64.6563 26.4907 65.3036 26.5112 65.9507C26.503 66.9261 26.4977 67.9213 26.7973 68.8496C26.9902 69.4473 27.3041 69.9985 27.5302 70.5844C27.8454 71.403 27.9858 72.2784 27.9424 73.1544C27.8814 74.3681 27.4689 75.5462 27.4367 76.761C27.386 78.6713 28.27 80.4671 29.1325 82.1726C29.3496 81.6352 29.6816 81.1517 30.1051 80.7559C30.5287 80.3602 31.0337 80.0617 31.5847 79.8814C32.1358 79.701 32.7196 79.6432 33.2953 79.712C33.871 79.7808 34.4247 79.9744 34.9178 80.2794C35.1453 80.0694 35.1696 79.7245 35.1785 79.415C35.2423 77.1987 35.3038 74.9824 35.363 72.766C35.4564 69.3382 35.5453 65.8646 34.7564 62.5275C34.4002 61.0207 33.846 59.5198 32.83 58.3512C32.2951 57.7358 30.4789 56.1149 29.6008 56.8043C29.2058 57.1143 29.2981 57.9582 29.2356 58.3855C29.1411 59.061 28.9441 59.7181 28.6515 60.3342Z" fill="#727272"/>
<path d="M66.2774 56.7033C66.5647 57.5976 66.5819 58.5531 66.5876 59.4923C66.5993 61.4082 66.5739 63.3239 66.5114 65.2392C66.4794 66.2198 66.4353 67.2139 66.1379 68.1488C65.9417 68.7654 65.639 69.3436 65.4364 69.9581C64.8293 71.7997 65.161 73.7971 65.2131 75.7355C65.2498 76.3629 65.1962 76.9923 65.054 77.6044C64.7336 78.806 63.8725 79.777 63.2715 80.8658C62.7007 81.8999 62.3563 83.0591 61.6746 84.0238C60.9929 84.9884 59.8128 85.7528 58.6689 85.4567C57.8022 85.2323 57.1864 84.4655 56.7604 83.6784C55.8309 81.9478 55.513 79.9543 55.8582 78.0207C56.2858 75.668 57.6684 73.581 58.167 71.2424C58.8517 68.0309 57.8111 64.717 57.842 61.4336C57.8279 60.9189 57.8978 60.4054 58.0488 59.9131C58.3104 59.1631 58.8721 58.5642 59.391 57.9627C60.0394 57.211 60.6418 56.4208 61.1948 55.5965C61.5663 55.0427 62.0708 53.6184 62.7295 53.5C64.1999 53.2356 65.9126 55.5678 66.2774 56.7033Z" fill="#727272"/>
<path d="M21.0215 88.7135C20.2083 88.5092 19.3705 88.4202 18.5325 88.449C17.6521 88.4977 16.7922 88.7331 16.0098 89.1397C15.2275 89.5462 14.5407 90.1146 13.9952 90.807C13.4496 91.4994 13.0578 92.3 12.8458 93.1554C12.6337 94.0109 12.6063 94.9017 12.7653 95.7686C12.9385 96.7122 13.3274 97.6019 13.7516 98.4624C14.4116 99.8013 15.2033 101.137 16.4253 101.995C17.1401 102.497 17.9674 102.81 18.7849 103.118L25.2206 105.541C26.1674 105.898 27.1143 106.254 28.0705 106.585C32.8741 108.244 37.8822 109.24 42.9556 109.543C44.5009 109.635 46.0697 109.66 47.5772 109.309C47.935 109.225 48.3166 109.101 48.5237 108.797C48.6464 108.584 48.7187 108.345 48.7352 108.099L49.1312 105.328C49.187 104.938 49.2407 104.527 49.0976 104.16C48.9162 103.694 48.4614 103.401 48.0278 103.152C43.7968 100.723 38.8565 99.3832 35.2951 96.0494C34.4567 95.2646 33.7551 94.0206 32.7365 93.4875C31.5814 92.8829 30.221 92.5379 29.027 91.9808C26.4168 90.763 23.8504 89.3635 21.0215 88.7135Z" fill="#808080"/>
<path opacity="0.1" d="M27.4467 92.4494C29.7214 93.1619 39.3256 98.0979 40.9717 99.8213C40.7511 99.9008 33.2645 95.7071 33.0398 95.6397C30.9978 95.0271 28.9445 94.4106 27.0053 93.5141C26.6152 93.3337 24.4709 92.4861 24.568 91.9941C24.6776 91.4389 27.0428 92.3229 27.4467 92.4494Z" fill="black"/>
<path d="M55.826 110.98C55.9551 110.989 56.0832 110.952 56.1866 110.874C56.2319 110.815 56.2652 110.749 56.2846 110.678C56.3039 110.606 56.3089 110.532 56.2993 110.459C56.2958 109.2 56.2922 107.942 56.2887 106.684C55.2026 106.166 53.9877 106.001 52.7952 105.841L47.2312 105.098C47.359 105.115 46.3612 107.493 46.5142 107.811C46.7838 108.37 48.8446 108.866 49.4262 109.131C51.448 110.049 53.5489 111.059 55.826 110.98Z" fill="#FFB5B5"/>
<path d="M38.369 106.671C37.3184 106.838 36.1459 106.986 35.4655 107.803C34.6028 108.84 34.9701 110.385 35.3816 111.669C35.4428 111.929 35.5655 112.17 35.7395 112.372C36.0204 112.649 36.4508 112.69 36.8446 112.715C37.8026 112.776 38.8222 112.823 39.6593 112.353C40.0557 112.131 40.3834 111.806 40.7527 111.541C41.37 111.13 42.0486 110.82 42.7631 110.622C44.0766 110.209 45.4287 109.931 46.7985 109.791C47.3355 109.736 47.8831 109.701 48.3882 109.511C48.8933 109.321 49.361 108.944 49.5078 108.425C49.7017 107.738 49.3027 107.039 48.9201 106.437C48.4435 105.688 47.9386 104.899 47.228 104.347C46.1912 103.542 45.6784 104.16 44.634 104.675C42.6574 105.65 40.5455 106.323 38.369 106.671Z" fill="#FFB5B5"/>
<path d="M35.6236 107.617L28.9531 105.646C28.1419 105.406 27.3167 105.164 26.4708 105.165C25.6248 105.166 24.7398 105.443 24.1911 106.087C23.6739 106.693 23.5258 107.523 23.3969 108.309L23.121 109.992C22.9808 110.847 22.8404 111.719 22.9666 112.576C23.0927 113.434 23.5306 114.29 24.2917 114.705C25.2148 115.209 26.3461 114.963 27.3763 114.752C29.4573 114.327 31.5738 114.1 33.6976 114.075C34.4961 114.065 35.3335 114.075 36.039 113.702C36.8777 113.257 37.3794 112.318 37.4657 111.373C37.5969 109.936 37.1176 108.058 35.6236 107.617Z" fill="#808080"/>
<path d="M58.448 105.899C59.3128 105.748 60.0759 105.256 60.9045 104.966C62.0708 104.558 63.3347 104.558 64.5704 104.563C65.0241 104.564 65.5071 104.575 65.8847 104.826C66.429 105.188 66.5685 105.913 66.6611 106.56C66.8472 107.861 67.0334 109.162 67.2195 110.464C67.3245 111.198 67.4289 111.952 67.2651 112.675C67.1013 113.399 66.608 114.096 65.8898 114.283C65.0175 114.509 64.1624 113.952 63.3388 113.587C61.2804 112.672 58.8875 112.906 56.7412 112.222C56.3429 112.096 55.9163 111.902 55.7538 111.517C55.6804 111.3 55.6542 111.07 55.677 110.842C55.7137 109.587 55.449 107.874 55.8269 106.675C56.1668 105.596 57.4828 105.899 58.448 105.899Z" fill="#808080"/>
<path d="M72.5643 87.1424C73.8972 86.8083 75.2789 86.7139 76.6448 86.8637C77.7357 86.9838 78.8596 87.2873 79.6561 88.042C80.6255 88.9605 80.937 90.3812 80.963 91.7161C81.0056 94.3749 80.1233 96.9661 78.4669 99.0469C78.0624 99.5732 77.5814 100.036 77.0398 100.42C76.4556 100.785 75.833 101.085 75.1832 101.314L60.7705 106.997C56.9788 108.491 53.1738 109.991 49.2189 110.976C49.1107 111.028 48.9933 111.058 48.8734 111.064C48.7534 111.071 48.6335 111.053 48.5206 111.012C48.4078 110.971 48.3042 110.908 48.2161 110.826C48.1279 110.745 48.057 110.646 48.0075 110.537C46.7447 108.734 45.6853 106.797 44.8486 104.761C44.809 104.713 44.7816 104.656 44.7688 104.595C44.756 104.533 44.7581 104.47 44.775 104.41C44.7919 104.35 44.823 104.294 44.8658 104.249C44.9085 104.203 44.9617 104.168 45.0207 104.148L55.2149 98.2932C55.9451 97.8738 56.6834 97.4484 57.2898 96.8642C57.7303 96.4374 58.0911 95.9354 58.355 95.3818C58.5663 94.9407 58.5861 93.8996 58.856 93.5735C59.1202 93.2542 60.0243 93.2288 60.4418 93.1032C61.0306 92.9229 61.6073 92.705 62.1682 92.4509C64.4485 91.4312 66.4791 89.9497 68.6652 88.7557C69.8913 88.055 71.2015 87.5129 72.5643 87.1424Z" fill="#808080"/>
<path opacity="0.1" d="M66.7851 91.5145C65.0337 92.8293 62.7659 94.0379 61.0301 95.3874C60.4377 95.8479 50.5619 101.398 50.4223 102.135C52.0417 102.407 62.3576 95.194 63.8336 94.4742C65.3095 93.7544 66.6179 92.7394 67.9144 91.7318C68.2448 91.4751 69.645 90.7032 68.6965 90.4163C68.1622 90.2547 67.1795 91.2516 66.7851 91.5145Z" fill="black"/>
<path d="M54.7341 48.6692H39.3601C38.7355 48.6692 38.1365 48.9172 37.6948 49.3587C37.2532 49.8001 37.005 50.3989 37.005 51.0232V51.8852H36.838V53.813H37.005V55.1625H36.838V56.3191H37.005V70.5436C37.005 71.1679 37.2532 71.7666 37.6948 72.2081C38.1365 72.6495 38.7355 72.8976 39.3601 72.8976H54.7341C55.3587 72.8976 55.9578 72.6495 56.3994 72.2081C56.8411 71.7666 57.0892 71.1679 57.0892 70.5436V51.0232C57.0892 50.3989 56.8411 49.8001 56.3994 49.3587C55.9578 48.9172 55.3587 48.6692 54.7341 48.6692Z" fill="#808080"/>
<path d="M57.1776 30.4864L49.3799 26.4037L38.6117 28.074L36.3839 37.9093L41.9298 37.696L43.4791 34.0826V37.6365L46.0381 37.5381L47.5234 31.7854L48.4516 37.9093L57.5489 37.7237L57.1776 30.4864Z" fill="#4F4F4F"/>
<path d="M30.6915 85.8683C31.0768 86.4432 31.5282 87.0055 32.147 87.3157C32.9203 87.7032 33.8748 87.634 34.6491 87.2486C35.4168 86.8372 36.0452 86.2075 36.4548 85.4391C37.3022 83.9433 37.4777 82.1535 37.372 80.4377C37.2662 78.722 36.8997 77.0326 36.7375 75.3213C36.6196 74.0773 36.61 72.8258 36.6005 71.5763C36.5985 71.3137 36.6028 71.0308 36.758 70.8189C36.9457 70.5627 37.2893 70.4921 37.5939 70.4017C39.3042 69.8937 40.4395 68.2914 41.2534 66.7043C41.7969 65.6446 42.2695 64.4862 42.1647 63.3C42.0599 62.1137 41.2068 60.9187 40.0216 60.7977C39.0445 60.6979 38.1423 61.3183 37.4374 62.002C35.6593 63.7377 34.5166 66.0203 34.1928 68.4833C34.0381 69.6895 34.0824 70.9284 33.7542 72.0993C33.0535 74.5994 30.8608 76.1323 29.7682 78.3819C28.5642 80.8608 29.2287 83.675 30.6915 85.8683Z" fill="#FFB5B5"/>
<path d="M62.9572 76.3169C62.7079 76.8967 62.3449 77.4207 61.8896 77.858C61.4343 78.2953 60.8959 78.6369 60.3064 78.8628C59.5735 79.1571 58.7652 79.2065 58.0019 79.0039C57.6234 78.8989 57.2742 78.7082 56.9814 78.4464C56.6886 78.1847 56.4602 77.859 56.3138 77.4946C56.197 77.1276 56.133 76.7459 56.1236 76.361C56.0139 74.675 56.0563 72.9376 56.669 71.363C56.9053 70.7557 57.2239 70.1797 57.4104 69.5553C57.6232 68.8431 57.6571 68.0916 57.6896 67.349L57.891 62.7489C57.9243 62.4149 57.9012 62.0777 57.8227 61.7514C57.6218 61.0858 56.9994 60.6532 56.4283 60.2563C55.0492 59.2976 53.6863 58.179 53.0181 56.6385C52.8136 56.1671 52.6786 55.6432 52.7824 55.14C52.9708 54.2265 53.8931 53.6351 54.8047 53.4359C55.4011 53.3055 56.0178 53.2972 56.6176 53.4114C57.2173 53.5256 57.7877 53.76 58.2944 54.1005C58.8011 54.4409 59.2336 54.8803 59.5659 55.3923C59.8982 55.9043 60.1233 56.4782 60.2278 57.0794C60.318 57.5986 60.3167 58.1289 60.3695 58.6531C60.4815 59.7652 60.8347 60.8372 61.0557 61.9328C61.5999 64.6317 61.3179 67.4215 61.8561 70.1199C62.3062 72.3761 64.0031 73.8482 62.9572 76.3169Z" fill="#FFB5B5"/>
<path d="M47.2529 59.018C48.3181 59.018 49.1816 58.1549 49.1816 57.0902C49.1816 56.0255 48.3181 55.1624 47.2529 55.1624C46.1877 55.1624 45.3242 56.0255 45.3242 57.0902C45.3242 58.1549 46.1877 59.018 47.2529 59.018Z" fill="#D0CDE1"/>
<path d="M128.667 59.1542C126.624 59.1542 124.626 59.7599 122.927 60.8947C121.228 62.0296 119.903 63.6426 119.121 65.5297C118.339 67.4169 118.135 69.4935 118.533 71.4969C118.932 73.5003 119.916 75.3405 121.361 76.7849C122.806 78.2293 124.647 79.2129 126.652 79.6114C128.656 80.0099 130.734 79.8054 132.622 79.0237C134.51 78.242 136.123 76.9183 137.259 75.2198C138.394 73.5214 139 71.5247 139 69.482C139 68.1257 138.733 66.7827 138.214 65.5297C137.694 64.2767 136.933 63.1382 135.974 62.1791C135.014 61.2201 133.875 60.4594 132.622 59.9403C131.368 59.4213 130.024 59.1542 128.667 59.1542ZM133.774 66.8626C133.779 66.9741 133.782 67.0884 133.782 67.2026C133.782 70.687 131.132 74.7045 126.28 74.7045C124.848 74.7076 123.446 74.2936 122.247 73.5131C122.455 73.5381 122.665 73.5508 122.875 73.5512C124.062 73.5533 125.216 73.1556 126.149 72.4223C125.599 72.412 125.065 72.23 124.624 71.9017C124.182 71.5735 123.854 71.1155 123.686 70.5918C123.849 70.6246 124.015 70.641 124.181 70.6407C124.416 70.6407 124.649 70.6096 124.875 70.5483C124.279 70.4277 123.742 70.1045 123.357 69.6335C122.971 69.1625 122.761 68.5727 122.761 67.9642V67.9316C123.127 68.1374 123.538 68.2504 123.958 68.2607C123.399 67.8883 123.003 67.3169 122.851 66.663C122.699 66.0091 122.802 65.3217 123.139 64.741C123.8 65.5561 124.625 66.2227 125.561 66.6975C126.497 67.1723 127.523 67.4445 128.571 67.4964C128.525 67.2994 128.502 67.0976 128.503 66.8953C128.502 66.3667 128.661 65.8503 128.958 65.413C129.255 64.9758 129.677 64.6381 130.169 64.4438C130.66 64.2496 131.199 64.2077 131.715 64.3238C132.231 64.4399 132.7 64.7085 133.061 65.0946C133.651 64.9792 134.218 64.763 134.735 64.4554C134.538 65.0659 134.126 65.5841 133.575 65.9133C134.097 65.85 134.607 65.7098 135.088 65.4972C134.735 66.0267 134.29 66.4891 133.774 66.8626Z" fill="#808080"/>
<path d="M125.345 32.2627C126.359 32.2627 127.181 31.441 127.181 30.4275C127.181 29.4139 126.359 28.5923 125.345 28.5923C124.331 28.5923 123.509 29.4139 123.509 30.4275C123.509 31.441 124.331 32.2627 125.345 32.2627Z" fill="#808080"/>
<path d="M127.64 25.8395H123.05C122.442 25.8413 121.859 26.0835 121.429 26.5133C120.999 26.9432 120.757 27.5256 120.755 28.1335V32.7215C120.757 33.3293 120.999 33.9118 121.429 34.3416C121.859 34.7714 122.442 35.0137 123.05 35.0155H127.64C128.248 35.0137 128.831 34.7714 129.261 34.3416C129.691 33.9118 129.933 33.3293 129.935 32.7215V28.1335C129.933 27.5256 129.691 26.9432 129.261 26.5133C128.831 26.0835 128.248 25.8413 127.64 25.8395H127.64ZM125.345 33.1803C124.8 33.1803 124.268 33.0188 123.815 32.7163C123.362 32.4138 123.009 31.9839 122.801 31.4809C122.592 30.9779 122.538 30.4244 122.644 29.8904C122.75 29.3564 123.012 28.8659 123.398 28.4809C123.783 28.096 124.273 27.8338 124.808 27.7276C125.342 27.6214 125.896 27.6759 126.399 27.8842C126.902 28.0926 127.332 28.4454 127.635 28.8981C127.938 29.3508 128.099 29.883 128.099 30.4275C128.099 31.1575 127.809 31.8576 127.292 32.3738C126.776 32.89 126.075 33.1801 125.345 33.1803ZM128.329 28.1335C128.192 28.1335 128.059 28.0931 127.946 28.0175C127.833 27.9419 127.745 27.8344 127.692 27.7086C127.64 27.5829 127.627 27.4445 127.653 27.311C127.68 27.1775 127.745 27.0549 127.842 26.9586C127.938 26.8624 128.061 26.7968 128.194 26.7703C128.328 26.7437 128.466 26.7574 128.592 26.8095C128.718 26.8616 128.825 26.9498 128.901 27.0629C128.977 27.1761 129.017 27.3092 129.017 27.4453C129.017 27.5357 129 27.6253 128.965 27.7089C128.931 27.7925 128.88 27.8685 128.816 27.9324C128.752 27.9963 128.676 28.047 128.592 28.0815C128.509 28.116 128.419 28.1337 128.329 28.1335V28.1335Z" fill="#808080"/>
<path d="M125.227 19.6361C123.073 19.6361 120.967 20.2747 119.175 21.471C117.384 22.6674 115.988 24.3678 115.164 26.3573C114.339 28.3468 114.123 30.5359 114.544 32.6479C114.964 34.76 116.001 36.7 117.525 38.2226C119.048 39.7453 120.989 40.7823 123.102 41.2024C125.215 41.6225 127.405 41.4069 129.396 40.5828C131.386 39.7587 133.087 38.3632 134.284 36.5727C135.481 34.7823 136.12 32.6772 136.12 30.5238C136.12 29.094 135.838 27.6782 135.291 26.3573C134.743 25.0363 133.941 23.8361 132.929 22.8251C131.918 21.814 130.717 21.012 129.396 20.4649C128.074 19.9177 126.658 19.6361 125.227 19.6361ZM130.853 32.7214C130.851 33.5724 130.511 34.3879 129.909 34.9896C129.307 35.5914 128.491 35.9305 127.64 35.933H123.05C122.199 35.9305 121.383 35.5914 120.781 34.9896C120.179 34.3879 119.839 33.5724 119.837 32.7214V28.1335C119.839 27.2825 120.179 26.467 120.781 25.8653C121.383 25.2635 122.199 24.9244 123.05 24.9219H127.64C128.491 24.9244 129.307 25.2635 129.909 25.8653C130.511 26.467 130.851 27.2825 130.853 28.1335L130.853 32.7214Z" fill="#808080"/>
<path d="M81.0423 0C78.9225 0 76.8503 0.628303 75.0878 1.80546C73.3253 2.98261 71.9515 4.65574 71.1403 6.61327C70.3291 8.57081 70.1169 10.7248 70.5304 12.8029C70.944 14.881 71.9647 16.7899 73.4637 18.2881C74.9626 19.7864 76.8723 20.8067 78.9514 21.22C81.0304 21.6334 83.1854 21.4212 85.1439 20.6104C87.1023 19.7996 88.7762 18.4265 89.9539 16.6647C91.1316 14.903 91.7602 12.8318 91.7602 10.7129C91.7602 9.30609 91.483 7.91303 90.9443 6.61327C90.4057 5.31352 89.6162 4.13253 88.621 3.13775C87.6258 2.14296 86.4442 1.35385 85.1439 0.815474C83.8435 0.277098 82.4498 0 81.0423 0ZM84.4218 6.48229H83.0498C82.1131 6.48229 81.9343 6.92517 81.9343 7.57783V8.96474H84.1653L83.8738 11.1403H81.9343V17.0453H79.4468V11.1403H77.6629V8.96474H79.4468V7.35639C79.4468 5.42949 80.7839 4.38057 82.5057 4.38057C83.3297 4.38057 84.2158 4.44273 84.4218 4.46992L84.4218 6.48229Z" fill="#808080"/>
</svg>
