<svg width="154" height="127" viewBox="0 0 154 127" fill="none" xmlns="http://www.w3.org/2000/svg">
<g clip-path="url(#clip0)">
<path d="M144.931 40.6267C144.931 45.9127 143.669 50.2638 141.481 53.9911C140.758 55.2188 139.939 56.3874 139.029 57.4855C130.984 67.2503 116.028 72.5949 102.51 81.252C62.6078 106.805 58.2856 65.8586 60.0878 40.6267C60.8147 30.4456 64.8097 21.1197 71.1567 13.9791C72.4897 12.4773 73.9296 11.0724 75.4653 9.77531C82.6709 3.68528 91.9801 0 102.51 0C120.576 0 136.003 10.8139 142.12 26.0525C143.979 30.6897 144.933 35.6357 144.931 40.6267Z" fill="#FF8500"/>
<path d="M111.548 9.15607L71.1567 13.9791C72.4897 12.4773 73.9296 11.0724 75.4653 9.77529L111.548 9.15607Z" fill="#D6D6D6"/>
<path d="M141.481 53.9911C140.758 55.2188 139.939 56.3873 139.029 57.4855L104.43 53.3553L141.481 53.9911Z" fill="#D6D6D6"/>
<path d="M143.531 30.2427L84.8941 22.6948L142.12 26.0524C142.669 27.4217 143.141 28.8207 143.531 30.2427Z" fill="#D6D6D6"/>
<path d="M64.0653 10.8217C64.0653 10.9254 64.0623 11.0276 64.0532 11.1283C64.0073 11.7525 63.8218 12.3586 63.51 12.9026C63.1983 13.4466 62.7682 13.9147 62.2511 14.2728C61.734 14.631 61.1429 14.8702 60.5209 14.973C59.8989 15.0758 59.2616 15.0396 58.6555 14.867C58.0494 14.6945 57.4896 14.39 57.0171 13.9756C56.5445 13.5612 56.1711 13.0475 55.9239 12.4718C55.6767 11.896 55.562 11.2728 55.5882 10.6476C55.6144 10.0223 55.7807 9.41071 56.0752 8.85733C56.1664 8.68391 56.2707 8.51761 56.3872 8.35985C56.8943 7.66183 57.6049 7.13495 58.4231 6.85027C59.2414 6.56559 60.1279 6.5368 60.9632 6.76779C61.7985 6.99878 62.5423 7.47843 63.0942 8.14206C63.6462 8.80568 63.9799 9.62134 64.0502 10.479C64.0608 10.5917 64.0653 10.706 64.0653 10.8217Z" fill="#FF8500"/>
<path d="M64.0653 10.8217C64.0653 10.9254 64.0623 11.0276 64.0532 11.1283L57.7047 10.3708L64.0502 10.479C64.0608 10.5917 64.0653 10.7059 64.0653 10.8217Z" fill="#D6D6D6"/>
<path d="M62.5509 12.9424L56.6779 13.6443C56.5112 13.4598 56.3612 13.2612 56.2297 13.0506L62.5509 12.9424Z" fill="#D6D6D6"/>
<path d="M60.885 8.28314L56.0752 8.85728C56.1664 8.68386 56.2707 8.51756 56.3872 8.35979L60.885 8.28314Z" fill="#D6D6D6"/>
<path d="M122.179 86.5902C122.13 86.6818 122.079 86.7707 122.023 86.8554C121.688 87.3854 121.238 87.8345 120.706 88.1699C120.173 88.5054 119.572 88.7188 118.946 88.7946C118.32 88.8704 117.685 88.8067 117.087 88.6081C116.489 88.4095 115.943 88.0811 115.49 87.6467C115.036 87.2123 114.685 86.6829 114.463 86.097C114.242 85.5112 114.154 84.8836 114.208 84.2601C114.262 83.6365 114.455 83.0327 114.773 82.4926C115.092 81.9524 115.527 81.4896 116.049 81.1378C116.211 81.027 116.382 80.9286 116.56 80.8435C117.337 80.4628 118.214 80.328 119.071 80.4572C119.928 80.5865 120.725 80.9735 121.354 81.5661C121.982 82.1587 122.413 82.9284 122.587 83.7714C122.761 84.6144 122.67 85.4901 122.327 86.2805C122.284 86.385 122.234 86.488 122.179 86.5902Z" fill="#FF8500"/>
<path d="M122.179 86.5902C122.13 86.6818 122.079 86.7707 122.023 86.8554L116.773 83.2328L122.327 86.2804C122.284 86.3849 122.234 86.488 122.179 86.5902Z" fill="#D6D6D6"/>
<path d="M119.839 87.7589L114.32 85.6466C114.26 85.4062 114.221 85.1609 114.205 84.9137L119.839 87.7589Z" fill="#D6D6D6"/>
<path d="M120.569 82.8683L116.049 81.1378C116.211 81.027 116.382 80.9287 116.56 80.8435L120.569 82.8683Z" fill="#D6D6D6"/>
<path d="M152.212 14.0456C152.285 14.1199 152.355 14.1951 152.419 14.2735C152.825 14.7521 153.119 15.3147 153.278 15.9201C153.438 16.5256 153.459 17.1587 153.341 17.7734C153.223 18.3881 152.968 18.9689 152.595 19.4735C152.222 19.9781 151.74 20.3938 151.185 20.6903C150.63 20.9868 150.015 21.1566 149.385 21.1874C148.755 21.2182 148.126 21.1091 147.544 20.8683C146.962 20.6274 146.442 20.2607 146.021 19.7949C145.599 19.3292 145.288 18.776 145.11 18.1758C145.053 17.9885 145.011 17.7972 144.983 17.6035C144.855 16.7524 144.993 15.8828 145.379 15.112C145.764 14.3412 146.379 13.7063 147.139 13.2929C147.9 12.8795 148.769 12.7075 149.631 12.8001C150.494 12.8927 151.306 13.2455 151.96 13.8108C152.047 13.8842 152.13 13.9628 152.212 14.0456Z" fill="#FF8500"/>
<path d="M152.212 14.0456C152.285 14.1199 152.355 14.1951 152.419 14.2735L147.341 18.1302L151.96 13.8108C152.047 13.8841 152.13 13.9628 152.212 14.0456Z" fill="#D6D6D6"/>
<path d="M152.62 16.6132L148.909 21.1852C148.66 21.1686 148.413 21.1304 148.17 21.0708L152.62 16.6132Z" fill="#D6D6D6"/>
<path d="M148.149 14.4319L145.11 18.1758C145.053 17.9885 145.011 17.7971 144.983 17.6035L148.149 14.4319Z" fill="#D6D6D6"/>
<path d="M72.6593 91.5989C72.6593 91.5989 81.9648 91.9837 81.9648 94.2925C81.9648 96.6012 71.4961 94.2925 71.4961 94.2925L72.6593 91.5989Z" fill="#FFB5B5"/>
<path d="M58.701 127L41.2532 125.846L40.4777 116.611L36.6005 124.691L19.5404 122.383C19.9281 107.76 26.1318 93.5229 26.5195 91.5989C26.9072 89.6749 27.8339 81.7251 27.8339 81.7251C29.5283 78.158 38.4072 77.8233 45.367 78.1465C48.2517 78.2773 50.8107 78.5236 52.3888 78.7006C53.4317 78.816 54.0482 78.9007 54.0482 78.9007C56.8282 81.7443 58.6196 85.6192 59.7207 89.9481C63.6911 105.544 58.701 127 58.701 127Z" fill="#727272"/>
<path d="M39.3146 37.7276C44.668 37.7276 49.0078 33.4207 49.0078 28.1078C49.0078 22.7949 44.668 18.4879 39.3146 18.4879C33.9611 18.4879 29.6213 22.7949 29.6213 28.1078C29.6213 33.4207 33.9611 37.7276 39.3146 37.7276Z" fill="#FFB5B5"/>
<path d="M32.7232 30.4165C32.7232 30.4165 30.0091 42.3451 25.7441 45.8083C21.4791 49.2714 42.4164 45.8083 42.4164 45.8083C42.4164 45.8083 37.7637 38.1124 41.2533 34.6492C44.7428 31.1861 32.7232 30.4165 32.7232 30.4165Z" fill="#FFB5B5"/>
<path d="M52.4974 79.6702L46.0649 80.3783L28.0705 82.3638C28.0705 82.3638 27.9852 82.1368 27.834 81.725C26.5273 78.1888 20.2345 60.9808 19.5404 55.813C18.765 50.041 26.9073 43.1147 26.9073 43.1147C26.9073 43.1147 34.6619 41.5756 36.9882 41.5756C39.3146 41.5756 48.6201 45.0387 48.6201 45.0387L52.0903 76.0185L52.3888 78.7005L52.4974 79.6702Z" fill="#D6D6D6"/>
<path opacity="0.15" d="M59.7207 89.9481L46.6814 82.3638C46.6814 82.3638 46.4526 81.6249 46.0649 80.3782C45.871 79.7548 45.6346 79.0007 45.367 78.1464C43.8626 73.3519 41.3385 65.4405 39.3146 59.6609C36.2128 50.8106 51.3342 75.4375 51.3342 75.4375L52.0902 76.0185L52.3888 78.7005C53.4318 78.8159 54.0483 78.9006 54.0483 78.9006C56.8283 81.7442 58.6196 85.6191 59.7207 89.9481Z" fill="black"/>
<path d="M42.4164 45.8082C42.4164 45.8082 38.5392 50.8106 41.641 59.6609C44.7428 68.5111 49.0078 82.3638 49.0078 82.3638L71.4961 95.4468L74.5979 91.5988L53.6606 75.4374C53.6606 75.4374 52.8851 46.193 49.0078 45.0387C45.1305 43.8843 42.4164 45.8082 42.4164 45.8082Z" fill="#D6D6D6"/>
<path d="M23.2238 79.4779C23.2238 79.4779 28.652 90.6369 30.9784 89.4825C33.3048 88.3281 25.1625 76.7843 25.1625 76.7843L23.2238 79.4779Z" fill="#FFB5B5"/>
<path d="M22.6423 48.8866L2.09265 65.8176C2.09265 65.8176 -5.66192 71.2047 8.68404 75.0526C23.03 78.9006 24.1932 81.2094 24.1932 81.2094C24.1932 81.2094 25.7441 76.207 27.6827 76.9766L11.0104 68.8959L24.5809 60.8152L22.6423 48.8866Z" fill="#D6D6D6"/>
<path d="M14.3832 36.0034C15.4617 35.4733 17.8433 34.4035 19.872 33.1147C19.7297 28.9217 20.25 25.1155 21.7729 23.0979C22.6278 21.1716 24.4228 19.2431 25.8288 17.7243C29.2814 13.9946 36.9158 11.9128 38.2699 13.7762C48.5112 13.9769 49.5894 21.9438 49.5894 21.9438C49.5361 25.2762 46.0463 25.3816 42.9893 25.2602C43.263 27.5352 42.5335 29.899 40.4209 30.9473C36.381 32.952 35.169 35.558 37.189 37.3622C39.2089 39.1664 42.8448 43.9776 37.997 45.1804C33.1491 46.3832 32.5431 48.7888 33.9571 49.7911C35.371 50.7935 30.7251 47.9869 30.7251 47.9869C30.7251 47.9869 29.9172 52.7981 25.6753 51.5953C25.2951 51.4875 24.9152 51.2113 24.5417 50.7983C23.396 52.0475 22.374 52.7862 21.6037 52.7902C17.1922 52.8134 17.7212 47.9642 17.7212 47.9642C17.7212 47.9642 12.4849 49.4237 14.1188 48.8368C15.7527 48.25 15.8227 45.7713 11.4811 43.3159C7.13956 40.8604 11.9479 37.2003 14.3832 36.0034Z" fill="#4F4F4F"/>
<path d="M68.5103 48.573L68.4399 48.5638L68.6115 49.2111C68.7737 50.1141 69.0092 51.0026 69.3157 51.8679L74.3476 70.8515C74.5082 71.4574 74.8436 72.0036 75.3125 72.423C75.7814 72.8425 76.3635 73.1169 76.9874 73.2127L87.2491 74.7882C87.9126 74.8901 88.5917 74.785 89.1924 74.4874C89.7932 74.1899 90.2861 73.7146 90.603 73.1271L100.355 55.05C100.66 54.5492 100.938 54.033 101.189 53.5037L101.52 52.8899L101.469 52.8832C102.502 50.4562 102.957 47.8251 102.798 45.195C102.639 42.5648 101.87 40.0067 100.551 37.7199C99.232 35.4332 97.3986 33.4797 95.1939 32.0117C92.9892 30.5436 90.4726 29.6007 87.8404 29.2565C85.2081 28.9123 82.5314 29.176 80.0187 30.0271C77.506 30.8782 75.2254 32.2937 73.3545 34.1633C71.4836 36.0329 70.0731 38.306 69.2328 40.8054C68.3925 43.3049 68.1453 45.9632 68.5103 48.573H68.5103Z" fill="#E5E5E5"/>
<path d="M87.8789 76.0285C87.6981 76.0285 87.5177 76.0147 87.3391 75.9873L76.6127 74.3403C75.9314 74.2359 75.2957 73.9362 74.7836 73.4782C74.2715 73.0201 73.9054 72.4236 73.7301 71.762L68.4704 51.9189C68.149 51.0105 67.9019 50.0778 67.7317 49.1299L67.5987 48.2618C67.2408 45.4886 67.5374 42.6707 68.465 40.0306C69.3926 37.3906 70.9258 35.0007 72.9437 33.0496C74.9615 31.0984 77.4087 29.6395 80.0921 28.7879C82.7755 27.9363 85.6216 27.7154 88.4058 28.1426L88.3594 28.4397C85.6055 28.0185 82.7906 28.2419 80.1392 29.092C77.4878 29.9421 75.0732 31.3954 73.0882 33.3359C71.1031 35.2765 69.6026 37.6506 68.7061 40.2688C67.8097 42.8871 67.5422 45.677 67.925 48.416L68.0273 49.0654C68.1962 50.0052 68.4412 50.93 68.7598 51.8308L74.0231 71.6855C74.1833 72.2906 74.5181 72.836 74.9864 73.2549C75.4547 73.6737 76.036 73.9478 76.659 74.0433L87.3853 75.6902C88.0479 75.7913 88.7257 75.686 89.3254 75.389C89.9252 75.0919 90.4174 74.6177 90.7344 74.0315L91.0015 74.1733C90.6984 74.7337 90.248 75.202 89.6982 75.5287C89.1484 75.8554 88.5197 76.0281 87.8789 76.0285Z" fill="#D6D6D6"/>
<path d="M90.5997 52.888L84.0731 70.5735L84.441 70.7072L90.9676 53.0217L90.5997 52.888Z" fill="#727272"/>
<path d="M79.9432 51.2516L79.5519 51.2687L80.3849 70.0848L80.7763 70.0677L79.9432 51.2516Z" fill="#727272"/>
<path d="M86.972 85.0245L73.2275 82.9143C73.1253 82.898 73.0337 82.8422 72.9728 82.7592C72.9119 82.6761 72.8866 82.5725 72.9025 82.471C72.9183 82.3695 72.974 82.2783 73.0573 82.2173C73.1406 82.1564 73.2449 82.1307 73.3473 82.1458L87.0918 84.256C87.1429 84.2636 87.192 84.281 87.2362 84.3075C87.2805 84.3339 87.319 84.3688 87.3496 84.41C87.3803 84.4513 87.4024 84.4981 87.4147 84.5479C87.427 84.5977 87.4292 84.6494 87.4213 84.7C87.4135 84.7507 87.3956 84.7993 87.3687 84.843C87.3418 84.8868 87.3064 84.9248 87.2647 84.955C87.2229 84.9851 87.1756 85.0068 87.1253 85.0187C87.0751 85.0307 87.023 85.0326 86.972 85.0245Z" fill="#E5E5E5"/>
<path d="M87.3245 82.1279L73.5799 80.0177C73.5289 80.0101 73.4798 79.9926 73.4355 79.9662C73.3913 79.9398 73.3527 79.9049 73.3221 79.8637C73.2915 79.8224 73.2694 79.7755 73.2571 79.7258C73.2448 79.676 73.2425 79.6243 73.2504 79.5736C73.2583 79.523 73.2762 79.4744 73.3031 79.4306C73.33 79.3869 73.3653 79.3488 73.4071 79.3187C73.4488 79.2885 73.4962 79.2669 73.5464 79.2549C73.5966 79.243 73.6487 79.2411 73.6997 79.2492L87.4443 81.3594C87.4954 81.367 87.5444 81.3844 87.5887 81.4109C87.6329 81.4373 87.6715 81.4722 87.7021 81.5134C87.7327 81.5547 87.7548 81.6015 87.7671 81.6513C87.7794 81.7011 87.7817 81.7528 87.7738 81.8034C87.7659 81.8541 87.748 81.9027 87.7211 81.9464C87.6942 81.9902 87.6589 82.0282 87.6171 82.0584C87.5754 82.0886 87.528 82.1102 87.4778 82.1221C87.4276 82.1341 87.3755 82.136 87.3245 82.1279Z" fill="#E5E5E5"/>
<path d="M87.6769 79.2312L73.9324 77.121C73.8302 77.1047 73.7386 77.0489 73.6777 76.9659C73.6168 76.8828 73.5915 76.7792 73.6073 76.6777C73.6232 76.5761 73.6788 76.4849 73.7622 76.424C73.8455 76.3631 73.9498 76.3374 74.0522 76.3525L87.7967 78.4627C87.8989 78.479 87.9904 78.5348 88.0513 78.6179C88.1122 78.7009 88.1375 78.8046 88.1217 78.9061C88.1059 79.0076 88.0502 79.0988 87.9669 79.1597C87.8835 79.2206 87.7793 79.2463 87.6769 79.2312H87.6769Z" fill="#E5E5E5"/>
<path d="M79.6726 86.7101C82.3989 87.1287 84.8441 85.9601 85.134 84.0999L75.2612 82.5841C74.9712 84.4443 76.9463 86.2916 79.6726 86.7101Z" fill="#E5E5E5"/>
<path d="M84.6131 49.1621C84.0267 49.0722 83.5415 48.6121 83.2755 48.3038C83.1883 48.2027 83.1034 48.0978 83.0182 47.9927C82.7084 47.61 82.416 47.2486 82.0086 47.0602C81.1095 46.6439 80.0502 47.2253 79.1329 47.8492L78.9113 47.5285C79.9198 46.8424 81.0957 46.2086 82.1743 46.7077C82.6642 46.9345 82.9995 47.3487 83.3236 47.7491C83.4061 47.8511 83.4885 47.9528 83.573 48.0509C83.8496 48.3715 84.4012 48.8909 84.9923 48.7711C85.2414 48.699 85.473 48.5773 85.6731 48.4134C85.8255 48.3005 85.9866 48.1996 86.1549 48.1117C86.4962 47.9493 86.8782 47.8907 87.253 47.9432C87.6277 47.9958 87.9784 48.1572 88.261 48.4071C88.3617 48.5018 88.4571 48.602 88.5468 48.7071C88.723 48.9064 88.8894 49.0946 89.106 49.163C89.4262 49.2646 89.7646 49.083 90.1232 48.8911C90.493 48.693 90.8753 48.4881 91.309 48.5387C91.3231 48.5404 91.3373 48.5423 91.3513 48.5444C92.123 48.6629 92.4787 49.5099 92.68 50.142L92.3064 50.259C92.0329 49.3998 91.6997 48.9725 91.2631 48.9249C90.9525 48.8886 90.6401 49.056 90.3093 49.2332C89.8947 49.4554 89.4656 49.685 88.9871 49.5335C88.6668 49.4323 88.456 49.194 88.2523 48.9635C88.172 48.8692 88.0866 48.7792 87.9966 48.694C87.7715 48.4985 87.494 48.3722 87.1978 48.3306C86.9016 48.2891 86.5996 48.3341 86.3288 48.4601C86.1788 48.5392 86.0352 48.6298 85.8993 48.7308C85.6562 48.9276 85.3739 49.0711 85.0709 49.152C84.9202 49.1825 84.7651 49.1859 84.6131 49.1621Z" fill="#727272"/>
</g>
<defs>
<clipPath id="clip0">
<rect width="153.416" height="127" fill="white"/>
</clipPath>
</defs>
</svg>
