<svg width="25" height="25" viewBox="0 0 25 25" fill="none" xmlns="http://www.w3.org/2000/svg">
<path d="M18.7492 0.00520167L15.5072 0C11.865 0 9.51127 2.41487 9.51127 6.15253V8.98926H6.25165C5.96998 8.98926 5.74188 9.21762 5.74188 9.49929V13.6094C5.74188 13.8911 5.97024 14.1191 6.25165 14.1191H9.51127V24.4902C9.51127 24.7719 9.73937 25 10.021 25H14.2739C14.5556 25 14.7837 24.7716 14.7837 24.4902V14.1191H18.5949C18.8766 14.1191 19.1047 13.8911 19.1047 13.6094L19.1063 9.49929C19.1063 9.36404 19.0524 9.23452 18.957 9.13881C18.8615 9.0431 18.7315 8.98926 18.5962 8.98926H14.7837V6.58453C14.7837 5.42872 15.0591 4.84197 16.5647 4.84197L18.7487 4.84119C19.0301 4.84119 19.2582 4.61284 19.2582 4.33143V0.514965C19.2582 0.233815 19.0303 0.00572184 18.7492 0.00520167Z" fill="#FF8500"/>
</svg>
