<?xml version="1.0" encoding="utf-8"?>
<!-- Generator: Adobe Illustrator 24.0.1, SVG Export Plug-In . SVG Version: 6.00 Build 0)  -->
<svg version="1.1" id="Camada_1" xmlns="http://www.w3.org/2000/svg" xmlns:xlink="http://www.w3.org/1999/xlink" x="0px" y="0px"
	 viewBox="0 0 103 85" style="enable-background:new 0 0 103 85;" xml:space="preserve">
<style type="text/css">
	.st0{fill:#FF8500;}
</style>
<g>
	<path class="st0" d="M15.5,49.2c0.8-2.4,1.9-4.4,3.3-6.2c1.4-1.8,3-3.2,4.9-4.2c1.9-1,3.9-1.5,6-1.5c2.5,0,4.8,0.7,7,2.2
		c2.1,1.4,3.9,3.4,5.4,5.8V30.3c-1.9-0.8-3.8-1.5-5.9-2c-2.1-0.5-4.2-0.8-6.5-0.8c-2.8,0-5.5,0.4-8.1,1.2c-2.6,0.8-5.1,1.9-7.3,3.3
		L14.1,0h-2.7C9.2,0.2,7.1,0.6,5.3,1.2C3.4,1.8,1.6,2.5,0,3.4v45.8H15.5z"/>
	<path class="st0" d="M59.3,0h-2.8c-2.2,0.2-4.2,0.6-6.1,1.2c-1.9,0.6-3.6,1.4-5.3,2.2v45.8h14.1L59.3,0L59.3,0z"/>
	<path class="st0" d="M14.1,85l0.1-28.1c0-1.2,0.1-2.3,0.2-3.4H0V85"/>
	<path class="st0" d="M59.3,85V53.4H45.2V85"/>
	<path class="st0" d="M102.3,41.4H65v7.3h37.3V41.4z"/>
	<path class="st0" d="M65,77.1v7.6h37.3v-7.4H77.9l22.9-24.5h-13L65,77.1z"/>
</g>
</svg>
