<svg width="143" height="40" viewBox="0 0 143 40" fill="none" xmlns="http://www.w3.org/2000/svg">
<g clip-path="url(#clip0)">
<path d="M7.12832 22.7368C7.50682 21.6421 8.01148 20.6737 8.66333 19.8526C9.31518 19.0316 10.0722 18.3789 10.9343 17.9158C11.7964 17.4526 12.7216 17.2211 13.6889 17.2211C14.8454 17.2211 15.8968 17.5579 16.8851 18.2105C17.8734 18.8842 18.7145 19.7684 19.3874 20.8842V13.9579C18.5252 13.5579 17.621 13.2421 16.6748 13.0105C15.7286 12.7789 14.7193 12.6526 13.6889 12.6526C12.4062 12.6526 11.1446 12.8421 9.94601 13.2C8.74744 13.5579 7.61196 14.0632 6.58161 14.7158L6.51853 0H5.2779C4.22653 0.0631579 3.28029 0.252632 2.41816 0.547368C1.55604 0.821053 0.75699 1.17895 0 1.55789V22.7368H7.12832Z" fill="url(#paint0_linear)"/>
<path d="M39.0271 22.7368C39.6999 22.3579 40.4149 22.1684 41.2139 22.1684C41.9709 22.1684 42.6858 22.3579 43.3797 22.7368C43.3797 22.7368 43.3797 22.7368 43.4008 22.7368H49.5829C49.3305 22.421 49.0572 22.1053 48.7628 21.8105C47.7955 20.8421 46.66 20.0842 45.3774 19.5158C44.0737 18.9474 42.7069 18.6737 41.256 18.6737C39.784 18.6737 38.3962 18.9474 37.1135 19.5158C35.8309 20.0842 34.6954 20.8421 33.7491 21.8105C33.4548 22.1053 33.1814 22.421 32.9291 22.7368H39.0271Z" fill="url(#paint1_linear)"/>
<path d="M68.4025 19.9368C67.8347 19.7053 67.267 19.5368 66.6572 19.4316C66.0474 19.3263 65.4376 19.2632 64.7858 19.2632C63.3138 19.2632 61.926 19.5368 60.6433 20.1053C59.3607 20.6737 58.2252 21.4316 57.2789 22.4C57.1738 22.5053 57.0687 22.6316 56.9425 22.7368H67.1408L68.4025 19.9368Z" fill="url(#paint2_linear)"/>
<path d="M73.365 16.6316C74.185 16.6316 74.8579 16.3579 75.4257 15.7895C75.9934 15.2211 76.2668 14.5474 76.2668 13.7263C76.2668 12.9053 75.9934 12.2316 75.4257 11.6842C74.8579 11.1368 74.185 10.8632 73.365 10.8632C72.5449 10.8632 71.872 11.1368 71.3253 11.6842C70.7786 12.2316 70.5052 12.9053 70.5052 13.7263C70.5052 14.5474 70.7786 15.2211 71.3253 15.7895C71.872 16.3368 72.5449 16.6316 73.365 16.6316Z" fill="url(#paint3_linear)"/>
<path d="M75.9093 19.5579C74.8789 19.5579 73.9537 19.6842 73.1126 19.9158C72.2925 20.1474 71.5145 20.4632 70.7786 20.8632V22.7368H75.9093V19.5579Z" fill="url(#paint4_linear)"/>
<path d="M96.4111 19.3474H79.1896V22.7369H96.4111V19.3474Z" fill="url(#paint5_linear)"/>
<path d="M107.177 22.7368C107.85 22.3579 108.565 22.1684 109.364 22.1684C110.121 22.1684 110.836 22.3579 111.53 22.7368C111.53 22.7368 111.53 22.7368 111.551 22.7368H117.733C117.481 22.421 117.207 22.1053 116.913 21.8105C115.946 20.8421 114.81 20.0842 113.528 19.5158C112.224 18.9474 110.857 18.6737 109.406 18.6737C107.934 18.6737 106.546 18.9474 105.264 19.5158C103.981 20.0842 102.846 20.8421 101.899 21.8105C101.605 22.1053 101.332 22.421 101.079 22.7368H107.177Z" fill="url(#paint6_linear)"/>
<path d="M130.328 22.7368C130.959 22.3579 131.653 22.1684 132.41 22.1684C133.188 22.1684 133.882 22.3579 134.513 22.7368C134.513 22.7368 134.513 22.7368 134.534 22.7368H140.464C140.232 22.421 139.98 22.1053 139.707 21.8105C138.803 20.8421 137.751 20.0842 136.511 19.5158C135.27 18.9474 133.903 18.6737 132.431 18.6737C130.959 18.6737 129.593 18.9474 128.373 19.5158C127.153 20.0842 126.081 20.8421 125.198 21.8105C124.924 22.1053 124.672 22.421 124.441 22.7368H130.328Z" fill="url(#paint7_linear)"/>
<path d="M27.3568 0H26.0741C25.0648 0.0631579 24.1395 0.252632 23.2774 0.547368C22.4153 0.842105 21.6162 1.17895 20.8593 1.57895V22.7368H27.3778V0H27.3568Z" fill="url(#paint8_linear)"/>
<path d="M6.51853 39.2842L6.58161 26.2737C6.58161 25.7263 6.62366 25.2 6.68675 24.6737H0V39.2842" fill="url(#paint9_linear)"/>
<path d="M27.3568 39.2842V24.6737H20.8383V39.2842" fill="url(#paint10_linear)"/>
<path d="M46.3446 26.5684C46.639 27.4316 46.7862 28.3579 46.7862 29.3474C46.7862 30.3368 46.639 31.2631 46.3446 32.1474C46.0502 33.0316 45.6507 33.7895 45.146 34.4421C44.6414 35.0947 44.0526 35.6 43.3587 35.9789C42.6648 36.3579 41.9499 36.5474 41.1929 36.5474C40.4148 36.5474 39.6789 36.3579 39.006 35.9789C38.3331 35.6 37.7444 35.0947 37.2397 34.4421C36.735 33.7895 36.3355 33.0316 36.0411 32.1474C35.7467 31.2631 35.5996 30.3368 35.5996 29.3474C35.5996 28.3789 35.7467 27.4526 36.0411 26.5684C36.2724 25.8737 36.5878 25.2421 36.9663 24.6737H31.6254C31.5412 24.8421 31.4571 25.0316 31.373 25.2C30.8053 26.5053 30.5319 27.8737 30.5319 29.3263C30.5319 30.8 30.8053 32.1895 31.373 33.4737C31.9408 34.7579 32.6978 35.8947 33.665 36.8421C34.6323 37.8105 35.7467 38.5684 37.0294 39.1368C38.3121 39.7053 39.6999 39.9789 41.1718 39.9789C42.6227 39.9789 44.0106 39.7053 45.2932 39.1368C46.5969 38.5684 47.7324 37.8105 48.6787 36.8421C49.6459 35.8737 50.4029 34.7579 50.9707 33.4737C51.5384 32.1895 51.8118 30.8 51.8118 29.3263C51.8118 27.8737 51.5384 26.4842 50.9707 25.2C50.8865 25.0105 50.8024 24.8421 50.7183 24.6737H45.4194C45.7979 25.2421 46.1133 25.8737 46.3446 26.5684Z" fill="url(#paint11_linear)"/>
<path d="M59.2766 39.2842V29.9368C59.2766 28.9684 59.4237 28.0421 59.7181 27.1579C60.0125 26.2947 60.412 25.5368 60.9167 24.8842C60.9798 24.8 61.0429 24.7368 61.1059 24.6737H55.5757C55.3654 25.0316 55.1762 25.4105 55.008 25.7895C54.4402 27.0947 54.1669 28.4632 54.1669 29.9158V39.2632" fill="url(#paint12_linear)"/>
<path d="M75.9093 39.2842V24.6737H70.7996V39.2842" fill="url(#paint13_linear)"/>
<path d="M79.1896 35.8526V39.3684H96.4111V35.9789H85.1404L95.7172 24.6737H89.7034L79.1896 35.8526Z" fill="url(#paint14_linear)"/>
<path d="M114.495 26.5684C114.789 27.4316 114.936 28.3579 114.936 29.3474C114.936 30.3368 114.789 31.2631 114.495 32.1474C114.2 33.0316 113.801 33.7895 113.296 34.4421C112.792 35.0947 112.203 35.6 111.509 35.9789C110.815 36.3579 110.1 36.5474 109.343 36.5474C108.565 36.5474 107.829 36.3579 107.156 35.9789C106.483 35.6 105.895 35.0947 105.39 34.4421C104.885 33.7895 104.486 33.0316 104.191 32.1474C103.897 31.2631 103.75 30.3368 103.75 29.3474C103.75 28.3789 103.897 27.4526 104.191 26.5684C104.423 25.8737 104.738 25.2421 105.116 24.6737H99.7755C99.6914 24.8421 99.6073 25.0316 99.5232 25.2C98.9554 26.5053 98.6821 27.8737 98.6821 29.3263C98.6821 30.8 98.9554 32.1895 99.5232 33.4737C100.091 34.7579 100.848 35.8947 101.815 36.8421C102.782 37.8105 103.897 38.5684 105.18 39.1368C106.462 39.7053 107.85 39.9789 109.322 39.9789C110.773 39.9789 112.161 39.7053 113.443 39.1368C114.747 38.5684 115.883 37.8105 116.829 36.8421C117.796 35.8737 118.553 34.7579 119.121 33.4737C119.689 32.1895 119.962 30.8 119.962 29.3263C119.962 27.8737 119.689 26.4842 119.121 25.2C119.037 25.0105 118.953 24.8421 118.868 24.6737H113.527C113.948 25.2421 114.263 25.8737 114.495 26.5684Z" fill="url(#paint15_linear)"/>
<path d="M142.545 39.2842V29.3474C142.545 27.8947 142.293 26.5053 141.788 25.221C141.725 25.0316 141.641 24.8632 141.557 24.6947H136.3C136.616 25.2632 136.868 25.8947 137.078 26.5895C137.31 27.4526 137.436 28.3789 137.436 29.3684V39.3053" fill="url(#paint16_linear)"/>
<path d="M127.385 39.2842V29.3474C127.385 28.3789 127.511 27.4526 127.742 26.5684C127.931 25.8737 128.184 25.2421 128.52 24.6737H123.305C123.221 24.8421 123.158 25.0316 123.074 25.2C122.569 26.5053 122.317 27.8737 122.317 29.3263V39.2632" fill="url(#paint17_linear)"/>
</g>
<defs>
<linearGradient id="paint0_linear" x1="9.69559" y1="30.4214" x2="9.69559" y2="-5.19156" gradientUnits="userSpaceOnUse">
<stop stop-color="#FF8500"/>
<stop offset="1" stop-color="#F7A530"/>
</linearGradient>
<linearGradient id="paint1_linear" x1="41.2107" y1="30.4214" x2="41.2107" y2="-5.19154" gradientUnits="userSpaceOnUse">
<stop stop-color="#FF8500"/>
<stop offset="1" stop-color="#F7A530"/>
</linearGradient>
<linearGradient id="paint2_linear" x1="62.6838" y1="30.4214" x2="62.6838" y2="-5.19158" gradientUnits="userSpaceOnUse">
<stop stop-color="#FF8500"/>
<stop offset="1" stop-color="#F7A530"/>
</linearGradient>
<linearGradient id="paint3_linear" x1="73.3771" y1="30.4214" x2="73.3771" y2="-5.19155" gradientUnits="userSpaceOnUse">
<stop stop-color="#FF8500"/>
<stop offset="1" stop-color="#F7A530"/>
</linearGradient>
<linearGradient id="paint4_linear" x1="73.3562" y1="30.4214" x2="73.3562" y2="-5.19153" gradientUnits="userSpaceOnUse">
<stop stop-color="#FF8500"/>
<stop offset="1" stop-color="#F7A530"/>
</linearGradient>
<linearGradient id="paint5_linear" x1="87.7944" y1="30.4214" x2="87.7944" y2="-5.19154" gradientUnits="userSpaceOnUse">
<stop stop-color="#FF8500"/>
<stop offset="1" stop-color="#F7A530"/>
</linearGradient>
<linearGradient id="paint6_linear" x1="109.357" y1="30.4214" x2="109.357" y2="-5.19154" gradientUnits="userSpaceOnUse">
<stop stop-color="#FF8500"/>
<stop offset="1" stop-color="#F7A530"/>
</linearGradient>
<linearGradient id="paint7_linear" x1="132.429" y1="30.4214" x2="132.429" y2="-5.19154" gradientUnits="userSpaceOnUse">
<stop stop-color="#FF8500"/>
<stop offset="1" stop-color="#F7A530"/>
</linearGradient>
<linearGradient id="paint8_linear" x1="24.1042" y1="30.4214" x2="24.1042" y2="-5.19156" gradientUnits="userSpaceOnUse">
<stop stop-color="#FF8500"/>
<stop offset="1" stop-color="#F7A530"/>
</linearGradient>
<linearGradient id="paint9_linear" x1="3.34117" y1="18.2728" x2="3.34117" y2="60.5991" gradientUnits="userSpaceOnUse">
<stop offset="0.00487805" stop-color="#808080"/>
<stop offset="1" stop-color="#999999"/>
</linearGradient>
<linearGradient id="paint10_linear" x1="24.1042" y1="18.2728" x2="24.1042" y2="60.5991" gradientUnits="userSpaceOnUse">
<stop offset="0.00487805" stop-color="#808080"/>
<stop offset="1" stop-color="#999999"/>
</linearGradient>
<linearGradient id="paint11_linear" x1="41.2107" y1="18.2832" x2="41.2107" y2="60.5403" gradientUnits="userSpaceOnUse">
<stop offset="0.00487805" stop-color="#808080"/>
<stop offset="1" stop-color="#999999"/>
</linearGradient>
<linearGradient id="paint12_linear" x1="57.6259" y1="18.2832" x2="57.6259" y2="60.5403" gradientUnits="userSpaceOnUse">
<stop offset="0.00487805" stop-color="#808080"/>
<stop offset="1" stop-color="#999999"/>
</linearGradient>
<linearGradient id="paint13_linear" x1="73.3562" y1="18.2832" x2="73.3562" y2="60.5403" gradientUnits="userSpaceOnUse">
<stop offset="0.00487805" stop-color="#808080"/>
<stop offset="1" stop-color="#999999"/>
</linearGradient>
<linearGradient id="paint14_linear" x1="87.7944" y1="18.2832" x2="87.7944" y2="60.5403" gradientUnits="userSpaceOnUse">
<stop offset="0.00487805" stop-color="#808080"/>
<stop offset="1" stop-color="#999999"/>
</linearGradient>
<linearGradient id="paint15_linear" x1="109.357" y1="18.2832" x2="109.357" y2="60.5403" gradientUnits="userSpaceOnUse">
<stop offset="0.00487805" stop-color="#808080"/>
<stop offset="1" stop-color="#999999"/>
</linearGradient>
<linearGradient id="paint16_linear" x1="139.431" y1="18.3198" x2="139.431" y2="60.3352" gradientUnits="userSpaceOnUse">
<stop offset="0.00487805" stop-color="#808080"/>
<stop offset="1" stop-color="#999999"/>
</linearGradient>
<linearGradient id="paint17_linear" x1="125.407" y1="18.3198" x2="125.407" y2="60.3352" gradientUnits="userSpaceOnUse">
<stop offset="0.00487805" stop-color="#808080"/>
<stop offset="1" stop-color="#999999"/>
</linearGradient>
<clipPath id="clip0">
<rect width="142.545" height="40" fill="white"/>
</clipPath>
</defs>
</svg>
