<?xml version="1.0" encoding="utf-8"?>
<!-- Generator: Adobe Illustrator 24.0.1, SVG Export Plug-In . SVG Version: 6.00 Build 0)  -->
<svg version="1.1" id="Camada_1" xmlns="http://www.w3.org/2000/svg" xmlns:xlink="http://www.w3.org/1999/xlink" x="0px" y="0px"
	 viewBox="0 0 78.2 64.8" style="enable-background:new 0 0 78.2 64.8;" xml:space="preserve">
<style type="text/css">
	.st0{fill:#FFFFFF;}
</style>
<g>
	<path class="st0" d="M11.9,37.6c0.6-1.8,1.5-3.4,2.5-4.7c1.1-1.4,2.3-2.4,3.7-3.2c1.5-0.8,3-1.1,4.6-1.1c1.9,0,3.7,0.5,5.4,1.7
		c1.6,1.1,3,2.6,4.1,4.4V23.2c-1.5-0.6-2.9-1.1-4.5-1.5c-1.6-0.4-3.2-0.6-5-0.6c-2.1,0-4.2,0.3-6.2,0.9c-2,0.6-3.9,1.5-5.6,2.5
		L10.8,0H8.7C7,0.2,5.4,0.5,4.1,0.9C2.6,1.4,1.2,1.9,0,2.6v35H11.9z"/>
	<path class="st0" d="M45.3,0h-2.1c-1.7,0.2-3.2,0.5-4.7,0.9S35.8,2,34.5,2.6v35h10.8L45.3,0L45.3,0z"/>
	<path class="st0" d="M10.8,65l0.1-21.5c0-0.9,0.1-1.8,0.2-2.6H0V65"/>
	<path class="st0" d="M45.3,65V40.8H34.6V65"/>
	<path class="st0" d="M78.2,31.7H49.7v5.6h28.5V31.7z"/>
	<path class="st0" d="M49.7,59v5.8h28.5v-5.7H59.6l17.5-18.7h-9.9L49.7,59z"/>
</g>
</svg>
